<?xml version="1.0" encoding="UTF-8" standalone="no"?>
<!-- Created with Inkscape (http://www.inkscape.org/) -->

<svg
   width="384.41467mm"
   height="163.68274mm"
   viewBox="0 0 384.41468 163.68275"
   version="1.1"
   id="svg1"
   inkscape:version="1.4-beta3 (01c8a1c, 2024-08-28)"
   sodipodi:docname="pinza-simple-diseno-08-superposicion-art.svg"
   xmlns:inkscape="http://www.inkscape.org/namespaces/inkscape"
   xmlns:sodipodi="http://sodipodi.sourceforge.net/DTD/sodipodi-0.dtd"
   xmlns="http://www.w3.org/2000/svg"
   xmlns:svg="http://www.w3.org/2000/svg">
  <sodipodi:namedview
     id="namedview1"
     pagecolor="#ffffff"
     bordercolor="#000000"
     borderopacity="0.25"
     inkscape:showpageshadow="2"
     inkscape:pageopacity="0.0"
     inkscape:pagecheckerboard="0"
     inkscape:deskcolor="#d1d1d1"
     inkscape:document-units="mm"
     inkscape:zoom="0.47937535"
     inkscape:cx="454.75847"
     inkscape:cy="293.08975"
     inkscape:window-width="1866"
     inkscape:window-height="1011"
     inkscape:window-x="0"
     inkscape:window-y="0"
     inkscape:window-maximized="1"
     inkscape:current-layer="layer11"
     showguides="false"
     showgrid="false" />
  <defs
     id="defs1">
    <marker
       style="overflow:visible"
       id="Triangle"
       refX="0"
       refY="0"
       orient="auto-start-reverse"
       inkscape:stockid="Triangle arrow"
       markerWidth="1"
       markerHeight="1"
       viewBox="0 0 1 1"
       inkscape:isstock="true"
       inkscape:collect="always"
       preserveAspectRatio="xMidYMid">
      <path
         transform="scale(0.5)"
         style="fill:context-stroke;fill-rule:evenodd;stroke:context-stroke;stroke-width:1pt"
         d="M 5.77,0 -2.88,5 V -5 Z"
         id="path135" />
    </marker>
  </defs>
  <g
     inkscape:groupmode="layer"
     id="layer12"
     inkscape:label="Back"
     transform="translate(71.636093,-146.64517)">
    <rect
       style="opacity:1;fill:#ffffff;stroke-width:0.529167;stroke-linejoin:round"
       id="rect1"
       width="384.41467"
       height="163.68274"
       x="-71.636093"
       y="146.64517" />
  </g>
  <g
     inkscape:groupmode="layer"
     id="layer4"
     inkscape:label="Pinza-cerrada"
     style="display:inline;opacity:0.51853729"
     transform="translate(62.279122,-197.0285)">
    <g
       id="g2">
      <path
         style="display:inline;fill:#ffccaa;fill-opacity:1;stroke:#000000;stroke-width:0.529167;stroke-linejoin:round;stroke-dasharray:none"
         d="m 114.66231,250.24607 v 0 l -5.85414,-6.34199 -12.488831,-14.24507 -9.17148,-7.80552 -4.3906,-2.14652 c 0,0 -6.43956,-1.65867 -10.04961,-2.24408 -3.61005,-0.58542 -8.1958,-0.48785 -8.1958,-0.48785 l -8.00065,0.68298 -5.26873,0.58542 -7.61038,0.48784 -2.24409,-0.19513 -3.31734,-0.29271 -4.78088,0.19514 -6.33929,-0.42483 -9.65883,0.96589 -8.0038527,0.23949 -13.269381,0.48785 -1.5611,0.87812 -1.75625,0.87812 -4.4881703,4.0979 -0.48785,1.65867 -2.73193,3.80519 -6.63469,8.09822 -10.0496,13.56209 -2.34166,4.97602 -0.97569,3.61005 -1.46353,9.36662 -0.68299,7.61038 -0.29271,5.07359 -1.5611,9.17149 c 0,0 0.292709,3.61005 2.731933,4.87845 2.439225,1.26839 5.378132,0.15962 5.378132,0.15962 0,0 6.663268,-1.64683 10.956303,-5.93987 4.293036,-4.29303 4.838036,-9.44051 5.130743,-9.83079 0.292707,-0.39028 1.95138,-3.41492 2.8295,-5.56143 0.878121,-2.14652 1.561104,-9.36663 1.561104,-9.36663 0,0 1.8538113,0.58542 3.8051913,-0.87812 1.95138,-1.46353 9.854468,-11.22043 9.854468,-11.22043 l 1.561103,-3.02464 1.463535,-0.48784 c 0,0 0.780552,2.04894 3.9027597,2.73193 3.122207,0.68298 24.197112,-1.36597 24.197112,-1.36597 0,0 1.26839,9.26906 4.87845,13.46452 3.61005,4.19547 11.61071,10.24475 11.61071,10.24475 l -0.29271,9.65933 -4.97602,5.75657 -6.04928,5.26872 c 0,0 -6.63469,-1.5611 -16.48916,-2.53679 -9.854464,-0.97569 -15.2779127,-1.90607 -15.2779127,-1.90607 0,0 -3.35776,-1.80155 -12.626813,-1.50885 -9.2690543,0.29271 -16.4891593,2.63437 -16.4891593,2.63437 0,0 -1.098479,0.0351 -5.911295,2.61068 -4.838034,2.58905 -15.311811,6.99794 -14.982337,15.6841 0.368633,9.71851 9.311499,10.36395 9.311499,10.36395 l 9.556858,0.33312 9.256027,1.42803 10.7889023,2.39881 4.668602,0.60909 7.041708,1.54436 10.5117407,4.01014 3.87503,1.6448 91.778391,-0.64752 z"
         id="path1"
         sodipodi:nodetypes="ccccccccccccccccccccccccsccccccscssscscccscsccccscscsscccccccccc"
         inkscape:label="path1" />
      <path
         style="display:inline;opacity:0.993447;fill:#ffe6d5;fill-opacity:0.996078;stroke:#000000;stroke-width:0.529167;stroke-linecap:butt;stroke-linejoin:miter;stroke-dasharray:none;stroke-opacity:1"
         d="m -38.608617,315.22961 c -0.54222,-4.00911 1.30613,-9.46562 4.71003,-11.18785 3.40391,-1.72224 10.16916,-0.31342 11.80477,0.49247 1.6356,0.80587 5.46402,10.52637 5.47286,13.50754 0.009,2.98116 -1.39808,3.70557 -1.39808,3.70557 0,0 -14.22906,0.21117 -17.27061,-2.30393 -3.04155,-2.51513 -3.07944,-2.4428 -3.31897,-4.2138 z"
         id="path4586"
         sodipodi:nodetypes="assscsa"
         inkscape:export-filename="/home/obijuan/Develop/myTeachingURJC/Mecatronica/wiki/S03/pinza-simple-03.png"
         inkscape:export-xdpi="90"
         inkscape:export-ydpi="90"
         inkscape:label="path4586" />
      <path
         style="display:inline;fill:none;stroke:#000000;stroke-width:0.529167;stroke-linejoin:round;stroke-dasharray:none"
         d="m -10.164654,267.12352 c 0,0 -2.621684,-0.68991 -6.209252,-3.44958 -3.58757,-2.75967 -7.175137,-5.93329 -7.175137,-5.93329"
         id="path3" />
      <path
         style="display:inline;fill:none;stroke:#000000;stroke-width:0.529167;stroke-linejoin:round;stroke-dasharray:none"
         d="m 6.1173843,251.66939 c 0,0 -0.8279,-0.96589 -3.72555,-6.20926 -2.89765099,-5.24336 -4.829419,-9.24488 -4.829419,-9.24488"
         id="path4"
         inkscape:label="path4" />
      <path
         style="display:inline;fill:none;stroke:#000000;stroke-width:0.529167;stroke-linejoin:round;stroke-dasharray:none"
         d="m 34.541969,253.04922 c 0,0 -0.13799,-2.62168 0.41395,-5.65732 0.55193,-3.03563 2.89765,-6.34723 2.89765,-6.34723"
         id="path5" />
    </g>
    <g
       id="g13"
       transform="translate(190.34037)">
      <path
         style="display:inline;fill:#ffccaa;fill-opacity:1;stroke:#000000;stroke-width:0.529167;stroke-linejoin:round;stroke-dasharray:none"
         d="m 114.66231,250.24607 v 0 l -5.85414,-6.34199 -12.488831,-14.24507 -9.17148,-7.80552 -4.3906,-2.14652 c 0,0 -6.43956,-1.65867 -10.04961,-2.24408 -3.61005,-0.58542 -8.1958,-0.48785 -8.1958,-0.48785 l -8.00065,0.68298 -5.26873,0.58542 -7.61038,0.48784 -2.24409,-0.19513 -3.31734,-0.29271 -4.78088,0.19514 -6.33929,-0.42483 -9.65883,0.96589 -8.0038527,0.23949 -13.269381,0.48785 -1.5611,0.87812 -1.75625,0.87812 -4.4881703,4.0979 -0.48785,1.65867 -2.73193,3.80519 -6.63469,8.09822 -10.0496,13.56209 -2.34166,4.97602 -0.97569,3.61005 -1.46353,9.36662 -0.68299,7.61038 -0.29271,5.07359 -1.5611,9.17149 c 0,0 0.292709,3.61005 2.731933,4.87845 2.439225,1.26839 5.378132,0.15962 5.378132,0.15962 0,0 6.663268,-1.64683 10.956303,-5.93987 4.293036,-4.29303 4.838036,-9.44051 5.130743,-9.83079 0.292707,-0.39028 1.95138,-3.41492 2.8295,-5.56143 0.878121,-2.14652 1.561104,-9.36663 1.561104,-9.36663 0,0 1.8538113,0.58542 3.8051913,-0.87812 1.95138,-1.46353 9.854468,-11.22043 9.854468,-11.22043 l 1.561103,-3.02464 1.463535,-0.48784 c 0,0 0.780552,2.04894 3.9027597,2.73193 3.122207,0.68298 24.197112,-1.36597 24.197112,-1.36597 0,0 1.26839,9.26906 4.87845,13.46452 3.61005,4.19547 11.61071,10.24475 11.61071,10.24475 l -0.29271,9.65933 -4.97602,5.75657 -6.04928,5.26872 c 0,0 -6.63469,-1.5611 -16.48916,-2.53679 -9.854464,-0.97569 -15.2779127,-1.90607 -15.2779127,-1.90607 0,0 -3.35776,-1.80155 -12.626813,-1.50885 -9.2690543,0.29271 -16.4891593,2.63437 -16.4891593,2.63437 0,0 -1.098479,0.0351 -5.911295,2.61068 -4.838034,2.58905 -15.311811,6.99794 -14.982337,15.6841 0.368633,9.71851 9.311499,10.36395 9.311499,10.36395 l 9.556858,0.33312 9.256027,1.42803 10.7889023,2.39881 4.668602,0.60909 7.041708,1.54436 10.5117407,4.01014 3.87503,1.6448 91.778391,-0.64752 z"
         id="path9"
         sodipodi:nodetypes="ccccccccccccccccccccccccsccccccscssscscccscsccccscscsscccccccccc"
         inkscape:label="path1" />
      <path
         style="display:inline;opacity:0.993447;fill:#ffe6d5;fill-opacity:0.996078;stroke:#000000;stroke-width:0.529167;stroke-linecap:butt;stroke-linejoin:miter;stroke-dasharray:none;stroke-opacity:1"
         d="m -38.608617,315.22961 c -0.54222,-4.00911 1.30613,-9.46562 4.71003,-11.18785 3.40391,-1.72224 10.16916,-0.31342 11.80477,0.49247 1.6356,0.80587 5.46402,10.52637 5.47286,13.50754 0.009,2.98116 -1.39808,3.70557 -1.39808,3.70557 0,0 -14.22906,0.21117 -17.27061,-2.30393 -3.04155,-2.51513 -3.07944,-2.4428 -3.31897,-4.2138 z"
         id="path10"
         sodipodi:nodetypes="assscsa"
         inkscape:export-filename="/home/obijuan/Develop/myTeachingURJC/Mecatronica/wiki/S03/pinza-simple-03.png"
         inkscape:export-xdpi="90"
         inkscape:export-ydpi="90"
         inkscape:label="path4586" />
      <path
         style="display:inline;fill:none;stroke:#000000;stroke-width:0.529167;stroke-linejoin:round;stroke-dasharray:none"
         d="m -10.164654,267.12352 c 0,0 -2.621684,-0.68991 -6.209252,-3.44958 -3.58757,-2.75967 -7.175137,-5.93329 -7.175137,-5.93329"
         id="path11" />
      <path
         style="display:inline;fill:none;stroke:#000000;stroke-width:0.529167;stroke-linejoin:round;stroke-dasharray:none"
         d="m 6.1173843,251.66939 c 0,0 -0.8279,-0.96589 -3.72555,-6.20926 -2.89765099,-5.24336 -4.829419,-9.24488 -4.829419,-9.24488"
         id="path12"
         inkscape:label="path4" />
      <path
         style="display:inline;fill:none;stroke:#000000;stroke-width:0.529167;stroke-linejoin:round;stroke-dasharray:none"
         d="m 34.541969,253.04922 c 0,0 -0.13799,-2.62168 0.41395,-5.65732 0.55193,-3.03563 2.89765,-6.34723 2.89765,-6.34723"
         id="path13" />
    </g>
    <path
       style="opacity:0.518537;fill:#ffffff;stroke-width:0.529167;stroke-linejoin:round"
       d="m 157.66639,254.15362 22.62928,13.52237"
       id="path19" />
  </g>
  <g
     inkscape:groupmode="layer"
     id="layer9"
     inkscape:label="Pinza-abierta"
     style="display:inline;opacity:1"
     transform="translate(71.636093,-146.64517)">
    <g
       id="g1"
       transform="translate(-190.34037,-5.37897)">
      <path
         style="opacity:1;fill:#ffccaa;fill-opacity:1;stroke:#000000;stroke-width:0.529167;stroke-linejoin:round"
         d="m 203.0049,288.54845 -7.12254,-2.92707 -6.82983,-2.63437 -6.63469,-1.36596 -6.04927,-0.78055 -10.43989,-2.63437 -10.43988,-1.36596 -8.4885,-0.19514 c 0,0 -8.4885,-0.97569 -8.58607,-9.7569 -0.0976,-8.78121 6.53712,-11.61071 6.53712,-11.61071 0,0 10.51784,-7.07231 19.88446,-8.82856 9.36663,-1.75624 17.54162,-0.99936 17.54162,-0.99936 l 9.42497,2.01546 13.99159,1.40639 14.53474,2.23663 3.24261,-2.89764 4.00152,-3.58758 3.86353,-4.34647 0.27597,-6.89917 -0.68992,-2.55269 c 0,0 -6.41623,-3.51858 -11.72859,-10.69372 -5.31236,-7.17513 -5.58832,-16.69598 -5.58832,-16.69598 0,0 -8.00304,-1.03488 -16.21305,-3.17362 -8.21002,-2.13874 -12.00456,-6.07127 -12.00456,-6.07127 l -4.48446,3.44958 -7.93404,6.62321 c 0,0 -1.93177,1.5868 -3.51858,1.93176 -1.58681,0.34496 -3.58757,0.34496 -3.58757,0.34496 0,0 0,2.13874 -1.31084,5.38135 -1.31084,3.24261 -5.38135,7.79607 -5.38135,7.79607 l -4.2085,6.41622 -4.48446,4.20849 -4.69143,2.62169 c 0,0 -3.3116,2.00076 -7.10615,0.62092 -3.79454,-1.37983 -4.9674,-4.41546 -4.9674,-4.41546 l -0.48294,-2.62169 2.75967,-8.55497 2.62168,-9.38287 4.34648,-12.4185 c 0,0 1.24185,-2.00076 1.79378,-3.24261 0.55194,-1.24185 5.17438,-6.41623 5.17438,-6.41623 l 8.76195,-8.279 10.41774,-8.83094 4.55345,-4.55345 c 0,0 1.93177,-1.79379 5.17438,-2.55269 3.24261,-0.75891 9.1069,-0.34496 9.1069,-0.34496 l 12.07355,1.93177 8.41699,0.8279 9.45186,1.79378 4.76043,0.55193 5.38135,1.44883 6.76119,1.24185 8.00303,0.27597 c 0,0 8.00304,0.62092 11.38363,1.31084 3.38059,0.68991 4.89841,1.93176 4.89841,1.93176 0,0 4.82942,0.48295 8.00304,2.27673 3.17362,1.79379 6.6232,4.82942 6.6232,4.82942 l 21.5944,22.76726 0.13798,85.48071 z"
         id="path2"
         sodipodi:nodetypes="ccccccccscscccccccccscscccscsccccscccccsccccsccccccccscscccc" />
      <path
         style="display:inline;opacity:0.993447;fill:#ffe6d5;fill-opacity:0.996078;stroke:#000000;stroke-width:0.529167;stroke-linecap:butt;stroke-linejoin:miter;stroke-dasharray:none;stroke-opacity:1"
         d="m 141.60023,269.64316 c -0.54222,-4.00911 1.30613,-9.46562 4.71003,-11.18785 3.40391,-1.72224 10.16916,-0.31342 11.80477,0.49247 1.6356,0.80587 5.46402,10.52637 5.47286,13.50754 0.009,2.98116 -1.39808,3.70557 -1.39808,3.70557 0,0 -14.22906,0.21117 -17.27061,-2.30393 -3.04155,-2.51513 -3.07944,-2.4428 -3.31897,-4.2138 z"
         id="path4586-1"
         sodipodi:nodetypes="assscsa"
         inkscape:export-filename="/home/obijuan/Develop/myTeachingURJC/Mecatronica/wiki/S03/pinza-simple-03.png"
         inkscape:export-xdpi="90"
         inkscape:export-ydpi="90"
         inkscape:label="path4586" />
      <path
         style="opacity:0.401996;fill:#ffccaa;fill-opacity:1;stroke:#000000;stroke-width:0.529167;stroke-linejoin:round"
         d="m 165.73355,206.29779 c 0,0 -0.68299,-1.17083 -4.58575,-5.659 -3.90275,-4.48817 -7.12253,-7.90309 -7.12253,-7.90309"
         id="path6" />
      <path
         style="opacity:0.401996;fill:#ffccaa;fill-opacity:1;stroke:#000000;stroke-width:0.529167;stroke-linejoin:round"
         d="m 185.54005,194.39437 c 0,0 -1.07326,-1.95138 -2.8295,-6.34198 -1.75624,-4.3906 -3.41491,-12.5864 -3.41491,-12.5864"
         id="path7" />
      <path
         style="opacity:0.401996;fill:#ffccaa;fill-opacity:1;stroke:#000000;stroke-width:0.529167;stroke-linejoin:round"
         d="m 213.34722,203.56586 c 0,0 0.39027,-2.92707 1.36596,-8.00066 0.97569,-5.07358 4.48818,-8.00065 4.48818,-8.00065"
         id="path8" />
    </g>
    <g
       id="g18"
       transform="translate(2.4293577e-7,-5.37897)"
       style="opacity:0.5464476">
      <path
         style="opacity:1;fill:#ffccaa;fill-opacity:1;stroke:#000000;stroke-width:0.529167;stroke-linejoin:round"
         d="m 203.0049,288.54845 -7.12254,-2.92707 -6.82983,-2.63437 -6.63469,-1.36596 -6.04927,-0.78055 -10.43989,-2.63437 -10.43988,-1.36596 -8.4885,-0.19514 c 0,0 -8.4885,-0.97569 -8.58607,-9.7569 -0.0976,-8.78121 6.53712,-11.61071 6.53712,-11.61071 0,0 10.51784,-7.07231 19.88446,-8.82856 9.36663,-1.75624 17.54162,-0.99936 17.54162,-0.99936 l 9.42497,2.01546 13.99159,1.40639 14.53474,2.23663 3.24261,-2.89764 4.00152,-3.58758 3.86353,-4.34647 0.27597,-6.89917 -0.68992,-2.55269 c 0,0 -6.41623,-3.51858 -11.72859,-10.69372 -5.31236,-7.17513 -5.58832,-16.69598 -5.58832,-16.69598 0,0 -8.00304,-1.03488 -16.21305,-3.17362 -8.21002,-2.13874 -12.00456,-6.07127 -12.00456,-6.07127 l -4.48446,3.44958 -7.93404,6.62321 c 0,0 -1.93177,1.5868 -3.51858,1.93176 -1.58681,0.34496 -3.58757,0.34496 -3.58757,0.34496 0,0 0,2.13874 -1.31084,5.38135 -1.31084,3.24261 -5.38135,7.79607 -5.38135,7.79607 l -4.2085,6.41622 -4.48446,4.20849 -4.69143,2.62169 c 0,0 -3.3116,2.00076 -7.10615,0.62092 -3.79454,-1.37983 -4.9674,-4.41546 -4.9674,-4.41546 l -0.48294,-2.62169 2.75967,-8.55497 2.62168,-9.38287 4.34648,-12.4185 c 0,0 1.24185,-2.00076 1.79378,-3.24261 0.55194,-1.24185 5.17438,-6.41623 5.17438,-6.41623 l 8.76195,-8.279 10.41774,-8.83094 4.55345,-4.55345 c 0,0 1.93177,-1.79379 5.17438,-2.55269 3.24261,-0.75891 9.1069,-0.34496 9.1069,-0.34496 l 12.07355,1.93177 8.41699,0.8279 9.45186,1.79378 4.76043,0.55193 5.38135,1.44883 6.76119,1.24185 8.00303,0.27597 c 0,0 8.00304,0.62092 11.38363,1.31084 3.38059,0.68991 4.89841,1.93176 4.89841,1.93176 0,0 4.82942,0.48295 8.00304,2.27673 3.17362,1.79379 6.6232,4.82942 6.6232,4.82942 l 21.5944,22.76726 0.13798,85.48071 z"
         id="path14"
         sodipodi:nodetypes="ccccccccscscccccccccscscccscsccccscccccsccccsccccccccscscccc" />
      <path
         style="display:inline;opacity:0.993447;fill:#ffe6d5;fill-opacity:0.996078;stroke:#000000;stroke-width:0.529167;stroke-linecap:butt;stroke-linejoin:miter;stroke-dasharray:none;stroke-opacity:1"
         d="m 141.60023,269.64316 c -0.54222,-4.00911 1.30613,-9.46562 4.71003,-11.18785 3.40391,-1.72224 10.16916,-0.31342 11.80477,0.49247 1.6356,0.80587 5.46402,10.52637 5.47286,13.50754 0.009,2.98116 -1.39808,3.70557 -1.39808,3.70557 0,0 -14.22906,0.21117 -17.27061,-2.30393 -3.04155,-2.51513 -3.07944,-2.4428 -3.31897,-4.2138 z"
         id="path15"
         sodipodi:nodetypes="assscsa"
         inkscape:export-filename="/home/obijuan/Develop/myTeachingURJC/Mecatronica/wiki/S03/pinza-simple-03.png"
         inkscape:export-xdpi="90"
         inkscape:export-ydpi="90"
         inkscape:label="path4586" />
      <path
         style="opacity:0.401996;fill:#ffccaa;fill-opacity:1;stroke:#000000;stroke-width:0.529167;stroke-linejoin:round"
         d="m 165.73355,206.29779 c 0,0 -0.68299,-1.17083 -4.58575,-5.659 -3.90275,-4.48817 -7.12253,-7.90309 -7.12253,-7.90309"
         id="path16" />
      <path
         style="opacity:0.401996;fill:#ffccaa;fill-opacity:1;stroke:#000000;stroke-width:0.529167;stroke-linejoin:round"
         d="m 185.54005,194.39437 c 0,0 -1.07326,-1.95138 -2.8295,-6.34198 -1.75624,-4.3906 -3.41491,-12.5864 -3.41491,-12.5864"
         id="path17" />
      <path
         style="opacity:0.401996;fill:#ffccaa;fill-opacity:1;stroke:#000000;stroke-width:0.529167;stroke-linejoin:round"
         d="m 213.34722,203.56586 c 0,0 0.39027,-2.92707 1.36596,-8.00066 0.97569,-5.07358 4.48818,-8.00065 4.48818,-8.00065"
         id="path18" />
    </g>
  </g>
  <g
     inkscape:groupmode="layer"
     id="layer11"
     inkscape:label="front"
     style="display:inline"
     transform="translate(71.636093,-146.64517)">
    <path
       style="fill:#ffffff;stroke:#000000;stroke-width:2.11667;stroke-linejoin:round;stroke-dasharray:none"
       d="M 119.31777,149.48959 V 306.42515"
       id="path2-5" />
    <rect
       style="display:inline;fill:none;stroke:#000000;stroke-width:2.11667;stroke-linejoin:round;stroke-dasharray:none"
       id="rect2-9"
       width="376.21887"
       height="155.87723"
       x="-67.73333"
       y="150.54793" />
    <path
       style="display:inline;opacity:1;fill:#ffffff;stroke:#000080;stroke-width:0.79375;stroke-linejoin:round;stroke-dasharray:2.38124996, 2.38124996;stroke-dashoffset:0"
       d="M 170.335,216.60213 149.84551,201.86922"
       id="path20" />
    <path
       style="display:inline;opacity:1;fill:#ffffff;stroke:#000080;stroke-width:0.79375;stroke-linejoin:round;stroke-dasharray:2.38125, 2.38125;stroke-dashoffset:0"
       d="M 186.72659,201.18623 170.72527,173.57421"
       id="path21"
       sodipodi:nodetypes="cc" />
    <path
       style="display:inline;opacity:1;fill:#ffffff;stroke:#000080;stroke-width:0.79375;stroke-linejoin:round;stroke-dasharray:2.38125, 2.38125;stroke-dashoffset:0"
       d="m 214.43618,202.74733 -0.19514,-34.63698"
       id="path22"
       sodipodi:nodetypes="cc" />
    <path
       style="opacity:1;fill:#000080;stroke:none;stroke-width:0.79375;stroke-linejoin:round;stroke-dasharray:none;stroke-dashoffset:0"
       id="path23"
       sodipodi:type="arc"
       sodipodi:cx="152.87015"
       sodipodi:cy="244.89713"
       sodipodi:rx="1.4635348"
       sodipodi:ry="1.4635348"
       sodipodi:start="0.27348598"
       sodipodi:end="6.1658611"
       sodipodi:open="true"
       sodipodi:arc-type="arc"
       d="m 154.27929,245.29241 a 1.4635348,1.4635348 0 0 1 -1.66508,1.0457 1.4635348,1.4635348 0 0 1 -1.20314,-1.55514 1.4635348,1.4635348 0 0 1 1.43036,-1.3491 1.4635348,1.4635348 0 0 1 1.48219,1.29194" />
    <path
       style="opacity:1;fill:#000080;stroke:none;stroke-width:0.79375;stroke-linejoin:round;stroke-dasharray:none;stroke-dashoffset:0"
       id="path24"
       sodipodi:type="arc"
       sodipodi:cx="160.8708"
       sodipodi:cy="210.3577"
       sodipodi:rx="1.4635348"
       sodipodi:ry="1.4635348"
       sodipodi:start="0.27348598"
       sodipodi:end="6.1658611"
       sodipodi:open="true"
       sodipodi:arc-type="arc"
       d="m 162.27995,210.75298 a 1.4635348,1.4635348 0 0 1 -1.66509,1.0457 1.4635348,1.4635348 0 0 1 -1.20313,-1.55514 1.4635348,1.4635348 0 0 1 1.43036,-1.3491 1.4635348,1.4635348 0 0 1 1.48219,1.29194" />
    <path
       style="opacity:1;fill:#000080;stroke:none;stroke-width:0.79375;stroke-linejoin:round;stroke-dasharray:none;stroke-dashoffset:0"
       id="path25"
       sodipodi:type="arc"
       sodipodi:cx="179.99432"
       sodipodi:cy="189.28279"
       sodipodi:rx="1.4635348"
       sodipodi:ry="1.4635348"
       sodipodi:start="0.27348598"
       sodipodi:end="6.1658611"
       sodipodi:open="true"
       sodipodi:arc-type="arc"
       d="m 181.40347,189.67808 a 1.4635348,1.4635348 0 0 1 -1.66509,1.04569 1.4635348,1.4635348 0 0 1 -1.20313,-1.55514 1.4635348,1.4635348 0 0 1 1.43036,-1.34909 1.4635348,1.4635348 0 0 1 1.48219,1.29194" />
    <path
       style="opacity:1;fill:#000080;stroke:none;stroke-width:0.79375;stroke-linejoin:round;stroke-dasharray:none;stroke-dashoffset:0"
       id="path26"
       sodipodi:type="arc"
       sodipodi:cx="214.53375"
       sodipodi:cy="184.40434"
       sodipodi:rx="1.4635348"
       sodipodi:ry="1.4635348"
       sodipodi:start="0.27348598"
       sodipodi:end="6.1658611"
       sodipodi:open="true"
       sodipodi:arc-type="arc"
       d="m 215.9429,184.79963 a 1.4635348,1.4635348 0 0 1 -1.66509,1.04569 1.4635348,1.4635348 0 0 1 -1.20313,-1.55514 1.4635348,1.4635348 0 0 1 1.43036,-1.34909 1.4635348,1.4635348 0 0 1 1.48219,1.29194" />
    <path
       style="opacity:1;fill:none;stroke:#000080;stroke-width:0.79375;stroke-linejoin:round;stroke-dasharray:none;stroke-dashoffset:0"
       d="m 152.96771,244.4093 8.00066,-33.95401 18.73325,-21.27004 34.53942,-4.68331 50.15046,-5.07359"
       id="path27"
       sodipodi:nodetypes="ccccc" />
    <path
       style="opacity:1;fill:none;stroke:#ff0000;stroke-width:0.79375;stroke-linejoin:round;stroke-dasharray:1.58749998,1.58749998;stroke-dashoffset:0"
       d="m 165.97129,201.14861 -16.558,-19.59364"
       id="path28" />
    <path
       style="opacity:1;fill:none;stroke:#ff0000;stroke-width:0.79375;stroke-linejoin:round;stroke-dasharray:1.5875, 1.5875;stroke-dashoffset:0"
       d="M 185.56493,188.45414 179.49367,157.2699"
       id="path29"
       sodipodi:nodetypes="cc" />
    <path
       style="opacity:1;fill:none;stroke:#ff0000;stroke-width:0.79375;stroke-linejoin:round;stroke-dasharray:1.5875, 1.5875;stroke-dashoffset:0"
       d="m 213.43757,198.66491 11.31465,-36.97954"
       id="path30"
       sodipodi:nodetypes="cc" />
    <path
       style="opacity:1;fill:#ff0000;stroke:none;stroke-width:0.79375;stroke-linejoin:round;stroke-dasharray:none;stroke-dashoffset:0"
       id="path31"
       sodipodi:type="arc"
       sodipodi:cx="138.65785"
       sodipodi:cy="228.06316"
       sodipodi:rx="1.4635348"
       sodipodi:ry="1.4635348"
       sodipodi:start="0.27348598"
       sodipodi:end="6.1658611"
       sodipodi:open="true"
       sodipodi:arc-type="arc"
       d="m 140.067,228.45844 a 1.4635348,1.4635348 0 0 1 -1.66509,1.0457 1.4635348,1.4635348 0 0 1 -1.20313,-1.55514 1.4635348,1.4635348 0 0 1 1.43036,-1.3491 1.4635348,1.4635348 0 0 1 1.48219,1.29194" />
    <path
       style="opacity:1;fill:none;stroke:#ff0000;stroke-width:0.79375;stroke-linejoin:round;stroke-dasharray:none;stroke-dashoffset:0"
       d="m 138.5126,227.7794 19.86961,-35.7377 v 0 l 24.56104,-17.52389 c 0,0 70.50951,10.90069 76.58078,12.00456"
       id="path32"
       sodipodi:nodetypes="ccccc" />
    <path
       style="opacity:1;fill:#ff0000;stroke:none;stroke-width:0.79375;stroke-linejoin:round;stroke-dasharray:none;stroke-dashoffset:0"
       id="path33"
       sodipodi:type="arc"
       sodipodi:cx="158.45847"
       sodipodi:cy="192.11848"
       sodipodi:rx="1.4635348"
       sodipodi:ry="1.4635348"
       sodipodi:start="0.27348598"
       sodipodi:end="6.1658611"
       sodipodi:open="true"
       sodipodi:arc-type="arc"
       d="m 159.86761,192.51377 a 1.4635348,1.4635348 0 0 1 -1.66509,1.0457 1.4635348,1.4635348 0 0 1 -1.20313,-1.55514 1.4635348,1.4635348 0 0 1 1.43036,-1.3491 1.4635348,1.4635348 0 0 1 1.48219,1.29194" />
    <path
       style="opacity:1;fill:#ff0000;stroke:none;stroke-width:0.79375;stroke-linejoin:round;stroke-dasharray:none;stroke-dashoffset:0"
       id="path34"
       sodipodi:type="arc"
       sodipodi:cx="182.95052"
       sodipodi:cy="174.59459"
       sodipodi:rx="1.4635348"
       sodipodi:ry="1.4635348"
       sodipodi:start="0.27348598"
       sodipodi:end="6.1658611"
       sodipodi:open="true"
       sodipodi:arc-type="arc"
       d="m 184.35966,174.98987 a 1.4635348,1.4635348 0 0 1 -1.66509,1.0457 1.4635348,1.4635348 0 0 1 -1.20313,-1.55514 1.4635348,1.4635348 0 0 1 1.43036,-1.34909 1.4635348,1.4635348 0 0 1 1.48219,1.29193" />
    <path
       style="opacity:1;fill:#ff0000;stroke:none;stroke-width:0.79375;stroke-linejoin:round;stroke-dasharray:none;stroke-dashoffset:0"
       id="path35"
       sodipodi:type="arc"
       sodipodi:cx="219.17116"
       sodipodi:cy="180.18292"
       sodipodi:rx="1.4635348"
       sodipodi:ry="1.4635348"
       sodipodi:start="0.27348598"
       sodipodi:end="6.1658611"
       sodipodi:open="true"
       sodipodi:arc-type="arc"
       d="m 220.5803,180.57821 a 1.4635348,1.4635348 0 0 1 -1.66508,1.04569 1.4635348,1.4635348 0 0 1 -1.20314,-1.55514 1.4635348,1.4635348 0 0 1 1.43036,-1.34909 1.4635348,1.4635348 0 0 1 1.48219,1.29194" />
    <circle
       style="fill:#000000;stroke:none;stroke-width:0.793749;stroke-linejoin:round;stroke-dasharray:none;stroke-dashoffset:0"
       id="path36"
       cx="233.83737"
       cy="182.64452"
       r="2.5425382" />
    <text
       xml:space="preserve"
       style="font-weight:bold;font-size:7.7611px;font-family:sans;-inkscape-font-specification:'sans Bold';text-align:center;writing-mode:lr-tb;direction:ltr;text-anchor:middle;opacity:1;fill:#000000;stroke:none;stroke-width:0.79375;stroke-linejoin:round;stroke-dasharray:none;stroke-dashoffset:0"
       x="261.73178"
       y="216.1888"
       id="text36"><tspan
         sodipodi:role="line"
         id="tspan36"
         style="stroke-width:0.79375"
         x="261.73178"
         y="216.1888">Centro de</tspan><tspan
         sodipodi:role="line"
         style="stroke-width:0.79375"
         x="261.73178"
         y="225.89018"
         id="tspan37">rotación</tspan></text>
    <path
       style="opacity:1;fill:#000000;stroke:#000000;stroke-width:0.79375;stroke-linejoin:round;stroke-dasharray:none;stroke-dashoffset:0;marker-end:url(#Triangle)"
       d="M 245.59666,205.03808 236.84187,188.0425"
       id="path37" />
    <text
       xml:space="preserve"
       style="font-weight:bold;font-size:7.7611px;font-family:sans;-inkscape-font-specification:'sans Bold';text-align:center;writing-mode:lr-tb;direction:ltr;text-anchor:middle;opacity:1;fill:#000000;stroke:none;stroke-width:0.79375;stroke-linejoin:round;stroke-dasharray:none;stroke-dashoffset:0"
       x="263.38757"
       y="237.43823"
       id="text39"><tspan
         sodipodi:role="line"
         id="tspan38"
         style="stroke-width:0.79375"
         x="263.38757"
         y="237.43823">(Articulación)</tspan><tspan
         sodipodi:role="line"
         style="stroke-width:0.79375"
         x="263.38757"
         y="247.1396"
         id="tspan39" /></text>
  </g>
</svg>
