<?xml version="1.0" encoding="UTF-8" standalone="no"?>
<!-- Created with Inkscape (http://www.inkscape.org/) -->

<svg
   width="178.73471mm"
   height="138.0775mm"
   viewBox="0 0 178.73471 138.0775"
   version="1.1"
   id="svg1"
   inkscape:version="1.4-beta3 (01c8a1c, 2024-08-28)"
   sodipodi:docname="pinza-simple-diseno-05-calcado-pinza-abierta-relleno.svg"
   xmlns:inkscape="http://www.inkscape.org/namespaces/inkscape"
   xmlns:sodipodi="http://sodipodi.sourceforge.net/DTD/sodipodi-0.dtd"
   xmlns="http://www.w3.org/2000/svg"
   xmlns:svg="http://www.w3.org/2000/svg">
  <sodipodi:namedview
     id="namedview1"
     pagecolor="#ffffff"
     bordercolor="#000000"
     borderopacity="0.25"
     inkscape:showpageshadow="2"
     inkscape:pageopacity="0.0"
     inkscape:pagecheckerboard="0"
     inkscape:deskcolor="#d1d1d1"
     inkscape:document-units="mm"
     inkscape:zoom="0.95875069"
     inkscape:cx="369.2305"
     inkscape:cy="304.0415"
     inkscape:window-width="1866"
     inkscape:window-height="1011"
     inkscape:window-x="0"
     inkscape:window-y="0"
     inkscape:window-maximized="1"
     inkscape:current-layer="layer10"
     showguides="false" />
  <defs
     id="defs1" />
  <g
     inkscape:groupmode="layer"
     id="layer10"
     inkscape:label="back"
     transform="translate(16.006073,10.762704)">
    <rect
       style="opacity:1;fill:#ffffff;stroke:none;stroke-width:0.529167;stroke-linejoin:round"
       id="rect1"
       width="178.73471"
       height="138.0775"
       x="-16.006073"
       y="-10.762704" />
  </g>
  <g
     inkscape:groupmode="layer"
     id="layer9"
     inkscape:label="Pinza-abierta"
     style="display:inline;opacity:1"
     transform="translate(-10.843079,-4.2409881)">
    <path
       style="opacity:1;fill:#ffccaa;fill-opacity:1;stroke:#000000;stroke-width:0.529167;stroke-linejoin:round"
       d="m 96.788434,141.96288 -7.122535,-2.92707 -6.82983,-2.63437 -6.634691,-1.36596 -6.049278,-0.78055 -10.439881,-2.63437 -10.439881,-1.36596 -8.4885,-0.19514 c 0,0 -8.488503,-0.97569 -8.586073,-9.7569 -0.09757,-8.78121 6.537123,-11.61071 6.537123,-11.61071 0,0 10.517838,-7.07231 19.884461,-8.82856 9.366623,-1.756239 17.541616,-0.99936 17.541616,-0.99936 l 9.424967,2.01546 13.991589,1.40639 14.534739,2.23663 3.24261,-2.89764 4.00152,-3.587576 3.86353,-4.346475 0.27597,-6.899169 -0.68992,-2.552693 c 0,0 -6.41623,-3.518576 -11.72859,-10.693713 -5.31236,-7.175135 -5.58832,-16.695989 -5.58832,-16.695989 0,0 -8.00304,-1.034876 -16.21305,-3.173619 -8.210013,-2.138741 -12.004556,-6.071269 -12.004556,-6.071269 l -4.48446,3.449584 -7.934044,6.623204 c 0,0 -1.931768,1.586809 -3.518577,1.931767 -1.58681,0.344959 -3.587568,0.344959 -3.587568,0.344959 0,0 0,2.138743 -1.310841,5.381352 -1.310843,3.242609 -5.381352,7.796062 -5.381352,7.796062 l -4.208494,6.416225 -4.48446,4.208494 -4.691436,2.621685 c 0,0 -3.311601,2.000758 -7.106144,0.620924 -3.794543,-1.379834 -4.967402,-4.415467 -4.967402,-4.415467 l -0.482941,-2.621685 2.759668,-8.554968 2.621684,-9.382871 4.346477,-12.418505 c 0,0 1.241851,-2.00076 1.793783,-3.242609 0.551934,-1.241851 5.174377,-6.416227 5.174377,-6.416227 l 8.761947,-8.279003 10.417743,-8.830938 4.553453,-4.553452 c 0,0 1.931768,-1.793784 5.174377,-2.552692 3.242609,-0.758909 9.106902,-0.344959 9.106902,-0.344959 l 12.073546,1.931768 8.416988,0.8279 9.45186,1.793784 4.76043,0.551934 5.38135,1.448825 6.76119,1.241851 8.00303,0.275966 c 0,0 8.00304,0.620926 11.38363,1.310843 3.38059,0.689916 4.89841,1.931766 4.89841,1.931766 0,0 4.82942,0.482944 8.00304,2.276726 3.17362,1.793785 6.6232,4.829418 6.6232,4.829418 l 21.5944,22.767258 0.13798,85.480714 z"
       id="path2"
       sodipodi:nodetypes="ccccccccscscccccccccscscccscsccccscccccsccccsccccccccscscccc" />
    <path
       style="display:inline;opacity:0.993447;fill:#ffe6d5;fill-opacity:0.996078;stroke:#000000;stroke-width:0.529167;stroke-linecap:butt;stroke-linejoin:miter;stroke-dasharray:none;stroke-opacity:1"
       d="m 35.383762,123.05759 c -0.54222,-4.00911 1.30613,-9.46562 4.71003,-11.18785 3.40391,-1.72224 10.16916,-0.31342 11.80477,0.49247 1.6356,0.80587 5.46402,10.52637 5.47286,13.50754 0.009,2.98116 -1.39808,3.70557 -1.39808,3.70557 0,0 -14.22906,0.21117 -17.27061,-2.30393 -3.04155,-2.51513 -3.07944,-2.4428 -3.31897,-4.2138 z"
       id="path4586-1"
       sodipodi:nodetypes="assscsa"
       inkscape:export-filename="/home/obijuan/Develop/myTeachingURJC/Mecatronica/wiki/S03/pinza-simple-03.png"
       inkscape:export-xdpi="90"
       inkscape:export-ydpi="90"
       inkscape:label="path4586" />
    <path
       style="opacity:1;fill:#ffccaa;fill-opacity:1;stroke:#000000;stroke-width:0.529167;stroke-linejoin:round"
       d="m 59.517081,59.712219 c 0,0 -0.682982,-1.170826 -4.585743,-5.659001 -3.902757,-4.488172 -7.122535,-7.903088 -7.122535,-7.903088"
       id="path6" />
    <path
       style="opacity:1;fill:#ffccaa;fill-opacity:1;stroke:#000000;stroke-width:0.529167;stroke-linejoin:round"
       d="m 79.323585,47.808803 c 0,0 -1.073258,-1.951379 -2.829499,-6.341983 C 74.737843,37.076215 73.07917,28.880421 73.07917,28.880421"
       id="path7" />
    <path
       style="opacity:1;fill:#ffccaa;fill-opacity:1;stroke:#000000;stroke-width:0.529167;stroke-linejoin:round"
       d="m 107.13075,56.980288 c 0,0 0.39027,-2.92707 1.36596,-8.000656 0.97569,-5.073587 4.48818,-8.000656 4.48818,-8.000656"
       id="path8" />
  </g>
</svg>
