<?xml version="1.0" encoding="UTF-8" standalone="no"?>
<!-- Created with Inkscape (http://www.inkscape.org/) -->

<svg
   width="186.69753mm"
   height="141.98073mm"
   viewBox="0 0 186.69753 141.98073"
   version="1.1"
   id="svg1"
   inkscape:version="1.4-beta3 (01c8a1c, 2024-08-28)"
   sodipodi:docname="pinza-simple-diseno-04-calcado-pinza-cerrada-relleno.svg"
   xmlns:inkscape="http://www.inkscape.org/namespaces/inkscape"
   xmlns:sodipodi="http://sodipodi.sourceforge.net/DTD/sodipodi-0.dtd"
   xmlns="http://www.w3.org/2000/svg"
   xmlns:svg="http://www.w3.org/2000/svg">
  <sodipodi:namedview
     id="namedview1"
     pagecolor="#ffffff"
     bordercolor="#000000"
     borderopacity="0.25"
     inkscape:showpageshadow="2"
     inkscape:pageopacity="0.0"
     inkscape:pagecheckerboard="0"
     inkscape:deskcolor="#d1d1d1"
     inkscape:document-units="mm"
     inkscape:zoom="0.95875068"
     inkscape:cx="329.07408"
     inkscape:cy="302.99848"
     inkscape:window-width="1866"
     inkscape:window-height="1011"
     inkscape:window-x="0"
     inkscape:window-y="0"
     inkscape:window-maximized="1"
     inkscape:current-layer="svg1"
     showguides="false"
     showgrid="false" />
  <defs
     id="defs1" />
  <g
     inkscape:groupmode="layer"
     id="layer4"
     inkscape:label="Pinza-cerrada"
     style="display:inline;opacity:1"
     transform="translate(-11.827232,-50.383327)">
    <path
       style="opacity:1;fill:#ffccaa;fill-opacity:1;stroke:#000000;stroke-width:0.529167;stroke-linejoin:round;stroke-dasharray:none"
       d="m 198.26018,108.39915 v 0 l -5.85414,-6.34199 -12.48883,-14.245071 -9.17148,-7.805519 -4.3906,-2.146517 c 0,0 -6.43956,-1.658673 -10.04961,-2.244087 -3.61005,-0.585415 -8.1958,-0.487845 -8.1958,-0.487845 l -8.00065,0.682983 -5.26873,0.585414 -7.61038,0.487845 -2.24409,-0.195138 -3.31734,-0.292707 -4.78088,0.195138 -6.33929,-0.424829 -9.65883,0.96589 -8.003853,0.23949 -13.269381,0.48785 -1.5611,0.87812 -1.75625,0.87812 -4.48817,4.0979 -0.48785,1.65867 -2.73193,3.80519 -6.63469,8.09822 -10.0496,13.562093 -2.34166,4.97602 -0.97569,3.61005 -1.46353,9.36662 -0.68299,7.61038 -0.29271,5.07359 -1.5611,9.17149 c 0,0 0.292709,3.61005 2.731933,4.87845 2.439225,1.26839 5.171157,0.78055 5.171157,0.78055 0,0 6.73226,-1.85381 11.025295,-6.14685 4.293036,-4.29303 4.976019,-9.85446 5.268726,-10.24474 0.292707,-0.39028 1.95138,-3.41492 2.8295,-5.56143 0.878121,-2.14652 1.561104,-9.36663 1.561104,-9.36663 0,0 1.853811,0.58542 3.805191,-0.87812 1.95138,-1.46353 9.854468,-11.22043 9.854468,-11.22043 l 1.561103,-3.02464 1.463535,-0.48784 c 0,0 0.780552,2.04894 3.90276,2.73193 3.122207,0.68298 24.197112,-1.36597 24.197112,-1.36597 0,0 1.26839,9.26906 4.87845,13.46452 3.61005,4.19547 11.61071,10.24475 11.61071,10.24475 l -0.29271,9.65933 -4.97602,5.75657 -6.04928,5.26872 c 0,0 -6.63469,-1.5611 -16.48916,-2.53679 -9.854464,-0.97569 -15.415896,-1.56111 -15.415896,-1.56111 0,0 -3.219777,-2.14651 -12.48883,-1.85381 -9.269054,0.29271 -16.489159,2.63437 -16.489159,2.63437 0,0 -1.073259,0.78055 -6.049278,3.02463 -4.976018,2.24409 -13.074244,4.58575 -13.46452,13.26939 -0.390276,8.68364 8.000657,11.12286 8.000657,11.12286 l 9.073916,0.19514 13.46452,2.04895 8.098226,2.53679 3.219777,0.19514 7.317674,1.2684 12.098553,4.97602 6.63469,1.6448 87.50091,-0.30256 z"
       id="path1"
       sodipodi:nodetypes="ccccccccccccccccccccccccsccccccscssscscccscsccccscscsscccccccccc" />
    <path
       style="display:inline;opacity:0.993447;fill:#ffe6d5;fill-opacity:1;stroke:#000000;stroke-width:0.529167;stroke-linecap:butt;stroke-linejoin:miter;stroke-dasharray:none;stroke-opacity:1"
       d="m 44.814791,172.32055 c -0.54222,-4.00911 1.306126,-9.46562 4.710032,-11.18785 3.403906,-1.72224 10.169162,-0.31342 11.804766,0.49247 1.635605,0.80587 5.464016,10.52637 5.472862,13.50754 0.0089,2.98116 -1.398078,3.70557 -1.398078,3.70557 0,0 -14.229063,0.21117 -17.270611,-2.30393 -3.041548,-2.51513 -3.079446,-2.4428 -3.318971,-4.2138 z"
       id="path4586"
       sodipodi:nodetypes="assscsa"
       inkscape:export-filename="/home/obijuan/Develop/myTeachingURJC/Mecatronica/wiki/S03/pinza-simple-03.png"
       inkscape:export-xdpi="90"
       inkscape:export-ydpi="90" />
    <path
       style="fill:none;stroke:#000000;stroke-width:0.529167;stroke-linejoin:round;stroke-dasharray:none"
       d="m 73.625878,125.05149 c 0,0 -2.621684,-0.68991 -6.209252,-3.44958 -3.58757,-2.75967 -7.175137,-5.93329 -7.175137,-5.93329"
       id="path3" />
    <path
       style="fill:none;stroke:#000000;stroke-width:0.529167;stroke-linejoin:round;stroke-dasharray:none"
       d="m 89.907916,109.59736 c 0,0 -0.8279,-0.96589 -3.72555,-6.20926 -2.897651,-5.243361 -4.829419,-9.24488 -4.829419,-9.24488"
       id="path4" />
    <path
       style="fill:none;stroke:#000000;stroke-width:0.529167;stroke-linejoin:round;stroke-dasharray:none"
       d="m 118.3325,110.97719 c 0,0 -0.13799,-2.62168 0.41395,-5.65732 0.55193,-3.03563 2.89765,-6.347231 2.89765,-6.347231"
       id="path5" />
  </g>
</svg>
