<?xml version="1.0" encoding="UTF-8" standalone="no"?>
<!-- Created with Inkscape (http://www.inkscape.org/) -->

<svg
   width="193.08235mm"
   height="163.68274mm"
   viewBox="0 0 193.08236 163.68275"
   version="1.1"
   id="svg1"
   inkscape:version="1.4 (e7c3feb, 2024-10-09)"
   sodipodi:docname="pinza-simple-diseno-13-sintesis.svg"
   xmlns:inkscape="http://www.inkscape.org/namespaces/inkscape"
   xmlns:sodipodi="http://sodipodi.sourceforge.net/DTD/sodipodi-0.dtd"
   xmlns="http://www.w3.org/2000/svg"
   xmlns:svg="http://www.w3.org/2000/svg">
  <sodipodi:namedview
     id="namedview1"
     pagecolor="#ffffff"
     bordercolor="#000000"
     borderopacity="0.25"
     inkscape:showpageshadow="2"
     inkscape:pageopacity="0.0"
     inkscape:pagecheckerboard="0"
     inkscape:deskcolor="#d1d1d1"
     inkscape:document-units="mm"
     inkscape:zoom="0.67793912"
     inkscape:cx="517.00808"
     inkscape:cy="300.17445"
     inkscape:window-width="1866"
     inkscape:window-height="1011"
     inkscape:window-x="0"
     inkscape:window-y="0"
     inkscape:window-maximized="1"
     inkscape:current-layer="layer13"
     showguides="true"
     showgrid="false" />
  <defs
     id="defs1" />
  <g
     inkscape:groupmode="layer"
     id="layer12"
     inkscape:label="Back"
     transform="translate(71.636093,-146.64517)"
     style="display:inline"
     sodipodi:insensitive="true">
    <rect
       style="opacity:1;fill:#ffffff;stroke-width:0.529167;stroke-linejoin:round"
       id="rect1"
       width="193.08235"
       height="163.68274"
       x="-71.636093"
       y="146.64517" />
  </g>
  <g
     inkscape:groupmode="layer"
     id="layer4"
     inkscape:label="Pinza-cerrada"
     style="display:inline;opacity:1"
     transform="translate(62.279122,-197.0285)">
    <g
       id="g2"
       style="opacity:0.3340625">
      <path
         style="display:inline;fill:#ffccaa;fill-opacity:1;stroke:#000000;stroke-width:0.529167;stroke-linejoin:round;stroke-dasharray:none"
         d="m 114.66231,250.24607 v 0 l -5.85414,-6.34199 -12.488831,-14.24507 -9.17148,-7.80552 -4.3906,-2.14652 c 0,0 -6.43956,-1.65867 -10.04961,-2.24408 -3.61005,-0.58542 -8.1958,-0.48785 -8.1958,-0.48785 l -8.00065,0.68298 -5.26873,0.58542 -7.61038,0.48784 -2.24409,-0.19513 -3.31734,-0.29271 -4.78088,0.19514 -6.33929,-0.42483 -9.65883,0.96589 -8.0038527,0.23949 -13.269381,0.48785 -1.5611,0.87812 -1.75625,0.87812 -4.4881703,4.0979 -0.48785,1.65867 -2.73193,3.80519 -6.63469,8.09822 -10.0496,13.56209 -2.34166,4.97602 -0.97569,3.61005 -1.46353,9.36662 -0.68299,7.61038 -0.29271,5.07359 -1.5611,9.17149 c 0,0 0.292709,3.61005 2.731933,4.87845 2.439225,1.26839 5.378132,0.15962 5.378132,0.15962 0,0 6.663268,-1.64683 10.956303,-5.93987 4.293036,-4.29303 4.838036,-9.44051 5.130743,-9.83079 0.292707,-0.39028 1.95138,-3.41492 2.8295,-5.56143 0.878121,-2.14652 1.561104,-9.36663 1.561104,-9.36663 0,0 1.8538113,0.58542 3.8051913,-0.87812 1.95138,-1.46353 9.854468,-11.22043 9.854468,-11.22043 l 1.561103,-3.02464 1.463535,-0.48784 c 0,0 0.780552,2.04894 3.9027597,2.73193 3.122207,0.68298 24.197112,-1.36597 24.197112,-1.36597 0,0 1.26839,9.26906 4.87845,13.46452 3.61005,4.19547 11.61071,10.24475 11.61071,10.24475 l -0.29271,9.65933 -4.97602,5.75657 -6.04928,5.26872 c 0,0 -6.63469,-1.5611 -16.48916,-2.53679 -9.854464,-0.97569 -15.2779127,-1.90607 -15.2779127,-1.90607 0,0 -3.35776,-1.80155 -12.626813,-1.50885 -9.2690543,0.29271 -16.4891593,2.63437 -16.4891593,2.63437 0,0 -1.098479,0.0351 -5.911295,2.61068 -4.838034,2.58905 -15.311811,6.99794 -14.982337,15.6841 0.368633,9.71851 9.311499,10.36395 9.311499,10.36395 l 9.556858,0.33312 9.256027,1.42803 10.7889023,2.39881 4.668602,0.60909 7.041708,1.54436 10.5117407,4.01014 3.87503,1.6448 91.778391,-0.64752 z"
         id="path1"
         sodipodi:nodetypes="ccccccccccccccccccccccccsccccccscssscscccscsccccscscsscccccccccc"
         inkscape:label="path1" />
      <path
         style="display:inline;opacity:0.993447;fill:#ffe6d5;fill-opacity:0.996078;stroke:#000000;stroke-width:0.529167;stroke-linecap:butt;stroke-linejoin:miter;stroke-dasharray:none;stroke-opacity:1"
         d="m -38.608617,315.22961 c -0.54222,-4.00911 1.30613,-9.46562 4.71003,-11.18785 3.40391,-1.72224 10.16916,-0.31342 11.80477,0.49247 1.6356,0.80587 5.46402,10.52637 5.47286,13.50754 0.009,2.98116 -1.39808,3.70557 -1.39808,3.70557 0,0 -14.22906,0.21117 -17.27061,-2.30393 -3.04155,-2.51513 -3.07944,-2.4428 -3.31897,-4.2138 z"
         id="path4586"
         sodipodi:nodetypes="assscsa"
         inkscape:export-filename="/home/obijuan/Develop/myTeachingURJC/Mecatronica/wiki/S03/pinza-simple-03.png"
         inkscape:export-xdpi="90"
         inkscape:export-ydpi="90"
         inkscape:label="path4586" />
      <path
         style="display:inline;fill:none;stroke:#000000;stroke-width:0.529167;stroke-linejoin:round;stroke-dasharray:none"
         d="m -10.164654,267.12352 c 0,0 -2.621684,-0.68991 -6.209252,-3.44958 -3.58757,-2.75967 -7.175137,-5.93329 -7.175137,-5.93329"
         id="path3" />
      <path
         style="display:inline;fill:none;stroke:#000000;stroke-width:0.529167;stroke-linejoin:round;stroke-dasharray:none"
         d="m 6.1173843,251.66939 c 0,0 -0.8279,-0.96589 -3.72555,-6.20926 -2.89765099,-5.24336 -4.829419,-9.24488 -4.829419,-9.24488"
         id="path4"
         inkscape:label="path4" />
      <path
         style="display:inline;fill:none;stroke:#000000;stroke-width:0.529167;stroke-linejoin:round;stroke-dasharray:none"
         d="m 34.541969,253.04922 c 0,0 -0.13799,-2.62168 0.41395,-5.65732 0.55193,-3.03563 2.89765,-6.34723 2.89765,-6.34723"
         id="path5" />
    </g>
  </g>
  <g
     inkscape:groupmode="layer"
     id="layer11"
     inkscape:label="Alambrico"
     style="display:inline"
     transform="translate(71.636093,-146.64517)">
    <path
       style="display:inline;fill:#000080;stroke:none;stroke-width:0.79375;stroke-linejoin:round;stroke-dasharray:none;stroke-dashoffset:0"
       id="path46"
       sodipodi:type="arc"
       sodipodi:cx="-38.669395"
       sodipodi:cy="242.69917"
       sodipodi:rx="3.362045"
       sodipodi:ry="3.362045"
       sodipodi:start="0.27348598"
       sodipodi:end="6.1658611"
       sodipodi:open="true"
       sodipodi:arc-type="arc"
       d="m -35.4323,243.60723 a 3.362045,3.362045 0 0 1 -3.825048,2.40218 3.362045,3.362045 0 0 1 -2.763849,-3.57248 3.362045,3.362045 0 0 1 3.285837,-3.09915 3.362045,3.362045 0 0 1 3.404897,2.96785" />
    <path
       style="display:inline;fill:none;stroke:#000080;stroke-width:0.79375;stroke-linejoin:round;stroke-dasharray:none;stroke-dashoffset:0"
       d="m -38.662258,246.07369 5.979179,-37.60922 19.620387,-22.80841 56.728015,-6.25809"
       id="path47"
       sodipodi:nodetypes="cccc" />
    <path
       style="display:inline;fill:#008000;stroke:none;stroke-width:0.79375;stroke-linejoin:round;stroke-dasharray:none;stroke-dashoffset:0"
       id="path59"
       sodipodi:type="arc"
       sodipodi:cx="-34.986286"
       sodipodi:cy="248.94495"
       sodipodi:rx="3.362045"
       sodipodi:ry="3.362045"
       sodipodi:start="0.27348598"
       sodipodi:end="6.1658611"
       sodipodi:arc-type="arc"
       d="m -31.749191,249.853 a 3.362045,3.362045 0 0 1 -3.825048,2.40218 3.362045,3.362045 0 0 1 -2.763849,-3.57248 3.362045,3.362045 0 0 1 3.285837,-3.09915 3.362045,3.362045 0 0 1 3.404897,2.96785"
       sodipodi:open="true" />
    <path
       style="display:inline;fill:none;stroke:#008000;stroke-width:0.79375;stroke-linejoin:round;stroke-dasharray:none;stroke-dashoffset:0"
       d="m -35.424823,248.71453 28.6642916,12.35701 51.4135094,4.13017 -0.996934,-85.87907"
       id="path60"
       sodipodi:nodetypes="cccc" />
    <circle
       style="display:inline;fill:#000000;stroke:none;stroke-width:0.793749;stroke-linejoin:round;stroke-dasharray:none;stroke-dashoffset:0"
       id="circle55"
       cx="43.570366"
       cy="179.64157"
       r="2.6242836" />
  </g>
  <g
     inkscape:groupmode="layer"
     id="layer13"
     inkscape:label="Pieza-Pulgar-1"
     style="display:inline">
    <circle
       style="fill:none;stroke:#000000;stroke-width:0.79375;stroke-linejoin:round"
       id="path6"
       cx="40.362171"
       cy="111.9978"
       r="13.969801" />
    <circle
       style="fill:none;stroke:#000000;stroke-width:0.79375;stroke-linejoin:round"
       id="circle1"
       cx="115.68543"
       cy="111.9978"
       r="13.969801" />
    <circle
       style="fill:none;stroke:#000000;stroke-width:0.79375;stroke-linejoin:round"
       id="circle2"
       cx="115.68543"
       cy="33.942612"
       r="13.969801" />
  </g>
</svg>
