<?xml version="1.0" encoding="UTF-8" standalone="no"?>
<!-- Created with Inkscape (http://www.inkscape.org/) -->

<svg
   width="180.65887mm"
   height="149.13361mm"
   viewBox="0 0 180.65887 149.13362"
   version="1.1"
   id="svg1"
   inkscape:version="1.4-beta3 (01c8a1c, 2024-08-28)"
   sodipodi:docname="03-Pinza-calcos-alambrico-indice.svg"
   xmlns:inkscape="http://www.inkscape.org/namespaces/inkscape"
   xmlns:sodipodi="http://sodipodi.sourceforge.net/DTD/sodipodi-0.dtd"
   xmlns="http://www.w3.org/2000/svg"
   xmlns:svg="http://www.w3.org/2000/svg">
  <sodipodi:namedview
     id="namedview1"
     pagecolor="#ffffff"
     bordercolor="#000000"
     borderopacity="0.25"
     inkscape:showpageshadow="2"
     inkscape:pageopacity="0.0"
     inkscape:pagecheckerboard="0"
     inkscape:deskcolor="#d1d1d1"
     inkscape:document-units="mm"
     inkscape:zoom="0.67793912"
     inkscape:cx="283.21127"
     inkscape:cy="357.70174"
     inkscape:window-width="1920"
     inkscape:window-height="1043"
     inkscape:window-x="0"
     inkscape:window-y="0"
     inkscape:window-maximized="1"
     inkscape:current-layer="layer10"
     showguides="false"
     showgrid="false" />
  <defs
     id="defs1" />
  <g
     inkscape:groupmode="layer"
     id="layer10"
     inkscape:label="Back"
     transform="translate(6.2055311,10.585649)">
    <rect
       style="opacity:1;fill:#ffffff;stroke:none;stroke-width:0.79375;stroke-linejoin:round"
       id="rect1"
       width="180.65887"
       height="149.13361"
       x="-6.2055311"
       y="-10.585649" />
  </g>
  <g
     inkscape:groupmode="layer"
     id="layer4"
     inkscape:label="Pinza-cerrada"
     style="display:inline;opacity:1"
     transform="translate(-136.21706,-196.00797)">
    <g
       id="g13"
       transform="translate(190.34037)">
      <path
         style="display:inline;fill:#ffccaa;fill-opacity:1;stroke:#000000;stroke-width:0.529167;stroke-linejoin:round;stroke-dasharray:none"
         d="m 114.66231,250.24607 v 0 l -5.85414,-6.34199 -12.488831,-14.24507 -9.17148,-7.80552 -4.3906,-2.14652 c 0,0 -6.43956,-1.65867 -10.04961,-2.24408 -3.61005,-0.58542 -8.1958,-0.48785 -8.1958,-0.48785 l -8.00065,0.68298 -5.26873,0.58542 -7.61038,0.48784 -2.24409,-0.19513 -3.31734,-0.29271 -4.78088,0.19514 -6.33929,-0.42483 -9.65883,0.96589 -8.0038527,0.23949 -13.269381,0.48785 -1.5611,0.87812 -1.75625,0.87812 -4.4881703,4.0979 -0.48785,1.65867 -2.73193,3.80519 -6.63469,8.09822 -10.0496,13.56209 -2.34166,4.97602 -0.97569,3.61005 -1.46353,9.36662 -0.68299,7.61038 -0.29271,5.07359 -1.5611,9.17149 c 0,0 0.292709,3.61005 2.731933,4.87845 2.439225,1.26839 5.378132,0.15962 5.378132,0.15962 0,0 6.663268,-1.64683 10.956303,-5.93987 4.293036,-4.29303 4.838036,-9.44051 5.130743,-9.83079 0.292707,-0.39028 1.95138,-3.41492 2.8295,-5.56143 0.878121,-2.14652 1.561104,-9.36663 1.561104,-9.36663 0,0 1.8538113,0.58542 3.8051913,-0.87812 1.95138,-1.46353 9.854468,-11.22043 9.854468,-11.22043 l 1.561103,-3.02464 1.463535,-0.48784 c 0,0 0.780552,2.04894 3.9027597,2.73193 3.122207,0.68298 24.197112,-1.36597 24.197112,-1.36597 0,0 1.26839,9.26906 4.87845,13.46452 3.61005,4.19547 11.61071,10.24475 11.61071,10.24475 l -0.29271,9.65933 -4.97602,5.75657 -6.04928,5.26872 c 0,0 -6.63469,-1.5611 -16.48916,-2.53679 -9.854464,-0.97569 -15.2779127,-1.90607 -15.2779127,-1.90607 0,0 -3.35776,-1.80155 -12.626813,-1.50885 -9.2690543,0.29271 -16.4891593,2.63437 -16.4891593,2.63437 0,0 -1.098479,0.0351 -5.911295,2.61068 -4.838034,2.58905 -15.311811,6.99794 -14.982337,15.6841 0.368633,9.71851 9.311499,10.36395 9.311499,10.36395 l 9.556858,0.33312 9.256027,1.42803 10.7889023,2.39881 4.668602,0.60909 7.041708,1.54436 10.5117407,4.01014 3.87503,1.6448 91.778391,-0.64752 z"
         id="path9"
         sodipodi:nodetypes="ccccccccccccccccccccccccsccccccscssscscccscsccccscscsscccccccccc"
         inkscape:label="path1" />
      <path
         style="display:inline;opacity:0.993447;fill:#ffe6d5;fill-opacity:0.996078;stroke:#000000;stroke-width:0.529167;stroke-linecap:butt;stroke-linejoin:miter;stroke-dasharray:none;stroke-opacity:1"
         d="m -38.608617,315.22961 c -0.54222,-4.00911 1.30613,-9.46562 4.71003,-11.18785 3.40391,-1.72224 10.16916,-0.31342 11.80477,0.49247 1.6356,0.80587 5.46402,10.52637 5.47286,13.50754 0.009,2.98116 -1.39808,3.70557 -1.39808,3.70557 0,0 -14.22906,0.21117 -17.27061,-2.30393 -3.04155,-2.51513 -3.07944,-2.4428 -3.31897,-4.2138 z"
         id="path10"
         sodipodi:nodetypes="assscsa"
         inkscape:export-filename="/home/obijuan/Develop/myTeachingURJC/Mecatronica/wiki/S03/pinza-simple-03.png"
         inkscape:export-xdpi="90"
         inkscape:export-ydpi="90"
         inkscape:label="path4586" />
      <path
         style="display:inline;fill:none;stroke:#000000;stroke-width:0.529167;stroke-linejoin:round;stroke-dasharray:none"
         d="m -10.164654,267.12352 c 0,0 -2.621684,-0.68991 -6.209252,-3.44958 -3.58757,-2.75967 -7.175137,-5.93329 -7.175137,-5.93329"
         id="path11" />
      <path
         style="display:inline;fill:none;stroke:#000000;stroke-width:0.529167;stroke-linejoin:round;stroke-dasharray:none"
         d="m 6.1173843,251.66939 c 0,0 -0.8279,-0.96589 -3.72555,-6.20926 -2.89765099,-5.24336 -4.829419,-9.24488 -4.829419,-9.24488"
         id="path12"
         inkscape:label="path4" />
      <path
         style="display:inline;fill:none;stroke:#000000;stroke-width:0.529167;stroke-linejoin:round;stroke-dasharray:none"
         d="m 34.541969,253.04922 c 0,0 -0.13799,-2.62168 0.41395,-5.65732 0.55193,-3.03563 2.89765,-6.34723 2.89765,-6.34723"
         id="path13" />
    </g>
    <path
       style="opacity:0.518537;fill:#ffffff;stroke-width:0.529167;stroke-linejoin:round"
       d="m 157.66639,254.15362 22.62928,13.52237"
       id="path19" />
  </g>
  <g
     inkscape:groupmode="layer"
     id="layer9"
     inkscape:label="Pinza-abierta"
     style="display:inline;opacity:1"
     transform="translate(-126.86009,-145.62464)">
    <g
       id="g18"
       transform="translate(2.4293577e-7,-5.37897)"
       style="opacity:1">
      <path
         style="opacity:1;fill:#ffccaa;fill-opacity:1;stroke:#000000;stroke-width:0.529167;stroke-linejoin:round"
         d="m 203.0049,288.54845 -7.12254,-2.92707 -6.82983,-2.63437 -6.63469,-1.36596 -6.04927,-0.78055 -10.43989,-2.63437 -10.43988,-1.36596 -8.4885,-0.19514 c 0,0 -8.4885,-0.97569 -8.58607,-9.7569 -0.0976,-8.78121 6.53712,-11.61071 6.53712,-11.61071 0,0 10.51784,-7.07231 19.88446,-8.82856 9.36663,-1.75624 17.54162,-0.99936 17.54162,-0.99936 l 9.42497,2.01546 13.99159,1.40639 14.53474,2.23663 3.24261,-2.89764 4.00152,-3.58758 3.86353,-4.34647 0.27597,-6.89917 -0.68992,-2.55269 c 0,0 -6.41623,-3.51858 -11.72859,-10.69372 -5.31236,-7.17513 -5.58832,-16.69598 -5.58832,-16.69598 0,0 -8.00304,-1.03488 -16.21305,-3.17362 -8.21002,-2.13874 -12.00456,-6.07127 -12.00456,-6.07127 l -4.48446,3.44958 -7.93404,6.62321 c 0,0 -1.93177,1.5868 -3.51858,1.93176 -1.58681,0.34496 -3.58757,0.34496 -3.58757,0.34496 0,0 0,2.13874 -1.31084,5.38135 -1.31084,3.24261 -5.38135,7.79607 -5.38135,7.79607 l -4.2085,6.41622 -4.48446,4.20849 -4.69143,2.62169 c 0,0 -3.3116,2.00076 -7.10615,0.62092 -3.79454,-1.37983 -4.9674,-4.41546 -4.9674,-4.41546 l -0.48294,-2.62169 2.75967,-8.55497 2.62168,-9.38287 4.34648,-12.4185 c 0,0 1.24185,-2.00076 1.79378,-3.24261 0.55194,-1.24185 5.17438,-6.41623 5.17438,-6.41623 l 8.76195,-8.279 10.41774,-8.83094 4.55345,-4.55345 c 0,0 1.93177,-1.79379 5.17438,-2.55269 3.24261,-0.75891 9.1069,-0.34496 9.1069,-0.34496 l 12.07355,1.93177 8.41699,0.8279 9.45186,1.79378 4.76043,0.55193 5.38135,1.44883 6.76119,1.24185 8.00303,0.27597 c 0,0 8.00304,0.62092 11.38363,1.31084 3.38059,0.68991 4.89841,1.93176 4.89841,1.93176 0,0 4.82942,0.48295 8.00304,2.27673 3.17362,1.79379 6.6232,4.82942 6.6232,4.82942 l 21.5944,22.76726 0.13798,85.48071 z"
         id="path14"
         sodipodi:nodetypes="ccccccccscscccccccccscscccscsccccscccccsccccsccccccccscscccc" />
      <path
         style="display:inline;opacity:0.993447;fill:#ffe6d5;fill-opacity:0.996078;stroke:#000000;stroke-width:0.529167;stroke-linecap:butt;stroke-linejoin:miter;stroke-dasharray:none;stroke-opacity:1"
         d="m 141.60023,269.64316 c -0.54222,-4.00911 1.30613,-9.46562 4.71003,-11.18785 3.40391,-1.72224 10.16916,-0.31342 11.80477,0.49247 1.6356,0.80587 5.46402,10.52637 5.47286,13.50754 0.009,2.98116 -1.39808,3.70557 -1.39808,3.70557 0,0 -14.22906,0.21117 -17.27061,-2.30393 -3.04155,-2.51513 -3.07944,-2.4428 -3.31897,-4.2138 z"
         id="path15"
         sodipodi:nodetypes="assscsa"
         inkscape:export-filename="/home/obijuan/Develop/myTeachingURJC/Mecatronica/wiki/S03/pinza-simple-03.png"
         inkscape:export-xdpi="90"
         inkscape:export-ydpi="90"
         inkscape:label="path4586" />
      <path
         style="opacity:0.401996;fill:#ffccaa;fill-opacity:1;stroke:#000000;stroke-width:0.529167;stroke-linejoin:round"
         d="m 165.73355,206.29779 c 0,0 -0.68299,-1.17083 -4.58575,-5.659 -3.90275,-4.48817 -7.12253,-7.90309 -7.12253,-7.90309"
         id="path16" />
      <path
         style="opacity:0.401996;fill:#ffccaa;fill-opacity:1;stroke:#000000;stroke-width:0.529167;stroke-linejoin:round"
         d="m 185.54005,194.39437 c 0,0 -1.07326,-1.95138 -2.8295,-6.34198 -1.75624,-4.3906 -3.41491,-12.5864 -3.41491,-12.5864"
         id="path17" />
      <path
         style="opacity:0.401996;fill:#ffccaa;fill-opacity:1;stroke:#000000;stroke-width:0.529167;stroke-linejoin:round"
         d="m 213.34722,203.56586 c 0,0 0.39027,-2.92707 1.36596,-8.00066 0.97569,-5.07358 4.48818,-8.00065 4.48818,-8.00065"
         id="path18" />
    </g>
  </g>
  <g
     inkscape:groupmode="layer"
     id="layer7"
     inkscape:label="Alambrico-cerrado"
     style="display:inline"
     transform="translate(-198.49618,1.0205237)">
    <path
       style="display:inline;fill:#ffffff;stroke:#000080;stroke-width:0.79375;stroke-linejoin:round;stroke-dasharray:2.38125, 2.38125;stroke-dashoffset:0"
       d="M 241.97109,69.95696 221.4816,55.22405"
       id="path20-3" />
    <path
       style="display:inline;fill:#ffffff;stroke:#000080;stroke-width:0.79375;stroke-linejoin:round;stroke-dasharray:2.38125, 2.38125;stroke-dashoffset:0"
       d="M 258.36268,54.54106 242.36136,26.92904"
       id="path21-7"
       sodipodi:nodetypes="cc" />
    <path
       style="display:inline;fill:#ffffff;stroke:#000080;stroke-width:0.79375;stroke-linejoin:round;stroke-dasharray:2.38125, 2.38125;stroke-dashoffset:0"
       d="M 286.07227,56.10216 285.87713,21.46518"
       id="path22-5"
       sodipodi:nodetypes="cc" />
    <path
       style="display:inline;fill:#000080;stroke:none;stroke-width:0.79375;stroke-linejoin:round;stroke-dasharray:none;stroke-dashoffset:0"
       id="path23-9"
       sodipodi:type="arc"
       sodipodi:cx="224.50624"
       sodipodi:cy="98.251953"
       sodipodi:rx="1.4635348"
       sodipodi:ry="1.4635348"
       sodipodi:start="0.27348598"
       sodipodi:end="6.1658611"
       sodipodi:open="true"
       sodipodi:arc-type="arc"
       d="m 225.91538,98.647239 a 1.4635348,1.4635348 0 0 1 -1.66508,1.045696 1.4635348,1.4635348 0 0 1 -1.20313,-1.55514 1.4635348,1.4635348 0 0 1 1.43036,-1.349095 1.4635348,1.4635348 0 0 1 1.48218,1.291939" />
    <path
       style="display:inline;fill:none;stroke:#000080;stroke-width:0.79375;stroke-linejoin:round;stroke-dasharray:none;stroke-dashoffset:0"
       d="m 224.6038,97.76413 8.00066,-33.95401 18.73325,-21.27004 34.53942,-4.68331 50.15046,-5.07359"
       id="path27-9"
       sodipodi:nodetypes="ccccc" />
    <circle
       style="display:inline;fill:#000000;stroke:none;stroke-width:0.793749;stroke-linejoin:round;stroke-dasharray:none;stroke-dashoffset:0"
       id="path36-9"
       cx="305.47345"
       cy="35.999348"
       r="2.5425382" />
    <path
       style="display:inline;fill:#000080;stroke:none;stroke-width:0.79375;stroke-linejoin:round;stroke-dasharray:none;stroke-dashoffset:0"
       id="path24-2"
       sodipodi:type="arc"
       sodipodi:cx="232.5069"
       sodipodi:cy="63.712528"
       sodipodi:rx="1.4635348"
       sodipodi:ry="1.4635348"
       sodipodi:start="0.27348598"
       sodipodi:end="6.1658611"
       sodipodi:open="true"
       sodipodi:arc-type="arc"
       d="m 233.91604,64.107814 a 1.4635348,1.4635348 0 0 1 -1.66509,1.045696 1.4635348,1.4635348 0 0 1 -1.20313,-1.55514 1.4635348,1.4635348 0 0 1 1.43036,-1.349095 1.4635348,1.4635348 0 0 1 1.48219,1.291939" />
    <path
       style="display:inline;fill:#000080;stroke:none;stroke-width:0.79375;stroke-linejoin:round;stroke-dasharray:none;stroke-dashoffset:0"
       id="path25-2"
       sodipodi:type="arc"
       sodipodi:cx="251.63042"
       sodipodi:cy="42.637623"
       sodipodi:rx="1.4635348"
       sodipodi:ry="1.4635348"
       sodipodi:start="0.27348598"
       sodipodi:end="6.1658611"
       sodipodi:open="true"
       sodipodi:arc-type="arc"
       d="m 253.03956,43.032908 a 1.4635348,1.4635348 0 0 1 -1.66509,1.045696 1.4635348,1.4635348 0 0 1 -1.20313,-1.555139 1.4635348,1.4635348 0 0 1 1.43036,-1.349095 1.4635348,1.4635348 0 0 1 1.48219,1.291938" />
    <path
       style="display:inline;fill:#000080;stroke:none;stroke-width:0.79375;stroke-linejoin:round;stroke-dasharray:none;stroke-dashoffset:0"
       id="path26-8"
       sodipodi:type="arc"
       sodipodi:cx="286.16983"
       sodipodi:cy="37.759174"
       sodipodi:rx="1.4635348"
       sodipodi:ry="1.4635348"
       sodipodi:start="0.27348598"
       sodipodi:end="6.1658611"
       sodipodi:open="true"
       sodipodi:arc-type="arc"
       d="m 287.57897,38.15446 a 1.4635348,1.4635348 0 0 1 -1.66508,1.045696 1.4635348,1.4635348 0 0 1 -1.20314,-1.55514 1.4635348,1.4635348 0 0 1 1.43037,-1.349095 1.4635348,1.4635348 0 0 1 1.48218,1.291939" />
  </g>
  <g
     inkscape:groupmode="layer"
     id="layer8"
     inkscape:label="Alambrico-abierto"
     style="display:inline"
     transform="translate(-198.49618,1.0205237)">
    <path
       style="display:inline;fill:none;stroke:#ff0000;stroke-width:0.79375;stroke-linejoin:round;stroke-dasharray:1.5875, 1.5875;stroke-dashoffset:0"
       d="M 237.60738,54.50344 221.04938,34.9098"
       id="path28-5" />
    <path
       style="display:inline;fill:none;stroke:#ff0000;stroke-width:0.79375;stroke-linejoin:round;stroke-dasharray:1.5875, 1.5875;stroke-dashoffset:0"
       d="M 257.20102,41.80897 251.12976,10.62473"
       id="path29-6"
       sodipodi:nodetypes="cc" />
    <path
       style="display:inline;fill:none;stroke:#ff0000;stroke-width:0.79375;stroke-linejoin:round;stroke-dasharray:1.5875, 1.5875;stroke-dashoffset:0"
       d="M 285.07366,52.01974 296.38831,15.0402"
       id="path30-9"
       sodipodi:nodetypes="cc" />
    <path
       style="display:inline;fill:#ff0000;stroke:none;stroke-width:0.79375;stroke-linejoin:round;stroke-dasharray:none;stroke-dashoffset:0"
       id="path31-3"
       sodipodi:type="arc"
       sodipodi:cx="210.29395"
       sodipodi:cy="81.417984"
       sodipodi:rx="1.4635348"
       sodipodi:ry="1.4635348"
       sodipodi:start="0.27348598"
       sodipodi:end="6.1658611"
       sodipodi:open="true"
       sodipodi:arc-type="arc"
       d="m 211.70309,81.813269 a 1.4635348,1.4635348 0 0 1 -1.66509,1.045697 1.4635348,1.4635348 0 0 1 -1.20313,-1.55514 1.4635348,1.4635348 0 0 1 1.43036,-1.349095 1.4635348,1.4635348 0 0 1 1.48219,1.291939" />
    <path
       style="display:inline;fill:none;stroke:#ff0000;stroke-width:0.79375;stroke-linejoin:round;stroke-dasharray:none;stroke-dashoffset:0"
       d="m 210.14869,81.13423 19.86961,-35.7377 v 0 l 24.56104,-17.52389 c 0,0 70.50951,10.90069 76.58078,12.00456"
       id="path32-7"
       sodipodi:nodetypes="ccccc" />
    <circle
       style="display:inline;fill:#000000;stroke:none;stroke-width:0.793749;stroke-linejoin:round;stroke-dasharray:none;stroke-dashoffset:0"
       id="path36-5"
       cx="305.47345"
       cy="35.999348"
       r="2.5425382" />
    <path
       style="display:inline;fill:#ff0000;stroke:none;stroke-width:0.79375;stroke-linejoin:round;stroke-dasharray:none;stroke-dashoffset:0"
       id="path33-4"
       sodipodi:type="arc"
       sodipodi:cx="230.09456"
       sodipodi:cy="45.473316"
       sodipodi:rx="1.4635348"
       sodipodi:ry="1.4635348"
       sodipodi:start="0.27348598"
       sodipodi:end="6.1658611"
       sodipodi:open="true"
       sodipodi:arc-type="arc"
       d="m 231.5037,45.868602 a 1.4635348,1.4635348 0 0 1 -1.66508,1.045696 1.4635348,1.4635348 0 0 1 -1.20314,-1.55514 1.4635348,1.4635348 0 0 1 1.43036,-1.349095 1.4635348,1.4635348 0 0 1 1.48219,1.291939" />
    <path
       style="display:inline;fill:#ff0000;stroke:none;stroke-width:0.79375;stroke-linejoin:round;stroke-dasharray:none;stroke-dashoffset:0"
       id="path34-5"
       sodipodi:type="arc"
       sodipodi:cx="254.58661"
       sodipodi:cy="27.949419"
       sodipodi:rx="1.4635348"
       sodipodi:ry="1.4635348"
       sodipodi:start="0.27348598"
       sodipodi:end="6.1658611"
       sodipodi:open="true"
       sodipodi:arc-type="arc"
       d="m 255.99575,28.344704 a 1.4635348,1.4635348 0 0 1 -1.66508,1.045697 1.4635348,1.4635348 0 0 1 -1.20314,-1.55514 1.4635348,1.4635348 0 0 1 1.43036,-1.349095 1.4635348,1.4635348 0 0 1 1.48219,1.291939" />
    <path
       style="display:inline;fill:#ff0000;stroke:none;stroke-width:0.79375;stroke-linejoin:round;stroke-dasharray:none;stroke-dashoffset:0"
       id="path35-2"
       sodipodi:type="arc"
       sodipodi:cx="290.80725"
       sodipodi:cy="33.537754"
       sodipodi:rx="1.4635348"
       sodipodi:ry="1.4635348"
       sodipodi:start="0.27348598"
       sodipodi:end="6.1658611"
       sodipodi:open="true"
       sodipodi:arc-type="arc"
       d="m 292.21639,33.933039 a 1.4635348,1.4635348 0 0 1 -1.66508,1.045697 1.4635348,1.4635348 0 0 1 -1.20313,-1.55514 1.4635348,1.4635348 0 0 1 1.43036,-1.349095 1.4635348,1.4635348 0 0 1 1.48218,1.291939" />
  </g>
</svg>
