<?xml version="1.0" encoding="UTF-8" standalone="no"?>
<!-- Created with Inkscape (http://www.inkscape.org/) -->

<svg
   width="193.08235mm"
   height="163.68274mm"
   viewBox="0 0 193.08236 163.68275"
   version="1.1"
   id="svg1"
   inkscape:version="1.4-beta3 (01c8a1c, 2024-08-28)"
   sodipodi:docname="06-Pinza-Piezas-dibujo-2D.svg"
   xmlns:inkscape="http://www.inkscape.org/namespaces/inkscape"
   xmlns:sodipodi="http://sodipodi.sourceforge.net/DTD/sodipodi-0.dtd"
   xmlns="http://www.w3.org/2000/svg"
   xmlns:svg="http://www.w3.org/2000/svg">
  <sodipodi:namedview
     id="namedview1"
     pagecolor="#ffffff"
     bordercolor="#000000"
     borderopacity="0.25"
     inkscape:showpageshadow="2"
     inkscape:pageopacity="0.0"
     inkscape:pagecheckerboard="0"
     inkscape:deskcolor="#d1d1d1"
     inkscape:document-units="mm"
     inkscape:zoom="0.67793912"
     inkscape:cx="181.43222"
     inkscape:cy="195.44528"
     inkscape:window-width="1920"
     inkscape:window-height="1043"
     inkscape:window-x="0"
     inkscape:window-y="0"
     inkscape:window-maximized="1"
     inkscape:current-layer="layer14"
     showguides="true"
     showgrid="false" />
  <defs
     id="defs1">
    <marker
       style="overflow:visible"
       id="Triangle"
       refX="0"
       refY="0"
       orient="auto-start-reverse"
       inkscape:stockid="Triangle arrow"
       markerWidth="1"
       markerHeight="1"
       viewBox="0 0 1 1"
       inkscape:isstock="true"
       inkscape:collect="always"
       preserveAspectRatio="xMidYMid">
      <path
         transform="scale(0.5)"
         style="fill:context-stroke;fill-rule:evenodd;stroke:context-stroke;stroke-width:1pt"
         d="M 5.77,0 -2.88,5 V -5 Z"
         id="path135" />
    </marker>
  </defs>
  <g
     inkscape:groupmode="layer"
     id="layer12"
     inkscape:label="Back"
     transform="translate(71.636093,-146.64517)"
     style="display:inline"
     sodipodi:insensitive="true">
    <rect
       style="opacity:1;fill:#ffffff;stroke-width:0.529167;stroke-linejoin:round"
       id="rect1"
       width="193.08235"
       height="163.68274"
       x="-71.636093"
       y="146.64517" />
  </g>
  <g
     inkscape:groupmode="layer"
     id="layer4"
     inkscape:label="Pinza-cerrada"
     style="display:inline;opacity:1"
     transform="translate(62.279122,-197.0285)"
     sodipodi:insensitive="true">
    <g
       id="g2">
      <path
         style="display:inline;fill:#ffccaa;fill-opacity:1;stroke:#000000;stroke-width:0.529167;stroke-linejoin:round;stroke-dasharray:none"
         d="m 114.66231,250.24607 v 0 l -5.85414,-6.34199 -12.488831,-14.24507 -9.17148,-7.80552 -4.3906,-2.14652 c 0,0 -6.43956,-1.65867 -10.04961,-2.24408 -3.61005,-0.58542 -8.1958,-0.48785 -8.1958,-0.48785 l -8.00065,0.68298 -5.26873,0.58542 -7.61038,0.48784 -2.24409,-0.19513 -3.31734,-0.29271 -4.78088,0.19514 -6.33929,-0.42483 -9.65883,0.96589 -8.0038527,0.23949 -13.269381,0.48785 -1.5611,0.87812 -1.75625,0.87812 -4.4881703,4.0979 -0.48785,1.65867 -2.73193,3.80519 -6.63469,8.09822 -10.0496,13.56209 -2.34166,4.97602 -0.97569,3.61005 -1.46353,9.36662 -0.68299,7.61038 -0.29271,5.07359 -1.5611,9.17149 c 0,0 0.292709,3.61005 2.731933,4.87845 2.439225,1.26839 5.378132,0.15962 5.378132,0.15962 0,0 6.663268,-1.64683 10.956303,-5.93987 4.293036,-4.29303 4.838036,-9.44051 5.130743,-9.83079 0.292707,-0.39028 1.95138,-3.41492 2.8295,-5.56143 0.878121,-2.14652 1.561104,-9.36663 1.561104,-9.36663 0,0 1.8538113,0.58542 3.8051913,-0.87812 1.95138,-1.46353 9.854468,-11.22043 9.854468,-11.22043 l 1.561103,-3.02464 1.463535,-0.48784 c 0,0 0.780552,2.04894 3.9027597,2.73193 3.122207,0.68298 24.197112,-1.36597 24.197112,-1.36597 0,0 1.26839,9.26906 4.87845,13.46452 3.61005,4.19547 11.61071,10.24475 11.61071,10.24475 l -0.29271,9.65933 -4.97602,5.75657 -6.04928,5.26872 c 0,0 -6.63469,-1.5611 -16.48916,-2.53679 -9.854464,-0.97569 -15.2779127,-1.90607 -15.2779127,-1.90607 0,0 -3.35776,-1.80155 -12.626813,-1.50885 -9.2690543,0.29271 -16.4891593,2.63437 -16.4891593,2.63437 0,0 -1.098479,0.0351 -5.911295,2.61068 -4.838034,2.58905 -15.311811,6.99794 -14.982337,15.6841 0.368633,9.71851 9.311499,10.36395 9.311499,10.36395 l 9.556858,0.33312 9.256027,1.42803 10.7889023,2.39881 4.668602,0.60909 7.041708,1.54436 10.5117407,4.01014 3.87503,1.6448 91.778391,-0.64752 z"
         id="path1"
         sodipodi:nodetypes="ccccccccccccccccccccccccsccccccscssscscccscsccccscscsscccccccccc"
         inkscape:label="path1" />
      <path
         style="display:inline;opacity:0.993447;fill:#ffe6d5;fill-opacity:0.996078;stroke:#000000;stroke-width:0.529167;stroke-linecap:butt;stroke-linejoin:miter;stroke-dasharray:none;stroke-opacity:1"
         d="m -38.608617,315.22961 c -0.54222,-4.00911 1.30613,-9.46562 4.71003,-11.18785 3.40391,-1.72224 10.16916,-0.31342 11.80477,0.49247 1.6356,0.80587 5.46402,10.52637 5.47286,13.50754 0.009,2.98116 -1.39808,3.70557 -1.39808,3.70557 0,0 -14.22906,0.21117 -17.27061,-2.30393 -3.04155,-2.51513 -3.07944,-2.4428 -3.31897,-4.2138 z"
         id="path4586"
         sodipodi:nodetypes="assscsa"
         inkscape:export-filename="/home/obijuan/Develop/myTeachingURJC/Mecatronica/wiki/S03/pinza-simple-03.png"
         inkscape:export-xdpi="90"
         inkscape:export-ydpi="90"
         inkscape:label="path4586" />
      <path
         style="display:inline;fill:none;stroke:#000000;stroke-width:0.529167;stroke-linejoin:round;stroke-dasharray:none"
         d="m -10.164654,267.12352 c 0,0 -2.621684,-0.68991 -6.209252,-3.44958 -3.58757,-2.75967 -7.175137,-5.93329 -7.175137,-5.93329"
         id="path3" />
      <path
         style="display:inline;fill:none;stroke:#000000;stroke-width:0.529167;stroke-linejoin:round;stroke-dasharray:none"
         d="m 6.1173843,251.66939 c 0,0 -0.8279,-0.96589 -3.72555,-6.20926 -2.89765099,-5.24336 -4.829419,-9.24488 -4.829419,-9.24488"
         id="path4"
         inkscape:label="path4" />
      <path
         style="display:inline;fill:none;stroke:#000000;stroke-width:0.529167;stroke-linejoin:round;stroke-dasharray:none"
         d="m 34.541969,253.04922 c 0,0 -0.13799,-2.62168 0.41395,-5.65732 0.55193,-3.03563 2.89765,-6.34723 2.89765,-6.34723"
         id="path5" />
    </g>
  </g>
  <g
     inkscape:groupmode="layer"
     id="layer9"
     inkscape:label="Pinza-abierta"
     style="display:none;opacity:1"
     transform="translate(71.636093,-146.64517)"
     sodipodi:insensitive="true" />
  <g
     inkscape:groupmode="layer"
     id="layer11"
     inkscape:label="Alambrico"
     style="display:none"
     transform="translate(71.636093,-146.64517)">
    <path
       style="opacity:1;fill:#000080;stroke:none;stroke-width:0.79375;stroke-linejoin:round;stroke-dasharray:none;stroke-dashoffset:0"
       id="path46"
       sodipodi:type="arc"
       sodipodi:cx="-35.905037"
       sodipodi:cy="242.95735"
       sodipodi:rx="3.2573187"
       sodipodi:ry="3.2573187"
       sodipodi:start="0.27348598"
       sodipodi:end="6.1658611"
       sodipodi:open="true"
       sodipodi:arc-type="arc"
       d="m -32.768776,243.83712 a 3.2573187,3.2573187 0 0 1 -3.705899,2.32735 3.2573187,3.2573187 0 0 1 -2.677756,-3.46119 3.2573187,3.2573187 0 0 1 3.183484,-3.00262 3.2573187,3.2573187 0 0 1 3.298836,2.87541" />
    <path
       style="opacity:1;fill:none;stroke:#000080;stroke-width:0.79375;stroke-linejoin:round;stroke-dasharray:none;stroke-dashoffset:0"
       d="m -35.898118,246.22676 5.792926,-36.43771 19.00922,-22.09794 54.960962,-6.06315"
       id="path47"
       sodipodi:nodetypes="cccc" />
    <path
       style="opacity:1;fill:#008000;stroke:none;stroke-width:0.79375;stroke-linejoin:round;stroke-dasharray:none;stroke-dashoffset:0"
       id="path59"
       sodipodi:type="arc"
       sodipodi:cx="-31.765535"
       sodipodi:cy="247.64879"
       sodipodi:rx="3.2573187"
       sodipodi:ry="3.2573187"
       sodipodi:start="0.27348598"
       sodipodi:end="6.1658611"
       sodipodi:open="true"
       sodipodi:arc-type="arc"
       d="m -28.629274,248.52856 a 3.2573187,3.2573187 0 0 1 -3.7059,2.32735 3.2573187,3.2573187 0 0 1 -2.677756,-3.4612 3.2573187,3.2573187 0 0 1 3.183485,-3.00261 3.2573187,3.2573187 0 0 1 3.298836,2.8754" />
    <path
       style="opacity:1;fill:none;stroke:#008000;stroke-width:0.79375;stroke-linejoin:round;stroke-dasharray:none;stroke-dashoffset:0"
       d="m -31.758895,247.64901 75.667403,1.10863 -0.05251,-67.20267"
       id="path60"
       sodipodi:nodetypes="ccc" />
    <circle
       style="fill:#000000;stroke:none;stroke-width:0.793749;stroke-linejoin:round;stroke-dasharray:none;stroke-dashoffset:0"
       id="circle55"
       cx="43.772984"
       cy="181.86397"
       r="2.5425382" />
  </g>
  <g
     inkscape:groupmode="layer"
     id="layer13"
     inkscape:label="Pieza-Pulgar-1"
     style="display:none"
     sodipodi:insensitive="true">
    <circle
       style="fill:none;stroke:#000000;stroke-width:0.79375;stroke-linejoin:round"
       id="path6"
       cx="41.532997"
       cy="111.02211"
       r="13.384387" />
    <circle
       style="fill:none;stroke:#000000;stroke-width:0.79375;stroke-linejoin:round"
       id="circle6"
       cx="114.94016"
       cy="111.02211"
       r="13.384387" />
    <circle
       style="fill:none;stroke:#000000;stroke-width:0.79375;stroke-linejoin:round"
       id="circle7"
       cx="114.94016"
       cy="34.579315"
       r="13.384387" />
    <rect
       style="fill:none;stroke:#000000;stroke-width:0.79375;stroke-linejoin:round"
       id="rect7"
       width="74.786995"
       height="27.044743"
       x="40.843086"
       y="97.692238" />
    <rect
       style="fill:none;stroke:#000000;stroke-width:0.79375;stroke-linejoin:round"
       id="rect8"
       width="74.786995"
       height="27.044743"
       x="-110.52469"
       y="101.41779"
       transform="rotate(-90)" />
  </g>
  <g
     inkscape:groupmode="layer"
     id="layer14"
     inkscape:label="Pieza-Pulgar-2"
     style="display:inline">
    <path
       id="path6-6"
       style="fill:#aaccff;stroke:#000000;stroke-width:0.79375;stroke-linejoin:round"
       d="m 114.94027,21.195089 a 13.384387,13.384387 0 0 0 -13.38471,13.384196 13.384387,13.384387 0 0 0 0.0832,1.158585 h -0.22118 V 97.692228 H 42.711088 a 13.384387,13.384387 0 0 0 -1.178223,-0.05426 13.384387,13.384387 0 0 0 -13.384196,13.384192 13.384387,13.384387 0 0 0 12.694316,13.33511 v 0.37982 h 74.787165 v -0.37982 a 13.384387,13.384387 0 0 0 12.69432,-13.33511 13.384387,13.384387 0 0 0 -0.0119,-0.49764 h 0.14986 V 35.73787 h -0.22066 a 13.384387,13.384387 0 0 0 0.0827,-1.158585 13.384387,13.384387 0 0 0 -13.3842,-13.384196 z" />
    <circle
       style="display:inline;fill:#000000;stroke:none;stroke-width:0.793749;stroke-linejoin:round;stroke-dasharray:none;stroke-dashoffset:0"
       id="circle55-7"
       cx="115.40907"
       cy="35.2188"
       r="2.5425382" />
    <path
       style="fill:#cccccc;stroke:#000000;stroke-width:0.79375;stroke-linejoin:round;marker-start:url(#Triangle);marker-end:url(#Triangle)"
       d="M 27.751794,149.57399 H 115.3541"
       id="path9" />
    <path
       style="fill:#cccccc;stroke:#000000;stroke-width:0.79375;stroke-linejoin:round;stroke-dasharray:0.79375, 2.38125;stroke-dashoffset:0"
       d="m 27.872645,103.1801 v 52.18919"
       id="path10" />
    <path
       style="fill:#cccccc;stroke:#000000;stroke-width:0.793749;stroke-linejoin:round;stroke-dasharray:0.793749, 2.38126;stroke-dashoffset:0"
       d="M 114.95723,37.720868 V 155.36929"
       id="path11" />
    <text
       xml:space="preserve"
       style="font-weight:bold;font-size:7.7611px;font-family:sans;-inkscape-font-specification:'sans Bold';text-align:center;writing-mode:lr-tb;direction:ltr;text-anchor:middle;fill:#000000;stroke:none;stroke-width:0.79375;stroke-linejoin:round;stroke-dasharray:0.79375, 2.38125;stroke-dashoffset:0"
       x="70.923462"
       y="147.05347"
       id="text11"><tspan
         sodipodi:role="line"
         id="tspan11"
         style="fill:#000000;stroke:none;stroke-width:0.79375"
         x="70.923462"
         y="147.05347">60mm</tspan></text>
  </g>
</svg>
