<?xml version="1.0" encoding="UTF-8" standalone="no"?>
<!-- Created with Inkscape (http://www.inkscape.org/) -->

<svg
   width="964.24329mm"
   height="423.81256mm"
   viewBox="0 0 964.24329 423.81257"
   version="1.1"
   id="svg5"
   inkscape:version="1.1.1 (3bf5ae0, 2021-09-20)"
   sodipodi:docname="pinza-simple-05.svg"
   xmlns:inkscape="http://www.inkscape.org/namespaces/inkscape"
   xmlns:sodipodi="http://sodipodi.sourceforge.net/DTD/sodipodi-0.dtd"
   xmlns="http://www.w3.org/2000/svg"
   xmlns:svg="http://www.w3.org/2000/svg">
  <sodipodi:namedview
     id="namedview7"
     pagecolor="#ffffff"
     bordercolor="#666666"
     borderopacity="1.0"
     inkscape:pageshadow="2"
     inkscape:pageopacity="0.0"
     inkscape:pagecheckerboard="0"
     inkscape:document-units="mm"
     showgrid="false"
     inkscape:snap-global="false"
     inkscape:zoom="0.22645918"
     inkscape:cx="1976.0736"
     inkscape:cy="786.01362"
     inkscape:window-width="1920"
     inkscape:window-height="1043"
     inkscape:window-x="1920"
     inkscape:window-y="0"
     inkscape:window-maximized="1"
     inkscape:current-layer="layer5"
     fit-margin-top="0"
     fit-margin-left="0"
     fit-margin-right="0"
     fit-margin-bottom="0"
     showguides="true"
     inkscape:guide-bbox="true"
     inkscape:snap-object-midpoints="true"
     inkscape:snap-bbox="true"
     inkscape:bbox-paths="true"
     inkscape:snap-center="true" />
  <defs
     id="defs2">
    <marker
       style="overflow:visible"
       id="Arrow2Mend"
       refX="0"
       refY="0"
       orient="auto"
       inkscape:stockid="Arrow2Mend"
       inkscape:isstock="true">
      <path
         transform="scale(-0.6)"
         d="M 8.7185878,4.0337352 -2.2072895,0.01601326 8.7185884,-4.0017078 c -1.7454984,2.3720609 -1.7354408,5.6174519 -6e-7,8.035443 z"
         style="fill:context-stroke;fill-rule:evenodd;stroke:context-stroke;stroke-width:0.625;stroke-linejoin:round"
         id="path13475" />
    </marker>
    <marker
       style="overflow:visible"
       id="Arrow2Mend-2"
       refX="0"
       refY="0"
       orient="auto"
       inkscape:stockid="Arrow2Mend"
       inkscape:isstock="true">
      <path
         transform="scale(-0.6)"
         d="M 8.7185878,4.0337352 -2.2072895,0.01601326 8.7185884,-4.0017078 c -1.7454984,2.3720609 -1.7354408,5.6174519 -6e-7,8.035443 z"
         style="fill:context-stroke;fill-rule:evenodd;stroke:context-stroke;stroke-width:0.625;stroke-linejoin:round"
         id="path13475-6" />
    </marker>
    <marker
       style="overflow:visible"
       id="Arrow2Mend-9"
       refX="0"
       refY="0"
       orient="auto"
       inkscape:stockid="Arrow2Mend"
       inkscape:isstock="true">
      <path
         transform="scale(-0.6)"
         d="M 8.7185878,4.0337352 -2.2072895,0.01601326 8.7185884,-4.0017078 c -1.7454984,2.3720609 -1.7354408,5.6174519 -6e-7,8.035443 z"
         style="fill:context-stroke;fill-rule:evenodd;stroke:context-stroke;stroke-width:0.625;stroke-linejoin:round"
         id="path13475-2" />
    </marker>
  </defs>
  <g
     inkscape:groupmode="layer"
     id="layer5"
     inkscape:label="back"
     transform="translate(-3.049994,35.740433)">
    <rect
       style="fill:#ffffff;stroke:none;stroke-width:1.05833;stroke-miterlimit:4;stroke-dasharray:none"
       id="rect5937-9"
       width="964.24329"
       height="423.81256"
       x="3.049994"
       y="-35.740433"
       inkscape:export-filename="/home/obijuan/Develop/myTeachingURJC/Mecatronica/wiki/S03/pinza-simple-07.png"
       inkscape:export-xdpi="90"
       inkscape:export-ydpi="90" />
    <rect
       style="fill:#ffffff;stroke:#000000;stroke-width:1.05833;stroke-miterlimit:4;stroke-dasharray:none"
       id="rect5937"
       width="941.91602"
       height="404.1008"
       x="14.675865"
       y="-27.294538"
       inkscape:export-filename="/home/obijuan/Develop/myTeachingURJC/Mecatronica/wiki/S03/pinza-simple-07.png"
       inkscape:export-xdpi="90"
       inkscape:export-ydpi="90" />
  </g>
  <g
     inkscape:groupmode="layer"
     id="layer3"
     inkscape:label="abierta-dibujo"
     style="display:none;opacity:1"
     transform="translate(118.28855,42.586903)">
    <path
       style="fill:#ffccaa;stroke:#000000;stroke-width:0.264583px;stroke-linecap:butt;stroke-linejoin:miter;stroke-opacity:1"
       d="m -12.593302,285.60821 c 0,0 -34.81457,2.58958 -35.123066,-18.16582 -0.308494,-20.75542 12.974206,-33.28421 32.593695,-41.82581 19.6194887,-8.54161 46.046323,-10.71788 62.344884,-8.69106 16.298561,2.02682 69.220609,8.96471 69.220609,8.96471 0,0 14.74894,2.29634 21.89602,-0.60658 7.1575,-2.90714 14.66323,-8.94828 18.08085,-16.72282 3.41762,-7.77455 7.94814,-25.59005 -6.01004,-35.92782 -13.95818,-10.33777 -11.28126,-4.74612 -20.21691,-21.75499 -8.93564,-17.00887 -12.57948,-30.88699 -12.57948,-30.88699 0,0 -25.376503,-3.94093 -39.99433,-8.08424 -14.617826,-4.1433 -22.684866,-12.417859 -22.684866,-12.417859 0,0 -20.563327,21.097589 -29.894899,25.921789 -9.331573,4.82419 -12.889392,3.28941 -12.889392,3.28941 0,0 -6.2365462,24.69585 -19.9269748,38.967 -13.6904282,14.27115 -23.9956892,24.44135 -35.0755632,21.80825 -11.079877,-2.63311 -19.523382,-12.29713 -18.235451,-19.44986 1.28793,-7.15274 9.825426,-28.10615 9.825426,-28.10615 l 12.024519,-35.49368 c 0,0 5.347065,-9.946014 7.929583,-14.894145 2.582519,-4.948129 43.209769,-40.465674 43.209769,-40.465674 0,0 14.511937,-18.396529 25.058728,-22.634794 10.546795,-4.238267 35.559939,0.313838 35.559939,0.313838 0,0 62.262092,12.168341 79.343032,14.478984 17.08094,2.310646 51.14116,0.739823 62.33812,6.077307 11.19696,5.337485 19.86879,12.263065 19.86879,12.263065 0,0 14.00033,1.533154 23.42933,10.386292 9.42899,8.853136 27.59132,29.551207 27.59132,29.551207 0,0 6.78315,179.33338 4.50246,187.94625 -2.28068,8.61285 -214.479543,13.21245 -224.97722,9.48717 -10.497679,-3.72528 -38.725157,-10.71224 -52.345697,-10.71224 -13.6205412,0 -24.863185,-2.61474 -24.863185,-2.61474 z"
       id="path907"
       sodipodi:nodetypes="cssscszsscscscsssccscscsscscsssc"
       inkscape:export-filename="/home/obijuan/Develop/myTeachingURJC/Mecatronica/wiki/S03/pinza-simple-03.png"
       inkscape:export-xdpi="90"
       inkscape:export-ydpi="90" />
    <path
       style="fill:none;stroke:#000000;stroke-width:0.264583px;stroke-linecap:butt;stroke-linejoin:miter;stroke-opacity:1"
       d="m 13.10232,128.8408 c 0,0 -9.028324,-13.48445 -16.4565909,-20.62088 -7.4282671,-7.13643 -9.4361531,-8.631385 -9.4361531,-8.631385"
       id="path4325"
       inkscape:export-filename="/home/obijuan/Develop/myTeachingURJC/Mecatronica/wiki/S03/pinza-simple-03.png"
       inkscape:export-xdpi="90"
       inkscape:export-ydpi="90" />
    <path
       style="fill:none;stroke:#000000;stroke-width:0.264583px;stroke-linecap:butt;stroke-linejoin:miter;stroke-opacity:1"
       d="m 54.934061,99.48893 c 0,0 -1.87286,-6.426808 -5.840175,-15.901347 -3.983366,-9.512872 -6.213249,-22.76947 -6.213249,-22.76947"
       id="path4327"
       sodipodi:nodetypes="csc"
       inkscape:export-filename="/home/obijuan/Develop/myTeachingURJC/Mecatronica/wiki/S03/pinza-simple-03.png"
       inkscape:export-xdpi="90"
       inkscape:export-ydpi="90" />
    <path
       style="fill:none;stroke:#000000;stroke-width:0.264583px;stroke-linecap:butt;stroke-linejoin:miter;stroke-opacity:1"
       d="m 117.61326,119.99103 c 0,0 -0.0583,-2.06299 1.98079,-14.52898 2.03905,-12.465976 6.50289,-23.970398 6.50289,-23.970398"
       id="path4457"
       inkscape:export-filename="/home/obijuan/Develop/myTeachingURJC/Mecatronica/wiki/S03/pinza-simple-03.png"
       inkscape:export-xdpi="90"
       inkscape:export-ydpi="90" />
    <path
       style="display:inline;opacity:0.993447;fill:#ffe6d5;stroke:#000000;stroke-width:0.264583px;stroke-linecap:butt;stroke-linejoin:miter;stroke-opacity:1"
       d="m -43.964075,269.87242 c -1.254778,-9.28964 3.022567,-21.93314 10.89971,-25.9238 7.877141,-3.99066 23.532945,-0.72623 27.317975,1.14111 3.78503,1.86734 12.64454,24.3911 12.66501,31.29887 0.0205,6.90777 -3.23536,8.58634 -3.23536,8.58634 0,0 -32.928155,0.48929 -39.966747,-5.33855 -7.038591,-5.82788 -7.126294,-5.6603 -7.680588,-9.76397 z"
       id="path4586-6"
       sodipodi:nodetypes="assscsa"
       inkscape:export-filename="/home/obijuan/Develop/myTeachingURJC/Mecatronica/wiki/S03/pinza-simple-03.png"
       inkscape:export-xdpi="90"
       inkscape:export-ydpi="90" />
  </g>
  <g
     inkscape:groupmode="layer"
     id="layer4"
     inkscape:label="cerrada-dibujo"
     style="display:inline;opacity:1"
     transform="translate(-3.049994,35.740433)">
    <path
       id="path1972"
       style="fill:#ffccaa;stroke:#000000;stroke-width:0.264583px;stroke-linecap:butt;stroke-linejoin:miter;stroke-opacity:1"
       d="m 355.40824,68.410741 c 0,0 14.00033,1.533154 23.42933,10.386292 9.42899,8.853136 27.59132,29.551207 27.59132,29.551207 0,0 6.78315,179.33338 4.50246,187.94625 -2.28068,8.61285 -214.47954,13.21245 -224.97722,9.48717 -10.49768,-3.72528 -38.72516,-10.71224 -52.3457,-10.71224 -13.62054,0 -24.86318,-2.61474 -24.86318,-2.61474 0,0 -34.814573,2.58958 -35.123069,-18.16582 -0.308494,-20.75542 12.974206,-33.28421 32.593699,-41.82581 19.61949,-8.54161 46.04632,-10.71788 62.34488,-8.69106 16.29856,2.02682 69.22061,8.96471 69.22061,8.96471 0,0 14.74894,2.29634 21.89602,-0.60658 7.1575,-2.90714 14.66323,-8.94828 18.08085,-16.72282 3.41762,-7.77455 7.94814,-25.59005 -6.01004,-35.92782 -13.95818,-10.33777 -11.28126,-4.74612 -20.19348,-21.71439 -6.59522,-9.10915 -8.42212,-19.90754 -8.42212,-19.90754 l -23.3137,3.04113 c 0,0 -27.51751,0.7408 -33.40083,-1.75058 -5.88333,-2.49139 -7.94981,-5.52485 -7.94981,-5.52485 0,0 -1.81521,2.50891 -2.64368,1.68727 -0.82846,-0.82163 -25.01632,31.84856 -27.45901,32.54412 -2.44269,0.69555 -7.51102,1.13906 -7.51102,1.13906 0,0 0.18082,1.90933 -0.0959,5.70159 -0.27673,3.79227 -2.85254,13.20189 -9.54517,29.09065 -6.69263,15.88875 -12.30132,21.01231 -17.38582,24.63276 -2.54226,1.81022 -6.25771,3.14771 -9.92259,4.7245 -3.66488,1.5768 -6.449685,4.44627 -10.443092,6.199 -7.986811,3.50546 -14.585725,-6.3222 -15.862009,-9.86587 -1.276284,-3.54366 3.01788,-27.51333 3.01788,-27.51333 0,0 2.310676,-26.3827 5.462451,-40.74026 3.151775,-14.35755 36.89783,-63.710309 36.89783,-63.710309 0,0 14.38929,-23.118319 23.84804,-28.862225 9.45875,-5.743907 53.61983,-6.612824 53.61983,-6.612824 0,0 37.77053,-1.010111 47.84896,-1.010111 10.07844,0 18.04152,1.179937 24.90614,1.179937 6.86462,0 48.86814,-6.635429 57.82571,-4.384125 8.95758,2.251304 13.14371,2.997176 13.14371,2.997176 4.94359,2.070793 11.23772,7.590482 11.23772,7.590482 z"
       sodipodi:nodetypes="cscssscssscssscccscsscsssssscscscssscc"
       inkscape:export-filename="/home/obijuan/Develop/myTeachingURJC/Mecatronica/wiki/S03/pinza-simple-07.png"
       inkscape:export-xdpi="90"
       inkscape:export-ydpi="90" />
    <path
       style="fill:none;stroke:#000000;stroke-width:0.264583px;stroke-linecap:butt;stroke-linejoin:miter;stroke-opacity:1"
       d="m 243.1326,137.85754 c 0,0 -0.47217,-4.93663 0.4037,-10.64163 0.87586,-5.705 4.3878,-11.22876 4.3878,-11.22876"
       id="path4971"
       inkscape:export-filename="/home/obijuan/Develop/myTeachingURJC/Mecatronica/wiki/S03/pinza-simple-07.png"
       inkscape:export-xdpi="90"
       inkscape:export-ydpi="90" />
    <path
       style="fill:none;stroke:#000000;stroke-width:0.264583px;stroke-linecap:butt;stroke-linejoin:miter;stroke-opacity:1"
       d="m 178.46826,133.62324 c 0,0 -3.2524,-2.62284 -9.74631,-14.07463 -6.49391,-11.45179 -10.89673,-20.884716 -10.89673,-20.884716"
       id="path4973"
       inkscape:export-filename="/home/obijuan/Develop/myTeachingURJC/Mecatronica/wiki/S03/pinza-simple-07.png"
       inkscape:export-xdpi="90"
       inkscape:export-ydpi="90" />
    <path
       style="fill:none;stroke:#000000;stroke-width:0.264583px;stroke-linecap:butt;stroke-linejoin:miter;stroke-opacity:1"
       d="m 140.85455,168.99369 c 0,0 -9.5193,-1.68492 -18.83201,-9.61244 -9.31272,-7.92751 -13.26072,-13.80375 -13.26072,-13.80375"
       id="path4975"
       inkscape:export-filename="/home/obijuan/Develop/myTeachingURJC/Mecatronica/wiki/S03/pinza-simple-07.png"
       inkscape:export-xdpi="90"
       inkscape:export-ydpi="90" />
    <path
       style="display:inline;opacity:0.993447;fill:#ffe6d5;stroke:#000000;stroke-width:0.264583px;stroke-linecap:butt;stroke-linejoin:miter;stroke-opacity:1"
       d="m 77.374475,276.71889 c -1.254778,-9.28964 3.022567,-21.93314 10.89971,-25.9238 7.877141,-3.99066 23.532945,-0.72623 27.317975,1.14111 3.78503,1.86734 12.64454,24.3911 12.66501,31.29887 0.0205,6.90777 -3.23536,8.58634 -3.23536,8.58634 0,0 -32.928155,0.48929 -39.966747,-5.33855 -7.038591,-5.82788 -7.126294,-5.6603 -7.680588,-9.76397 z"
       id="path4586"
       sodipodi:nodetypes="assscsa"
       inkscape:export-filename="/home/obijuan/Develop/myTeachingURJC/Mecatronica/wiki/S03/pinza-simple-07.png"
       inkscape:export-xdpi="90"
       inkscape:export-ydpi="90" />
  </g>
  <g
     inkscape:groupmode="layer"
     id="layer6"
     inkscape:label="pinza-mecanica"
     style="display:inline"
     transform="translate(-61.066195,33.66687)">
    <path
       id="path7141-3"
       style="fill:#d5e5ff;stroke:#000000;stroke-width:0.529167"
       d="M 426.48248,102.10074 C 426.4824,83.744934 411.6021,68.864625 392.93369,68.898335 l -191.4739,10.913843 -58.92457,78.971922 -7.89719,52.47432 c -0.45193,1.68376 -0.68314,3.41912 -0.68782,5.16247 -1.6e-4,11.11387 9.00946,20.12348 20.12332,20.12332 6.64033,-5.3e-4 12.85287,-3.27701 16.60364,-8.75657 l 0.0465,0.0207 0.21394,-0.42995 c 0.83625,-1.28795 1.52233,-2.66739 2.04484,-4.11138 l 26.0966,-52.47331 35.98178,-37.88709 159.60862,1.96417 c 18.35023,0.0176 31.81323,-14.41403 31.81302,-32.77004 z"
       sodipodi:nodetypes="ccccccccccccccc"
       inkscape:export-filename="/home/obijuan/Develop/myTeachingURJC/Mecatronica/wiki/S03/pinza-simple-07.png"
       inkscape:export-xdpi="90"
       inkscape:export-ydpi="90" />
    <path
       id="path7141"
       style="fill:#aaccff;stroke:#000000;stroke-width:2"
       d="M 1486.2852,260.27539 A 125.61776,125.61776 0 0 0 1360.668,385.89258 h -1 V 889.75195 H 618.69141 v 1 a 125.61776,125.61776 0 0 0 -125.61914,125.61715 125.61776,125.61776 0 0 0 125.61914,125.6172 v 1 h 867.59379 v -1 a 125.61776,125.61776 0 0 0 125.6171,-125.6172 h 1 V 385.89258 h -1 A 125.61776,125.61776 0 0 0 1486.2852,260.27539 Z"
       transform="scale(0.26458333)"
       inkscape:export-filename="/home/obijuan/Develop/myTeachingURJC/Mecatronica/wiki/S03/pinza-simple-07.png"
       inkscape:export-xdpi="90"
       inkscape:export-ydpi="90" />
    <circle
       style="fill:#b3b3b3;stroke:#000000;stroke-width:0.529167"
       id="path6921"
       cx="393.24619"
       cy="102.10086"
       r="10.174639"
       inkscape:export-filename="/home/obijuan/Develop/myTeachingURJC/Mecatronica/wiki/S03/pinza-simple-07.png"
       inkscape:export-xdpi="90"
       inkscape:export-ydpi="90" />
  </g>
  <g
     inkscape:groupmode="layer"
     id="layer7"
     inkscape:label="pinza-mecanica 2"
     transform="translate(-61.066195,33.66687)">
    <path
       style="display:inline;fill:#ffccaa;stroke:#000000;stroke-width:0.264583px;stroke-linecap:butt;stroke-linejoin:miter;stroke-opacity:1"
       d="m 626.55973,294.52801 c 0,0 -34.81457,2.58958 -35.12307,-18.16582 -0.30849,-20.75542 12.97421,-33.28421 32.5937,-41.82581 19.61949,-8.54161 46.04632,-10.71788 62.34488,-8.69106 16.29856,2.02682 69.22061,8.96471 69.22061,8.96471 0,0 14.74894,2.29634 21.89602,-0.60658 7.1575,-2.90714 14.66323,-8.94828 18.08085,-16.72282 3.41762,-7.77455 7.94814,-25.59005 -6.01004,-35.92782 -13.95818,-10.33777 -11.28126,-4.74612 -20.21691,-21.75499 -8.93564,-17.00887 -12.57948,-30.88699 -12.57948,-30.88699 0,0 -25.3765,-3.94093 -39.99433,-8.08424 -14.61783,-4.14331 -22.68487,-12.41787 -22.68487,-12.41787 0,0 -20.56332,21.0976 -29.8949,25.9218 -9.33157,4.82419 -12.88939,3.28941 -12.88939,3.28941 0,0 -6.23654,24.69585 -19.92697,38.967 -13.69043,14.27115 -23.99569,24.44135 -35.07557,21.80825 -11.07987,-2.63311 -19.52338,-12.29713 -18.23545,-19.44986 1.28793,-7.15274 9.82543,-28.10615 9.82543,-28.10615 l 12.02452,-35.49369 c 0,0 5.34706,-9.94601 7.92958,-14.89414 2.58252,-4.948131 43.20977,-40.465676 43.20977,-40.465676 0,0 14.51194,-18.396529 25.05873,-22.634794 10.54679,-4.238267 35.55994,0.313838 35.55994,0.313838 0,0 62.26209,12.168341 79.34303,14.478984 17.08094,2.310646 51.14116,0.739823 62.33812,6.077307 11.19696,5.337485 19.86879,12.263065 19.86879,12.263065 0,0 14.00033,1.533154 23.42933,10.386292 9.42899,8.853136 27.59132,29.551204 27.59132,29.551204 0,0 6.78315,179.33339 4.50246,187.94626 -2.28068,8.61285 -214.47954,13.21245 -224.97722,9.48717 -10.49768,-3.72528 -38.72516,-10.71224 -52.3457,-10.71224 -13.62054,0 -24.86318,-2.61474 -24.86318,-2.61474 z"
       id="path907-2"
       sodipodi:nodetypes="cssscszsscscscsssccscscsscscsssc"
       inkscape:export-filename="/home/obijuan/Develop/myTeachingURJC/Mecatronica/wiki/S03/pinza-simple-07.png"
       inkscape:export-xdpi="90"
       inkscape:export-ydpi="90" />
    <path
       style="display:inline;fill:none;stroke:#000000;stroke-width:0.264583px;stroke-linecap:butt;stroke-linejoin:miter;stroke-opacity:1"
       d="m 652.25535,137.7606 c 0,0 -9.02832,-13.48445 -16.45659,-20.62089 -7.42827,-7.13643 -9.43615,-8.63138 -9.43615,-8.63138"
       id="path4325-9"
       inkscape:export-filename="/home/obijuan/Develop/myTeachingURJC/Mecatronica/wiki/S03/pinza-simple-07.png"
       inkscape:export-xdpi="90"
       inkscape:export-ydpi="90" />
    <path
       style="display:inline;fill:none;stroke:#000000;stroke-width:0.264583px;stroke-linecap:butt;stroke-linejoin:miter;stroke-opacity:1"
       d="m 694.08709,108.40872 c 0,0 -1.87286,-6.4268 -5.84017,-15.901344 -3.98337,-9.512872 -6.21325,-22.76947 -6.21325,-22.76947"
       id="path4327-1"
       sodipodi:nodetypes="csc"
       inkscape:export-filename="/home/obijuan/Develop/myTeachingURJC/Mecatronica/wiki/S03/pinza-simple-07.png"
       inkscape:export-xdpi="90"
       inkscape:export-ydpi="90" />
    <path
       style="display:inline;fill:none;stroke:#000000;stroke-width:0.264583px;stroke-linecap:butt;stroke-linejoin:miter;stroke-opacity:1"
       d="m 756.76629,128.91083 c 0,0 -0.0583,-2.06299 1.98079,-14.52899 2.03905,-12.46597 6.50289,-23.970395 6.50289,-23.970395"
       id="path4457-2"
       inkscape:export-filename="/home/obijuan/Develop/myTeachingURJC/Mecatronica/wiki/S03/pinza-simple-07.png"
       inkscape:export-xdpi="90"
       inkscape:export-ydpi="90" />
    <path
       style="display:inline;opacity:0.993447;fill:#ffe6d5;stroke:#000000;stroke-width:0.264583px;stroke-linecap:butt;stroke-linejoin:miter;stroke-opacity:1"
       d="m 595.18896,278.79222 c -1.25478,-9.28964 3.02256,-21.93314 10.89971,-25.9238 7.87714,-3.99066 23.53294,-0.72623 27.31797,1.14111 3.78503,1.86734 12.64454,24.3911 12.66501,31.29887 0.0205,6.90777 -3.23536,8.58634 -3.23536,8.58634 0,0 -32.92816,0.48929 -39.96675,-5.33855 -7.03859,-5.82788 -7.12629,-5.6603 -7.68058,-9.76397 z"
       id="path4586-6-7"
       sodipodi:nodetypes="assscsa"
       inkscape:export-filename="/home/obijuan/Develop/myTeachingURJC/Mecatronica/wiki/S03/pinza-simple-07.png"
       inkscape:export-xdpi="90"
       inkscape:export-ydpi="90" />
    <path
       id="path7141-3-0"
       style="display:inline;fill:#d5e5ff;stroke:#000000;stroke-width:0.529167"
       d="M 885.87646,107.26887 C 888.73077,89.136342 876.34542,72.123109 857.89887,69.253405 L 667.05704,50.259621 596.56886,119.1079 580.6078,169.71585 c -0.70826,1.59301 -1.20652,3.2713 -1.48224,4.99272 -1.72841,10.97864 5.77059,21.27968 16.74928,23.00777 6.55964,1.03207 13.20611,-1.23848 17.76334,-6.06813 l 0.0427,0.0277 0.27819,-0.39146 c 1.02635,-1.14224 1.9186,-2.39822 2.6593,-3.74338 l 33.93893,-47.77688 41.43564,-31.83091 157.36161,26.75997 c 18.12426,2.87091 33.66766,-9.29162 36.52188,-27.42437 z"
       sodipodi:nodetypes="ccccccccccccccc"
       inkscape:transform-center-x="120.46289"
       inkscape:transform-center-y="22.009768"
       inkscape:export-filename="/home/obijuan/Develop/myTeachingURJC/Mecatronica/wiki/S03/pinza-simple-07.png"
       inkscape:export-xdpi="90"
       inkscape:export-ydpi="90" />
    <path
       id="path7141-9"
       style="display:inline;fill:#aaccff;stroke:#000000;stroke-width:0.529167"
       d="m 853.04456,68.864292 a 33.236365,33.236365 0 0 0 -33.23622,33.236218 h -0.26458 V 235.4133 H 623.4937 v 0.26458 a 33.236365,33.236365 0 0 0 -33.23673,33.23621 33.236365,33.236365 0 0 0 33.23673,33.23622 v 0.26458 h 229.55086 v -0.26458 a 33.236365,33.236365 0 0 0 33.23619,-33.23622 h 0.26458 V 102.10051 h -0.26458 A 33.236365,33.236365 0 0 0 853.04456,68.864292 Z"
       inkscape:export-filename="/home/obijuan/Develop/myTeachingURJC/Mecatronica/wiki/S03/pinza-simple-07.png"
       inkscape:export-xdpi="90"
       inkscape:export-ydpi="90" />
    <circle
       style="display:inline;fill:#b3b3b3;stroke:#000000;stroke-width:0.529167"
       id="path6921-3"
       cx="853.04443"
       cy="102.10062"
       r="10.174639"
       inkscape:export-filename="/home/obijuan/Develop/myTeachingURJC/Mecatronica/wiki/S03/pinza-simple-07.png"
       inkscape:export-xdpi="90"
       inkscape:export-ydpi="90" />
    <path
       style="fill:none;stroke:#000000;stroke-width:1.05833;stroke-linecap:butt;stroke-linejoin:miter;stroke-miterlimit:4;stroke-dasharray:none;stroke-opacity:1;marker-end:url(#Arrow2Mend)"
       d="M 459.62205,29.052803 405.2325,91.501243"
       id="path13226"
       inkscape:export-filename="/home/obijuan/Develop/myTeachingURJC/Mecatronica/wiki/S03/pinza-simple-07.png"
       inkscape:export-xdpi="90"
       inkscape:export-ydpi="90" />
    <path
       style="fill:none;stroke:#000000;stroke-width:1.05833;stroke-linecap:butt;stroke-linejoin:miter;stroke-miterlimit:4;stroke-dasharray:none;stroke-opacity:1;marker-end:url(#Arrow2Mend-9)"
       d="m 174.01888,40.781686 15.62019,82.398964"
       id="path13226-0"
       sodipodi:nodetypes="cc"
       inkscape:export-filename="/home/obijuan/Develop/myTeachingURJC/Mecatronica/wiki/S03/pinza-simple-07.png"
       inkscape:export-xdpi="90"
       inkscape:export-ydpi="90" />
    <path
       style="fill:none;stroke:#000000;stroke-width:1.05833;stroke-linecap:butt;stroke-linejoin:miter;stroke-miterlimit:4;stroke-dasharray:none;stroke-opacity:1;marker-end:url(#Arrow2Mend-2)"
       d="m 161.11578,329.65217 28.61426,-59.52342"
       id="path13226-1"
       sodipodi:nodetypes="cc"
       inkscape:export-filename="/home/obijuan/Develop/myTeachingURJC/Mecatronica/wiki/S03/pinza-simple-07.png"
       inkscape:export-xdpi="90"
       inkscape:export-ydpi="90" />
    <text
       xml:space="preserve"
       style="font-style:normal;font-weight:normal;font-size:23.0325px;line-height:1.25;font-family:sans-serif;fill:#000000;fill-opacity:1;stroke:none;stroke-width:0.264584"
       x="395.50836"
       y="17.629774"
       id="text12231"
       inkscape:export-filename="/home/obijuan/Develop/myTeachingURJC/Mecatronica/wiki/S03/pinza-simple-07.png"
       inkscape:export-xdpi="90"
       inkscape:export-ydpi="90"><tspan
         sodipodi:role="line"
         id="tspan12229"
         style="stroke-width:0.264584"
         x="395.50836"
         y="17.629774">Articulación</tspan></text>
    <text
       xml:space="preserve"
       style="font-style:normal;font-weight:normal;font-size:23.0325px;line-height:1.25;font-family:sans-serif;fill:#000000;fill-opacity:1;stroke:none;stroke-width:0.264584"
       x="676.35486"
       y="349.04947"
       id="text12231-2"
       inkscape:export-filename="/home/obijuan/Develop/myTeachingURJC/Mecatronica/wiki/S03/pinza-simple-07.png"
       inkscape:export-xdpi="90"
       inkscape:export-ydpi="90"><tspan
         sodipodi:role="line"
         id="tspan12229-3"
         style="fill:#0000ff;stroke-width:0.264584"
         x="676.35486"
         y="349.04947">Pinza abierta</tspan></text>
    <text
       xml:space="preserve"
       style="font-style:normal;font-weight:normal;font-size:23.0325px;line-height:1.25;font-family:sans-serif;fill:#000000;fill-opacity:1;stroke:none;stroke-width:0.264584"
       x="294.15472"
       y="349.04947"
       id="text12231-2-7"
       inkscape:export-filename="/home/obijuan/Develop/myTeachingURJC/Mecatronica/wiki/S03/pinza-simple-07.png"
       inkscape:export-xdpi="90"
       inkscape:export-ydpi="90"><tspan
         sodipodi:role="line"
         id="tspan12229-3-5"
         style="fill:#0000ff;stroke-width:0.264584"
         x="294.15472"
         y="349.04947">Pinza cerrada</tspan></text>
    <text
       xml:space="preserve"
       style="font-style:normal;font-weight:normal;font-size:23.0325px;line-height:1.25;font-family:sans-serif;fill:#000000;fill-opacity:1;stroke:none;stroke-width:0.264584"
       x="148.54439"
       y="352.15897"
       id="text12231-0"
       inkscape:export-filename="/home/obijuan/Develop/myTeachingURJC/Mecatronica/wiki/S03/pinza-simple-07.png"
       inkscape:export-xdpi="90"
       inkscape:export-ydpi="90"><tspan
         sodipodi:role="line"
         id="tspan12229-6"
         style="stroke-width:0.264584"
         x="148.54439"
         y="352.15897">Dedo fijo</tspan></text>
    <text
       xml:space="preserve"
       style="font-style:normal;font-weight:normal;font-size:23.0325px;line-height:1.25;font-family:sans-serif;fill:#000000;fill-opacity:1;stroke:none;stroke-width:0.264584"
       x="151.2486"
       y="32.868984"
       id="text12231-0-8"
       inkscape:export-filename="/home/obijuan/Develop/myTeachingURJC/Mecatronica/wiki/S03/pinza-simple-07.png"
       inkscape:export-xdpi="90"
       inkscape:export-ydpi="90"><tspan
         sodipodi:role="line"
         id="tspan12229-6-7"
         style="stroke-width:0.264584"
         x="151.2486"
         y="32.868984">Dedo móvil</tspan></text>
  </g>
</svg>
