<?xml version="1.0" encoding="UTF-8" standalone="no"?>
<!-- Created with Inkscape (http://www.inkscape.org/) -->

<svg
   width="166.79274mm"
   height="96.840652mm"
   viewBox="0 0 166.79274 96.840652"
   version="1.1"
   id="svg20386"
   sodipodi:docname="pinza-simple-07.svg"
   inkscape:version="1.1.1 (3bf5ae0, 2021-09-20)"
   xmlns:inkscape="http://www.inkscape.org/namespaces/inkscape"
   xmlns:sodipodi="http://sodipodi.sourceforge.net/DTD/sodipodi-0.dtd"
   xmlns="http://www.w3.org/2000/svg"
   xmlns:svg="http://www.w3.org/2000/svg">
  <sodipodi:namedview
     id="namedview20388"
     pagecolor="#ffffff"
     bordercolor="#666666"
     borderopacity="1.0"
     inkscape:pageshadow="2"
     inkscape:pageopacity="0.0"
     inkscape:pagecheckerboard="0"
     inkscape:document-units="mm"
     showgrid="false"
     showguides="true"
     inkscape:guide-bbox="true"
     inkscape:snap-object-midpoints="true"
     inkscape:snap-bbox="true"
     inkscape:bbox-paths="true"
     inkscape:snap-page="true"
     inkscape:zoom="0.45291836"
     inkscape:cx="409.56609"
     inkscape:cy="473.59528"
     inkscape:window-width="1860"
     inkscape:window-height="1016"
     inkscape:window-x="60"
     inkscape:window-y="27"
     inkscape:window-maximized="1"
     inkscape:current-layer="layer1"
     inkscape:snap-global="false"
     inkscape:snap-center="true"
     inkscape:object-nodes="true"
     inkscape:snap-others="false"
     fit-margin-top="0"
     fit-margin-left="0"
     fit-margin-right="0"
     fit-margin-bottom="0" />
  <defs
     id="defs20383">
    <marker
       style="overflow:visible"
       id="Arrow2Mstart"
       refX="0"
       refY="0"
       orient="auto"
       inkscape:stockid="Arrow2Mstart"
       inkscape:isstock="true">
      <path
         transform="scale(0.6)"
         d="M 8.7185878,4.0337352 -2.2072895,0.01601326 8.7185884,-4.0017078 c -1.7454984,2.3720609 -1.7354408,5.6174519 -6e-7,8.035443 z"
         style="fill:context-stroke;fill-rule:evenodd;stroke:context-stroke;stroke-width:0.625;stroke-linejoin:round"
         id="path13472" />
    </marker>
    <marker
       style="overflow:visible"
       id="Arrow2Mend"
       refX="0"
       refY="0"
       orient="auto"
       inkscape:stockid="Arrow2Mend"
       inkscape:isstock="true">
      <path
         transform="scale(-0.6)"
         d="M 8.7185878,4.0337352 -2.2072895,0.01601326 8.7185884,-4.0017078 c -1.7454984,2.3720609 -1.7354408,5.6174519 -6e-7,8.035443 z"
         style="fill:context-stroke;fill-rule:evenodd;stroke:context-stroke;stroke-width:0.625;stroke-linejoin:round"
         id="path13475" />
    </marker>
    <marker
       style="overflow:visible"
       id="Arrow2Mstart-2"
       refX="0"
       refY="0"
       orient="auto"
       inkscape:stockid="Arrow2Mstart"
       inkscape:isstock="true">
      <path
         transform="scale(0.6)"
         d="M 8.7185878,4.0337352 -2.2072895,0.01601326 8.7185884,-4.0017078 c -1.7454984,2.3720609 -1.7354408,5.6174519 -6e-7,8.035443 z"
         style="fill:context-stroke;fill-rule:evenodd;stroke:context-stroke;stroke-width:0.625;stroke-linejoin:round"
         id="path13472-2" />
    </marker>
    <marker
       style="overflow:visible"
       id="Arrow2Mend-8"
       refX="0"
       refY="0"
       orient="auto"
       inkscape:stockid="Arrow2Mend"
       inkscape:isstock="true">
      <path
         transform="scale(-0.6)"
         d="M 8.7185878,4.0337352 -2.2072895,0.01601326 8.7185884,-4.0017078 c -1.7454984,2.3720609 -1.7354408,5.6174519 -6e-7,8.035443 z"
         style="fill:context-stroke;fill-rule:evenodd;stroke:context-stroke;stroke-width:0.625;stroke-linejoin:round"
         id="path13475-9" />
    </marker>
    <marker
       style="overflow:visible"
       id="Arrow2Mend-2"
       refX="0"
       refY="0"
       orient="auto"
       inkscape:stockid="Arrow2Mend"
       inkscape:isstock="true">
      <path
         transform="scale(-0.6)"
         d="M 8.7185878,4.0337352 -2.2072895,0.01601326 8.7185884,-4.0017078 c -1.7454984,2.3720609 -1.7354408,5.6174519 -6e-7,8.035443 z"
         style="fill:context-stroke;fill-rule:evenodd;stroke:context-stroke;stroke-width:0.625;stroke-linejoin:round"
         id="path13475-6" />
    </marker>
  </defs>
  <g
     inkscape:groupmode="layer"
     id="layer8"
     inkscape:label="back"
     transform="translate(-26.443241,-17.338591)">
    <rect
       style="fill:#ffffff;stroke:none;stroke-width:0.79375;stroke-miterlimit:4;stroke-dasharray:none;stroke-dashoffset:0"
       id="rect25048-4"
       width="166.79274"
       height="96.840652"
       x="26.443241"
       y="17.338591"
       inkscape:export-filename="/home/obijuan/Develop/myTeachingURJC/Mecatronica/wiki/S03/pinza-simple-08.png"
       inkscape:export-xdpi="90"
       inkscape:export-ydpi="90" />
    <rect
       style="fill:#ffffff;stroke:#000000;stroke-width:0.79375;stroke-miterlimit:4;stroke-dasharray:none;stroke-dashoffset:0"
       id="rect25048"
       width="161.35486"
       height="90.815659"
       x="28.557016"
       y="19.765305"
       inkscape:export-filename="/home/obijuan/Develop/myTeachingURJC/Mecatronica/wiki/S03/pinza-simple-08.png"
       inkscape:export-xdpi="90"
       inkscape:export-ydpi="90" />
  </g>
  <g
     inkscape:label="Layer 1"
     inkscape:groupmode="layer"
     id="layer1"
     transform="translate(-26.443241,-17.338591)">
    <path
       style="fill:none;stroke:#000000;stroke-width:0.264583px;stroke-linecap:butt;stroke-linejoin:miter;stroke-opacity:1;marker-start:url(#Arrow2Mstart);marker-end:url(#Arrow2Mend)"
       d="M 41.006455,90.851481 H 94.299639"
       id="path21752"
       inkscape:export-filename="/home/obijuan/Develop/myTeachingURJC/Mecatronica/wiki/S03/pinza-simple-08.png"
       inkscape:export-xdpi="90"
       inkscape:export-ydpi="90" />
    <text
       xml:space="preserve"
       style="font-style:normal;font-weight:normal;font-size:5.82052px;line-height:1.25;font-family:sans-serif;fill:#000000;fill-opacity:1;stroke:none;stroke-width:0.264583"
       x="58.674023"
       y="97.617912"
       id="text22614"
       inkscape:export-filename="/home/obijuan/Develop/myTeachingURJC/Mecatronica/wiki/S03/pinza-simple-08.png"
       inkscape:export-xdpi="90"
       inkscape:export-ydpi="90"><tspan
         sodipodi:role="line"
         id="tspan22612"
         style="stroke-width:0.264583"
         x="58.674023"
         y="97.617912">60mm</tspan></text>
    <path
       style="fill:none;stroke:#000000;stroke-width:0.264583px;stroke-linecap:butt;stroke-linejoin:miter;stroke-opacity:1;marker-start:url(#Arrow2Mstart-2);marker-end:url(#Arrow2Mend-8)"
       d="M 114.32622,90.851481 H 167.6194"
       id="path21752-7"
       inkscape:export-filename="/home/obijuan/Develop/myTeachingURJC/Mecatronica/wiki/S03/pinza-simple-08.png"
       inkscape:export-xdpi="90"
       inkscape:export-ydpi="90" />
    <text
       xml:space="preserve"
       style="font-style:normal;font-weight:normal;font-size:5.82052px;line-height:1.25;font-family:sans-serif;fill:#000000;fill-opacity:1;stroke:none;stroke-width:0.264583"
       x="131.99379"
       y="97.617912"
       id="text22614-3"
       inkscape:export-filename="/home/obijuan/Develop/myTeachingURJC/Mecatronica/wiki/S03/pinza-simple-08.png"
       inkscape:export-xdpi="90"
       inkscape:export-ydpi="90"><tspan
         sodipodi:role="line"
         id="tspan22612-6"
         style="stroke-width:0.264583"
         x="131.99379"
         y="97.617912">60mm</tspan></text>
    <path
       id="path1972"
       style="display:inline;fill:#ffccaa;stroke:#000000;stroke-width:0.264583px;stroke-linecap:butt;stroke-linejoin:miter;stroke-opacity:1"
       d="m 171.44824,32.303291 c 0,0 2.83129,0.31004 4.73811,2.1004 1.90682,1.79038 5.57979,5.97616 5.57979,5.97616 0,0 1.37178,36.26661 0.91055,38.00839 -0.46122,1.74181 -43.37424,2.67197 -45.49719,1.9186 -2.12295,-0.75336 -7.8314,-2.16634 -10.58588,-2.16634 -2.75449,0 -5.02809,-0.52876 -5.02809,-0.52876 0,0 -7.04056,0.52367 -7.10294,-3.67369 -0.0624,-4.19738 2.62377,-6.73108 6.59143,-8.45844 3.96765,-1.72736 9.31195,-2.16749 12.60801,-1.7576 3.29607,0.40987 13.9985,1.81293 13.9985,1.81293 0,0 2.98269,0.46441 4.42804,-0.12267 1.44746,-0.58791 2.96535,-1.80961 3.65649,-3.38185 0.69115,-1.57227 1.60736,-5.17508 -1.21541,-7.26571 -2.82276,-2.09059 -2.28141,-0.95977 -4.08373,-4.39129 -1.33375,-1.84214 -1.70321,-4.0259 -1.70321,-4.0259 l -4.71473,0.61501 c 0,0 -5.56487,0.14982 -6.75466,-0.35401 -1.18979,-0.50386 -1.60769,-1.11728 -1.60769,-1.11728 0,0 -0.36709,0.50737 -0.53463,0.34119 -0.16754,-0.16615 -5.05906,6.44073 -5.55304,6.58141 -0.49399,0.14066 -1.51896,0.23037 -1.51896,0.23037 0,0 0.0366,0.38609 -0.0194,1.153 -0.0559,0.76693 -0.57687,2.66983 -1.93032,5.88302 -1.35346,3.2132 -2.4877,4.24932 -3.51594,4.9815 -0.51412,0.36606 -1.2655,0.63655 -2.00665,0.95542 -0.74115,0.31889 -1.30432,0.89918 -2.11191,1.25363 -1.61517,0.70889 -2.94967,-1.27853 -3.20778,-1.99519 -0.25811,-0.71663 0.61031,-5.56401 0.61031,-5.56401 0,0 0.46729,-5.33538 1.10468,-8.2389 0.63738,-2.90354 7.46185,-12.88416 7.46185,-12.88416 0,0 2.90995,-4.67523 4.82279,-5.83682 1.91285,-1.16159 10.84356,-1.33731 10.84356,-1.33731 0,0 7.63834,-0.20427 9.6765,-0.20427 2.03817,0 3.64854,0.23863 5.03678,0.23863 1.38823,0 9.88261,-1.34191 11.6941,-0.88661 1.8115,0.45526 2.65806,0.6061 2.65806,0.6061 0.99974,0.4188 2.27261,1.53505 2.27261,1.53505 z"
       sodipodi:nodetypes="cscssscssscssscccscsscsssssscscscssscc"
       inkscape:export-filename="/home/obijuan/Develop/myTeachingURJC/Mecatronica/wiki/S03/pinza-simple-08.png"
       inkscape:export-xdpi="90"
       inkscape:export-ydpi="90"
       inkscape:transform-center-x="18.751094"
       inkscape:transform-center-y="16.622062" />
    <path
       style="display:inline;fill:none;stroke:#000000;stroke-width:0.264583px;stroke-linecap:butt;stroke-linejoin:miter;stroke-opacity:1"
       d="m 148.74271,46.347521 c 0,0 -0.0955,-0.99835 0.0816,-2.15207 0.17713,-1.15374 0.88735,-2.27078 0.88735,-2.27078"
       id="path4971"
       inkscape:export-filename="/home/obijuan/Develop/myTeachingURJC/Mecatronica/wiki/S03/pinza-simple-08.png"
       inkscape:export-xdpi="90"
       inkscape:export-ydpi="90"
       inkscape:transform-center-x="18.153235"
       inkscape:transform-center-y="5.4390124" />
    <path
       style="display:inline;fill:none;stroke:#000000;stroke-width:0.264583px;stroke-linecap:butt;stroke-linejoin:miter;stroke-opacity:1"
       d="m 135.66563,45.491241 c 0,0 -0.65773,-0.53045 -1.971,-2.84634 -1.31326,-2.31591 -2.20365,-4.22353 -2.20365,-4.22353"
       id="path4973"
       inkscape:export-filename="/home/obijuan/Develop/myTeachingURJC/Mecatronica/wiki/S03/pinza-simple-08.png"
       inkscape:export-xdpi="90"
       inkscape:export-ydpi="90"
       inkscape:transform-center-x="33.789292"
       inkscape:transform-center-y="3.2592224" />
    <path
       style="display:inline;fill:none;stroke:#000000;stroke-width:0.264583px;stroke-linecap:butt;stroke-linejoin:miter;stroke-opacity:1"
       d="m 128.059,52.644211 c 0,0 -1.92509,-0.34076 -3.8084,-1.94395 -1.88331,-1.60317 -2.68172,-2.79155 -2.68172,-2.79155"
       id="path4975"
       inkscape:export-filename="/home/obijuan/Develop/myTeachingURJC/Mecatronica/wiki/S03/pinza-simple-08.png"
       inkscape:export-xdpi="90"
       inkscape:export-ydpi="90"
       inkscape:transform-center-x="42.55366"
       inkscape:transform-center-y="11.579377" />
    <path
       style="display:inline;opacity:0.993447;fill:#ffe6d5;stroke:#000000;stroke-width:0.264583px;stroke-linecap:butt;stroke-linejoin:miter;stroke-opacity:1"
       d="m 115.22141,74.429491 c -0.25376,-1.87865 0.61126,-4.43558 2.20425,-5.2426 1.593,-0.80703 4.75908,-0.14685 5.52452,0.23078 0.76545,0.37763 2.55711,4.93261 2.56125,6.32959 0.004,1.39694 -0.65429,1.73641 -0.65429,1.73641 0,0 -6.65907,0.099 -8.08248,-1.07962 -1.42341,-1.17858 -1.44116,-1.14468 -1.55325,-1.97456 z"
       id="path4586"
       sodipodi:nodetypes="assscsa"
       inkscape:export-filename="/home/obijuan/Develop/myTeachingURJC/Mecatronica/wiki/S03/pinza-simple-08.png"
       inkscape:export-xdpi="90"
       inkscape:export-ydpi="90"
       inkscape:transform-center-x="47.023048"
       inkscape:transform-center-y="34.447606" />
    <path
       id="path7141-2"
       style="display:inline;fill:#aaccff;stroke:#000000;stroke-width:0.529167"
       d="m 94.299639,31.975711 a 6.7213979,6.721397 0 0 0 -6.721369,6.72137 h -0.05349 v 26.95987 H 47.877522 v 0.0535 a 6.7213979,6.721397 0 0 0 -6.721479,6.72136 6.7213979,6.721397 0 0 0 6.721479,6.72137 v 0.0535 h 46.422123 v -0.0535 a 6.7213979,6.721397 0 0 0 6.721355,-6.72137 h 0.0535 v -33.7347 h -0.0535 a 6.7213979,6.721397 0 0 0 -6.721355,-6.72137 z"
       inkscape:export-filename="/home/obijuan/Develop/myTeachingURJC/Mecatronica/wiki/S03/pinza-simple-08.png"
       inkscape:export-xdpi="90"
       inkscape:export-ydpi="90"
       inkscape:transform-center-x="23.184356"
       inkscape:transform-center-y="16.894112" />
    <path
       style="fill:none;stroke:#000000;stroke-width:0.264583;stroke-linecap:butt;stroke-linejoin:miter;stroke-miterlimit:4;stroke-dasharray:0.529166, 0.529166;stroke-dashoffset:0;stroke-opacity:1"
       d="m 41.006455,71.45479 v 28.67727"
       id="path24646"
       inkscape:export-filename="/home/obijuan/Develop/myTeachingURJC/Mecatronica/wiki/S03/pinza-simple-08.png"
       inkscape:export-xdpi="90"
       inkscape:export-ydpi="90" />
    <path
       style="fill:none;stroke:#000000;stroke-width:0.264583;stroke-linecap:butt;stroke-linejoin:miter;stroke-miterlimit:4;stroke-dasharray:0.529166, 0.529166;stroke-dashoffset:0;stroke-opacity:1"
       d="m 114.32622,71.45479 v 28.67727"
       id="path24646-1"
       inkscape:export-filename="/home/obijuan/Develop/myTeachingURJC/Mecatronica/wiki/S03/pinza-simple-08.png"
       inkscape:export-xdpi="90"
       inkscape:export-ydpi="90" />
    <path
       style="fill:none;stroke:#000000;stroke-width:0.264584;stroke-linecap:butt;stroke-linejoin:miter;stroke-miterlimit:4;stroke-dasharray:0.529166, 0.529166;stroke-dashoffset:0;stroke-opacity:1"
       d="M 94.299638,38.697081 V 100.13206"
       id="path24646-3"
       inkscape:export-filename="/home/obijuan/Develop/myTeachingURJC/Mecatronica/wiki/S03/pinza-simple-08.png"
       inkscape:export-xdpi="90"
       inkscape:export-ydpi="90" />
    <path
       style="fill:none;stroke:#000000;stroke-width:0.264584;stroke-linecap:butt;stroke-linejoin:miter;stroke-miterlimit:4;stroke-dasharray:0.529166, 0.529166;stroke-dashoffset:0;stroke-opacity:1"
       d="M 167.6194,38.697081 V 100.13206"
       id="path24646-3-9"
       inkscape:export-filename="/home/obijuan/Develop/myTeachingURJC/Mecatronica/wiki/S03/pinza-simple-08.png"
       inkscape:export-xdpi="90"
       inkscape:export-ydpi="90" />
    <path
       style="fill:none;stroke:#000000;stroke-width:0.264583;stroke-linecap:butt;stroke-linejoin:miter;stroke-miterlimit:4;stroke-dasharray:0.529166, 0.529166;stroke-dashoffset:0;stroke-opacity:1"
       d="M 94.299645,38.697085 H 167.58611"
       id="path24910"
       inkscape:export-filename="/home/obijuan/Develop/myTeachingURJC/Mecatronica/wiki/S03/pinza-simple-08.png"
       inkscape:export-xdpi="90"
       inkscape:export-ydpi="90" />
    <path
       id="path7141-3-1"
       style="display:inline;fill:#d5e5ff;stroke:#000000;stroke-width:0.529167"
       d="m 101.021,38.697081 c -2e-5,-3.7121 -3.009261,-6.72137 -6.784579,-6.71453 l -38.721812,2.20711 -11.916325,15.97049 -1.597055,10.6119 c -0.09139,0.34052 -0.138148,0.69144 -0.139093,1.04401 -3.3e-5,2.24756 1.821982,4.06956 4.069541,4.06952 1.342875,-9e-5 2.599239,-0.66268 3.357757,-1.7708 l 0.0093,0.005 0.04327,-0.0871 c 0.169111,-0.26044 0.30786,-0.5394 0.413528,-0.83143 l 5.277521,-10.61166 7.276604,-7.66193 32.277686,0.39722 c 3.710973,0.004 6.433597,-2.91495 6.433547,-6.62711 z"
       sodipodi:nodetypes="ccccccccccccccc"
       inkscape:export-filename="/home/obijuan/Develop/myTeachingURJC/Mecatronica/wiki/S03/pinza-simple-08.png"
       inkscape:export-xdpi="90"
       inkscape:export-ydpi="90"
       inkscape:transform-center-x="22.85806"
       inkscape:transform-center-y="10.236977" />
    <circle
       style="display:inline;fill:#b3b3b3;stroke:#000000;stroke-width:0.529167"
       id="path6921-9"
       cx="94.299644"
       cy="38.697086"
       inkscape:export-filename="/home/obijuan/Develop/myTeachingURJC/Mecatronica/wiki/S03/pinza-simple-08.png"
       inkscape:export-xdpi="90"
       inkscape:export-ydpi="90"
       r="2.0576198" />
  </g>
</svg>
