<?xml version="1.0" encoding="UTF-8" standalone="no"?>
<!-- Created with Inkscape (http://www.inkscape.org/) -->

<svg
   width="607.31927mm"
   height="329.38593mm"
   viewBox="0 0 607.31928 329.38593"
   version="1.1"
   id="svg5"
   inkscape:version="1.1.1 (3bf5ae0, 2021-09-20)"
   sodipodi:docname="pinza-simple-05.svg"
   xmlns:inkscape="http://www.inkscape.org/namespaces/inkscape"
   xmlns:sodipodi="http://sodipodi.sourceforge.net/DTD/sodipodi-0.dtd"
   xmlns="http://www.w3.org/2000/svg"
   xmlns:svg="http://www.w3.org/2000/svg">
  <sodipodi:namedview
     id="namedview7"
     pagecolor="#ffffff"
     bordercolor="#666666"
     borderopacity="1.0"
     inkscape:pageshadow="2"
     inkscape:pageopacity="0.0"
     inkscape:pagecheckerboard="0"
     inkscape:document-units="mm"
     showgrid="false"
     inkscape:snap-global="false"
     inkscape:zoom="0.45291836"
     inkscape:cx="846.73096"
     inkscape:cy="911.86411"
     inkscape:window-width="1920"
     inkscape:window-height="1043"
     inkscape:window-x="1920"
     inkscape:window-y="0"
     inkscape:window-maximized="1"
     inkscape:current-layer="layer6"
     fit-margin-top="0"
     fit-margin-left="0"
     fit-margin-right="0"
     fit-margin-bottom="0"
     showguides="true"
     inkscape:guide-bbox="true"
     inkscape:snap-object-midpoints="true"
     inkscape:snap-bbox="true"
     inkscape:bbox-paths="true">
    <sodipodi:guide
       position="393.24619,224.4652"
       orientation="1,0"
       id="guide6661" />
    <sodipodi:guide
       position="393.24619,227.28507"
       orientation="0,-1"
       id="guide6663" />
    <sodipodi:guide
       position="168.6967,93.97263"
       orientation="0,-1"
       id="guide7272" />
    <sodipodi:guide
       position="158.74991,26.97073"
       orientation="0,-1"
       id="guide7274" />
    <sodipodi:guide
       position="359.74525,213.13521"
       orientation="1,0"
       id="guide7276" />
    <sodipodi:guide
       position="426.74715,199.6992"
       orientation="1,0"
       id="guide7278" />
    <sodipodi:guide
       position="163.69526,60.471679"
       orientation="0,-1"
       id="guide7280" />
  </sodipodi:namedview>
  <defs
     id="defs2" />
  <g
     inkscape:groupmode="layer"
     id="layer5"
     inkscape:label="back"
     transform="translate(58.016201,2.0735624)"
     sodipodi:insensitive="true">
    <rect
       style="fill:#ffffff;stroke:none;stroke-width:0.529167"
       id="rect5937"
       width="607.31927"
       height="329.38593"
       x="-58.016201"
       y="-2.0735624"
       inkscape:export-filename="/home/obijuan/Develop/myTeachingURJC/Mecatronica/wiki/S03/pinza-simple-03.png"
       inkscape:export-xdpi="90"
       inkscape:export-ydpi="90" />
  </g>
  <g
     inkscape:groupmode="layer"
     id="layer3"
     inkscape:label="abierta-dibujo"
     style="display:none;opacity:1"
     transform="translate(179.35475,8.9200323)">
    <path
       style="fill:#ffccaa;stroke:#000000;stroke-width:0.264583px;stroke-linecap:butt;stroke-linejoin:miter;stroke-opacity:1"
       d="m -12.593302,285.60821 c 0,0 -34.81457,2.58958 -35.123066,-18.16582 -0.308494,-20.75542 12.974206,-33.28421 32.593695,-41.82581 19.6194887,-8.54161 46.046323,-10.71788 62.344884,-8.69106 16.298561,2.02682 69.220609,8.96471 69.220609,8.96471 0,0 14.74894,2.29634 21.89602,-0.60658 7.1575,-2.90714 14.66323,-8.94828 18.08085,-16.72282 3.41762,-7.77455 7.94814,-25.59005 -6.01004,-35.92782 -13.95818,-10.33777 -11.28126,-4.74612 -20.21691,-21.75499 -8.93564,-17.00887 -12.57948,-30.88699 -12.57948,-30.88699 0,0 -25.376503,-3.94093 -39.99433,-8.08424 -14.617826,-4.1433 -22.684866,-12.417859 -22.684866,-12.417859 0,0 -20.563327,21.097589 -29.894899,25.921789 -9.331573,4.82419 -12.889392,3.28941 -12.889392,3.28941 0,0 -6.2365462,24.69585 -19.9269748,38.967 -13.6904282,14.27115 -23.9956892,24.44135 -35.0755632,21.80825 -11.079877,-2.63311 -19.523382,-12.29713 -18.235451,-19.44986 1.28793,-7.15274 9.825426,-28.10615 9.825426,-28.10615 l 12.024519,-35.49368 c 0,0 5.347065,-9.946014 7.929583,-14.894145 2.582519,-4.948129 43.209769,-40.465674 43.209769,-40.465674 0,0 14.511937,-18.396529 25.058728,-22.634794 10.546795,-4.238267 35.559939,0.313838 35.559939,0.313838 0,0 62.262092,12.168341 79.343032,14.478984 17.08094,2.310646 51.14116,0.739823 62.33812,6.077307 11.19696,5.337485 19.86879,12.263065 19.86879,12.263065 0,0 14.00033,1.533154 23.42933,10.386292 9.42899,8.853136 27.59132,29.551207 27.59132,29.551207 0,0 6.78315,179.33338 4.50246,187.94625 -2.28068,8.61285 -214.479543,13.21245 -224.97722,9.48717 -10.497679,-3.72528 -38.725157,-10.71224 -52.345697,-10.71224 -13.6205412,0 -24.863185,-2.61474 -24.863185,-2.61474 z"
       id="path907"
       sodipodi:nodetypes="cssscszsscscscsssccscscsscscsssc"
       inkscape:export-filename="/home/obijuan/Develop/myTeachingURJC/Mecatronica/wiki/S03/pinza-simple-03.png"
       inkscape:export-xdpi="90"
       inkscape:export-ydpi="90" />
    <path
       style="fill:none;stroke:#000000;stroke-width:0.264583px;stroke-linecap:butt;stroke-linejoin:miter;stroke-opacity:1"
       d="m 13.10232,128.8408 c 0,0 -9.028324,-13.48445 -16.4565909,-20.62088 -7.4282671,-7.13643 -9.4361531,-8.631385 -9.4361531,-8.631385"
       id="path4325"
       inkscape:export-filename="/home/obijuan/Develop/myTeachingURJC/Mecatronica/wiki/S03/pinza-simple-03.png"
       inkscape:export-xdpi="90"
       inkscape:export-ydpi="90" />
    <path
       style="fill:none;stroke:#000000;stroke-width:0.264583px;stroke-linecap:butt;stroke-linejoin:miter;stroke-opacity:1"
       d="m 54.934061,99.48893 c 0,0 -1.87286,-6.426808 -5.840175,-15.901347 -3.983366,-9.512872 -6.213249,-22.76947 -6.213249,-22.76947"
       id="path4327"
       sodipodi:nodetypes="csc"
       inkscape:export-filename="/home/obijuan/Develop/myTeachingURJC/Mecatronica/wiki/S03/pinza-simple-03.png"
       inkscape:export-xdpi="90"
       inkscape:export-ydpi="90" />
    <path
       style="fill:none;stroke:#000000;stroke-width:0.264583px;stroke-linecap:butt;stroke-linejoin:miter;stroke-opacity:1"
       d="m 117.61326,119.99103 c 0,0 -0.0583,-2.06299 1.98079,-14.52898 2.03905,-12.465976 6.50289,-23.970398 6.50289,-23.970398"
       id="path4457"
       inkscape:export-filename="/home/obijuan/Develop/myTeachingURJC/Mecatronica/wiki/S03/pinza-simple-03.png"
       inkscape:export-xdpi="90"
       inkscape:export-ydpi="90" />
    <path
       style="display:inline;opacity:0.993447;fill:#ffe6d5;stroke:#000000;stroke-width:0.264583px;stroke-linecap:butt;stroke-linejoin:miter;stroke-opacity:1"
       d="m -43.964075,269.87242 c -1.254778,-9.28964 3.022567,-21.93314 10.89971,-25.9238 7.877141,-3.99066 23.532945,-0.72623 27.317975,1.14111 3.78503,1.86734 12.64454,24.3911 12.66501,31.29887 0.0205,6.90777 -3.23536,8.58634 -3.23536,8.58634 0,0 -32.928155,0.48929 -39.966747,-5.33855 -7.038591,-5.82788 -7.126294,-5.6603 -7.680588,-9.76397 z"
       id="path4586-6"
       sodipodi:nodetypes="assscsa"
       inkscape:export-filename="/home/obijuan/Develop/myTeachingURJC/Mecatronica/wiki/S03/pinza-simple-03.png"
       inkscape:export-xdpi="90"
       inkscape:export-ydpi="90" />
  </g>
  <g
     inkscape:groupmode="layer"
     id="layer4"
     inkscape:label="cerrada-dibujo"
     style="display:none;opacity:1"
     transform="translate(58.016201,2.0735624)">
    <path
       id="path1972"
       style="fill:#ffccaa;stroke:#000000;stroke-width:0.264583px;stroke-linecap:butt;stroke-linejoin:miter;stroke-opacity:1"
       d="m 355.40824,68.410741 c 0,0 14.00033,1.533154 23.42933,10.386292 9.42899,8.853136 27.59132,29.551207 27.59132,29.551207 0,0 6.78315,179.33338 4.50246,187.94625 -2.28068,8.61285 -214.47954,13.21245 -224.97722,9.48717 -10.49768,-3.72528 -38.72516,-10.71224 -52.3457,-10.71224 -13.62054,0 -24.86318,-2.61474 -24.86318,-2.61474 0,0 -34.814573,2.58958 -35.123069,-18.16582 -0.308494,-20.75542 12.974206,-33.28421 32.593699,-41.82581 19.61949,-8.54161 46.04632,-10.71788 62.34488,-8.69106 16.29856,2.02682 69.22061,8.96471 69.22061,8.96471 0,0 14.74894,2.29634 21.89602,-0.60658 7.1575,-2.90714 14.66323,-8.94828 18.08085,-16.72282 3.41762,-7.77455 7.94814,-25.59005 -6.01004,-35.92782 -13.95818,-10.33777 -11.28126,-4.74612 -20.19348,-21.71439 -6.59522,-9.10915 -8.42212,-19.90754 -8.42212,-19.90754 l -23.3137,3.04113 c 0,0 -27.51751,0.7408 -33.40083,-1.75058 -5.88333,-2.49139 -7.94981,-5.52485 -7.94981,-5.52485 0,0 -1.81521,2.50891 -2.64368,1.68727 -0.82846,-0.82163 -25.01632,31.84856 -27.45901,32.54412 -2.44269,0.69555 -7.51102,1.13906 -7.51102,1.13906 0,0 0.18082,1.90933 -0.0959,5.70159 -0.27673,3.79227 -2.85254,13.20189 -9.54517,29.09065 -6.69263,15.88875 -12.30132,21.01231 -17.38582,24.63276 -2.54226,1.81022 -6.25771,3.14771 -9.92259,4.7245 -3.66488,1.5768 -6.449685,4.44627 -10.443092,6.199 -7.986811,3.50546 -14.585725,-6.3222 -15.862009,-9.86587 -1.276284,-3.54366 3.01788,-27.51333 3.01788,-27.51333 0,0 2.310676,-26.3827 5.462451,-40.74026 3.151775,-14.35755 36.89783,-63.710309 36.89783,-63.710309 0,0 14.38929,-23.118319 23.84804,-28.862225 9.45875,-5.743907 53.61983,-6.612824 53.61983,-6.612824 0,0 37.77053,-1.010111 47.84896,-1.010111 10.07844,0 18.04152,1.179937 24.90614,1.179937 6.86462,0 48.86814,-6.635429 57.82571,-4.384125 8.95758,2.251304 13.14371,2.997176 13.14371,2.997176 4.94359,2.070793 11.23772,7.590482 11.23772,7.590482 z"
       sodipodi:nodetypes="cscssscssscssscccscsscsssssscscscssscc"
       inkscape:export-filename="/home/obijuan/Develop/myTeachingURJC/Mecatronica/wiki/S03/pinza-simple-03.png"
       inkscape:export-xdpi="90"
       inkscape:export-ydpi="90" />
    <path
       style="fill:none;stroke:#000000;stroke-width:0.264583px;stroke-linecap:butt;stroke-linejoin:miter;stroke-opacity:1"
       d="m 243.1326,137.85754 c 0,0 -0.47217,-4.93663 0.4037,-10.64163 0.87586,-5.705 4.3878,-11.22876 4.3878,-11.22876"
       id="path4971"
       inkscape:export-filename="/home/obijuan/Develop/myTeachingURJC/Mecatronica/wiki/S03/pinza-simple-03.png"
       inkscape:export-xdpi="90"
       inkscape:export-ydpi="90" />
    <path
       style="fill:none;stroke:#000000;stroke-width:0.264583px;stroke-linecap:butt;stroke-linejoin:miter;stroke-opacity:1"
       d="m 178.46826,133.62324 c 0,0 -3.2524,-2.62284 -9.74631,-14.07463 -6.49391,-11.45179 -10.89673,-20.884716 -10.89673,-20.884716"
       id="path4973"
       inkscape:export-filename="/home/obijuan/Develop/myTeachingURJC/Mecatronica/wiki/S03/pinza-simple-03.png"
       inkscape:export-xdpi="90"
       inkscape:export-ydpi="90" />
    <path
       style="fill:none;stroke:#000000;stroke-width:0.264583px;stroke-linecap:butt;stroke-linejoin:miter;stroke-opacity:1"
       d="m 140.85455,168.99369 c 0,0 -9.5193,-1.68492 -18.83201,-9.61244 -9.31272,-7.92751 -13.26072,-13.80375 -13.26072,-13.80375"
       id="path4975"
       inkscape:export-filename="/home/obijuan/Develop/myTeachingURJC/Mecatronica/wiki/S03/pinza-simple-03.png"
       inkscape:export-xdpi="90"
       inkscape:export-ydpi="90" />
    <path
       style="display:inline;opacity:0.993447;fill:#ffe6d5;stroke:#000000;stroke-width:0.264583px;stroke-linecap:butt;stroke-linejoin:miter;stroke-opacity:1"
       d="m 77.374475,276.71889 c -1.254778,-9.28964 3.022567,-21.93314 10.89971,-25.9238 7.877141,-3.99066 23.532945,-0.72623 27.317975,1.14111 3.78503,1.86734 12.64454,24.3911 12.66501,31.29887 0.0205,6.90777 -3.23536,8.58634 -3.23536,8.58634 0,0 -32.928155,0.48929 -39.966747,-5.33855 -7.038591,-5.82788 -7.126294,-5.6603 -7.680588,-9.76397 z"
       id="path4586"
       sodipodi:nodetypes="assscsa"
       inkscape:export-filename="/home/obijuan/Develop/myTeachingURJC/Mecatronica/wiki/S03/pinza-simple-03.png"
       inkscape:export-xdpi="90"
       inkscape:export-ydpi="90" />
  </g>
  <g
     inkscape:groupmode="layer"
     id="layer6"
     inkscape:label="pinza-mecanica"
     style="display:inline">
    <circle
       style="fill:#b3b3b3;stroke:#000000;stroke-width:0.529167"
       id="path6921"
       cx="393.24619"
       cy="102.10086"
       r="10.174639" />
    <circle
       style="fill:none;stroke:#000000;stroke-width:0.529167"
       id="path7141"
       cx="163.69525"
       cy="268.91425"
       r="33.236366" />
    <circle
       style="fill:none;stroke:#000000;stroke-width:0.529167"
       id="path7141-3"
       cx="154.07355"
       cy="216.42102"
       r="20.123028" />
    <circle
       style="fill:none;stroke:#000000;stroke-width:0.529167"
       id="path7141-5"
       cx="393.24619"
       cy="268.91425"
       r="33.236366" />
    <circle
       style="fill:none;stroke:#000000;stroke-width:0.529167"
       id="path7141-5-5"
       cx="326.70178"
       cy="201.64348"
       r="33.236366" />
    <circle
       style="fill:none;stroke:#000000;stroke-width:0.529167"
       id="path7141-7"
       cx="393.24619"
       cy="102.10086"
       r="33.236366" />
    <path
       style="fill:none;stroke:#000000;stroke-width:0.264583px;stroke-linecap:butt;stroke-linejoin:miter;stroke-opacity:1"
       d="m 167.40249,234.01663 31.67663,-63.22316 35.98192,-37.88667 158.05356,2.9055"
       id="path9276" />
    <path
       style="fill:none;stroke:#000000;stroke-width:0.264583px;stroke-linecap:butt;stroke-linejoin:miter;stroke-opacity:1"
       d="m 393.89359,69.753633 -192.43342,10.058415 -58.92474,78.971872 -8.82808,54.68616"
       id="path9278" />
  </g>
</svg>
