<?xml version="1.0" encoding="UTF-8" standalone="no"?>
<!-- Created with Inkscape (http://www.inkscape.org/) -->

<svg
   width="210mm"
   height="297mm"
   viewBox="0 0 210 297"
   version="1.1"
   id="svg1"
   inkscape:version="1.3 (1:1.3+202307231459+0e150ed6c4)"
   sodipodi:docname="tut-reto6.svg"
   xmlns:inkscape="http://www.inkscape.org/namespaces/inkscape"
   xmlns:sodipodi="http://sodipodi.sourceforge.net/DTD/sodipodi-0.dtd"
   xmlns="http://www.w3.org/2000/svg"
   xmlns:svg="http://www.w3.org/2000/svg">
  <sodipodi:namedview
     id="namedview1"
     pagecolor="#ffffff"
     bordercolor="#000000"
     borderopacity="0.25"
     inkscape:showpageshadow="2"
     inkscape:pageopacity="0.0"
     inkscape:pagecheckerboard="0"
     inkscape:deskcolor="#d1d1d1"
     inkscape:document-units="mm"
     showguides="true"
     inkscape:zoom="1.3915123"
     inkscape:cx="465.68038"
     inkscape:cy="259.07064"
     inkscape:window-width="1864"
     inkscape:window-height="1016"
     inkscape:window-x="56"
     inkscape:window-y="27"
     inkscape:window-maximized="1"
     inkscape:current-layer="layer1" />
  <defs
     id="defs1" />
  <g
     inkscape:label="Capa 1"
     inkscape:groupmode="layer"
     id="layer1">
    <path
       id="rect23"
       style="fill:#ffff00;stroke:#000000;stroke-width:0.79375;stroke-linecap:square;stroke-linejoin:round"
       d="m 102.74173,33.634453 v 8.57854 h -8.591535 v 8.89775 h 8.741685 0.15666 8.35999 0.38147 8.51666 v -8.89775 H 111.79 111.63986 v -8.57854 z" />
    <path
       id="rect24"
       style="fill:#ff6600;stroke:#000000;stroke-width:0.79375;stroke-linecap:square;stroke-linejoin:round"
       d="m 73.862615,25.400386 v 8.74929 h -8.692884 v 8.89774 h 8.741672 0.156669 8.741461 v -8.74929 h 8.69288 v -8.89774 h -8.741461 -0.156669 z" />
    <path
       id="path25"
       style="fill:#00ffff;stroke:#000000;stroke-width:0.79375;stroke-linecap:square;stroke-linejoin:round"
       d="m 94.365531,60.611221 v 8.89774 h 8.741669 0.15667 8.53559 0.20587 8.5358 0.15666 8.74146 v -8.89774 h -8.74146 -0.15666 -8.5358 -0.20587 -8.53559 -0.15667 z" />
    <path
       id="path26"
       style="fill:#ff0000;stroke:#000000;stroke-width:0.79375;stroke-linecap:square;stroke-linejoin:round"
       d="m 32.59776,52.514829 v 8.54089 0.35685 8.5409 h 8.74167 0.15667 8.741456 v -8.5409 -0.35685 -8.54089 H 41.4961 41.33943 Z" />
    <path
       id="path27"
       style="fill:#0000ff;stroke:#000000;stroke-width:0.79375;stroke-linecap:square;stroke-linejoin:round"
       d="m 33.30784,25.310279 v 8.72574 h -0.0297 v 8.89775 h 8.74167 0.15667 8.741463 v -2.2e-4 h 8.315615 v -8.89753 H 50.917941 50.335429 42.20592 v -8.72574 z" />
    <path
       id="path29"
       style="fill:#008000;stroke:#000000;stroke-width:0.79375;stroke-linecap:square;stroke-linejoin:round"
       d="m 83.519398,51.90988 v 8.72574 h 0.02967 v 8.89775 h -8.741672 -0.156669 -8.74146 v -2.2e-4 h -8.315622 v -8.89753 h 8.315618 0.582513 8.129509 v -8.72574 z" />
    <path
       id="path31"
       style="fill:#00ffff;stroke:#000000;stroke-width:0.79375;stroke-linecap:square;stroke-linejoin:round"
       d="m 33.738462,158.11328 v 8.89774 h 8.741671 0.156668 8.535584 0.205877 8.535793 0.156669 8.741457 v -8.89774 h -8.741457 -0.156669 -8.535793 -0.205877 -8.535584 -0.156668 z" />
    <path
       id="path32"
       style="fill:#00ffff;stroke:#000000;stroke-width:0.79375;stroke-linecap:square;stroke-linejoin:round"
       d="m 68.932703,158.15217 v 8.89774 h 8.741671 0.156668 8.535584 0.205877 8.535793 0.156669 8.741465 v -8.89774 h -8.741465 -0.156669 -8.535793 -0.205877 -8.535584 -0.156668 z" />
    <path
       id="path33"
       style="fill:#0000ff;stroke:#000000;stroke-width:0.79375;stroke-linecap:square;stroke-linejoin:round"
       d="m 104.04705,167.04939 h 8.72574 v 0.0297 h 8.89774 v -8.74168 -0.15666 -8.74146 h -2.1e-4 v -8.31562 h -8.89753 v 8.31562 0.58251 8.12951 h -8.72574 z" />
    <path
       id="path34"
       style="fill:#ffff00;stroke:#000000;stroke-width:0.79375;stroke-linecap:square;stroke-linejoin:round"
       d="m 42.419346,140.59677 v 8.57854 h -8.591523 v 8.89775 h 8.741673 0.156668 8.35999 0.381471 8.516658 v -8.89775 h -8.516658 -0.150149 v -8.57854 z" />
    <path
       id="path35"
       style="fill:#ff0000;stroke:#000000;stroke-width:0.79375;stroke-linecap:square;stroke-linejoin:round"
       d="m 60.392185,140.58797 v 8.5409 0.35685 8.5409 h 8.74167 0.156669 8.74146 v -8.5409 -0.35685 -8.5409 h -8.74146 -0.156669 z" />
    <path
       id="path36"
       style="fill:#008000;stroke:#000000;stroke-width:0.79375;stroke-linecap:square;stroke-linejoin:round"
       d="m 104.51849,140.03208 v 8.72574 h 0.0297 v 8.89775 h -8.741669 -0.156669 -8.74146 v -2.2e-4 H 78.59274 v -8.89753 h 8.315618 0.582513 8.129509 v -8.72574 z" />
    <path
       id="path38"
       style="fill:#ff6600;stroke:#000000;stroke-width:0.79375;stroke-linecap:square;stroke-linejoin:round"
       d="m 86.846532,131.66359 v 8.74929 h -8.692884 v 8.89774 h 8.741672 0.156669 8.741461 v -8.74929 h 8.69288 v -8.89774 H 95.744869 95.5882 Z" />
    <path
       id="path39"
       style="fill:#0000ff;stroke:#000000;stroke-width:0.79375;stroke-linecap:square;stroke-linejoin:round"
       d="m 122.22933,131.72823 h -8.72574 v -0.0297 h -8.89776 v 8.74168 0.15667 8.74145 h 2.3e-4 v 8.31562 h 8.89753 v -8.31562 -0.5825 -8.12952 h 8.72574 z" />
    <path
       id="path40"
       style="fill:#008000;stroke:#000000;stroke-width:0.79375;stroke-linecap:square;stroke-linejoin:round"
       d="m 51.599465,149.55317 v -8.72575 h -0.0297 v -8.89775 h 8.74168 0.15667 8.74146 v 2.2e-4 h 8.31562 v 8.89753 h -8.31562 -0.58251 -8.12951 v 8.72575 z" />
    <path
       id="path41"
       style="fill:#ffff00;stroke:#000000;stroke-width:0.79375;stroke-linecap:square;stroke-linejoin:round"
       d="m 77.722283,140.37959 v -8.57854 H 69.13076 v -8.89775 h 8.741673 0.156668 8.35999 0.381471 8.516658 v 8.89775 h -8.516658 -0.150149 v 8.57854 z" />
    <path
       id="path42"
       style="fill:#ffff00;stroke:#000000;stroke-width:0.79375;stroke-linecap:square;stroke-linejoin:round"
       d="m 51.191271,132.04066 h -8.57854 v -8.59152 h -8.89775 v 8.74167 0.15667 8.35999 0.38147 8.51665 h 8.89775 v -8.51665 -0.15015 h 8.57854 z" />
    <path
       id="path43"
       style="fill:#0000ff;stroke:#000000;stroke-width:0.79375;stroke-linecap:square;stroke-linejoin:round"
       d="m 42.904491,114.35079 v 8.72574 h -0.02965 v 8.89775 h 8.741671 0.156668 8.741461 v -2.2e-4 h 8.315615 v -8.89753 H 60.514639 59.932127 51.80262 v -8.72574 z" />
  </g>
</svg>
