<?xml version="1.0" encoding="UTF-8" standalone="no"?>
<!-- Created with Inkscape (http://www.inkscape.org/) -->

<svg
   width="210mm"
   height="297mm"
   viewBox="0 0 210 297"
   version="1.1"
   id="svg1"
   inkscape:version="1.3 (1:1.3+202307231459+0e150ed6c4)"
   sodipodi:docname="tut-reto5.svg"
   xmlns:inkscape="http://www.inkscape.org/namespaces/inkscape"
   xmlns:sodipodi="http://sodipodi.sourceforge.net/DTD/sodipodi-0.dtd"
   xmlns="http://www.w3.org/2000/svg"
   xmlns:svg="http://www.w3.org/2000/svg">
  <sodipodi:namedview
     id="namedview1"
     pagecolor="#ffffff"
     bordercolor="#000000"
     borderopacity="0.25"
     inkscape:showpageshadow="2"
     inkscape:pageopacity="0.0"
     inkscape:pagecheckerboard="0"
     inkscape:deskcolor="#d1d1d1"
     inkscape:document-units="mm"
     inkscape:zoom="0.69575617"
     inkscape:cx="643.90374"
     inkscape:cy="683.42908"
     inkscape:window-width="1864"
     inkscape:window-height="1016"
     inkscape:window-x="56"
     inkscape:window-y="27"
     inkscape:window-maximized="1"
     inkscape:current-layer="layer1" />
  <defs
     id="defs1">
    <inkscape:path-effect
       effect="powerstroke"
       id="path-effect7"
       is_visible="true"
       lpeversion="1.3"
       scale_width="1"
       interpolator_type="CubicBezierJohan"
       interpolator_beta="0.2"
       start_linecap_type="zerowidth"
       end_linecap_type="zerowidth"
       offset_points="3,6.5841171"
       linejoin_type="extrp_arc"
       miter_limit="4"
       not_jump="false"
       sort_points="true"
       message="&lt;b&gt;Ctrl + clic&lt;/b&gt; sobre un nodo existente y muévalo" />
    <inkscape:path-effect
       effect="powerstroke"
       id="path-effect6"
       is_visible="true"
       lpeversion="1.3"
       scale_width="1"
       interpolator_type="CubicBezierJohan"
       interpolator_beta="0.2"
       start_linecap_type="zerowidth"
       end_linecap_type="zerowidth"
       offset_points="9,6.5841171"
       linejoin_type="extrp_arc"
       miter_limit="4"
       not_jump="false"
       sort_points="true"
       message="&lt;b&gt;Ctrl + clic&lt;/b&gt; sobre un nodo existente y muévalo" />
    <inkscape:path-effect
       effect="powerstroke"
       id="path-effect5"
       is_visible="true"
       lpeversion="1.3"
       scale_width="1"
       interpolator_type="CubicBezierJohan"
       interpolator_beta="0.2"
       start_linecap_type="zerowidth"
       end_linecap_type="zerowidth"
       offset_points="3,6.5841171"
       linejoin_type="extrp_arc"
       miter_limit="4"
       not_jump="false"
       sort_points="true"
       message="&lt;b&gt;Ctrl + clic&lt;/b&gt; sobre un nodo existente y muévalo" />
    <inkscape:path-effect
       effect="powerstroke"
       id="path-effect4"
       is_visible="true"
       lpeversion="1.3"
       scale_width="1"
       interpolator_type="CubicBezierJohan"
       interpolator_beta="0.2"
       start_linecap_type="zerowidth"
       end_linecap_type="zerowidth"
       offset_points="1.471798,6.5841171"
       linejoin_type="extrp_arc"
       miter_limit="4"
       not_jump="false"
       sort_points="true"
       message="&lt;b&gt;Ctrl + clic&lt;/b&gt; sobre un nodo existente y muévalo" />
    <inkscape:path-effect
       effect="powerstroke"
       id="path-effect3"
       is_visible="true"
       lpeversion="1.3"
       scale_width="1"
       interpolator_type="CubicBezierJohan"
       interpolator_beta="0.2"
       start_linecap_type="zerowidth"
       end_linecap_type="zerowidth"
       offset_points="0.10420698,2.6547242"
       linejoin_type="extrp_arc"
       miter_limit="4"
       not_jump="false"
       sort_points="true"
       message="&lt;b&gt;Ctrl + clic&lt;/b&gt; sobre un nodo existente y muévalo" />
  </defs>
  <g
     inkscape:label="Capa 1"
     inkscape:groupmode="layer"
     id="layer1">
    <path
       style="fill:#e6e6e6;stroke:#000000;stroke-width:0.79375;stroke-linecap:square;stroke-linejoin:round"
       d="m 30.633238,43.681862 c 0,0 4.491284,-10.33437 13.346613,-10.64778 8.855326,-0.31341 16.788804,9.25567 16.788804,9.25567 0,0 1.097902,-10.08197 10.307095,-9.2879 9.209193,0.79406 13.756545,10.338 13.756545,10.338 0,0 3.596944,-13.32421 11.083679,-8.97954 7.486726,4.34468 6.373286,13.34635 6.373286,13.34635 0,0 9.71978,-19.4241 16.12208,-6.07214 6.40231,13.35196 -6.92725,20.03678 -6.92725,20.03678 0,0 13.42631,7.50006 5.40079,15.12925 -8.02552,7.6292 -16.62028,-3.33809 -16.62028,-3.33809 0,0 5.26416,17.42725 -4.095679,17.81752 -9.359842,0.39027 -13.849536,-12.64875 -13.849536,-12.64875 0,0 -9.213722,18.52617 -19.054447,9.5814 -9.840722,-8.94478 -11.953581,-19.74154 -11.953581,-19.74154 0,0 -1.430928,18.47959 -14.468742,13.63931 -13.037815,-4.84028 -6.280354,-18.45746 -6.280354,-18.45746 0,0 -14.27317,8.91265 -16.371578,-5.61394 -2.098409,-14.52659 16.442555,-14.35714 16.442555,-14.35714 z"
       id="path51" />
    <path
       style="fill:#ffe6d5;stroke:#000000;stroke-width:0.79375;stroke-linecap:square;stroke-linejoin:round"
       d="m 151.2073,55.037022 c 0,0 -0.53578,-18.990289 2.87242,-18.990289 3.4082,0 3.16716,16.649914 3.16716,16.649914 0,0 1.0737,-23.385002 4.90384,-23.325116 3.83014,0.05989 1.56981,23.053309 1.56981,23.053309 0,0 3.6937,-24.984494 8.7639,-24.707431 5.07019,0.277063 -1.59312,25.753991 -1.59312,25.753991 0,0 7.84523,-21.83455 11.57414,-19.519528 3.7289,2.315021 -11.9352,33.071229 -11.9352,33.071229 0,0 11.08138,-13.405633 14.00439,-7.152153 2.923,6.253477 -20.90272,24.067748 -20.90272,24.067748 l -15.29926,-2.203312 z"
       id="path52"
       sodipodi:nodetypes="csczczczcsccc" />
    <path
       style="fill:none;stroke:#000000;stroke-width:0.79375;stroke-linecap:square;stroke-linejoin:round"
       d="m 53.208054,133.58402 c 0,0 -19.138032,-36.118821 -3.885012,-35.581021 15.25302,0.5378 7.718378,35.699581 7.718378,35.699581 0,0 6.155301,-38.143707 15.242532,-31.08965 9.087233,7.05406 -9.846599,32.23503 -9.846599,32.23503 0,0 22.276697,-26.9043 27.868857,-16.36806 5.59216,10.53625 -23.071628,19.34287 -23.071628,19.34287 0,0 24.815518,-2.63438 22.574565,9.01116 -2.240957,11.64554 -24.475821,-4.12168 -24.475821,-4.12168 0,0 21.525029,13.29294 15.522496,21.45217 -6.002534,8.15923 -19.862919,-17.28239 -19.862919,-17.28239 0,0 10.507869,26.78778 0.156607,31.20924 -10.351262,4.42147 -5.97534,-29.58399 -5.97534,-29.58399 0,0 -6.047782,28.464 -15.119603,25.92882 -9.071822,-2.53518 9.480457,-30.81681 9.480457,-30.81681 0,0 -22.523153,29.02266 -31.190665,21.28111 -8.6675131,-7.74155 26.447236,-26.36042 26.447236,-26.36042 0,0 -29.939816,-9.00388 -23.447275,-19.33055 6.492541,-10.32668 31.863734,14.37459 31.863734,14.37459 z"
       id="path53"
       sodipodi:nodetypes="cscscscscscscscsczc" />
    <path
       style="fill:#ffe6d5;stroke:#000000;stroke-width:0.79375;stroke-linecap:square;stroke-linejoin:round"
       d="m 125.39969,119.13125 c 1.73553,-12.51486 15.72212,-14.42196 15.72212,-14.42196 13.93952,-0.27385 24.99614,6.42885 24.99614,6.42885 l -0.3962,23.81698 c 0,0 11.04237,-8.95948 20.71853,-8.43675 9.67615,0.52273 14.10696,5.08338 12.58308,10.93989 -1.52389,5.85652 -32.42149,2.47657 -32.42149,2.47657 l -0.49904,18.45977 -19.21929,-9.5772 c 0,0 -0.73698,7.41656 6.80551,12.46754 7.54248,5.05098 13.02315,5.15874 13.02315,5.15874 l -0.84293,13.16186 -39.64875,-0.83698 c 0,0 -2.55637,-47.12245 -0.82083,-59.63731 z"
       id="path54"
       sodipodi:nodetypes="zcccsscccscccz" />
    <path
       style="fill:#ffffff;stroke:#000000;stroke-width:0.79375;stroke-linecap:square;stroke-linejoin:round"
       d="m 157.99508,116.15586 -12.12702,7.96629 12.37799,3.56633 c 0,0 3.24366,-1.84639 2.88531,-6.10473 -0.35836,-4.25834 -3.13628,-5.42789 -3.13628,-5.42789 z"
       id="path56"
       sodipodi:nodetypes="ccczc" />
    <ellipse
       style="fill:#1a1a1a;stroke:#000000;stroke-width:0.79375;stroke-linecap:square;stroke-linejoin:round"
       id="path57"
       cx="160.02382"
       cy="122.65762"
       rx="0.88174057"
       ry="2.4383914" />
    <circle
       style="fill:#ffff00;stroke:#000000;stroke-width:0.79375;stroke-linecap:square;stroke-linejoin:round"
       id="path58"
       cx="56.131664"
       cy="139.37851"
       r="10.177402" />
  </g>
</svg>
