<?xml version="1.0" encoding="UTF-8" standalone="no"?>
<!-- Created with Inkscape (http://www.inkscape.org/) -->

<svg
   width="228.31143mm"
   height="138.15768mm"
   viewBox="0 0 228.31143 138.15768"
   version="1.1"
   id="svg1"
   xml:space="preserve"
   inkscape:version="1.4-beta3 (01c8a1c, 2024-08-28)"
   sodipodi:docname="tut-reto-4-circulos.svg"
   xmlns:inkscape="http://www.inkscape.org/namespaces/inkscape"
   xmlns:sodipodi="http://sodipodi.sourceforge.net/DTD/sodipodi-0.dtd"
   xmlns="http://www.w3.org/2000/svg"
   xmlns:svg="http://www.w3.org/2000/svg"><sodipodi:namedview
     id="namedview1"
     pagecolor="#ffffff"
     bordercolor="#000000"
     borderopacity="0.25"
     inkscape:showpageshadow="2"
     inkscape:pageopacity="0.0"
     inkscape:pagecheckerboard="0"
     inkscape:deskcolor="#d1d1d1"
     inkscape:document-units="mm"
     inkscape:zoom="0.67793911"
     inkscape:cx="339.26351"
     inkscape:cy="363.60197"
     inkscape:window-width="1866"
     inkscape:window-height="1011"
     inkscape:window-x="0"
     inkscape:window-y="0"
     inkscape:window-maximized="1"
     inkscape:current-layer="layer1" /><defs
     id="defs1" /><g
     inkscape:label="Layer 1"
     inkscape:groupmode="layer"
     id="layer1"
     transform="translate(9.7568989,-29.660971)"><rect
       style="fill:#f9f9f9;stroke:none;stroke-width:1.05833;stroke-linecap:round;stroke-linejoin:round;stroke-dasharray:none;stroke-dashoffset:0"
       id="rect12"
       width="228.31143"
       height="138.15768"
       x="-9.7568989"
       y="29.660971" /><path
       style="fill:#ffff00;stroke:#000000;stroke-width:0.529167;stroke-linecap:round;stroke-linejoin:round;stroke-dasharray:0.529167, 0.529167"
       id="path1"
       sodipodi:type="arc"
       sodipodi:cx="47.028252"
       sodipodi:cy="78.25032"
       sodipodi:rx="21.660316"
       sodipodi:ry="21.660316"
       sodipodi:start="0.65309568"
       sodipodi:end="5.56397"
       sodipodi:arc-type="slice"
       d="M 64.231016,91.412167 A 21.660316,21.660316 0 0 1 40.420215,98.878048 21.660316,21.660316 0 0 1 25.379771,78.966276 21.660316,21.660316 0 0 1 39.07175,58.104269 21.660316,21.660316 0 0 1 63.323804,63.980622 L 47.028252,78.25032 Z" /><ellipse
       style="fill:#000000;stroke:#000000;stroke-width:0.529167;stroke-linecap:round;stroke-linejoin:round;stroke-dasharray:0.529167, 0.529167"
       id="path2"
       cx="46.637978"
       cy="63.810146"
       rx="2.9273975"
       ry="2.9273612" /><path
       style="fill:#ff00ff;stroke:#000000;stroke-width:0.529167;stroke-linecap:round;stroke-linejoin:round;stroke-dasharray:0.529167, 0.529167"
       id="path3"
       sodipodi:type="arc"
       sodipodi:cx="-32.955647"
       sodipodi:cy="126.03725"
       sodipodi:rx="20.877188"
       sodipodi:ry="20.879757"
       sodipodi:start="0"
       sodipodi:end="5.4724761"
       sodipodi:arc-type="slice"
       d="m -12.078459,126.03725 a 20.877188,20.879757 0 0 1 -16.674765,20.45237 20.877188,20.879757 0 0 1 -23.387778,-12.21855 20.877188,20.879757 0 0 1 7.259195,-25.37138 20.877188,20.879757 0 0 1 26.310221,2.00441 l -14.384061,15.13315 z"
       transform="matrix(0.37607417,-0.92658956,0.92663452,0.37596338,0,0)" /><path
       style="fill:#ff00ff;stroke:#000000;stroke-width:0.529167;stroke-linecap:round;stroke-linejoin:round;stroke-dasharray:0.529167, 0.529167"
       id="path4"
       sodipodi:type="arc"
       sodipodi:cx="-102.768"
       sodipodi:cy="62.738125"
       sodipodi:rx="20.877188"
       sodipodi:ry="20.879757"
       sodipodi:start="0.040932533"
       sodipodi:end="0.92188702"
       sodipodi:arc-type="slice"
       d="m -81.908297,63.592548 a 20.877188,20.879757 0 0 1 -8.243245,15.781385 L -102.768,62.738125 Z"
       transform="matrix(-0.46969324,-0.88282969,0.88277352,-0.4697988,0,0)" /><path
       style="fill:#cccccc;stroke:#000000;stroke-width:0.529167;stroke-linecap:round;stroke-linejoin:round;stroke-dasharray:0.529167, 0.529167"
       id="path5"
       sodipodi:type="arc"
       sodipodi:cx="164.11029"
       sodipodi:cy="78.583565"
       sodipodi:rx="18.765741"
       sodipodi:ry="18.765741"
       sodipodi:start="1.0990188"
       sodipodi:end="5.188626"
       sodipodi:open="true"
       sodipodi:arc-type="chord"
       d="m 172.63876,95.299371 a 18.765741,18.765741 0 0 1 -23.12761,-4.925213 18.765741,18.765741 0 0 1 0.0527,-23.646174 18.765741,18.765741 0 0 1 23.14935,-4.822027 z" /><path
       style="fill:none;stroke:#000000;stroke-width:2.11667;stroke-linecap:round;stroke-linejoin:round;stroke-dasharray:none;stroke-dashoffset:0"
       id="path6"
       sodipodi:type="arc"
       sodipodi:cx="141.20462"
       sodipodi:cy="-44.915997"
       sodipodi:rx="21.249441"
       sodipodi:ry="17.93784"
       sodipodi:start="1.5734763"
       sodipodi:end="4.7272615"
       sodipodi:arc-type="arc"
       d="m 141.14767,-26.978221 a 21.249441,17.93784 0 0 1 -18.41684,-9.073827 21.249441,17.93784 0 0 1 0.18714,-18.000245 21.249441,17.93784 0 0 1 18.60267,-8.799559"
       sodipodi:open="true"
       transform="rotate(90)" /><circle
       style="fill:#ffb380;stroke:#000000;stroke-width:0.79375;stroke-linecap:round;stroke-linejoin:round;stroke-dasharray:none;stroke-dashoffset:0"
       id="path7"
       cx="105.8813"
       cy="132.94904"
       r="16.006073" /><path
       style="fill:none;stroke:#000000;stroke-width:1.05833;stroke-linecap:round;stroke-linejoin:round;stroke-dasharray:none;stroke-dashoffset:0"
       id="path8"
       sodipodi:type="arc"
       sodipodi:cx="-135.98811"
       sodipodi:cy="103.91286"
       sodipodi:rx="9.2179947"
       sodipodi:ry="8.1428423"
       sodipodi:start="1.5734763"
       sodipodi:end="4.7272615"
       sodipodi:arc-type="arc"
       d="m -136.01282,112.05567 a 9.2179947,8.1428423 0 0 1 -7.98921,-4.11904 9.2179947,8.1428423 0 0 1 0.0812,-8.171174 9.2179947,8.1428423 0 0 1 8.06983,-3.994541"
       sodipodi:open="true"
       transform="rotate(-90.98723)" /><rect
       style="fill:#000000;stroke:#000000;stroke-width:1.05833;stroke-linecap:round;stroke-linejoin:round;stroke-dasharray:none;stroke-dashoffset:0"
       id="rect8"
       width="2.0697505"
       height="8.0156155"
       x="101.46584"
       y="121.08244" /><rect
       style="fill:#000000;stroke:#000000;stroke-width:1.05833;stroke-linecap:round;stroke-linejoin:round;stroke-dasharray:none;stroke-dashoffset:0"
       id="rect9"
       width="2.0697505"
       height="8.0156155"
       x="109.19291"
       y="121.08244" /><circle
       style="fill:#ffb380;stroke:#000000;stroke-width:0.79375;stroke-linecap:round;stroke-linejoin:round;stroke-dasharray:none;stroke-dashoffset:0"
       id="circle9"
       cx="158.177"
       cy="132.94904"
       r="16.006073" /><path
       style="fill:none;stroke:#000000;stroke-width:1.05833;stroke-linecap:round;stroke-linejoin:round;stroke-dasharray:none;stroke-dashoffset:0"
       id="path9"
       sodipodi:type="arc"
       sodipodi:cx="140.22643"
       sodipodi:cy="-163.2025"
       sodipodi:rx="9.2179947"
       sodipodi:ry="8.1428423"
       sodipodi:start="2.0438666"
       sodipodi:end="4.1472813"
       sodipodi:arc-type="arc"
       d="m 136.02651,-155.95396 a 9.2179947,8.1428423 0 0 1 -5.00832,-6.87395 9.2179947,8.1428423 0 0 1 4.27194,-7.25147"
       transform="rotate(92.019478)"
       sodipodi:open="true" /><rect
       style="fill:#000000;stroke:#000000;stroke-width:1.05833;stroke-linecap:round;stroke-linejoin:round;stroke-dasharray:none;stroke-dashoffset:0"
       id="rect10"
       width="2.0697505"
       height="8.0156155"
       x="153.76154"
       y="121.08244" /><rect
       style="fill:#000000;stroke:#000000;stroke-width:1.05833;stroke-linecap:round;stroke-linejoin:round;stroke-dasharray:none;stroke-dashoffset:0"
       id="rect11"
       width="2.0697505"
       height="8.0156155"
       x="161.4886"
       y="121.08244" /></g></svg>
