<?xml version="1.0" encoding="UTF-8" standalone="no"?>
<!-- Created with Inkscape (http://www.inkscape.org/) -->

<svg
   width="136.10089mm"
   height="89.810303mm"
   viewBox="0 0 136.10089 89.810303"
   version="1.1"
   id="svg1"
   xml:space="preserve"
   inkscape:version="1.4-beta3 (01c8a1c, 2024-08-28)"
   sodipodi:docname="tut-reto7.svg"
   xmlns:inkscape="http://www.inkscape.org/namespaces/inkscape"
   xmlns:sodipodi="http://sodipodi.sourceforge.net/DTD/sodipodi-0.dtd"
   xmlns="http://www.w3.org/2000/svg"
   xmlns:svg="http://www.w3.org/2000/svg"><sodipodi:namedview
     id="namedview1"
     pagecolor="#ffffff"
     bordercolor="#000000"
     borderopacity="0.25"
     inkscape:showpageshadow="2"
     inkscape:pageopacity="0.0"
     inkscape:pagecheckerboard="0"
     inkscape:deskcolor="#d1d1d1"
     inkscape:document-units="mm"
     inkscape:zoom="1.3648564"
     inkscape:cx="315.4178"
     inkscape:cy="194.52596"
     inkscape:window-width="1866"
     inkscape:window-height="1011"
     inkscape:window-x="0"
     inkscape:window-y="0"
     inkscape:window-maximized="1"
     inkscape:current-layer="layer1" /><defs
     id="defs1"><inkscape:path-effect
       effect="fillet_chamfer"
       id="path-effect1"
       is_visible="true"
       lpeversion="1"
       nodesatellites_param="F,0,0,1,0,0,0,1 @ F,0,0,1,0,44.878229,0,1 @ F,0,0,1,0,0,0,1"
       radius="0"
       unit="px"
       method="auto"
       mode="F"
       chamfer_steps="1"
       flexible="false"
       use_knot_distance="true"
       apply_no_radius="true"
       apply_with_radius="true"
       only_selected="false"
       hide_knots="false" /></defs><g
     inkscape:label="Layer 1"
     inkscape:groupmode="layer"
     id="layer1"
     transform="translate(0,-1.163126)"><path
       style="fill:#f2f2f2;stroke:#000000;stroke-width:0.264999;stroke-linecap:round;stroke-linejoin:round"
       d="m 25.275368,52.9936 c 0,0 -9.057961,3.564129 -9.321149,-5.757179 -0.263188,-9.321309 9.732376,-5.620105 9.732376,-5.620105 0,0 0.137075,-4.386423 4.523499,-6.716711 4.386424,-2.330286 10.006526,0.959529 10.006526,0.959529 0,0 -0.548303,-11.925588 10.691906,-12.199738 11.240209,-0.274151 11.651436,12.062663 11.651436,12.062663 0,0 13.15927,-2.467361 11.651436,8.909922 -1.497798,11.301564 -14.118799,5.208877 -14.118799,5.208877 0,0 -0.822452,3.563969 -7.265012,4.523499 -6.442559,0.95953 -11.377284,-2.056136 -11.377284,-2.056136 0,0 -0.274152,3.838121 -7.813316,3.838121 -7.539164,0 -8.361619,-3.152742 -8.361619,-3.152742 z"
       id="path2"
       sodipodi:nodetypes="czcscscscscsc" /><path
       style="fill:#ffe6d5;fill-opacity:1;stroke:#000000;stroke-width:0.529167;stroke-linecap:round;stroke-linejoin:round;stroke-dasharray:none"
       d="m 92.142693,71.991304 -2.00357,-25.26414 c 0,0 -4.559147,-21.383473 -1.540417,-22.219533 3.018727,-0.83606 6.903517,20.504104 6.903517,20.504104 0,0 -3.75248,-24.93727 0.0357,-25.451415 4.31835,-0.586116 4.671457,23.912209 4.671457,23.912209 0,0 -1.211237,-25.979345 3.0064,-25.66319 4.21764,0.316155 1.62996,25.537252 1.62996,25.537252 0,0 4.2764,-22.586651 7.5322,-22.086373 3.2558,0.500281 -4.41716,33.398893 -4.41716,33.398893 0,0 4.80261,-13.729835 9.4042,-11.618172 4.60158,2.111663 -3.6142,14.87836 -3.6142,14.87836 l -6.0714,14.015615 z"
       id="path3"
       sodipodi:nodetypes="cczcsczcsczccc" /></g></svg>
