<?xml version="1.0" encoding="UTF-8" standalone="no"?>
<!-- Created with Inkscape (http://www.inkscape.org/) -->

<svg
   width="210mm"
   height="297mm"
   viewBox="0 0 210 297"
   version="1.1"
   id="svg1"
   inkscape:version="1.3 (1:1.3+202307231459+0e150ed6c4)"
   sodipodi:docname="tut-reto-4.svg"
   xmlns:inkscape="http://www.inkscape.org/namespaces/inkscape"
   xmlns:sodipodi="http://sodipodi.sourceforge.net/DTD/sodipodi-0.dtd"
   xmlns="http://www.w3.org/2000/svg"
   xmlns:svg="http://www.w3.org/2000/svg">
  <sodipodi:namedview
     id="namedview1"
     pagecolor="#ffffff"
     bordercolor="#000000"
     borderopacity="0.25"
     inkscape:showpageshadow="2"
     inkscape:pageopacity="0.0"
     inkscape:pagecheckerboard="0"
     inkscape:deskcolor="#d1d1d1"
     inkscape:document-units="mm"
     inkscape:zoom="1.3915123"
     inkscape:cx="459.93124"
     inkscape:cy="229.6063"
     inkscape:window-width="1864"
     inkscape:window-height="1016"
     inkscape:window-x="56"
     inkscape:window-y="27"
     inkscape:window-maximized="1"
     inkscape:current-layer="layer1" />
  <defs
     id="defs1" />
  <g
     inkscape:label="Capa 1"
     inkscape:groupmode="layer"
     id="layer1">
    <path
       style="fill:#e5ffd5;stroke:#000000;stroke-width:0.529167;stroke-linecap:square;stroke-linejoin:round;stroke-dasharray:none"
       d="m 23.789897,54.804805 23.350083,0.13445 -2.136394,2.862131 7.386322,-4.054418 -7.046251,-2.86621 1.4649,2.093915 -22.847233,-0.251334 z"
       id="path1" />
    <path
       style="fill:#b3ff80;stroke:#000000;stroke-width:0.529167;stroke-linecap:square;stroke-linejoin:round;stroke-dasharray:none"
       d="m 25.020848,58.460621 9.228235,8.083496 2.701393,-2.401528 0.131694,9.077378 -7.292925,-1.979806 2.691162,-2.633104 -9.289378,-8.461242 z"
       id="path2" />
    <path
       style="fill:#ffff00;stroke:#000000;stroke-width:0.529167;stroke-linecap:square;stroke-linejoin:round;stroke-dasharray:none"
       d="m 58.072198,47.532629 -7.02028,13.855674 -9.972492,0.05871 -1.440731,20.66211 -5.239556,-0.515694 5.262975,7.978333 8.186425,-8.249637 -6.530403,0.794523 1.405495,-18.695509 9.692267,-0.407609 7.645498,-16.053824 z"
       id="path3" />
    <path
       style="fill:#de8787;stroke:#000000;stroke-width:0.529167;stroke-linecap:square;stroke-linejoin:round;stroke-dasharray:none"
       d="m 48.026664,69.749208 2.881628,-4.572257 4.930349,5.846913 -3.839075,-2.304809 0.534426,9.610474 2.114796,-3.407029 -2.101871,7.866467 -5.935342,-5.836531 4.238593,1.63804 -0.55893,-10.11841 z"
       id="path4" />
    <path
       style="fill:#ff2a2a;stroke:#000000;stroke-width:0.529167;stroke-linecap:square;stroke-linejoin:round;stroke-dasharray:none"
       d="M 49.926793,90.048144 61.55345,76.236431 58.741657,58.730998 l -2.960828,2.465075 2.832277,-7.587744 6.010261,4.665216 -4.144885,0.652004 3.672265,18.257889 -13.122586,14.266058 z"
       id="path5" />
    <path
       style="fill:#d35f5f;stroke:#000000;stroke-width:0.529167;stroke-linecap:square;stroke-linejoin:round;stroke-dasharray:none"
       d="m 32.284821,45.098384 31.204206,-0.262212 8.26478,7.247861 0.31558,18.651639 -3.04429,-4.556755 3.39299,13.713156 5.51882,-13.27018 -4.12849,4.139579 0.19357,-19.544728 L 63.535457,42.416 32.66095,43.021865 Z"
       id="path6" />
    <path
       style="fill:#de8787;stroke:#000000;stroke-width:0.529167;stroke-linecap:square;stroke-linejoin:round;stroke-dasharray:none"
       d="m 58.30682,90.084827 6.285307,-7.448077 -2.16442,0.279657 4.62898,-2.761925 -0.22417,3.747553 -1.67418,-0.883459 -5.231719,6.932038 z"
       id="path7" />
    <path
       style="fill:#f4d7d7;stroke:#000000;stroke-width:0.529167;stroke-linecap:square;stroke-linejoin:round;stroke-dasharray:none"
       d="m 69.311297,92.975966 3.26689,-4.230511 -4.12089,-2.129845 10.51006,-1.924643 2.80598,7.738041 -5.3775,-2.711434 -3.05806,4.213532 z"
       id="path8" />
    <path
       style="fill:#ffff00;stroke:#000000;stroke-width:0.529167;stroke-linecap:square;stroke-linejoin:round;stroke-dasharray:none"
       d="m 66.908607,41.46749 7.19024,6.321979 6.78115,-7.199896 4.82891,4.612946 -0.71288,-15.827325 -14.8819,3.137646 5.24245,3.706041 z"
       id="path9" />
    <path
       style="fill:#ffccaa;stroke:#000000;stroke-width:0.529167;stroke-linecap:square;stroke-linejoin:round;stroke-dasharray:none"
       d="m 78.898687,54.351734 9.54397,-0.112564 -0.26541,-4.646719 8.25754,7.588541 -7.44572,5.170075 -0.11427,-4.144116 -10.15726,-0.13445 z"
       id="path10" />
    <path
       style="fill:#ffb380;stroke:#000000;stroke-width:0.529167;stroke-linecap:square;stroke-linejoin:round;stroke-dasharray:none"
       d="m 82.053577,72.788797 2.74153,-3.4643 6.60812,4.633375 6.31773,-8.310427 -1.90854,13.359545 -11.16762,6.981817 5.96485,-8.709052 z"
       id="path11" />
    <rect
       style="fill:none;stroke:#000000;stroke-width:0.529167;stroke-linecap:square;stroke-linejoin:round;stroke-dasharray:none"
       id="rect11"
       width="82.384811"
       height="75.605827"
       x="19.093716"
       y="25.388636" />
    <rect
       style="fill:none;stroke:#000000;stroke-width:0.529167;stroke-linecap:square;stroke-linejoin:round;stroke-dasharray:none"
       id="rect12"
       width="82.384811"
       height="75.605827"
       x="108.05626"
       y="25.388636" />
    <path
       style="fill:#ff5555;stroke:#000000;stroke-width:0.529167;stroke-linecap:square;stroke-linejoin:round;stroke-dasharray:none"
       d="m 141.44941,57.39141 5.32433,-5.965877 5.75937,6.377215 -2.0894,7.29988 -6.19511,-0.0318 z"
       id="path12" />
    <path
       style="fill:#ffd5d5;stroke:#000000;stroke-width:0.529167;stroke-linecap:square;stroke-linejoin:round;stroke-dasharray:none"
       d="m 148.76319,49.678021 4.83521,5.985793 2.00177,-8.575906 z"
       id="path13" />
    <path
       style="fill:#ffd5d5;stroke:#000000;stroke-width:0.529167;stroke-linecap:square;stroke-linejoin:round;stroke-dasharray:none"
       d="m 154.47127,58.412255 -1.78982,6.699832 6.63467,-1.839275 z"
       id="path14" />
    <path
       style="fill:#ffd5d5;stroke:#000000;stroke-width:0.529167;stroke-linecap:square;stroke-linejoin:round;stroke-dasharray:none"
       d="m 144.37621,67.637119 5.86231,0.305451 -2.9481,5.425229 z"
       id="path15" />
    <path
       style="fill:#ffd5d5;stroke:#000000;stroke-width:0.529167;stroke-linecap:square;stroke-linejoin:round;stroke-dasharray:none"
       d="m 142.18222,65.688728 -2.68771,-7.635232 -5.61951,7.638581 z"
       id="path16" />
    <path
       style="fill:#ffd5d5;stroke:#000000;stroke-width:0.529167;stroke-linecap:square;stroke-linejoin:round;stroke-dasharray:none"
       d="m 140.03067,55.540544 4.71405,-4.652616 -9.29697,-4.506375 z"
       id="path17" />
    <path
       style="fill:#ffaaaa;stroke:#000000;stroke-width:0.529167;stroke-linecap:square;stroke-linejoin:round;stroke-dasharray:none"
       d="m 136.42523,44.383002 9.17004,5.07497 11.39548,-4.858581 z"
       id="path18" />
    <path
       style="fill:#ffaaaa;stroke:#000000;stroke-width:0.529167;stroke-linecap:square;stroke-linejoin:round;stroke-dasharray:none"
       d="m 158.66092,45.491294 -3.18278,10.496372 6.35857,8.610193 z"
       id="path19" />
    <path
       style="fill:#ffaaaa;stroke:#000000;stroke-width:0.529167;stroke-linecap:square;stroke-linejoin:round;stroke-dasharray:none"
       d="m 160.79513,65.226646 -7.685,2.241122 -4.87076,7.268138 z"
       id="path20" />
    <path
       style="fill:#ffaaaa;stroke:#000000;stroke-width:0.529167;stroke-linecap:square;stroke-linejoin:round;stroke-dasharray:none"
       d="m 145.88412,74.64426 -3.61748,-7.003365 -9.30283,-0.415668 z"
       id="path21" />
    <path
       style="fill:#ffaaaa;stroke:#000000;stroke-width:0.529167;stroke-linecap:square;stroke-linejoin:round;stroke-dasharray:none"
       d="m 132.48273,46.693748 5.39556,9.63893 -6.51506,9.007125 z"
       id="path22" />
    <path
       style="fill:none;stroke:#000000;stroke-width:1.05833333;stroke-linecap:square;stroke-linejoin:round;stroke-dasharray:none"
       d="m 125.07608,46.808019 11.79107,-10.571348 8.54903,6.073201 13.55992,-6.331161 8.54898,9.474885"
       id="path23" />
    <path
       style="fill:none;stroke:#000000;stroke-width:1.05833333;stroke-linecap:square;stroke-linejoin:round;stroke-dasharray:none"
       d="m 168.47583,49.108269 -6.14487,4.802669 7.77522,7.428315 -10.29836,9.349864 1.84512,6.756599 -10.14895,3.035289"
       id="path24" />
    <path
       style="fill:none;stroke:#000000;stroke-width:1.05833333;stroke-linecap:square;stroke-linejoin:round;stroke-dasharray:none"
       d="m 143.97077,79.794493 -12.10992,-7.274957 -9.56061,0.131453 5.72783,-13.18655 -7.44764,-8.781065"
       id="path25" />
    <path
       style="fill:#d5ffd5;stroke:#000000;stroke-width:0.529167;stroke-linecap:square;stroke-linejoin:round;stroke-dasharray:none"
       d="m 170.81706,50.830736 -5.15118,3.054025 6.14562,5.943343 z"
       id="path26" />
    <path
       style="fill:#d5ffd5;stroke:#000000;stroke-width:0.529167;stroke-linecap:square;stroke-linejoin:round;stroke-dasharray:none"
       d="m 171.44632,63.451488 -8.68355,7.489819 1.67159,6.73803 z"
       id="path27" />
    <path
       style="fill:#d5ffd5;stroke:#000000;stroke-width:0.529167;stroke-linecap:square;stroke-linejoin:round;stroke-dasharray:none"
       d="m 139.11997,33.464989 6.8687,5.915914 10.0503,-6.200214 z"
       id="path28" />
    <path
       style="fill:#ffff00;stroke:#000000;stroke-width:0.529167;stroke-linecap:square;stroke-linejoin:round;stroke-dasharray:none"
       d="m 118.68767,53.84752 5.82786,6.192089 -5.82657,10.932581 z"
       id="path29" />
    <path
       style="fill:#ffff00;stroke:#000000;stroke-width:0.529167;stroke-linecap:square;stroke-linejoin:round;stroke-dasharray:none"
       d="m 119.45297,75.80023 11.37628,-0.667965 11.30776,7.77802 z"
       id="path30" />
    <path
       style="fill:#ffff00;stroke:#000000;stroke-width:0.529167;stroke-linecap:square;stroke-linejoin:round;stroke-dasharray:none"
       d="m 120.11127,46.388281 15.43353,-13.152114 -15.89486,0.17585 z"
       id="path31" />
    <path
       style="fill:#ffff00;stroke:#000000;stroke-width:0.529167;stroke-linecap:square;stroke-linejoin:round;stroke-dasharray:none"
       d="m 162.27022,33.395218 11.72425,0.168453 -0.34808,13.533389 -12.43645,-13.826553 z"
       id="path32" />
    <path
       style="fill:#ffff00;stroke:#000000;stroke-width:0.529167;stroke-linecap:square;stroke-linejoin:round;stroke-dasharray:none"
       d="m 173.28119,65.233147 -0.24942,18.636136 -10.27167,0.05745 z"
       id="path33" />
    <path
       style="fill:#d5ffd5;stroke:#000000;stroke-width:0.529167;stroke-linecap:square;stroke-linejoin:round;stroke-dasharray:none"
       d="m 118.52102,79.156792 0.0156,4.490802 19.54808,0.677534 z"
       id="path34" />
    <path
       style="fill:#d5ffd5;stroke:#000000;stroke-width:0.529167;stroke-linecap:square;stroke-linejoin:round;stroke-dasharray:none"
       d="m 143.00524,85.241692 16.83645,-0.348009 -8.57062,6.327786 z"
       id="path35" />
    <path
       style="fill:#87cdde;stroke:#000000;stroke-width:0.529167;stroke-linecap:square;stroke-linejoin:round;stroke-dasharray:none"
       d="m 173.97954,49.35221 -0.003,12.778512 7.21642,-6.604785 z"
       id="path36" />
    <path
       style="fill:#afdde9;stroke:#000000;stroke-width:0.529167;stroke-linecap:square;stroke-linejoin:round;stroke-dasharray:none"
       d="m 119.45499,85.994403 20.93315,0.443788 9.94072,6.791024 z"
       id="path37" />
    <path
       style="fill:#87cdde;stroke:#000000;stroke-width:0.529167;stroke-linecap:square;stroke-linejoin:round;stroke-dasharray:none"
       d="m 152.65895,92.441251 9.04359,-6.443903 11.39579,-0.274669 z"
       id="path38" />
    <path
       style="fill:#0000ff;stroke:#000000;stroke-width:0.529167;stroke-linecap:square;stroke-linejoin:round;stroke-dasharray:none"
       d="m 118.07582,88.650174 33.51516,7.499887 22.36709,-9.004046 6.56886,-0.14089 -10.27481,10.582584 -37.63315,-0.0071 -14.53574,-3.954841 z"
       id="path39" />
    <path
       style="fill:#00ff00;stroke:#000000;stroke-width:0.529167;stroke-linecap:square;stroke-linejoin:round;stroke-dasharray:none"
       d="m 176.23772,98.339493 7.3644,-11.306156 h 4.58125 l -0.48236,10.757016 z"
       id="path40" />
    <path
       style="fill:#ffb380;stroke:#000000;stroke-width:0.529167;stroke-linecap:square;stroke-linejoin:round;stroke-dasharray:none"
       d="m 174.97535,84.562795 13.10025,0.213755 0.11809,-24.770183 -3.27231,19.871436 z"
       id="path41" />
    <path
       style="fill:#0000ff;stroke:#000000;stroke-width:0.529167;stroke-linecap:square;stroke-linejoin:round;stroke-dasharray:none"
       d="m 175.07619,80.633648 7.36225,-3.6928 3.32293,-16.91985 -8.30033,3.727545 2.80257,6.542263 z"
       id="path42" />
    <path
       style="fill:#d45500;stroke:#000000;stroke-width:0.529167;stroke-linecap:square;stroke-linejoin:round;stroke-dasharray:none"
       d="m 188.3154,57.89323 -12.15372,-10.999814 -0.0693,-13.203518 3.94853,0.05562 -0.11843,11.924152 8.25485,7.661341 z"
       id="path43" />
    <path
       style="fill:#00ff00;stroke:#000000;stroke-width:0.529167;stroke-linecap:square;stroke-linejoin:round;stroke-dasharray:none"
       d="m 187.88642,47.264978 -0.0592,-19.670638 -13.95029,-0.232296 -6.12498,4.752324 14.23745,0.481941 0.0125,10.824221 z"
       id="path44" />
    <path
       style="fill:#0000ff;stroke:#000000;stroke-width:0.529167;stroke-linecap:square;stroke-linejoin:round;stroke-dasharray:none"
       d="m 169.77478,27.2914 -3.47622,3.58847 -32.48027,-0.317884 4.24415,-3.441401 z"
       id="path45" />
    <path
       style="fill:#00ff00;stroke:#000000;stroke-width:0.529167;stroke-linecap:square;stroke-linejoin:round;stroke-dasharray:none"
       d="m 134.06796,27.153772 -2.41269,2.837542 -21.72978,0.479105 0.17703,-3.57524 z"
       id="path46" />
    <path
       style="fill:#87cdde;stroke:#000000;stroke-width:0.529167;stroke-linecap:square;stroke-linejoin:round;stroke-dasharray:none"
       d="m 110.31133,32.957762 7.79941,0.27473 0.1024,13.269745 z"
       id="path47" />
    <path
       style="fill:#0000ff;stroke:#000000;stroke-width:0.529167;stroke-linecap:square;stroke-linejoin:round;stroke-dasharray:none"
       d="m 109.92336,36.276573 7.08999,11.782018 -6.83772,-0.190918 z"
       id="path48" />
    <path
       style="fill:#ff6600;stroke:#000000;stroke-width:0.529167;stroke-linecap:square;stroke-linejoin:round;stroke-dasharray:none"
       d="m 110.56139,50.339294 6.79523,0.469823 -6.37918,19.431262 z"
       id="path49" />
    <path
       style="fill:#87cdde;stroke:#000000;stroke-width:0.529167;stroke-linecap:square;stroke-linejoin:round;stroke-dasharray:none"
       d="m 112.78866,71.466881 3.88648,-12.318479 0.22743,16.148471 z"
       id="path50" />
    <path
       style="fill:#00ff00;stroke:#000000;stroke-width:0.529167;stroke-linecap:square;stroke-linejoin:round;stroke-dasharray:none"
       d="m 109.7526,73.214171 0.50081,25.87118 7.68223,0.202938 -6.17236,-6.438707 -0.12628,-19.624087 z"
       id="path51" />
    <path
       style="fill:#ffb380;stroke:#000000;stroke-width:0.529167;stroke-linecap:square;stroke-linejoin:round;stroke-dasharray:none"
       d="m 114.1095,77.065237 -0.68548,13.059865 2.58126,2.533703 0.20804,-13.628725 z"
       id="path52" />
    <path
       style="fill:#0066ff;stroke:#000000;stroke-width:0.529167;stroke-linecap:square;stroke-linejoin:round;stroke-dasharray:none"
       d="m 26.83705,88.435819 1.514192,-6.347616 1.637376,6.48407 5.683546,1.918282 -5.671637,0.728731 -1.972003,5.092343 -1.502333,-5.127345 -4.647362,-1.817576 z"
       id="path53" />
    <path
       style="fill:#afdde9;stroke:#000000;stroke-width:0.529167;stroke-linecap:square;stroke-linejoin:round;stroke-dasharray:none"
       d="m 25.809362,32.455818 0.568392,-5.062138 0.873911,5.171541 3.052379,-4.285253 -1.976721,4.966944 3.879559,1.228002 -3.884112,0.181467 0.28521,5.068472 -1.644692,-4.569547 -3.568845,3.748725 1.684408,-4.500274 -4.895344,-2.272839 z"
       id="path54" />
    <path
       style="fill:#c6e9af;stroke:#000000;stroke-width:0.529167;stroke-linecap:square;stroke-linejoin:round;stroke-dasharray:none"
       d="m 46.618591,34.519954 2.612191,-3.599833 2.028063,3.702468 4.144529,1.652857 -3.698341,1.675728 -2.101106,2.667516 -3.017542,-3.024428 -5.073853,-1.886559 z"
       id="path55" />
  </g>
</svg>
