<?xml version="1.0" encoding="UTF-8" standalone="no"?>
<!-- Created with Inkscape (http://www.inkscape.org/) -->

<svg
   width="232.16924mm"
   height="72.62532mm"
   viewBox="0 0 232.16923 72.625319"
   version="1.1"
   id="svg1"
   inkscape:version="1.4-beta3 (01c8a1c, 2024-08-28)"
   sodipodi:docname="Tut-125-estrella.svg"
   xmlns:inkscape="http://www.inkscape.org/namespaces/inkscape"
   xmlns:sodipodi="http://sodipodi.sourceforge.net/DTD/sodipodi-0.dtd"
   xmlns="http://www.w3.org/2000/svg"
   xmlns:svg="http://www.w3.org/2000/svg">
  <sodipodi:namedview
     id="namedview1"
     pagecolor="#ffffff"
     bordercolor="#000000"
     borderopacity="0.25"
     inkscape:showpageshadow="2"
     inkscape:pageopacity="0.0"
     inkscape:pagecheckerboard="0"
     inkscape:deskcolor="#d1d1d1"
     inkscape:document-units="mm"
     inkscape:zoom="1.029826"
     inkscape:cx="574.36885"
     inkscape:cy="194.69308"
     inkscape:window-width="1866"
     inkscape:window-height="1011"
     inkscape:window-x="0"
     inkscape:window-y="0"
     inkscape:window-maximized="1"
     inkscape:current-layer="layer1" />
  <defs
     id="defs1" />
  <g
     inkscape:label="Layer 1"
     inkscape:groupmode="layer"
     id="layer1"
     transform="translate(-17.599047,-13.102941)">
    <rect
       style="fill:#f9f9f9;stroke:none;stroke-width:0.264584;stroke-linecap:round;stroke-linejoin:round;stroke-dasharray:none"
       id="rect53"
       width="232.16924"
       height="72.62532"
       x="17.599047"
       y="13.102941" />
    <rect
       style="fill:#000000;stroke:#000000;stroke-width:0.264583;stroke-linecap:round;stroke-linejoin:round;stroke-dasharray:none"
       id="rect29"
       width="224.80969"
       height="65.558113"
       x="20.87834"
       y="16.319281" />
    <path
       sodipodi:type="star"
       style="fill:#ffff00;stroke:none;stroke-width:0.16313;stroke-linecap:round;stroke-linejoin:round;stroke-dasharray:none"
       id="path29"
       inkscape:flatsided="false"
       sodipodi:sides="5"
       sodipodi:cx="27.591368"
       sodipodi:cy="35.337063"
       sodipodi:r1="1.3625263"
       sodipodi:r2="0.5134064"
       sodipodi:arg1="1.5707963"
       sodipodi:arg2="2.14808"
       inkscape:rounded="0"
       inkscape:randomized="0"
       d="m 27.591368,36.699589 -0.280192,-0.932318 -1.015648,-0.0092 0.800104,-0.55458 -0.305137,-0.968771 0.774682,0.589569 0.827064,-0.589569 -0.321324,0.918954 0.81629,0.604397 -0.973271,-0.02163 z"
       inkscape:transform-center-y="0.21102589"
       transform="matrix(1.6219146,0,0,1.6219146,-0.35187986,-31.57359)"
       inkscape:transform-center-x="1.0538003e-06" />
    <path
       sodipodi:type="star"
       style="fill:#ffff00;stroke:none;stroke-width:0.16313;stroke-linecap:round;stroke-linejoin:round;stroke-dasharray:none"
       id="path30"
       inkscape:flatsided="false"
       sodipodi:sides="5"
       sodipodi:cx="27.591368"
       sodipodi:cy="35.337063"
       sodipodi:r1="1.3625263"
       sodipodi:r2="0.5134064"
       sodipodi:arg1="1.5707963"
       sodipodi:arg2="2.14808"
       inkscape:rounded="0"
       inkscape:randomized="0"
       d="m 27.591368,36.699589 -0.280192,-0.932318 -1.015648,-0.0092 0.800104,-0.55458 -0.305137,-0.968771 0.774682,0.589569 0.827064,-0.589569 -0.321324,0.918954 0.81629,0.604397 -0.973271,-0.02163 z"
       inkscape:transform-center-y="0.21102585"
       transform="matrix(1.6219146,0,0,1.6219146,4.701558,-22.832508)"
       inkscape:transform-center-x="1.0653753e-06" />
    <path
       sodipodi:type="star"
       style="fill:#ffff00;stroke:none;stroke-width:0.16313;stroke-linecap:round;stroke-linejoin:round;stroke-dasharray:none"
       id="path31"
       inkscape:flatsided="false"
       sodipodi:sides="5"
       sodipodi:cx="27.591368"
       sodipodi:cy="35.337063"
       sodipodi:r1="1.3625263"
       sodipodi:r2="0.5134064"
       sodipodi:arg1="1.5707963"
       sodipodi:arg2="2.14808"
       inkscape:rounded="0"
       inkscape:randomized="0"
       d="m 27.591368,36.699589 -0.280192,-0.932318 -1.015648,-0.0092 0.800104,-0.55458 -0.305137,-0.968771 0.774682,0.589569 0.827064,-0.589569 -0.321324,0.918954 0.81629,0.604397 -0.973271,-0.02163 z"
       inkscape:transform-center-y="0.21102517"
       transform="matrix(1.6219146,0,0,1.6219146,15.491332,-31.71017)" />
    <path
       style="fill:#ececec;stroke:none;stroke-width:0.264583;stroke-linecap:round;stroke-linejoin:round;stroke-dasharray:none"
       id="path32"
       sodipodi:type="arc"
       sodipodi:cx="90.25206"
       sodipodi:cy="30.481256"
       sodipodi:rx="6.588377"
       sodipodi:ry="6.588377"
       sodipodi:start="1.2204822"
       sodipodi:end="4.6549214"
       sodipodi:arc-type="arc"
       d="M 92.513144,36.669488 A 6.588377,6.588377 0 0 1 85.55117,35.097353 6.588377,6.588377 0 0 1 84.106006,28.107918 6.588377,6.588377 0 0 1 89.87365,23.903756"
       sodipodi:open="true" />
    <path
       sodipodi:type="star"
       style="fill:#ffff00;stroke:none;stroke-width:0.16313;stroke-linecap:round;stroke-linejoin:round;stroke-dasharray:none"
       id="path33"
       inkscape:flatsided="false"
       sodipodi:sides="7"
       sodipodi:cx="27.591368"
       sodipodi:cy="35.337063"
       sodipodi:r1="2.2556951"
       sodipodi:r2="0.5134064"
       sodipodi:arg1="1.5707963"
       sodipodi:arg2="2.0195953"
       inkscape:rounded="0"
       inkscape:randomized="0"
       d="m 27.591368,37.592758 -0.222759,-1.793132 -1.540815,0.94384 1.263039,-1.29216 -1.698605,-0.616183 1.797742,0.181836 -0.577312,-1.712207 0.97871,1.518904 0.978709,-1.518904 -0.577312,1.712207 1.797743,-0.181836 -1.698606,0.616184 1.263039,1.292159 -1.540815,-0.94384 z"
       inkscape:transform-center-y="0.21102563"
       transform="matrix(1.6219146,0,0,1.6219146,24.692837,-14.913258)"
       inkscape:transform-center-x="1.2637696e-06" />
    <path
       sodipodi:type="star"
       style="fill:#ffff00;stroke:none;stroke-width:0.16313;stroke-linecap:round;stroke-linejoin:round;stroke-dasharray:none"
       id="path34"
       inkscape:flatsided="false"
       sodipodi:sides="7"
       sodipodi:cx="27.591368"
       sodipodi:cy="35.337063"
       sodipodi:r1="2.2556951"
       sodipodi:r2="0.5134064"
       sodipodi:arg1="1.5707963"
       sodipodi:arg2="2.0195953"
       inkscape:rounded="0"
       inkscape:randomized="0"
       d="m 27.591368,37.592758 -0.222759,-1.793132 -1.540815,0.94384 1.263039,-1.29216 -1.698605,-0.616182 1.797742,0.181835 -0.577312,-1.712207 0.97871,1.518904 0.978709,-1.518904 -0.577312,1.712207 1.797743,-0.181836 -1.698606,0.616184 1.263039,1.292159 -1.540815,-0.94384 z"
       inkscape:transform-center-y="0.21102538"
       transform="matrix(1.6219146,0,0,1.6219146,112.9635,-30.751759)"
       inkscape:transform-center-x="5.9448999e-06" />
    <path
       sodipodi:type="star"
       style="fill:#ffff00;stroke:none;stroke-width:0.16313;stroke-linecap:round;stroke-linejoin:round;stroke-dasharray:none"
       id="path35"
       inkscape:flatsided="false"
       sodipodi:sides="7"
       sodipodi:cx="27.591368"
       sodipodi:cy="35.337063"
       sodipodi:r1="2.2556951"
       sodipodi:r2="0.5134064"
       sodipodi:arg1="1.5707963"
       sodipodi:arg2="2.0195953"
       inkscape:rounded="0"
       inkscape:randomized="0"
       d="m 27.591368,37.592758 -0.222759,-1.793132 -1.540815,0.94384 1.263039,-1.29216 -1.698605,-0.616182 1.797742,0.181835 -0.577312,-1.712207 0.97871,1.518904 0.978709,-1.518904 -0.577312,1.712207 1.797743,-0.181836 -1.698606,0.616184 1.263039,1.292159 -1.540815,-0.94384 z"
       inkscape:transform-center-y="0.21102567"
       transform="matrix(1.6219146,0,0,1.6219146,92.682497,-8.3460745)"
       inkscape:transform-center-x="1.5418788e-06" />
    <path
       sodipodi:type="star"
       style="fill:#ffff00;stroke:none;stroke-width:0.16313;stroke-linecap:round;stroke-linejoin:round;stroke-dasharray:none"
       id="path36"
       inkscape:flatsided="false"
       sodipodi:sides="7"
       sodipodi:cx="27.591368"
       sodipodi:cy="35.337063"
       sodipodi:r1="2.2556951"
       sodipodi:r2="0.5134064"
       sodipodi:arg1="1.5707963"
       sodipodi:arg2="2.0195953"
       inkscape:rounded="0"
       inkscape:randomized="0"
       d="m 27.591368,37.592758 -0.222759,-1.793132 -1.540815,0.94384 1.263039,-1.29216 -1.698605,-0.616182 1.797742,0.181835 -0.577312,-1.712207 0.97871,1.518904 0.978709,-1.518904 -0.577312,1.712207 1.797743,-0.181836 -1.698606,0.616184 1.263039,1.292159 -1.540815,-0.94384 z"
       inkscape:transform-center-y="0.21102527"
       transform="matrix(1.6219146,0,0,1.6219146,136.1418,-13.561191)"
       inkscape:transform-center-x="-1.598616e-06" />
    <path
       sodipodi:type="star"
       style="fill:#ffff00;stroke:none;stroke-width:0.16313;stroke-linecap:round;stroke-linejoin:round;stroke-dasharray:none"
       id="path37"
       inkscape:flatsided="false"
       sodipodi:sides="5"
       sodipodi:cx="27.591368"
       sodipodi:cy="35.337063"
       sodipodi:r1="1.3625263"
       sodipodi:r2="0.5134064"
       sodipodi:arg1="1.5707963"
       sodipodi:arg2="2.14808"
       inkscape:rounded="0"
       inkscape:randomized="0"
       d="m 27.591368,36.699589 -0.280192,-0.932318 -1.015648,-0.0092 0.800104,-0.55458 -0.305137,-0.968771 0.774682,0.589569 0.827064,-0.589569 -0.321324,0.918954 0.81629,0.604397 -0.973271,-0.02163 z"
       inkscape:transform-center-y="0.21102593"
       transform="matrix(1.6219146,0,0,1.6219146,85.798824,-29.39234)" />
    <path
       sodipodi:type="star"
       style="fill:#ffff00;stroke:none;stroke-width:0.0793101;stroke-linecap:round;stroke-linejoin:round;stroke-dasharray:none"
       id="path38"
       inkscape:flatsided="false"
       sodipodi:sides="5"
       sodipodi:cx="27.591368"
       sodipodi:cy="35.337063"
       sodipodi:r1="1.3625263"
       sodipodi:r2="0.5134064"
       sodipodi:arg1="1.5707963"
       sodipodi:arg2="2.14808"
       inkscape:rounded="0"
       inkscape:randomized="0"
       d="m 27.591368,36.699589 -0.280192,-0.932318 -1.015648,-0.0092 0.800104,-0.55458 -0.305137,-0.968771 0.774682,0.589569 0.827064,-0.589569 -0.321324,0.918954 0.81629,0.604397 -0.973271,-0.02163 z"
       inkscape:transform-center-y="0.43405318"
       transform="matrix(3.3360568,0,0,3.3360568,-53.507082,-62.779962)"
       inkscape:transform-center-x="-1.3676847e-06" />
    <path
       sodipodi:type="star"
       style="fill:#ffff00;stroke:none;stroke-width:0.0793101;stroke-linecap:round;stroke-linejoin:round;stroke-dasharray:none"
       id="path39"
       inkscape:flatsided="false"
       sodipodi:sides="5"
       sodipodi:cx="27.591368"
       sodipodi:cy="35.337063"
       sodipodi:r1="1.3625263"
       sodipodi:r2="0.5134064"
       sodipodi:arg1="1.5707963"
       sodipodi:arg2="2.14808"
       inkscape:rounded="0"
       inkscape:randomized="0"
       d="m 27.591368,36.699589 -0.280192,-0.932318 -1.015648,-0.0092 0.800104,-0.55458 -0.305137,-0.968771 0.774682,0.589569 0.827064,-0.589569 -0.321324,0.918954 0.81629,0.604397 -0.973271,-0.02163 z"
       inkscape:transform-center-y="0.43405362"
       transform="matrix(3.3360568,0,0,3.3360568,112.02457,-91.559675)"
       inkscape:transform-center-x="-5.7193759e-06" />
    <path
       sodipodi:type="star"
       style="fill:#ffff00;stroke:none;stroke-width:0.0793101;stroke-linecap:round;stroke-linejoin:round;stroke-dasharray:none"
       id="path40"
       inkscape:flatsided="false"
       sodipodi:sides="5"
       sodipodi:cx="27.591368"
       sodipodi:cy="35.337063"
       sodipodi:r1="1.3625263"
       sodipodi:r2="0.5134064"
       sodipodi:arg1="1.5707963"
       sodipodi:arg2="2.14808"
       inkscape:rounded="0"
       inkscape:randomized="0"
       d="m 27.591368,36.699589 -0.280192,-0.932318 -1.015648,-0.0092 0.800104,-0.55458 -0.305137,-0.968771 0.774682,0.589569 0.827064,-0.589569 -0.321324,0.918954 0.81629,0.604397 -0.973271,-0.02163 z"
       inkscape:transform-center-y="0.43405356"
       transform="matrix(3.3360568,0,0,3.3360568,18.538781,-78.811613)"
       inkscape:transform-center-x="-1.1053737e-06" />
    <path
       sodipodi:type="star"
       style="fill:#ffff00;stroke:none;stroke-width:0.154984;stroke-linecap:round;stroke-linejoin:round;stroke-dasharray:none"
       id="path41"
       inkscape:flatsided="false"
       sodipodi:sides="4"
       sodipodi:cx="27.591368"
       sodipodi:cy="35.337063"
       sodipodi:r1="1.3625263"
       sodipodi:r2="0.25286347"
       sodipodi:arg1="1.5707963"
       sodipodi:arg2="2.3561945"
       inkscape:rounded="0"
       inkscape:randomized="0"
       d="m 27.591368,36.699589 -0.178802,-1.183725 -1.183725,-0.178801 1.183725,-0.178802 0.178802,-1.183724 0.178801,1.183724 1.183725,0.178802 -1.183725,0.178801 z"
       inkscape:transform-center-y="0.22211706"
       transform="matrix(1.7071595,0,0,1.7071595,36.346205,-14.102693)" />
    <path
       sodipodi:type="star"
       style="fill:#ffff00;stroke:none;stroke-width:0.154984;stroke-linecap:round;stroke-linejoin:round;stroke-dasharray:none"
       id="path42"
       inkscape:flatsided="false"
       sodipodi:sides="4"
       sodipodi:cx="27.591368"
       sodipodi:cy="35.337063"
       sodipodi:r1="1.3625263"
       sodipodi:r2="0.25286347"
       sodipodi:arg1="1.5707963"
       sodipodi:arg2="2.3561945"
       inkscape:rounded="0"
       inkscape:randomized="0"
       d="m 27.591368,36.699589 -0.178802,-1.183725 -1.183725,-0.178801 1.183725,-0.178802 0.178802,-1.183724 0.178801,1.183724 1.183725,0.178802 -1.183725,0.178801 z"
       inkscape:transform-center-y="0.20403623"
       transform="matrix(1.5681788,-0.67469175,0.67469175,1.5681788,-10.710887,24.375379)"
       inkscape:transform-center-x="-0.087785198" />
    <path
       sodipodi:type="star"
       style="fill:#ffff00;stroke:none;stroke-width:0.154984;stroke-linecap:round;stroke-linejoin:round;stroke-dasharray:none"
       id="path43"
       inkscape:flatsided="false"
       sodipodi:sides="4"
       sodipodi:cx="27.591368"
       sodipodi:cy="35.337063"
       sodipodi:r1="1.3625263"
       sodipodi:r2="0.25286347"
       sodipodi:arg1="1.5707963"
       sodipodi:arg2="2.3561945"
       inkscape:rounded="0"
       inkscape:randomized="0"
       d="m 27.591368,36.699589 -0.178802,-1.183725 -1.183725,-0.178801 1.183725,-0.178802 0.178802,-1.183724 0.178801,1.183724 1.183725,0.178802 -1.183725,0.178801 z"
       inkscape:transform-center-y="0.20403655"
       transform="matrix(1.5681788,-0.67469175,0.67469175,1.5681788,94.943502,6.6053527)"
       inkscape:transform-center-x="-0.087785069" />
    <path
       sodipodi:type="star"
       style="fill:#ffff00;stroke:none;stroke-width:0.154984;stroke-linecap:round;stroke-linejoin:round;stroke-dasharray:none"
       id="path44"
       inkscape:flatsided="false"
       sodipodi:sides="4"
       sodipodi:cx="27.591368"
       sodipodi:cy="35.337063"
       sodipodi:r1="1.3625263"
       sodipodi:r2="0.25286347"
       sodipodi:arg1="1.5707963"
       sodipodi:arg2="2.3561945"
       inkscape:rounded="0"
       inkscape:randomized="0"
       d="m 27.591368,36.699589 -0.178802,-1.183725 -1.183725,-0.178801 1.183725,-0.178802 0.178802,-1.183724 0.178801,1.183724 1.183725,0.178802 -1.183725,0.178801 z"
       inkscape:transform-center-y="0.20403623"
       transform="matrix(1.5681788,-0.67469175,0.67469175,1.5681788,33.327871,24.375379)"
       inkscape:transform-center-x="-0.087784824" />
    <path
       sodipodi:type="star"
       style="fill:#ffff00;stroke:none;stroke-width:0.154984;stroke-linecap:round;stroke-linejoin:round;stroke-dasharray:none"
       id="path45"
       inkscape:flatsided="false"
       sodipodi:sides="4"
       sodipodi:cx="27.591368"
       sodipodi:cy="35.337063"
       sodipodi:r1="1.3625263"
       sodipodi:r2="0.25286347"
       sodipodi:arg1="1.5707963"
       sodipodi:arg2="2.3561945"
       inkscape:rounded="0"
       inkscape:randomized="0"
       d="m 27.591368,36.699589 -0.178802,-1.183725 -1.183725,-0.178801 1.183725,-0.178802 0.178802,-1.183724 0.178801,1.183724 1.183725,0.178802 -1.183725,0.178801 z"
       inkscape:transform-center-y="0.20403683"
       transform="matrix(1.5681788,-0.67469175,0.67469175,1.5681788,119.08756,-12.516738)"
       inkscape:transform-center-x="-0.087786924" />
    <path
       sodipodi:type="star"
       style="fill:#ffff00;stroke:none;stroke-width:0.154984;stroke-linecap:round;stroke-linejoin:round;stroke-dasharray:none"
       id="path46"
       inkscape:flatsided="false"
       sodipodi:sides="4"
       sodipodi:cx="27.591368"
       sodipodi:cy="35.337063"
       sodipodi:r1="1.3625263"
       sodipodi:r2="0.25286347"
       sodipodi:arg1="1.5707963"
       sodipodi:arg2="2.3561945"
       inkscape:rounded="0"
       inkscape:randomized="0"
       d="m 27.591368,36.699589 -0.178802,-1.183725 -1.183725,-0.178801 1.183725,-0.178802 0.178802,-1.183724 0.178801,1.183724 1.183725,0.178802 -1.183725,0.178801 z"
       inkscape:transform-center-y="0.20403618"
       transform="matrix(1.5681788,-0.67469175,0.67469175,1.5681788,107.35391,26.833809)"
       inkscape:transform-center-x="-0.087784887" />
    <path
       sodipodi:type="star"
       style="fill:#ffff00;stroke:none;stroke-width:0.154984;stroke-linecap:round;stroke-linejoin:round;stroke-dasharray:none"
       id="path47"
       inkscape:flatsided="false"
       sodipodi:sides="4"
       sodipodi:cx="27.591368"
       sodipodi:cy="35.337063"
       sodipodi:r1="1.3625263"
       sodipodi:r2="0.25286347"
       sodipodi:arg1="1.5707963"
       sodipodi:arg2="2.3561945"
       inkscape:rounded="0"
       inkscape:randomized="0"
       d="m 27.591368,36.699589 -0.178802,-1.183725 -1.183725,-0.178801 1.183725,-0.178802 0.178802,-1.183724 0.178801,1.183724 1.183725,0.178802 -1.183725,0.178801 z"
       inkscape:transform-center-y="0.20403655"
       transform="matrix(1.5681788,-0.67469175,0.67469175,1.5681788,163.07831,-3.2136599)"
       inkscape:transform-center-x="-0.087787516" />
    <path
       sodipodi:type="star"
       style="fill:#ffff00;stroke:none;stroke-width:0.154984;stroke-linecap:round;stroke-linejoin:round;stroke-dasharray:none"
       id="path48"
       inkscape:flatsided="false"
       sodipodi:sides="4"
       sodipodi:cx="27.591368"
       sodipodi:cy="35.337063"
       sodipodi:r1="1.3625263"
       sodipodi:r2="0.25286347"
       sodipodi:arg1="1.5707963"
       sodipodi:arg2="2.3561945"
       inkscape:rounded="0"
       inkscape:randomized="0"
       d="m 27.591368,36.699589 -0.178802,-1.183725 -1.183725,-0.178801 1.183725,-0.178802 0.178802,-1.183724 0.178801,1.183724 1.183725,0.178802 -1.183725,0.178801 z"
       inkscape:transform-center-y="0.20403658"
       transform="matrix(1.5681788,-0.67469175,0.67469175,1.5681788,77.5796,-0.208913)"
       inkscape:transform-center-x="-0.087784996" />
    <path
       sodipodi:type="star"
       style="fill:#ffff00;stroke:none;stroke-width:0.0793101;stroke-linecap:round;stroke-linejoin:round;stroke-dasharray:none"
       id="path49"
       inkscape:flatsided="false"
       sodipodi:sides="5"
       sodipodi:cx="27.591368"
       sodipodi:cy="35.337063"
       sodipodi:r1="1.3625263"
       sodipodi:r2="0.5134064"
       sodipodi:arg1="1.5707963"
       sodipodi:arg2="2.14808"
       inkscape:rounded="0"
       inkscape:randomized="0"
       d="m 27.591368,36.699589 -0.280192,-0.932318 -1.015648,-0.0092 0.800104,-0.55458 -0.305137,-0.968771 0.774682,0.589569 0.827064,-0.589569 -0.321324,0.918954 0.81629,0.604397 -0.973271,-0.02163 z"
       inkscape:transform-center-y="0.43405341"
       transform="matrix(3.3360568,0,0,3.3360568,139.54813,-64.607356)"
       inkscape:transform-center-x="3.2595799e-06" />
    <path
       sodipodi:type="star"
       style="fill:#ffff00;stroke:none;stroke-width:0.16313;stroke-linecap:round;stroke-linejoin:round;stroke-dasharray:none"
       id="path50"
       inkscape:flatsided="false"
       sodipodi:sides="7"
       sodipodi:cx="27.591368"
       sodipodi:cy="35.337063"
       sodipodi:r1="2.2556951"
       sodipodi:r2="0.5134064"
       sodipodi:arg1="1.5707963"
       sodipodi:arg2="2.0195953"
       inkscape:rounded="0"
       inkscape:randomized="0"
       d="m 27.591368,37.592758 -0.222759,-1.793132 -1.540815,0.94384 1.263039,-1.29216 -1.698605,-0.616182 1.797742,0.181835 -0.577312,-1.712207 0.97871,1.518904 0.978709,-1.518904 -0.577312,1.712207 1.797743,-0.181836 -1.698606,0.616184 1.263039,1.292159 -1.540815,-0.94384 z"
       inkscape:transform-center-y="0.21102567"
       transform="matrix(1.6219146,0,0,1.6219146,35.072872,9.6710347)" />
    <path
       sodipodi:type="star"
       style="fill:#ffff00;stroke:none;stroke-width:0.16313;stroke-linecap:round;stroke-linejoin:round;stroke-dasharray:none"
       id="path51"
       inkscape:flatsided="false"
       sodipodi:sides="7"
       sodipodi:cx="27.591368"
       sodipodi:cy="35.337063"
       sodipodi:r1="2.2556951"
       sodipodi:r2="0.5134064"
       sodipodi:arg1="1.5707963"
       sodipodi:arg2="2.0195953"
       inkscape:rounded="0"
       inkscape:randomized="0"
       d="m 27.591368,37.592758 -0.222759,-1.793132 -1.540815,0.94384 1.263039,-1.29216 -1.698605,-0.616182 1.797742,0.181835 -0.577312,-1.712207 0.97871,1.518904 0.978709,-1.518904 -0.577312,1.712207 1.797743,-0.181836 -1.698606,0.616184 1.263039,1.292159 -1.540815,-0.94384 z"
       inkscape:transform-center-y="0.21102565"
       transform="matrix(1.6219146,0,0,1.6219146,82.329348,8.851559)" />
    <path
       sodipodi:type="star"
       style="fill:#ffff00;stroke:none;stroke-width:0.16313;stroke-linecap:round;stroke-linejoin:round;stroke-dasharray:none"
       id="path52"
       inkscape:flatsided="false"
       sodipodi:sides="5"
       sodipodi:cx="27.591368"
       sodipodi:cy="35.337063"
       sodipodi:r1="1.3625263"
       sodipodi:r2="0.5134064"
       sodipodi:arg1="1.5707963"
       sodipodi:arg2="2.14808"
       inkscape:rounded="0"
       inkscape:randomized="0"
       d="m 27.591368,36.699589 -0.280192,-0.932318 -1.015648,-0.0092 0.800104,-0.55458 -0.305137,-0.968771 0.774682,0.589569 0.827064,-0.589569 -0.321324,0.918954 0.81629,0.604397 -0.973271,-0.02163 z"
       inkscape:transform-center-y="0.21102571"
       transform="matrix(1.6219146,0,0,1.6219146,160.9484,-6.4429795)" />
    <path
       sodipodi:type="star"
       style="fill:#ffff00;stroke:none;stroke-width:0.16313;stroke-linecap:round;stroke-linejoin:round;stroke-dasharray:none"
       id="path53"
       inkscape:flatsided="false"
       sodipodi:sides="5"
       sodipodi:cx="27.591368"
       sodipodi:cy="35.337063"
       sodipodi:r1="1.3625263"
       sodipodi:r2="0.5134064"
       sodipodi:arg1="1.5707963"
       sodipodi:arg2="2.14808"
       inkscape:rounded="0"
       inkscape:randomized="0"
       d="m 27.591368,36.699589 -0.280192,-0.932318 -1.015648,-0.0092 0.800104,-0.55458 -0.305137,-0.968771 0.774682,0.589569 0.827064,-0.589569 -0.321324,0.918954 0.81629,0.604397 -0.973271,-0.02163 z"
       inkscape:transform-center-y="0.21102565"
       transform="matrix(1.6219146,0,0,1.6219146,160.40208,10.492868)"
       inkscape:transform-center-x="2.6348458e-06" />
  </g>
</svg>
