<?xml version="1.0" encoding="UTF-8" standalone="no"?>
<!-- Created with Inkscape (http://www.inkscape.org/) -->

<svg
   width="77.204582mm"
   height="24.150518mm"
   viewBox="0 0 77.204582 24.150518"
   version="1.1"
   id="svg1"
   inkscape:version="1.4-beta3 (01c8a1c, 2024-08-28)"
   sodipodi:docname="Tut-125-estrella.svg"
   xmlns:inkscape="http://www.inkscape.org/namespaces/inkscape"
   xmlns:sodipodi="http://sodipodi.sourceforge.net/DTD/sodipodi-0.dtd"
   xmlns="http://www.w3.org/2000/svg"
   xmlns:svg="http://www.w3.org/2000/svg">
  <sodipodi:namedview
     id="namedview1"
     pagecolor="#ffffff"
     bordercolor="#000000"
     borderopacity="0.25"
     inkscape:showpageshadow="2"
     inkscape:pageopacity="0.0"
     inkscape:pagecheckerboard="0"
     inkscape:deskcolor="#d1d1d1"
     inkscape:document-units="mm"
     inkscape:zoom="2.9127879"
     inkscape:cx="153.46123"
     inkscape:cy="44.115811"
     inkscape:window-width="1159"
     inkscape:window-height="735"
     inkscape:window-x="26"
     inkscape:window-y="23"
     inkscape:window-maximized="0"
     inkscape:current-layer="layer1" />
  <defs
     id="defs1" />
  <g
     inkscape:label="Layer 1"
     inkscape:groupmode="layer"
     id="layer1"
     transform="translate(-17.599047,-13.102941)">
    <rect
       style="fill:#f9f9f9;stroke:none;stroke-width:0.264584;stroke-linecap:round;stroke-linejoin:round;stroke-dasharray:none"
       id="rect53"
       width="77.204582"
       height="24.150518"
       x="17.599047"
       y="13.102941" />
    <rect
       style="fill:#000000;stroke:#000000;stroke-width:0.264583;stroke-linecap:round;stroke-linejoin:round;stroke-dasharray:none"
       id="rect29"
       width="74.757271"
       height="21.800421"
       x="18.689529"
       y="14.172489" />
    <path
       sodipodi:type="star"
       style="fill:#ffff00;stroke:none;stroke-width:0.490564;stroke-linecap:round;stroke-linejoin:round;stroke-dasharray:none"
       id="path29"
       inkscape:flatsided="false"
       sodipodi:sides="5"
       sodipodi:cx="27.591368"
       sodipodi:cy="35.337063"
       sodipodi:r1="1.3625263"
       sodipodi:r2="0.5134064"
       sodipodi:arg1="1.5707963"
       sodipodi:arg2="2.14808"
       inkscape:rounded="0"
       inkscape:randomized="0"
       d="m 27.591368,36.699589 -0.280192,-0.932318 -1.015648,-0.0092 0.800104,-0.55458 -0.305137,-0.968771 0.774682,0.589569 0.827064,-0.589569 -0.321324,0.918954 0.81629,0.604397 -0.973271,-0.02163 z"
       inkscape:transform-center-y="0.070174038"
       transform="matrix(0.53934468,0,0,0.53934468,11.629721,-1.7536053)" />
    <path
       sodipodi:type="star"
       style="fill:#ffff00;stroke:none;stroke-width:0.490564;stroke-linecap:round;stroke-linejoin:round;stroke-dasharray:none"
       id="path30"
       inkscape:flatsided="false"
       sodipodi:sides="5"
       sodipodi:cx="27.591368"
       sodipodi:cy="35.337063"
       sodipodi:r1="1.3625263"
       sodipodi:r2="0.5134064"
       sodipodi:arg1="1.5707963"
       sodipodi:arg2="2.14808"
       inkscape:rounded="0"
       inkscape:randomized="0"
       d="m 27.591368,36.699589 -0.280192,-0.932318 -1.015648,-0.0092 0.800104,-0.55458 -0.305137,-0.968771 0.774682,0.589569 0.827064,-0.589569 -0.321324,0.918954 0.81629,0.604397 -0.973271,-0.02163 z"
       inkscape:transform-center-y="0.070174038"
       transform="matrix(0.53934468,0,0,0.53934468,13.31017,1.1531174)" />
    <path
       sodipodi:type="star"
       style="fill:#ffff00;stroke:none;stroke-width:0.490564;stroke-linecap:round;stroke-linejoin:round;stroke-dasharray:none"
       id="path31"
       inkscape:flatsided="false"
       sodipodi:sides="5"
       sodipodi:cx="27.591368"
       sodipodi:cy="35.337063"
       sodipodi:r1="1.3625263"
       sodipodi:r2="0.5134064"
       sodipodi:arg1="1.5707963"
       sodipodi:arg2="2.14808"
       inkscape:rounded="0"
       inkscape:randomized="0"
       d="m 27.591368,36.699589 -0.280192,-0.932318 -1.015648,-0.0092 0.800104,-0.55458 -0.305137,-0.968771 0.774682,0.589569 0.827064,-0.589569 -0.321324,0.918954 0.81629,0.604397 -0.973271,-0.02163 z"
       inkscape:transform-center-y="0.070174038"
       transform="matrix(0.53934468,0,0,0.53934468,16.898156,-1.7990228)" />
    <path
       style="fill:#ececec;stroke:none;stroke-width:0.264583;stroke-linecap:round;stroke-linejoin:round;stroke-dasharray:none"
       id="path32"
       sodipodi:type="arc"
       sodipodi:cx="41.758774"
       sodipodi:cy="18.881853"
       sodipodi:rx="2.1908712"
       sodipodi:ry="2.1908712"
       sodipodi:start="1.2204822"
       sodipodi:end="4.6549214"
       sodipodi:arc-type="arc"
       d="M 42.510665,20.939662 A 2.1908712,2.1908712 0 0 1 40.19556,20.41687 2.1908712,2.1908712 0 0 1 39.714991,18.092633 2.1908712,2.1908712 0 0 1 41.632939,16.694599"
       sodipodi:open="true" />
    <path
       sodipodi:type="star"
       style="fill:#ffff00;stroke:none;stroke-width:0.490564;stroke-linecap:round;stroke-linejoin:round;stroke-dasharray:none"
       id="path33"
       inkscape:flatsided="false"
       sodipodi:sides="7"
       sodipodi:cx="27.591368"
       sodipodi:cy="35.337063"
       sodipodi:r1="2.2556951"
       sodipodi:r2="0.5134064"
       sodipodi:arg1="1.5707963"
       sodipodi:arg2="2.0195953"
       inkscape:rounded="0"
       inkscape:randomized="0"
       d="m 27.591368,37.592758 -0.222759,-1.793132 -1.540815,0.94384 1.263039,-1.29216 -1.698605,-0.616183 1.797742,0.181836 -0.577312,-1.712207 0.97871,1.518904 0.978709,-1.518904 -0.577312,1.712207 1.797743,-0.181836 -1.698606,0.616184 1.263039,1.292159 -1.540815,-0.94384 z"
       inkscape:transform-center-y="0.070174038"
       transform="matrix(0.53934468,0,0,0.53934468,19.957986,3.7865516)" />
    <path
       sodipodi:type="star"
       style="fill:#ffff00;stroke:none;stroke-width:0.490564;stroke-linecap:round;stroke-linejoin:round;stroke-dasharray:none"
       id="path34"
       inkscape:flatsided="false"
       sodipodi:sides="7"
       sodipodi:cx="27.591368"
       sodipodi:cy="35.337063"
       sodipodi:r1="2.2556951"
       sodipodi:r2="0.5134064"
       sodipodi:arg1="1.5707963"
       sodipodi:arg2="2.0195953"
       inkscape:rounded="0"
       inkscape:randomized="0"
       d="m 27.591368,37.592758 -0.222759,-1.793132 -1.540815,0.94384 1.263039,-1.29216 -1.698605,-0.616182 1.797742,0.181835 -0.577312,-1.712207 0.97871,1.518904 0.978709,-1.518904 -0.577312,1.712207 1.797743,-0.181836 -1.698606,0.616184 1.263039,1.292159 -1.540815,-0.94384 z"
       inkscape:transform-center-y="0.070174038"
       transform="matrix(0.53934468,0,0,0.53934468,49.311143,-1.4803169)" />
    <path
       sodipodi:type="star"
       style="fill:#ffff00;stroke:none;stroke-width:0.490564;stroke-linecap:round;stroke-linejoin:round;stroke-dasharray:none"
       id="path35"
       inkscape:flatsided="false"
       sodipodi:sides="7"
       sodipodi:cx="27.591368"
       sodipodi:cy="35.337063"
       sodipodi:r1="2.2556951"
       sodipodi:r2="0.5134064"
       sodipodi:arg1="1.5707963"
       sodipodi:arg2="2.0195953"
       inkscape:rounded="0"
       inkscape:randomized="0"
       d="m 27.591368,37.592758 -0.222759,-1.793132 -1.540815,0.94384 1.263039,-1.29216 -1.698605,-0.616182 1.797742,0.181835 -0.577312,-1.712207 0.97871,1.518904 0.978709,-1.518904 -0.577312,1.712207 1.797743,-0.181836 -1.698606,0.616184 1.263039,1.292159 -1.540815,-0.94384 z"
       inkscape:transform-center-y="0.070174038"
       transform="matrix(0.53934468,0,0,0.53934468,42.566982,5.9703752)" />
    <path
       sodipodi:type="star"
       style="fill:#ffff00;stroke:none;stroke-width:0.490564;stroke-linecap:round;stroke-linejoin:round;stroke-dasharray:none"
       id="path36"
       inkscape:flatsided="false"
       sodipodi:sides="7"
       sodipodi:cx="27.591368"
       sodipodi:cy="35.337063"
       sodipodi:r1="2.2556951"
       sodipodi:r2="0.5134064"
       sodipodi:arg1="1.5707963"
       sodipodi:arg2="2.0195953"
       inkscape:rounded="0"
       inkscape:randomized="0"
       d="m 27.591368,37.592758 -0.222759,-1.793132 -1.540815,0.94384 1.263039,-1.29216 -1.698605,-0.616182 1.797742,0.181835 -0.577312,-1.712207 0.97871,1.518904 0.978709,-1.518904 -0.577312,1.712207 1.797743,-0.181836 -1.698606,0.616184 1.263039,1.292159 -1.540815,-0.94384 z"
       inkscape:transform-center-y="0.070174038"
       transform="matrix(0.53934468,0,0,0.53934468,57.018755,4.2361624)" />
    <path
       sodipodi:type="star"
       style="fill:#ffff00;stroke:none;stroke-width:0.490564;stroke-linecap:round;stroke-linejoin:round;stroke-dasharray:none"
       id="path37"
       inkscape:flatsided="false"
       sodipodi:sides="5"
       sodipodi:cx="27.591368"
       sodipodi:cy="35.337063"
       sodipodi:r1="1.3625263"
       sodipodi:r2="0.5134064"
       sodipodi:arg1="1.5707963"
       sodipodi:arg2="2.14808"
       inkscape:rounded="0"
       inkscape:randomized="0"
       d="m 27.591368,36.699589 -0.280192,-0.932318 -1.015648,-0.0092 0.800104,-0.55458 -0.305137,-0.968771 0.774682,0.589569 0.827064,-0.589569 -0.321324,0.918954 0.81629,0.604397 -0.973271,-0.02163 z"
       inkscape:transform-center-y="0.070174038"
       transform="matrix(0.53934468,0,0,0.53934468,40.277914,-1.0282616)" />
    <path
       sodipodi:type="star"
       style="fill:#ffff00;stroke:none;stroke-width:0.238501;stroke-linecap:round;stroke-linejoin:round;stroke-dasharray:none"
       id="path38"
       inkscape:flatsided="false"
       sodipodi:sides="5"
       sodipodi:cx="27.591368"
       sodipodi:cy="35.337063"
       sodipodi:r1="1.3625263"
       sodipodi:r2="0.5134064"
       sodipodi:arg1="1.5707963"
       sodipodi:arg2="2.14808"
       inkscape:rounded="0"
       inkscape:randomized="0"
       d="m 27.591368,36.699589 -0.280192,-0.932318 -1.015648,-0.0092 0.800104,-0.55458 -0.305137,-0.968771 0.774682,0.589569 0.827064,-0.589569 -0.321324,0.918954 0.81629,0.604397 -0.973271,-0.02163 z"
       inkscape:transform-center-y="0.14433782"
       transform="matrix(1.1093583,0,0,1.1093583,-6.0462867,-12.130841)" />
    <path
       sodipodi:type="star"
       style="fill:#ffff00;stroke:none;stroke-width:0.238501;stroke-linecap:round;stroke-linejoin:round;stroke-dasharray:none"
       id="path39"
       inkscape:flatsided="false"
       sodipodi:sides="5"
       sodipodi:cx="27.591368"
       sodipodi:cy="35.337063"
       sodipodi:r1="1.3625263"
       sodipodi:r2="0.5134064"
       sodipodi:arg1="1.5707963"
       sodipodi:arg2="2.14808"
       inkscape:rounded="0"
       inkscape:randomized="0"
       d="m 27.591368,36.699589 -0.280192,-0.932318 -1.015648,-0.0092 0.800104,-0.55458 -0.305137,-0.968771 0.774682,0.589569 0.827064,-0.589569 -0.321324,0.918954 0.81629,0.604397 -0.973271,-0.02163 z"
       inkscape:transform-center-y="0.14433782"
       transform="matrix(1.1093583,0,0,1.1093583,48.998912,-21.701126)" />
    <path
       sodipodi:type="star"
       style="fill:#ffff00;stroke:none;stroke-width:0.238501;stroke-linecap:round;stroke-linejoin:round;stroke-dasharray:none"
       id="path40"
       inkscape:flatsided="false"
       sodipodi:sides="5"
       sodipodi:cx="27.591368"
       sodipodi:cy="35.337063"
       sodipodi:r1="1.3625263"
       sodipodi:r2="0.5134064"
       sodipodi:arg1="1.5707963"
       sodipodi:arg2="2.14808"
       inkscape:rounded="0"
       inkscape:randomized="0"
       d="m 27.591368,36.699589 -0.280192,-0.932318 -1.015648,-0.0092 0.800104,-0.55458 -0.305137,-0.968771 0.774682,0.589569 0.827064,-0.589569 -0.321324,0.918954 0.81629,0.604397 -0.973271,-0.02163 z"
       inkscape:transform-center-y="0.14433782"
       transform="matrix(1.1093583,0,0,1.1093583,17.911542,-17.461939)" />
    <path
       sodipodi:type="star"
       style="fill:#ffff00;stroke:none;stroke-width:0.466068;stroke-linecap:round;stroke-linejoin:round;stroke-dasharray:none"
       id="path41"
       inkscape:flatsided="false"
       sodipodi:sides="4"
       sodipodi:cx="27.591368"
       sodipodi:cy="35.337063"
       sodipodi:r1="1.3625263"
       sodipodi:r2="0.25286347"
       sodipodi:arg1="1.5707963"
       sodipodi:arg2="2.3561945"
       inkscape:rounded="0"
       inkscape:randomized="0"
       d="m 27.591368,36.699589 -0.178802,-1.183725 -1.183725,-0.178801 1.183725,-0.178802 0.178802,-1.183724 0.178801,1.183724 1.183725,0.178802 -1.183725,0.178801 z"
       inkscape:transform-center-y="0.073862068"
       transform="matrix(0.56769165,0,0,0.56769165,23.833148,4.0560936)" />
    <path
       sodipodi:type="star"
       style="fill:#ffff00;stroke:none;stroke-width:0.466068;stroke-linecap:round;stroke-linejoin:round;stroke-dasharray:none"
       id="path42"
       inkscape:flatsided="false"
       sodipodi:sides="4"
       sodipodi:cx="27.591368"
       sodipodi:cy="35.337063"
       sodipodi:r1="1.3625263"
       sodipodi:r2="0.25286347"
       sodipodi:arg1="1.5707963"
       sodipodi:arg2="2.3561945"
       inkscape:rounded="0"
       inkscape:randomized="0"
       d="m 27.591368,36.699589 -0.178802,-1.183725 -1.183725,-0.178801 1.183725,-0.178802 0.178802,-1.183724 0.178801,1.183724 1.183725,0.178802 -1.183725,0.178801 z"
       inkscape:transform-center-y="0.067849113"
       transform="matrix(0.52147558,-0.22435916,0.22435916,0.52147558,8.1849803,16.85143)"
       inkscape:transform-center-x="-0.029191453" />
    <path
       sodipodi:type="star"
       style="fill:#ffff00;stroke:none;stroke-width:0.466068;stroke-linecap:round;stroke-linejoin:round;stroke-dasharray:none"
       id="path43"
       inkscape:flatsided="false"
       sodipodi:sides="4"
       sodipodi:cx="27.591368"
       sodipodi:cy="35.337063"
       sodipodi:r1="1.3625263"
       sodipodi:r2="0.25286347"
       sodipodi:arg1="1.5707963"
       sodipodi:arg2="2.3561945"
       inkscape:rounded="0"
       inkscape:randomized="0"
       d="m 27.591368,36.699589 -0.178802,-1.183725 -1.183725,-0.178801 1.183725,-0.178802 0.178802,-1.183724 0.178801,1.183724 1.183725,0.178802 -1.183725,0.178801 z"
       inkscape:transform-center-y="0.067849113"
       transform="matrix(0.52147558,-0.22435916,0.22435916,0.52147558,43.318847,10.94226)"
       inkscape:transform-center-x="-0.029191453" />
    <path
       sodipodi:type="star"
       style="fill:#ffff00;stroke:none;stroke-width:0.466068;stroke-linecap:round;stroke-linejoin:round;stroke-dasharray:none"
       id="path44"
       inkscape:flatsided="false"
       sodipodi:sides="4"
       sodipodi:cx="27.591368"
       sodipodi:cy="35.337063"
       sodipodi:r1="1.3625263"
       sodipodi:r2="0.25286347"
       sodipodi:arg1="1.5707963"
       sodipodi:arg2="2.3561945"
       inkscape:rounded="0"
       inkscape:randomized="0"
       d="m 27.591368,36.699589 -0.178802,-1.183725 -1.183725,-0.178801 1.183725,-0.178802 0.178802,-1.183724 0.178801,1.183724 1.183725,0.178802 -1.183725,0.178801 z"
       inkscape:transform-center-y="0.067849113"
       transform="matrix(0.52147558,-0.22435916,0.22435916,0.52147558,22.829444,16.85143)"
       inkscape:transform-center-x="-0.029191453" />
    <path
       sodipodi:type="star"
       style="fill:#ffff00;stroke:none;stroke-width:0.466068;stroke-linecap:round;stroke-linejoin:round;stroke-dasharray:none"
       id="path45"
       inkscape:flatsided="false"
       sodipodi:sides="4"
       sodipodi:cx="27.591368"
       sodipodi:cy="35.337063"
       sodipodi:r1="1.3625263"
       sodipodi:r2="0.25286347"
       sodipodi:arg1="1.5707963"
       sodipodi:arg2="2.3561945"
       inkscape:rounded="0"
       inkscape:randomized="0"
       d="m 27.591368,36.699589 -0.178802,-1.183725 -1.183725,-0.178801 1.183725,-0.178802 0.178802,-1.183724 0.178801,1.183724 1.183725,0.178802 -1.183725,0.178801 z"
       inkscape:transform-center-y="0.067849113"
       transform="matrix(0.52147558,-0.22435916,0.22435916,0.52147558,51.34761,4.5834802)"
       inkscape:transform-center-x="-0.029191453" />
    <path
       sodipodi:type="star"
       style="fill:#ffff00;stroke:none;stroke-width:0.466068;stroke-linecap:round;stroke-linejoin:round;stroke-dasharray:none"
       id="path46"
       inkscape:flatsided="false"
       sodipodi:sides="4"
       sodipodi:cx="27.591368"
       sodipodi:cy="35.337063"
       sodipodi:r1="1.3625263"
       sodipodi:r2="0.25286347"
       sodipodi:arg1="1.5707963"
       sodipodi:arg2="2.3561945"
       inkscape:rounded="0"
       inkscape:randomized="0"
       d="m 27.591368,36.699589 -0.178802,-1.183725 -1.183725,-0.178801 1.183725,-0.178802 0.178802,-1.183724 0.178801,1.183724 1.183725,0.178802 -1.183725,0.178801 z"
       inkscape:transform-center-y="0.067849113"
       transform="matrix(0.52147558,-0.22435916,0.22435916,0.52147558,47.445752,17.668946)"
       inkscape:transform-center-x="-0.029191453" />
    <path
       sodipodi:type="star"
       style="fill:#ffff00;stroke:none;stroke-width:0.466068;stroke-linecap:round;stroke-linejoin:round;stroke-dasharray:none"
       id="path47"
       inkscape:flatsided="false"
       sodipodi:sides="4"
       sodipodi:cx="27.591368"
       sodipodi:cy="35.337063"
       sodipodi:r1="1.3625263"
       sodipodi:r2="0.25286347"
       sodipodi:arg1="1.5707963"
       sodipodi:arg2="2.3561945"
       inkscape:rounded="0"
       inkscape:randomized="0"
       d="m 27.591368,36.699589 -0.178802,-1.183725 -1.183725,-0.178801 1.183725,-0.178802 0.178802,-1.183724 0.178801,1.183724 1.183725,0.178802 -1.183725,0.178801 z"
       inkscape:transform-center-y="0.067849113"
       transform="matrix(0.52147558,-0.22435916,0.22435916,0.52147558,65.976109,7.6770868)"
       inkscape:transform-center-x="-0.029191453" />
    <path
       sodipodi:type="star"
       style="fill:#ffff00;stroke:none;stroke-width:0.466068;stroke-linecap:round;stroke-linejoin:round;stroke-dasharray:none"
       id="path48"
       inkscape:flatsided="false"
       sodipodi:sides="4"
       sodipodi:cx="27.591368"
       sodipodi:cy="35.337063"
       sodipodi:r1="1.3625263"
       sodipodi:r2="0.25286347"
       sodipodi:arg1="1.5707963"
       sodipodi:arg2="2.3561945"
       inkscape:rounded="0"
       inkscape:randomized="0"
       d="m 27.591368,36.699589 -0.178802,-1.183725 -1.183725,-0.178801 1.183725,-0.178802 0.178802,-1.183724 0.178801,1.183724 1.183725,0.178802 -1.183725,0.178801 z"
       inkscape:transform-center-y="0.067849113"
       transform="matrix(0.52147558,-0.22435916,0.22435916,0.52147558,37.544728,8.6762727)"
       inkscape:transform-center-x="-0.029191453" />
    <path
       sodipodi:type="star"
       style="fill:#ffff00;stroke:none;stroke-width:0.238501;stroke-linecap:round;stroke-linejoin:round;stroke-dasharray:none"
       id="path49"
       inkscape:flatsided="false"
       sodipodi:sides="5"
       sodipodi:cx="27.591368"
       sodipodi:cy="35.337063"
       sodipodi:r1="1.3625263"
       sodipodi:r2="0.5134064"
       sodipodi:arg1="1.5707963"
       sodipodi:arg2="2.14808"
       inkscape:rounded="0"
       inkscape:randomized="0"
       d="m 27.591368,36.699589 -0.280192,-0.932318 -1.015648,-0.0092 0.800104,-0.55458 -0.305137,-0.968771 0.774682,0.589569 0.827064,-0.589569 -0.321324,0.918954 0.81629,0.604397 -0.973271,-0.02163 z"
       inkscape:transform-center-y="0.14433782"
       transform="matrix(1.1093583,0,0,1.1093583,58.151484,-12.738515)" />
    <path
       sodipodi:type="star"
       style="fill:#ffff00;stroke:none;stroke-width:0.490564;stroke-linecap:round;stroke-linejoin:round;stroke-dasharray:none"
       id="path50"
       inkscape:flatsided="false"
       sodipodi:sides="7"
       sodipodi:cx="27.591368"
       sodipodi:cy="35.337063"
       sodipodi:r1="2.2556951"
       sodipodi:r2="0.5134064"
       sodipodi:arg1="1.5707963"
       sodipodi:arg2="2.0195953"
       inkscape:rounded="0"
       inkscape:randomized="0"
       d="m 27.591368,37.592758 -0.222759,-1.793132 -1.540815,0.94384 1.263039,-1.29216 -1.698605,-0.616182 1.797742,0.181835 -0.577312,-1.712207 0.97871,1.518904 0.978709,-1.518904 -0.577312,1.712207 1.797743,-0.181836 -1.698606,0.616184 1.263039,1.292159 -1.540815,-0.94384 z"
       inkscape:transform-center-y="0.070174038"
       transform="matrix(0.53934468,0,0,0.53934468,23.409719,11.961709)" />
    <path
       sodipodi:type="star"
       style="fill:#ffff00;stroke:none;stroke-width:0.490564;stroke-linecap:round;stroke-linejoin:round;stroke-dasharray:none"
       id="path51"
       inkscape:flatsided="false"
       sodipodi:sides="7"
       sodipodi:cx="27.591368"
       sodipodi:cy="35.337063"
       sodipodi:r1="2.2556951"
       sodipodi:r2="0.5134064"
       sodipodi:arg1="1.5707963"
       sodipodi:arg2="2.0195953"
       inkscape:rounded="0"
       inkscape:randomized="0"
       d="m 27.591368,37.592758 -0.222759,-1.793132 -1.540815,0.94384 1.263039,-1.29216 -1.698605,-0.616182 1.797742,0.181835 -0.577312,-1.712207 0.97871,1.518904 0.978709,-1.518904 -0.577312,1.712207 1.797743,-0.181836 -1.698606,0.616184 1.263039,1.292159 -1.540815,-0.94384 z"
       inkscape:transform-center-y="0.070174038"
       transform="matrix(0.53934468,0,0,0.53934468,39.124189,11.689204)" />
    <path
       sodipodi:type="star"
       style="fill:#ffff00;stroke:none;stroke-width:0.490564;stroke-linecap:round;stroke-linejoin:round;stroke-dasharray:none"
       id="path52"
       inkscape:flatsided="false"
       sodipodi:sides="5"
       sodipodi:cx="27.591368"
       sodipodi:cy="35.337063"
       sodipodi:r1="1.3625263"
       sodipodi:r2="0.5134064"
       sodipodi:arg1="1.5707963"
       sodipodi:arg2="2.14808"
       inkscape:rounded="0"
       inkscape:randomized="0"
       d="m 27.591368,36.699589 -0.280192,-0.932318 -1.015648,-0.0092 0.800104,-0.55458 -0.305137,-0.968771 0.774682,0.589569 0.827064,-0.589569 -0.321324,0.918954 0.81629,0.604397 -0.973271,-0.02163 z"
       inkscape:transform-center-y="0.070174038"
       transform="matrix(0.53934468,0,0,0.53934468,65.267838,6.6032224)" />
    <path
       sodipodi:type="star"
       style="fill:#ffff00;stroke:none;stroke-width:0.490564;stroke-linecap:round;stroke-linejoin:round;stroke-dasharray:none"
       id="path53"
       inkscape:flatsided="false"
       sodipodi:sides="5"
       sodipodi:cx="27.591368"
       sodipodi:cy="35.337063"
       sodipodi:r1="1.3625263"
       sodipodi:r2="0.5134064"
       sodipodi:arg1="1.5707963"
       sodipodi:arg2="2.14808"
       inkscape:rounded="0"
       inkscape:randomized="0"
       d="m 27.591368,36.699589 -0.280192,-0.932318 -1.015648,-0.0092 0.800104,-0.55458 -0.305137,-0.968771 0.774682,0.589569 0.827064,-0.589569 -0.321324,0.918954 0.81629,0.604397 -0.973271,-0.02163 z"
       inkscape:transform-center-y="0.070174038"
       transform="matrix(0.53934468,0,0,0.53934468,65.086168,12.234998)" />
  </g>
</svg>
