<?xml version="1.0" encoding="UTF-8" standalone="no"?>
<svg
   height="297mm"
   width="210mm"
   viewBox="0 0 2100 2970"
   version="1.2"
   id="svg40"
   sodipodi:docname="Ejemplo-01-ikea-02-planos-tablero.svg"
   inkscape:version="1.4-beta3 (01c8a1c, 2024-08-28)"
   xmlns:inkscape="http://www.inkscape.org/namespaces/inkscape"
   xmlns:sodipodi="http://sodipodi.sourceforge.net/DTD/sodipodi-0.dtd"
   xmlns:xlink="http://www.w3.org/1999/xlink"
   xmlns="http://www.w3.org/2000/svg"
   xmlns:svg="http://www.w3.org/2000/svg"
   xmlns:freecad="https://www.freecad.org/wiki/index.php?title=Svg_Namespace">
  <title
     id="title1">FreeCAD SVG Export</title>
  <desc
     id="desc1">Drawing page: Page001 exported from FreeCAD document: Ejemplo_01_mesa_piezas</desc>
  <defs
     id="defs1">
    <sodipodi:namedview
       inkscape:current-layer="Page001"
       borderopacity="0.25"
       inkscape:window-width="1866"
       showgrid="false"
       pagecolor="#ffffff"
       inkscape:zoom="0.47937534"
       inkscape:window-height="1011"
       inkscape:pageopacity="0.0"
       bordercolor="#000000"
       inkscape:window-x="0"
       inkscape:window-y="0"
       inkscape:window-maximized="1"
       inkscape:deskcolor="#d1d1d1"
       inkscape:cy="595.56673"
       id="namedview30"
       inkscape:document-units="mm"
       inkscape:showpageshadow="2"
       showguides="false"
       inkscape:pagecheckerboard="0"
       inkscape:cx="490.2213" />
    <defs
       id="defs2">
      <rect
         height="19.87623"
         width="452.93251"
         x="92.928699"
         y="868.80959"
         id="rect35" />
      <linearGradient
         id="linearGradient573">
        <stop
           stop-color="#063b8c"
           offset="0"
           id="stop1" />
        <stop
           stop-color="#063b8c"
           stop-opacity="0"
           offset="1"
           id="stop2" />
      </linearGradient>
      <linearGradient
         y2="146.38"
         x2="103.49"
         x1="79.604"
         xlink:href="#linearGradient573"
         gradientUnits="userSpaceOnUse"
         y1="68.294"
         gradientTransform="matrix(3.5153,0,0,3.5153,267.3345,2536.1448)"
         id="linearGradient568" />
      <linearGradient
         y2="117.89"
         x2="132.09"
         x1="127.41"
         xlink:href="#linearGradient573"
         gradientUnits="userSpaceOnUse"
         y1="78.836"
         gradientTransform="matrix(3.5153,0,0,3.5153,162.61941,2539.4351)"
         id="linearGradient570" />
      <linearGradient
         y2="109.86"
         x2="72.409"
         x1="68.578"
         xlink:href="#linearGradient573"
         gradientUnits="userSpaceOnUse"
         y1="86.836"
         gradientTransform="matrix(3.5153,0,0,3.5153,425.22771,2536.6932)"
         id="linearGradient572" />
      <linearGradient
         y2="121.65"
         x2="173.06"
         x1="164.69"
         xlink:href="#linearGradient573"
         gradientUnits="userSpaceOnUse"
         y1="79.697"
         gradientTransform="matrix(3.5153,0,0,3.5153,161.12976,2538.7496)"
         id="linearGradient574" />
    </defs>
  </defs>
  <g
     inkscape:label="TechDraw"
     inkscape:groupmode="layer"
     id="Page001">
    <rect
       height="2970"
       width="2100"
       fill="#ffffff"
       id="rect2"
       x="0"
       y="0"
       style="stroke:none;stroke-width:10" />
    <rect
       height="2903.7"
       width="2037.6"
       fill="none"
       stroke="#000000"
       x="31.222"
       stroke-width="10.583"
       y="39.028"
       stroke-linejoin="round"
       id="rect3" />
    <path
       d="m 2049.468,2754.5936 -34.6936,34.6936 h -69.3872 v 26.0202 h 34.6936 v 34.6936 h -34.6936 v 43.367 l -34.6936,34.6936 h 35.1307 c 2.6303,0 4.9604,-1.6937 5.7731,-4.1952 l 6.2795,-19.327 c 0.6002,-1.8482 2.0512,-3.2944 3.8994,-3.8949 l 4.8272,-1.5687 c 1.8483,-0.6011 3.8732,-0.2819 5.4456,0.8604 l 16.4356,11.9446 c 2.1279,1.5458 5.0119,1.5458 7.14,0 l 14.7326,-10.7078 c 2.1281,-1.5459 3.018,-4.2841 2.2052,-6.7856 l -6.2795,-19.327 c -0.6011,-1.8483 -0.2776,-3.8732 0.8647,-5.4455 l 2.9851,-4.1057 c 1.1422,-1.5722 2.9645,-2.5053 4.9079,-2.5055 h 20.3217 c 2.6305,0 4.9604,-1.698 5.7731,-4.1997 l 5.6294,-17.3186 c 0.8127,-2.5016 -0.078,-5.2444 -2.2052,-6.7904 l -16.4404,-11.9446 c -1.5723,-1.1424 -2.501,-2.9644 -2.501,-4.9078 v -5.0783 c 2e-4,-1.9435 0.9286,-3.7702 2.501,-4.9122 l 18.8473,-13.6927 c 1.5726,-1.1422 2.5013,-2.9687 2.5013,-4.9122 z"
       fill="#418fde"
       id="path3"
       style="fill-rule:evenodd;stroke:none;stroke-width:2.43688" />
    <path
       d="m 2014.7744,2719.9 -34.6936,34.6936 h 34.6936 v 34.6936 l 34.6936,-34.6936 V 2719.9 Z M 1910.6936,2858.6744 1876,2893.368 v 34.6936 h 34.6936 l 34.6936,-34.6936 h -34.6936 z"
       fill="#ff585d"
       id="path4"
       style="fill-rule:evenodd;stroke:none;stroke-width:2.43688" />
    <path
       d="M 1910.6936,2719.9 1876,2754.5936 v 138.7744 l 34.6936,-34.6936 v -104.0808 h 69.3872 l 34.6936,-34.6936 z"
       fill="#cb333b"
       id="path5"
       style="fill-rule:evenodd;stroke:none;stroke-width:2.43688" />
    <path
       d="m 1910.6936,2893.368 h 34.6936 v -43.367 h 34.6936 v -34.6936 h -34.6936 v -26.0202 h 69.3872 v -34.6936 h -104.0808 z"
       fill="#ffffff"
       id="path6"
       style="fill-rule:evenodd;stroke:none;stroke-width:2.43688" />
    <rect
       height="200.98727"
       width="410.51672"
       x="474.15015"
       y="2719.8999"
       id="rect6"
       style="fill:#ffffff;stroke:none;stroke-width:3.5153" />
    <rect
       height="190.13907"
       width="399.68961"
       stroke="#000000"
       stroke-linecap="round"
       x="479.56372"
       stroke-width="0.930078"
       y="2724.6458"
       id="rect7"
       style="fill:#ffffff" />
    <rect
       height="200.98727"
       width="410.51672"
       x="43.089989"
       y="2719.8999"
       id="rect8"
       style="fill:#ffffff;stroke:none;stroke-width:3.5153" />
    <rect
       height="190.13907"
       width="399.68961"
       stroke="#000000"
       stroke-linecap="round"
       x="48.514122"
       stroke-width="0.930078"
       y="2724.6458"
       id="rect9"
       style="fill:#ffffff" />
    <path
       d="m 572.22701,2865.0081 c -30.26251,0 -47.23157,-21.1466 -47.23157,-47.2316 0,-26.0859 19.63823,-47.2315 47.23157,-47.2315 27.59335,0 37.38874,0.013 37.38874,0.013 l 1.49825,25.2339 -0.51956,-0.03 c 0,0 -5.42165,-2.7404 -15.63887,-3.7262 -10.21722,-0.9858 -17.75578,-0.4771 -17.75578,-0.4771 -14.43276,0.086 -26.13274,11.7857 -26.13274,26.2185 0,14.4328 11.69998,26.1327 26.13274,26.1327 h 12.58056 v -16.6119 h -14.91542 v -19.5232 h 38.68236 v 52.385 c 0,0 -11.05913,4.8493 -41.32235,4.8493 z"
       fill="url(#linearGradient568)"
       id="path9"
       style="fill:url(#linearGradient568);stroke:#031a51;stroke-width:5.58054;stroke-linecap:round;stroke-linejoin:round" />
    <path
       d="m 614.65669,2858.0689 7.37404,2.2294 6.17357,1.7149 5.31619,0.686 5.65928,0.1715 h 6.17357 l 6.85976,-1.0289 6.17357,-1.8864 5.65928,-2.4009 4.4588,-3.4299 2.57236,-3.4298 1.20044,-4.2873 0.85749,-6.5166 -0.5145,-5.8309 -1.71491,-4.4588 -2.40088,-4.4588 -1.88641,-2.2294 -2.91538,-3.0868 -3.25837,-3.6015 -4.28726,-3.7729 -4.11571,-3.0869 -3.77262,-2.7438 -3.94417,-3.9442 -2.05789,-2.5724 -1.54343,-2.7439 0.3431,-2.5724 1.54343,-1.7149 1.54342,-1.5434 2.91535,-1.3719 2.91538,-0.1716 h 3.60142 l 2.40088,0.686 2.40088,0.8574 2.57239,0.8575 3.77297,0.686 3.08686,-0.5145 1.02896,-1.5435 v -5.4877 l -0.5145,-7.5456 -0.34309,-2.2294 -2.57239,-2.0579 -4.28726,-1.8864 -4.28726,-1.2004 -4.97345,-0.1715 -6.51666,-0.1715 -7.71714,1.029 -4.45881,1.0289 -7.20285,2.4009 -5.83082,3.2584 -3.42985,5.1446 -2.05789,3.6014 -1.02896,3.9442 -0.3431,3.4299 0.17155,3.7729 1.20048,5.1447 2.05789,2.9153 2.57239,3.773 1.88641,3.0868 3.42981,3.773 2.40092,2.2294 2.74386,2.4009 4.97345,3.773 3.77297,2.2294 3.42984,2.9153 1.71491,2.0579 1.54346,2.2294 1.20044,3.6015 -1.71494,3.6014 -3.94416,2.5724 -7.20285,0.5144 -4.97345,-1.3719 -4.97345,-2.2294 -5.14464,-2.4009 -3.08685,-1.2004 -2.0579,-0.1716 z"
       fill="url(#linearGradient570)"
       id="path10"
       style="fill:url(#linearGradient570);stroke:#031a51;stroke-width:5.58054;stroke-linecap:round;stroke-linejoin:round" />
    <path
       d="m 669.07353,2793.9287 h 25.72391 l 14.06226,40.8162 15.09118,-42.1871 22.29403,0.343 -31.55474,85.7452 -3.08685,4.4588 -3.77262,3.0868 -3.42988,2.7439 -4.45881,2.4009 -24.69498,-0.686 -2.74387,-0.686 -1.37195,-3.4298 0.34309,-13.3764 1.71494,-1.3719 2.74387,-1.029 2.74387,0.686 1.71494,1.3719 2.74386,0.343 2.40088,-0.343 2.74387,-1.3719 3.08689,-2.4009 1.71491,-3.0868 1.02896,-2.058 1.02893,-4.1157 z"
       fill="url(#linearGradient572)"
       id="path11"
       style="fill:url(#linearGradient572);stroke:#031a51;stroke-width:5.58054;stroke-linecap:round;stroke-linejoin:round" />
    <path
       d="m 817.5598,2776.4858 2.43048,19.6147 -5.95281,1.9883 c -11.34457,-9.7159 -28.35863,-8.6824 -38.44332,2.3347 -10.08329,11.0173 -9.59607,28.0419 1.10068,38.4645 10.6967,10.4235 27.74204,10.484 38.51362,0.1363 l 5.6389,0.8054 0.0176,19.5198 -4.63035,2.7439 c -20.95857,11.6212 -47.24212,6.5433 -62.35439,-12.047 -15.11193,-18.5903 -14.69782,-45.3333 0.98288,-63.4476 15.68069,-18.114 42.10626,-22.3767 62.69537,-10.1128"
       fill="url(#linearGradient574)"
       id="path12"
       style="fill:url(#linearGradient574);stroke:#031a51;stroke-width:5.58054;stroke-linecap:round;stroke-linejoin:round" />
    <path
       d="m 131.91052,2871.6658 v -9.1064 q -4.72081,4.9035 -10.8252,7.6276 -6.02313,2.7241 -12.04626,2.7241 -7.08122,0 -13.104348,-3.3468 -5.941862,-3.4245 -9.034898,-9.1841 -3.011563,-5.8371 -3.011563,-19.3023 v -41.017 h 14.813815 v 40.8616 q 0,11.2854 3.337204,15.7995 3.41855,4.4365 11.88372,4.4365 10.58142,0 17.98812,-9.8847 v -51.2145 h 14.81381 v 71.6055 z"
       id="path13"
       style="stroke:none;stroke-width:4.07515" />
    <path
       d="m 115.30832,2740.6191 a 5.7130656,5.7130656 0 0 0 -5.71306,5.7131 5.7130656,5.7130656 0 0 0 5.71306,5.7131 5.7130656,5.7130656 0 0 0 5.71307,-5.7131 5.7130656,5.7130656 0 0 0 -5.71307,-5.7131 z m -22.584044,16.0351 a 9.2185227,9.2185227 0 0 0 -9.218523,9.2185 9.2185227,9.2185227 0 0 0 9.218523,9.2185 9.2185227,9.2185227 0 0 0 9.218524,-9.2185 9.2185227,9.2185227 0 0 0 -9.218524,-9.2185 z m 22.584044,0 a 9.2185227,9.2185227 0 0 0 -9.21852,9.2185 9.2185227,9.2185227 0 0 0 9.21852,9.2185 9.2185227,9.2185227 0 0 0 9.21852,-9.2185 9.2185227,9.2185227 0 0 0 -9.21852,-9.2185 z m 22.5858,0 a 9.2185227,9.2185227 0 0 0 -9.21852,9.2185 9.2185227,9.2185227 0 0 0 9.21852,9.2185 9.2185227,9.2185227 0 0 0 9.21853,-9.2185 9.2185227,9.2185227 0 0 0 -9.21853,-9.2185 z m -45.171602,23.5514 v 8.0785 h 45.171602 v -8.0785 z"
       fill="#e10024"
       style="stroke:none;stroke-width:3.5153;paint-order:markers stroke fill"
       id="path14" />
    <path
       d="m 179.81408,2800.7659 v 15.9384 c 0,2.2703 0.13955,3.9371 0.41909,4.998 0.29212,1.0613 0.65441,1.9616 1.08623,2.7005 0.44451,0.7254 0.98372,1.3834 1.61872,1.9745 2.09561,1.9075 4.87643,2.861 8.34357,2.861 3.40372,0 6.16021,-0.9604 8.26869,-2.8814 0.635,-0.5776 1.16767,-1.2287 1.59949,-1.9541 0.44455,-0.7389 0.81334,-1.6599 1.10546,-2.7615 0.30478,-1.1015 0.45755,-2.7337 0.45755,-4.8964 v -15.9788 h -3.82957 v 15.9788 c 0,2.2165 -0.16381,3.7817 -0.49407,4.6954 -0.33009,0.9135 -0.87134,1.7075 -1.6207,2.3791 -1.42246,1.2493 -3.26262,1.8728 -5.52324,1.8728 -1.58758,0 -2.96684,-0.3093 -4.13539,-0.9272 -1.16846,-0.6314 -2.0373,-1.4627 -2.60881,-2.4971 -0.57152,-1.0344 -0.85746,-2.8765 -0.85746,-5.5229 v -15.9788 z m 143.12544,0 v 9.9944 c -1.37167,-0.524 -2.64196,-0.7849 -3.81059,-0.7849 -2.51474,0 -4.58395,0.8796 -6.20978,2.6394 -1.61296,1.7598 -2.42039,4.0035 -2.42039,6.7307 0,2.9151 0.77021,5.2378 2.30695,6.9708 1.54948,1.733 3.61865,2.6008 6.20978,2.6008 h 7.41131 v -28.1512 z m 36.9915,0 v 9.9944 c -1.37164,-0.524 -2.64003,-0.7849 -3.80848,-0.7849 -2.51474,0 -4.58606,0.8796 -6.21153,2.6394 -1.613,1.7598 -2.41849,4.0035 -2.41849,6.7307 0,2.9151 0.76826,5.2378 2.30505,6.9708 1.54947,1.733 3.61865,2.6008 6.20977,2.6008 h 7.41131 v -28.1512 z m -130.6637,1.8139 c -0.53342,0 -1.00471,0.2214 -1.41112,0.6649 -0.40643,0.4299 -0.60944,0.9263 -0.60944,1.4905 0,0.5776 0.20318,1.0879 0.60944,1.5312 0.40641,0.4299 0.8777,0.6466 1.41112,0.6466 0.57148,0 1.06046,-0.2168 1.46683,-0.6466 0.40643,-0.4299 0.60944,-0.9401 0.60944,-1.5312 0,-0.6045 -0.20318,-1.1147 -0.60944,-1.5312 -0.40637,-0.4164 -0.89535,-0.6242 -1.46683,-0.6242 z m 75.02704,0 c -0.53344,0 -1.00281,0.2214 -1.40917,0.6649 -0.40644,0.4299 -0.60949,0.9263 -0.60949,1.4905 0,0.5776 0.20319,1.0879 0.60949,1.5312 0.40636,0.4299 0.87573,0.6466 1.40917,0.6466 0.57152,0 1.06236,-0.2168 1.46873,-0.6466 0.40644,-0.4299 0.60948,-0.9401 0.60948,-1.5312 0,-0.6045 -0.20318,-1.1147 -0.60948,-1.5312 -0.40637,-0.4164 -0.89721,-0.6242 -1.46873,-0.6242 z m -87.78758,7.4362 c -1.96861,0 -3.72763,0.9052 -5.27717,2.7187 v -2.3567 h -3.54307 v 18.539 h 3.54307 v -13.2397 c 1.14307,-1.7329 2.53344,-2.5988 4.17196,-2.5988 1.28277,0 2.19727,0.4088 2.74341,1.2282 0.5461,0.8061 0.81896,2.1566 0.81896,4.0507 v 10.5596 h 3.46819 v -10.6004 c 0,-2.2568 -0.24853,-3.9026 -0.74398,-4.9372 -0.48265,-1.0478 -1.19414,-1.8674 -2.13399,-2.4585 -0.93982,-0.6044 -1.9549,-0.9048 -3.04714,-0.9048 z m 43.52293,0 c -2.41308,0 -4.37515,0.8866 -5.88672,2.6598 -1.51141,1.7598 -2.26667,4.05 -2.26667,6.871 0,1.8807 0.35578,3.5385 1.067,4.9759 0.72394,1.424 1.68218,2.5597 2.87604,3.406 1.19387,0.8463 2.75656,1.2689 4.68695,1.2689 1.40974,0 2.63627,-0.1596 3.67771,-0.4819 1.05413,-0.3224 2.11484,-0.8603 3.18173,-1.6125 v -3.587 c -1.9305,1.5045 -4.03908,2.2571 -6.32508,2.2571 -1.63834,0 -2.97848,-0.5241 -4.0201,-1.5719 -1.02875,-1.0478 -1.5875,-2.4584 -1.67641,-4.2317 h 12.325 v -0.4636 c 0,-2.8882 -0.69192,-5.1921 -2.07628,-6.9118 -1.38436,-1.7197 -3.23949,-2.5784 -5.56367,-2.5784 z m 20.51494,0 c -1.67649,0 -3.35279,1.4293 -5.02934,4.2905 l -0.19053,0.3234 v -4.2521 h -3.48546 v 18.539 h 3.48546 v -9.6935 c 0,-1.5448 0.40605,-2.8815 1.21889,-4.0099 0.82554,-1.1284 1.79878,-1.6918 2.91644,-1.6918 1.02871,0 2.14626,0.6048 3.35282,1.8138 l 1.82827,-3.225 c -1.42243,-1.3971 -2.78865,-2.0945 -4.09673,-2.0945 z m 11.61947,0 c -1.65107,0 -3.00428,0.4502 -4.05842,1.3502 -1.04144,0.9001 -1.563,2.0614 -1.563,3.4854 0,1.1015 0.3445,2.122 1.03047,3.0624 0.69856,0.9269 2.16529,2.0488 4.40045,3.3653 1.11766,0.6717 1.8403,1.1888 2.17053,1.5516 0.34274,0.3494 0.5152,0.7925 0.5152,1.3298 0,0.5239 -0.25978,0.9741 -0.78054,1.3502 -0.52072,0.3762 -1.14472,0.5633 -1.86866,0.5633 -0.69853,0 -1.56087,-0.2215 -2.58958,-0.6649 -1.01606,-0.4568 -2.01346,-1.0478 -2.99138,-1.7732 v 3.9508 c 1.23193,0.6314 2.25352,1.0678 3.06636,1.3096 0.81284,0.2285 1.74042,0.3417 2.78183,0.3417 1.76539,0 3.20799,-0.4827 4.32558,-1.4499 1.13034,-0.9806 1.69564,-2.2296 1.69564,-3.7476 0,-2.1225 -1.46219,-4.057 -4.38323,-5.8034 l -1.23809,-0.7463 c -0.93981,-0.5508 -1.59911,-1.0216 -1.98017,-1.4112 -0.36829,-0.3896 -0.55366,-0.7983 -0.55366,-1.2282 0,-0.4971 0.20319,-0.8941 0.60945,-1.1896 0.41913,-0.309 0.96674,-0.4636 1.63985,-0.4636 1.30819,0 2.991,0.658 5.04868,1.9745 v -3.6257 c -1.80349,-1.0209 -3.56276,-1.5312 -5.27717,-1.5312 z m 43.90258,0 c -2.52743,0 -4.46373,0.8383 -5.80974,2.5174 v 4.01 c 1.79077,-2.0688 3.63271,-3.1031 5.52535,-3.1031 2.10827,0 3.16251,1.115 3.16251,3.345 v 0.9883 l -4.43912,1.6105 c -1.46058,0.5373 -2.59117,1.2712 -3.39128,2.1981 -0.78743,0.9135 -1.18041,1.9547 -1.18041,3.1234 0,1.2896 0.40602,2.3633 1.21886,3.223 0.81281,0.8463 1.82789,1.2689 3.04717,1.2689 1.66376,0 3.23299,-0.6048 4.70628,-1.8138 0.26682,1.2359 1.14209,1.8545 2.62804,1.8545 0.52072,0 1.01617,-0.099 1.4861,-0.3009 0.48265,-0.1881 1.11776,-0.5526 1.90518,-1.09 v -2.2368 c -0.88902,0.6583 -1.54184,0.9883 -1.96094,0.9883 -0.4064,0 -0.60944,-0.3164 -0.60944,-0.9476 v -7.8778 c 0,-1.5583 -0.0453,-2.6132 -0.13464,-3.164 -0.0763,-0.5642 -0.26611,-1.1228 -0.57096,-1.6736 -0.30477,-0.5642 -0.64751,-1.0123 -1.02857,-1.3481 -1.14304,-1.0478 -2.662,-1.5719 -4.55442,-1.5719 z m -108.51028,0.362 v 18.539 h 3.46626 v -18.539 z m 6.32121,0 7.9263,18.8603 h 1.16114 l 7.73436,-18.8603 h -3.75258 l -4.55231,11.4057 -4.72562,-11.4057 z m 68.70654,0 v 18.539 h 3.46626 v -18.539 z m 17.08506,2.7797 c 1.10497,0 2.1964,0.2907 3.27598,0.8683 v 11.7474 h -2.68576 c -1.54947,0 -2.62326,-0.1083 -3.22019,-0.3234 -0.59693,-0.2148 -1.16223,-0.6306 -1.69564,-1.2485 -0.88902,-1.0344 -1.3323,-2.5051 -1.3323,-4.4128 0,-2.0285 0.50852,-3.6418 1.52455,-4.8377 1.02875,-1.1956 2.40612,-1.7936 4.13329,-1.7936 z m 36.9915,0 c 1.10497,0 2.1964,0.2907 3.27595,0.8683 v 11.7474 h -2.68573 c -1.54947,0 -2.62132,-0.1083 -3.21825,-0.3234 -0.59694,-0.2148 -1.16223,-0.6306 -1.69564,-1.2485 -0.88902,-1.0344 -1.3342,-2.5051 -1.3342,-4.4128 0,-2.0285 0.50849,-3.6418 1.52451,-4.8377 1.02876,-1.1956 2.40609,-1.7936 4.13329,-1.7936 z m -96.62856,0.041 c 1.24466,0 2.23555,0.397 2.97218,1.1896 0.7366,0.7925 1.14916,1.9214 1.23809,3.3856 h -8.82059 c 0.24115,-1.4642 0.75632,-2.5931 1.54375,-3.3856 0.80011,-0.7926 1.82173,-1.1896 3.06639,-1.1896 z m 78.91497,6.5497 v 5.5004 c -0.93985,0.9538 -1.96337,1.4315 -3.06833,1.4315 -0.7366,0 -1.33916,-0.2422 -1.80908,-0.7259 -0.4572,-0.4836 -0.68633,-1.1092 -0.68633,-1.8749 0,-0.7522 0.24221,-1.3757 0.72479,-1.8728 0.49534,-0.5104 1.33349,-1.0138 2.51463,-1.5108 z m 1.63795,24.4584 c -4.05138,0 -7.46087,1.3967 -10.22952,4.1909 -2.756,2.7942 -4.1354,6.2407 -4.1354,10.3382 0,2.5792 0.60446,4.9759 1.81101,7.1923 1.20652,2.2165 2.8437,3.9571 4.91369,5.2198 2.07019,1.2628 4.59133,1.8932 7.56317,1.8932 3.65767,0 6.88366,-0.8058 9.67797,-2.4178 v -4.4328 c -3.07357,2.0956 -6.22314,3.1437 -9.44913,3.1437 -3.08622,0 -5.62026,-0.9928 -7.60148,-2.981 -1.9813,-1.9882 -2.97026,-4.5277 -2.97026,-7.6173 0,-3.0629 1.00204,-5.609 3.00871,-7.6377 2.0194,-2.0419 4.55337,-3.0624 7.60149,-3.0624 2.9719,0 6.01433,0.9397 9.12607,2.8204 v -4.3312 c -3.41642,-1.5449 -6.52229,-2.3181 -9.31625,-2.3181 z m -160.09731,0.3619 v 28.1512 h 3.81024 v -12.2515 h 0.99008 c 1.24466,0 2.12658,0.1547 2.6473,0.4637 0.53341,0.2956 1.12479,0.785 1.77252,1.4702 0.66042,0.6851 1.385,1.6061 2.17242,2.7614 l 1.27462,2.1961 1.18233,2.0558 0.74208,1.1083 c 0.11425,0.161 0.19053,0.2745 0.22885,0.3417 l 1.16311,1.8544 h 4.53333 l -1.40918,-2.0151 c -0.55883,-0.806 -1.30298,-2.0087 -2.23011,-3.6074 -1.47326,-2.539 -2.615,-4.3189 -3.4278,-5.3397 -0.81285,-1.021 -1.6445,-1.8267 -2.49541,-2.4178 1.44785,-0.5911 2.55886,-1.4845 3.3336,-2.6801 0.77473,-1.1956 1.1612,-2.6131 1.1612,-4.2521 0,-2.4046 -0.79248,-4.3115 -2.38006,-5.7222 -1.57486,-1.4106 -3.70935,-2.1168 -6.40207,-2.1168 z m 70.24624,0 v 27.3255 c 0,2.3106 -0.1726,3.8204 -0.51523,4.5326 -0.33044,0.712 -0.78652,1.2105 -1.37076,1.4926 -0.57148,0.2823 -1.40313,0.423 -2.49541,0.423 h -0.97275 l 0.70556,3.7476 c 0.58424,0.081 0.99679,0.1199 1.23805,0.1199 1.57492,0 2.92156,-0.3763 4.03908,-1.1286 1.11762,-0.7388 1.92315,-1.7317 2.41849,-2.981 0.508,-1.2359 0.76321,-3.1498 0.76321,-5.7426 v -27.7892 z m 133.39158,0 v 28.1512 h 3.46626 v -28.1512 z m -199.83075,3.4264 h 1.14198 c 1.86698,0 3.20058,0.1476 4.00077,0.4433 0.81284,0.2956 1.44148,0.8058 1.88599,1.5312 0.44451,0.7119 0.6671,1.5108 0.6671,2.3974 0,0.9 -0.20283,1.7079 -0.60945,2.4198 -0.39371,0.6986 -0.95247,1.2206 -1.67641,1.5698 -0.71122,0.3495 -2.03177,0.5247 -3.96245,0.5247 h -1.44763 z m 26.64773,5.8238 c -2.41311,0 -4.37514,0.8865 -5.88672,2.6598 -1.51136,1.7598 -2.26663,4.0499 -2.26663,6.871 0,1.8807 0.35575,3.5406 1.067,4.978 0.72391,1.4239 1.68218,2.5577 2.87604,3.404 1.19387,0.8463 2.75656,1.2709 4.68695,1.2709 1.40975,0 2.63627,-0.1617 3.67771,-0.484 1.05417,-0.3223 2.11298,-0.8602 3.17984,-1.6125 v -3.587 c -1.9305,1.5046 -4.03697,2.2571 -6.32297,2.2571 -1.63834,0 -2.97848,-0.524 -4.0201,-1.5718 -1.02875,-1.0479 -1.58751,-2.4584 -1.67641,-4.2317 h 12.32499 v -0.4637 c 0,-2.8882 -0.69192,-5.1921 -2.07628,-6.9118 -1.38436,-1.7196 -3.23952,-2.5784 -5.56366,-2.5784 z m 72.91084,0 c -2.52743,0 -4.46373,0.8403 -5.80973,2.5195 v 4.0099 c 1.79076,-2.0688 3.63271,-3.1051 5.52534,-3.1051 2.10831,0 3.16058,1.1151 3.16058,3.345 v 0.9883 l -4.43702,1.6125 c -1.46053,0.5374 -2.59116,1.2692 -3.39128,2.1961 -0.78742,0.9135 -1.18233,1.9547 -1.18233,3.1234 0,1.2897 0.40795,2.3633 1.22079,3.223 0.81281,0.8464 1.82792,1.271 3.04717,1.271 1.66375,0 3.23298,-0.6049 4.70628,-1.8139 0.26646,1.2359 1.14209,1.8525 2.62804,1.8525 0.52076,0 1.0162,-0.099 1.48609,-0.3009 0.48265,-0.1881 1.11776,-0.5506 1.90519,-1.0879 v -2.2368 c -0.88902,0.6582 -1.54371,0.9862 -1.96284,0.9862 -0.40644,0 -0.60945,-0.3143 -0.60945,-0.9455 v -7.8796 c 0,-1.5583 -0.0436,-2.6133 -0.13252,-3.164 -0.0763,-0.5642 -0.26611,-1.1207 -0.57099,-1.6715 -0.30478,-0.5642 -0.64749,-1.0144 -1.02851,-1.3502 -1.14303,-1.0479 -2.66203,-1.5719 -4.55442,-1.5719 z m 20.91463,0 c -1.96857,0 -3.72762,0.9072 -5.27717,2.7208 v -2.3589 h -3.54307 v 18.539 h 3.54307 V 2859.48 c 1.14304,-1.733 2.53344,-2.5988 4.17196,-2.5988 1.28277,0 2.19727,0.4108 2.74341,1.2303 0.5461,0.806 0.82089,2.1545 0.82089,4.0485 v 10.5596 h 3.46627 v -10.5982 c 0,-2.2569 -0.24643,-3.9027 -0.74208,-4.9373 -0.48262,-1.0478 -1.19415,-1.8673 -2.13397,-2.4584 -0.93985,-0.6045 -1.95686,-0.907 -3.0491,-0.907 z m 53.53802,0 c -2.52743,0 -4.46373,0.8403 -5.80974,2.5195 v 4.0099 c 1.79073,-2.0688 3.63271,-3.1051 5.52535,-3.1051 2.1083,0 3.16254,1.1151 3.16254,3.345 v 0.9883 l -4.43912,1.6125 c -1.46057,0.5374 -2.59116,1.2692 -3.39128,2.1961 -0.78743,0.9135 -1.18234,1.9547 -1.18234,3.1234 0,1.2897 0.40792,2.3633 1.2208,3.223 0.81281,0.8464 1.82788,1.271 3.04713,1.271 1.66376,0 3.23302,-0.6049 4.70628,-1.8139 0.26646,1.2359 1.14209,1.8525 2.62804,1.8525 0.52072,0 1.01617,-0.099 1.4861,-0.3009 0.48261,-0.1881 1.11776,-0.5506 1.90518,-1.0879 v -2.2368 c -0.88902,0.6582 -1.54181,0.9862 -1.96094,0.9862 -0.4064,0 -0.61138,-0.3143 -0.61138,-0.9455 v -7.8796 c 0,-1.5583 -0.0436,-2.6133 -0.13252,-3.164 -0.0759,-0.5642 -0.26611,-1.1207 -0.57096,-1.6715 -0.30478,-0.5642 -0.64752,-1.0144 -1.02858,-1.3502 -1.14303,-1.0479 -2.66199,-1.5719 -4.55442,-1.5719 z m 20.05338,0 c -1.67645,0 -3.35279,1.4313 -5.02934,4.2925 l -0.19193,0.3213 v -4.2521 h -3.48553 v 18.539 h 3.48553 v -9.6934 c 0,-1.5449 0.40791,-2.8796 1.22079,-4.0078 0.8255,-1.1285 1.79681,-1.6939 2.91446,-1.6939 1.02876,0 2.14631,0.6048 3.35286,1.8138 l 1.82827,-3.225 c -1.42246,-1.3971 -2.78675,-2.0945 -4.09497,-2.0945 z m 38.97062,0 c -1.65107,0 -3.00232,0.4502 -4.05666,1.3502 -1.04144,0.9001 -1.56294,2.0614 -1.56294,3.4854 0,1.1015 0.34274,2.122 1.02851,3.0623 0.69852,0.927 2.16528,2.0489 4.40045,3.3654 1.11766,0.6716 1.84219,1.1888 2.17242,1.5515 0.34309,0.3495 0.51331,0.7926 0.51331,1.3299 0,0.5239 -0.25978,0.9741 -0.78054,1.3502 -0.52072,0.3761 -1.14283,0.5653 -1.86673,0.5653 -0.69853,0 -1.5628,-0.2214 -2.59152,-0.6649 -1.01606,-0.4568 -2.01156,-1.0478 -2.98948,-1.7732 v 3.9491 c 1.23194,0.6314 2.25352,1.0677 3.06636,1.3096 0.81285,0.2285 1.74043,0.3416 2.78187,0.3416 1.76535,0 3.20603,-0.4826 4.32382,-1.4498 1.13035,-0.9807 1.69564,-2.2297 1.69564,-3.7477 0,-2.1225 -1.46022,-4.057 -4.38147,-5.8034 l -1.23809,-0.7462 c -0.93985,-0.5508 -1.60108,-1.0196 -1.98206,-1.4092 -0.36837,-0.3896 -0.55177,-0.8004 -0.55177,-1.2303 0,-0.497 0.20319,-0.894 0.60942,-1.1895 0.41909,-0.309 0.96484,-0.4616 1.63795,-0.4616 1.30815,0 2.99099,0.658 5.04867,1.9744 v -3.6278 c -1.80348,-1.0209 -3.56275,-1.5312 -5.27716,-1.5312 z m -17.21408,0.3213 c -2.69251,0 -4.93407,0.9072 -6.72477,2.7207 -1.77807,1.8001 -2.66649,4.0578 -2.66649,6.7716 0,2.6867 0.88382,4.9305 2.6492,6.7307 1.76538,1.7867 3.96139,2.6781 6.59048,2.6781 2.71793,0 4.97275,-0.8797 6.76344,-2.6395 1.7908,-1.7732 2.68573,-3.9965 2.68573,-6.6695 0,-2.7539 -0.88189,-5.0371 -2.64727,-6.8506 -1.76539,-1.827 -3.98284,-2.7411 -6.64989,-2.7411 z m -180.66181,0.041 6.78242,14.5695 -5.96371,13.4186 h 3.86824 l 12.40198,-27.9885 h -3.90445 l -4.51575,10.458 -4.72351,-10.458 z m 39.88459,0 v 10.6207 c 0,2.324 0.23553,3.9888 0.70556,4.9963 0.48262,0.9941 1.18761,1.786 2.11473,2.3771 0.93986,0.5777 1.96147,0.8663 3.0664,0.8663 0.93985,0 1.88044,-0.2334 2.82029,-0.7036 0.95254,-0.4702 1.7972,-1.1282 2.53386,-1.9745 v 2.3568 h 3.46627 v -18.539 h -3.46627 v 13.2601 c -1.15576,1.706 -2.5592,2.558 -4.21027,2.558 -1.32087,0 -2.24842,-0.3832 -2.78183,-1.1489 -0.52072,-0.7791 -0.78058,-2.1414 -0.78058,-4.0893 v -10.58 z m -48.39513,2.8224 c 1.24463,0 2.23552,0.395 2.97215,1.1875 0.73663,0.7926 1.14919,1.9215 1.23809,3.3858 h -8.82024 c 0.24115,-1.4643 0.75632,-2.5932 1.54374,-3.3858 0.80016,-0.7925 1.82174,-1.1875 3.0664,-1.1875 z m 188.98604,0.4433 c 1.71456,0 3.13762,0.5772 4.26793,1.7325 1.13031,1.1553 1.6956,2.6121 1.6956,4.372 0,1.7732 -0.54571,3.23 -1.63795,4.3719 -1.07955,1.1285 -2.46992,1.6939 -4.17196,1.6939 -1.71459,0 -3.11803,-0.5585 -4.21027,-1.6735 -1.09224,-1.1285 -1.63989,-2.5784 -1.63989,-4.3516 0,-1.7867 0.53457,-3.2573 1.60143,-4.4128 1.06682,-1.1552 2.43115,-1.7324 4.09497,-1.7324 z m -113.19617,6.1043 v 5.5004 c -0.93982,0.9538 -1.96143,1.4316 -3.0664,1.4316 -0.73659,0 -1.33912,-0.2422 -1.80904,-0.726 -0.45724,-0.4836 -0.68636,-1.1071 -0.68636,-1.8728 0,-0.7522 0.2422,-1.3778 0.72478,-1.8748 0.49534,-0.5105 1.33349,-1.0138 2.51467,-1.5109 z m 74.45405,0 v 5.5004 c -0.93985,0.9538 -1.96336,1.4316 -3.06833,1.4316 -0.73663,0 -1.33912,-0.2422 -1.80904,-0.726 -0.45724,-0.4836 -0.68636,-1.1071 -0.68636,-1.8728 0,-0.7522 0.2422,-1.3778 0.72478,-1.8748 0.49531,-0.5105 1.33349,-1.0138 2.51464,-1.5109 z"
       id="path15"
       style="stroke:none;stroke-width:3.5153" />
    <path
       d="m 115.90592,2740.3028 a 5.7260722,5.7260722 0 0 0 -5.72607,5.726 5.7260722,5.7260722 0 0 0 5.72607,5.7261 5.7260722,5.7260722 0 0 0 5.72607,-5.7261 5.7260722,5.7260722 0 0 0 -5.72607,-5.726 z m -22.636421,16.0723 a 9.2399661,9.2399661 0 0 0 -9.239966,9.2399 9.2399661,9.2399661 0 0 0 9.239966,9.24 9.2399661,9.2399661 0 0 0 9.239971,-9.24 9.2399661,9.2399661 0 0 0 -9.239971,-9.2399 z m 22.636421,0 a 9.2399661,9.2399661 0 0 0 -9.23996,9.2399 9.2399661,9.2399661 0 0 0 9.23996,9.24 9.2399661,9.2399661 0 0 0 9.23997,-9.24 9.2399661,9.2399661 0 0 0 -9.23997,-9.2399 z m 22.63853,0 a 9.2399661,9.2399661 0 0 0 -9.23996,9.2399 9.2399661,9.2399661 0 0 0 9.23996,9.24 9.2399661,9.2399661 0 0 0 9.23997,-9.24 9.2399661,9.2399661 0 0 0 -9.23997,-9.2399 z m -45.273545,23.6062 v 8.0972 h 45.273545 v -8.0972 z"
       fill="#e10024"
       opacity="0.56636"
       style="stroke:none;stroke-width:3.5153;paint-order:markers stroke fill"
       id="path16" />
    <text
       font-size="119.92px"
       fill="#2a7fff"
       stroke-linecap="round"
       x="1374.667"
       text-anchor="middle"
       text-align="center"
       stroke-width="2.9386"
       font-family="Ubuntu"
       y="2869.3906"
       xml:space="preserve"
       style="stroke:none;stroke-linejoin:round"
       id="text18">     <tspan
   fill="#2a7fff"
   x="1374.667"
   stroke-width="2.9386"
   font-family="Ubuntu"
   y="2869.3906"
   font-weight="bold"
   id="tspan18">MECATRÓNICA</tspan>   </text>
    <rect
       height="108.71001"
       width="808.27002"
       fill="none"
       stroke="#000000"
       x="812.34003"
       y="2475.5"
       style="stroke-width:5.2917;stroke-linejoin:round"
       id="rect18" />
    <rect
       height="108.71001"
       width="2000.3999"
       fill="#0000ff"
       stroke="#000000"
       x="49.450996"
       y="2598.9001"
       style="stroke-width:5.2917;stroke-linejoin:round"
       id="rect19" />
    <text
       font-size="69.804px"
       fill="#ffffff"
       x="1047.5083"
       text-anchor="middle"
       text-align="center"
       font-family="Ubuntu"
       y="2677.3667"
       xml:space="preserve"
       font-weight="bold"
       style="stroke:none;stroke-width:5.2917;stroke-linejoin:round"
       id="text20">     <tspan
   fill="#ffffff"
   x="1047.5083"
   stroke-width="5.2917"
   y="2677.3667"
   id="tspan20">TUTORIAL (Obijuan)</tspan>   </text>
    <rect
       height="108.71001"
       width="176.29999"
       fill="#aaccff"
       stroke="#000000"
       x="622.67999"
       y="2475.5"
       style="stroke-width:5.2917;stroke-linejoin:round"
       id="rect20" />
    <rect
       height="108.71001"
       width="414.5"
       fill="none"
       stroke="#000000"
       x="1635.3999"
       y="2475.5"
       style="stroke-width:5.2917;stroke-linejoin:round"
       id="rect21" />
    <rect
       height="108.71001"
       width="560.75"
       fill="#aaccff"
       stroke="#000000"
       x="49.450996"
       y="2476.6001"
       style="stroke-width:5.2917;stroke-linejoin:round"
       id="rect22" />
    <rect
       height="217.9817"
       width="591.45367"
       fill="#ffffff"
       x="1468.3"
       y="2253.3"
       id="rect25"
       style="stroke:none;stroke-width:1.0042" />
    <path
       d="m 1492.3305,2262.3077 544.3768,0.9692 c 7.603,0 14.3942,-1.1329 14.3942,15.2779 l -0.6679,180.4347 H 1478.5919 V 2277.882 c 0,-8.0876 0.7793,-15.5731 13.7394,-15.5731 z"
       fill="#aab2ab"
       id="path26"
       style="stroke:none;stroke-width:1.0042" />
    <path
       d="m 1641.7494,2354.6258 c 0.02,36.3912 -29.2794,65.9127 -65.4407,65.9388 -36.1622,0.02 -65.4939,-29.4692 -65.52,-65.8604 v -0.079 c -0.019,-36.3972 29.2795,-65.9187 65.4477,-65.9388 36.1623,-0.027 65.4939,29.4693 65.5201,65.8605 -0.01,0.02 -0.01,0.046 -0.01,0.078 z m 138.4892,-72.9722 c 28.4802,0 51.5707,23.2352 51.5707,51.8981 0,28.6639 -23.0905,51.9051 -51.5707,51.9051 -28.4871,0 -51.5706,-23.2352 -51.5706,-51.9051 -0.01,-28.6639 23.0845,-51.8981 51.5706,-51.8981 z m 187.5043,50.7593 c 0.02,28.2512 -22.7241,51.171 -50.7985,51.1982 -28.0674,0.02 -50.8507,-22.8677 -50.8768,-51.1188 v -0.079 c -0.014,-28.2512 22.7301,-51.1711 50.8045,-51.1911 28.0744,-0.019 50.8507,22.8676 50.8708,51.1188 z"
       fill="#ffffff"
       id="path27"
       style="stroke:none;stroke-width:1.0042" />
    <path
       d="m 1629.5032,2300.9463 c 14.5187,14.6172 21.7811,32.508 21.7811,53.6795 0,21.1716 -7.1315,38.8726 -21.4075,53.1102 -15.1474,14.9897 -33.0452,22.488 -53.6996,22.488 -20.4054,0 -37.9959,-7.4328 -52.7627,-22.2982 -14.7738,-14.8722 -22.1547,-32.6255 -22.1547,-53.2929 0,-20.6675 7.3804,-38.5653 22.1547,-53.6866 14.3942,-14.6171 31.9838,-21.9247 52.7627,-21.9247 21.0339,0 38.8073,7.3084 53.326,21.9247 z m -96.3118,9.8296 c -12.2784,12.4752 -18.415,27.0984 -18.415,43.8635 0,16.7711 6.0772,31.2567 18.2252,43.4829 12.1478,12.2261 26.6143,18.3427 43.3985,18.3427 16.7842,0 31.3752,-6.1689 43.7711,-18.5265 11.7682,-11.473 17.6618,-25.9003 17.6618,-43.2931 0,-17.2622 -5.9855,-31.9185 -17.943,-43.9548 -11.958,-12.0364 -26.4567,-18.0545 -43.4899,-18.0545 -17.0332,0 -31.4405,6.0444 -43.2087,18.1398 z m 32.3051,36.4896 c -1.8795,-4.1126 -4.6823,-6.1689 -8.4281,-6.1689 -6.6207,0 -9.9279,4.4859 -9.9279,13.4513 0,8.9717 3.3072,13.4573 9.9279,13.4573 4.3679,0 7.4982,-2.1807 9.3711,-6.5618 l 9.1748,4.9181 c -4.3745,7.8191 -10.9367,11.7351 -19.6853,11.7351 -6.7451,0 -12.1548,-2.076 -16.2148,-6.2474 -4.0667,-4.1651 -6.0968,-9.9016 -6.0968,-17.217 0,-7.197 2.0955,-12.901 6.2801,-17.1317 4.1846,-4.2305 9.404,-6.3391 15.6515,-6.3391 9.2533,0 15.8744,3.6672 19.8751,10.995 z m 43.1756,0 c -1.8795,-4.1126 -4.63,-6.1689 -8.258,-6.1689 -6.7517,0 -10.1303,4.4859 -10.1303,13.4513 0,8.9717 3.3791,13.4573 10.1303,13.4573 4.3812,0 7.4459,-2.1807 9.1944,-6.5618 l 9.3842,4.9181 c -4.3679,7.8191 -10.9166,11.7351 -19.6521,11.7351 -6.7386,0 -12.1348,-2.076 -16.1948,-6.2474 -4.0536,-4.1651 -6.0772,-9.9016 -6.0772,-17.217 0,-7.197 2.0563,-12.901 6.1754,-17.1317 4.1126,-4.2305 9.3515,-6.3391 15.7168,-6.3391 9.2336,0 15.8483,3.6672 19.8359,10.995 z m 432.7901,-87.2609 h -554.71 c -5.9463,0 -10.7862,4.8723 -10.7862,10.8574 v 189.6934 c 0,1.3555 1.0937,2.4557 2.4361,2.4557 h 571.4099 c 1.3425,0 2.4361,-1.1002 2.4361,-2.4557 V 2270.862 c 0,-5.9855 -4.8394,-10.8574 -10.7861,-10.8574 z m -554.71,4.905 h 554.71 c 3.2612,0 5.9134,2.6719 5.9134,5.9528 v 131.6908 h -396.4682 c -14.5317,26.4436 -42.5268,44.3937 -74.6612,44.3937 -32.1415,0 -60.1366,-17.93 -74.6553,-44.3937 h -20.7528 v -131.6908 c 0,-3.2809 2.6522,-5.9528 5.9136,-5.9528 z m 429.7875,11.467 c -15.4225,0 -28.4801,5.4157 -39.1608,16.2469 -10.9688,11.2109 -16.4508,24.4724 -16.4508,39.7965 0,15.324 5.4813,28.4931 16.4508,39.5152 10.9629,11.0211 24.0205,16.5292 39.1608,16.5292 15.3372,0 28.6247,-5.5599 39.8748,-16.6728 10.5823,-10.5501 15.8935,-23.68 15.8935,-39.3706 0,-15.6907 -5.3962,-28.9582 -16.1817,-39.7965 -10.7731,-10.8313 -23.9683,-16.2469 -39.5866,-16.2469 z m 0.1441,10.0851 c 12.6389,0 23.3728,4.4859 32.2067,13.4513 8.9128,8.8735 13.379,19.7114 13.379,32.508 0,12.8879 -4.3615,23.5886 -13.1038,32.0882 -9.2009,9.1485 -20.0258,13.7264 -32.4819,13.7264 -12.449,0 -23.189,-4.5251 -32.1996,-13.5818 -9.011,-9.0634 -13.5166,-19.8029 -13.5166,-32.2258 0,-12.423 4.5514,-23.2613 13.6602,-32.508 8.7228,-8.9782 19.4172,-13.4573 32.056,-13.4573 z m -24.8258,38.0411 c 2.2265,-14.0989 12.0886,-21.6365 24.4462,-21.6365 17.7864,0 28.6117,12.9793 28.6117,30.2948 0,16.8956 -11.5262,30.0195 -28.8858,30.0195 -11.945,0 -22.6387,-7.4 -24.5909,-21.9187 h 14.0337 c 0.4126,7.5376 5.2783,10.1897 12.2202,10.1897 7.9173,0 13.0576,-7.4001 13.0576,-18.7093 0,-11.8666 -4.4466,-18.1469 -12.7765,-18.1469 -6.1165,0 -11.3886,2.2331 -12.5013,9.9081 l 4.0799,-0.019 -11.0472,11.1134 -11.0412,-11.1134 z m -96.6914,-5.9658 c 0,-2.0039 -1.6109,-3.6215 -3.6018,-3.6215 h -22.7762 c -1.9843,0 -3.6018,1.6176 -3.6018,3.6215 v 22.9209 h 6.3588 v 27.1445 h 17.2622 v -27.1445 h 6.3588 z m -14.9837,-22.3184 c 4.296,0 7.7864,3.5101 7.7864,7.8388 0,4.3287 -3.4905,7.8388 -7.7864,7.8388 -4.3025,0 -7.7863,-3.5101 -7.7863,-7.8388 0,-4.3287 3.4838,-7.8388 7.7863,-7.8388 z m -0.079,-19.8429 c -15.4225,0 -28.4801,5.4157 -39.1678,16.2469 -10.9689,11.2049 -16.4508,24.4724 -16.4508,39.7894 0,15.3171 5.4812,28.4932 16.4508,39.5153 10.9628,11.0211 24.0204,16.5291 39.1678,16.5291 15.3371,0 28.6247,-5.5598 39.8687,-16.6797 10.6024,-10.5502 15.9005,-23.6741 15.9005,-39.3707 0,-15.6967 -5.3895,-28.9521 -16.1756,-39.7894 -10.7731,-10.8313 -23.9743,-16.2409 -39.5936,-16.2409 z m 0.1441,10.0781 c 12.6389,0 23.3728,4.4859 32.1997,13.4513 8.9259,8.8735 13.386,19.7114 13.386,32.5009 0,12.8879 -4.3615,23.5887 -13.1038,32.0882 -9.2009,9.1551 -20.0258,13.7264 -32.4819,13.7264 -12.4491,0 -23.189,-4.5251 -32.1997,-13.5888 -9.0175,-9.0569 -13.5225,-19.7968 -13.5225,-32.2258 0,-12.4159 4.5513,-23.2543 13.6601,-32.5009 8.7359,-8.9652 19.4232,-13.4513 32.0621,-13.4513 z"
       id="path28"
       style="stroke:none;stroke-width:1.0042" />
    <path
       d="m 1929.6395,2418.2921 11.8927,32.0099 h -7.2624 l -2.4034,-7.1315 h -11.8927 l -2.4951,7.1315 h -7.0333 l 12.0233,-32.0099 z m 0.406,19.6261 -4.0077,-11.7421 h -0.092 l -4.1454,11.7421 z m -39.8095,4.4662 c 0.3864,0.7531 0.8972,1.3555 1.5324,1.814 0.6418,0.4649 1.3818,0.812 2.2397,1.0347 0.871,0.2226 1.755,0.334 2.6719,0.334 0.6221,0 1.2901,-0.052 2.0039,-0.1507 0.7138,-0.098 1.3752,-0.3078 2.0038,-0.609 0.6156,-0.3012 1.1395,-0.7073 1.5455,-1.2312 0.4191,-0.5238 0.6287,-1.1853 0.6287,-1.9973 0,-0.8644 -0.2751,-1.5586 -0.8251,-2.1021 -0.5436,-0.5435 -1.2706,-0.9823 -2.1546,-1.349 -0.8906,-0.3602 -1.8991,-0.668 -3.0189,-0.9365 -1.1329,-0.275 -2.2789,-0.5763 -3.4249,-0.9037 -1.1919,-0.3013 -2.3444,-0.668 -3.4774,-1.0937 -1.1197,-0.4322 -2.1283,-0.9954 -3.0189,-1.6896 -0.8971,-0.681 -1.6109,-1.5389 -2.161,-2.5736 -0.5436,-1.0347 -0.8186,-2.2855 -0.8186,-3.7459 0,-1.6503 0.3471,-3.0713 1.0478,-4.2828 0.6876,-1.2049 1.6109,-2.2135 2.7373,-3.0255 1.1264,-0.8054 2.3969,-1.4014 3.8244,-1.7943 1.4211,-0.3863 2.8553,-0.5762 4.2698,-0.5762 1.6633,0 3.2547,0.1833 4.7806,0.5631 1.5193,0.3733 2.8814,0.9758 4.0667,1.814 1.1919,0.8317 2.1349,1.9057 2.829,3.2088 0.7007,1.2967 1.0478,2.875 1.0478,4.7347 h -6.7845 c -0.059,-0.9561 -0.2619,-1.755 -0.5959,-2.3771 -0.3471,-0.6287 -0.7924,-1.1264 -1.3556,-1.4865 -0.5631,-0.3602 -1.2049,-0.6156 -1.9318,-0.7531 -0.7204,-0.1506 -1.5062,-0.2292 -2.3641,-0.2292 -0.5632,0 -1.1264,0.066 -1.6896,0.1768 -0.5632,0.1244 -1.0675,0.334 -1.5192,0.6287 -0.4585,0.3078 -0.8448,0.681 -1.1395,1.1264 -0.2947,0.4453 -0.4388,1.015 -0.4388,1.7026 0,0.6287 0.1244,1.1395 0.3537,1.5193 0.2423,0.3994 0.7138,0.753 1.4079,1.0805 0.6942,0.3274 1.6634,0.6614 2.888,0.9888 1.2312,0.3209 2.8421,0.74 4.8199,1.2509 0.6025,0.1178 1.421,0.3339 2.4688,0.6548 1.0543,0.3078 2.0956,0.8055 3.1368,1.4997 1.0413,0.6876 1.9384,1.611 2.6981,2.7636 0.7531,1.1525 1.1329,2.6194 1.1329,4.4138 0,1.4735 -0.2881,2.8291 -0.8513,4.0799 -0.5632,1.2574 -1.4014,2.3379 -2.5147,3.2482 -1.1199,0.9234 -2.495,1.6241 -4.1388,2.1348 -1.6503,0.5108 -3.5625,0.7597 -5.7236,0.7597 -1.755,0 -3.4511,-0.2162 -5.1014,-0.6549 -1.6437,-0.4257 -3.1041,-1.1198 -4.368,-2.0431 -1.2573,-0.9365 -2.2658,-2.1153 -3.0058,-3.556 -0.74,-1.4342 -1.1002,-3.1368 -1.0675,-5.108 h 6.7845 c -0.01,1.0805 0.1833,1.9908 0.5697,2.7374 z m -113.2034,-24.0928 h 7.8453 l 7.4523,12.6459 7.4001,-12.6459 h 7.793 l -11.8074,19.7245 v 12.2854 h -7.0071 v -12.4621 z m -12.9341,0 c 1.5127,0 2.8945,0.1375 4.1453,0.406 1.2508,0.2685 2.3183,0.7073 3.2154,1.3163 0.8907,0.6156 1.5783,1.4342 2.0694,2.4426 0.4912,1.0151 0.7335,2.279 0.7335,3.7655 0,1.6176 -0.3602,2.9534 -1.0937,4.034 -0.7204,1.074 -1.8075,1.9514 -3.2285,2.6326 1.9646,0.5763 3.4249,1.5651 4.4007,2.9862 0.9692,1.4275 1.4604,3.1368 1.4604,5.1341 0,1.611 -0.3209,3.0124 -0.943,4.1978 -0.6221,1.1787 -1.467,2.1415 -2.5278,2.888 -1.0543,0.7465 -2.2659,1.3031 -3.6149,1.6633 -1.3556,0.3602 -2.7439,0.537 -4.1781,0.537 h -15.4416 v -32.0098 h 15.0028 z m -0.8972,12.9401 c 1.2508,0 2.2724,-0.3012 3.0779,-0.8906 0.8055,-0.6025 1.2114,-1.5652 1.2114,-2.9077 0,-0.7465 -0.1376,-1.3621 -0.406,-1.8336 -0.2685,-0.4715 -0.6221,-0.8448 -1.074,-1.1133 -0.4519,-0.2685 -0.9561,-0.4584 -1.5389,-0.5632 -0.5829,-0.1048 -1.1854,-0.1506 -1.8075,-0.1506 h -6.5487 v 7.4655 h 7.0857 z m 0.406,13.5889 c 0.6876,0 1.3425,-0.066 1.9646,-0.1965 0.6221,-0.1376 1.1788,-0.3602 1.6503,-0.681 0.4781,-0.3078 0.8514,-0.7335 1.1395,-1.2705 0.2881,-0.537 0.4257,-1.2246 0.4257,-2.0628 0,-1.6371 -0.465,-2.816 -1.3883,-3.5101 -0.9234,-0.7007 -2.148,-1.0543 -3.6607,-1.0543 h -7.6358 v 8.7819 h 7.5048 z"
       fill="#ffffff"
       id="path29"
       style="stroke:none;stroke-width:1.0042" />
    <rect
       height="194.22189"
       width="1413.8035"
       fill="none"
       stroke="#000000"
       x="49.450996"
       y="2264.9534"
       style="stroke-width:5.2917;stroke-linejoin:round"
       id="rect30" />
    <text
       font-size="5.0043px"
       fill="#000000"
       x="-7.4408169"
       text-anchor="middle"
       text-align="center"
       font-family="Ubuntu"
       y="233.30505"
       xml:space="preserve"
       transform="matrix(10,0,0,10,236.11695,-189.28384)"
       font-weight="bold"
       style="white-space:pre;inline-size:18.2064;display:inline;stroke:none;stroke-width:0.52917;stroke-linejoin:round"
       id="text31"><tspan
         x="-7.4408169"
         y="233.30505"
         id="tspan1">
</tspan><tspan
         x="-7.4408169"
         y="239.56042"
         id="tspan2">    
</tspan><tspan
         x="-7.4408169"
         y="245.81579"
         id="tspan3"><tspan
   y="245.81579"
   id="tspan4">     </tspan></tspan><tspan
         x="-7.4408169"
         y="252.07116"
         id="tspan6"><tspan
   style="text-align:start;text-anchor:start"
   id="tspan5">Título:</tspan>
</tspan><tspan
         x="-7.4408169"
         y="258.32654"
         id="tspan9">    
</tspan><tspan
         x="-7.4408169"
         y="264.58192"
         id="tspan15"><tspan
   y="264.58192"
   id="tspan16">   </tspan></tspan></text>
    <path
       d="M 49.450997,2362.0644 H 1463.2544"
       style="fill:none;stroke:#000000;stroke-width:2.64583;stroke-linejoin:round"
       id="path32" />
    <text
       color="#000000"
       fill="#000000"
       x="262.85117"
       fill-rule="evenodd"
       stroke-width="17.7169"
       font-family="sans"
       y="2332.5388"
       freecad:editable="titulo"
       transform="scale(1.000305,0.99969509)"
       style="font-size:56.9812px;line-height:0%;stroke:none"
       id="text4162"><tspan
         font-size="40.1135px"
         x="262.85117"
         y="2332.5388"
         xml:space="preserve"
         style="line-height:1.25;stroke-width:17.7169"
         id="tspan4164">Mesa de Ikea (Modelo Lack)</tspan></text>
    <text
       color="#000000"
       fill="#000000"
       x="25.181585"
       fill-rule="evenodd"
       stroke-width="1.77169"
       font-family="sans"
       y="242.03777"
       freecad:editable="Pieza"
       xml:space="preserve"
       transform="matrix(10.00305,0,0,9.9969509,3.5679557,5.8541393)"
       style="font-size:5.69812px;line-height:0%;white-space:pre;inline-size:16.82;display:inline;stroke:none"
       id="text37"><tspan
         x="25.181585"
         y="242.03777"
         id="tspan17">
</tspan><tspan
         x="25.181585"
         y="242.03776"
         id="tspan19">    
</tspan><tspan
         x="25.181585"
         y="242.03776"
         id="tspan21">   </tspan></text>
    <text
       x="860.8045"
       y="2504.6604"
       xml:space="preserve"
       transform="scale(0.98426737,1.0159841)"
       style="font-style:normal;font-variant:normal;font-weight:normal;font-stretch:normal;font-size:54.6032px;font-family:Ubuntu;-inkscape-font-specification:Ubuntu;text-align:start;writing-mode:lr-tb;direction:ltr;text-anchor:start;fill:#000000;stroke:none;stroke-width:2.64584;stroke-linejoin:round;stroke-dasharray:none"
       id="text34">     <tspan
   sodipodi:role="line"
   x="860.8045"
   y="2504.6604"
   style="font-style:normal;font-variant:normal;font-weight:bold;font-stretch:normal;font-family:Ubuntu;-inkscape-font-specification:'Ubuntu Bold';fill:#000000;stroke:none;stroke-width:2.64584"
   id="tspan34">Ejemplo de Dibujo técnico</tspan>   </text>
    <text
       font-size="5.0043px"
       fill="#000000"
       x="-7.4408169"
       text-anchor="middle"
       text-align="center"
       font-family="Ubuntu"
       y="233.30505"
       xml:space="preserve"
       transform="matrix(10,0,0,10,236.11695,-95.455138)"
       font-weight="bold"
       style="white-space:pre;inline-size:18.2064;display:inline;stroke:none;stroke-width:0.52917;stroke-linejoin:round"
       id="text44"><tspan
         x="-7.4408169"
         y="233.30505"
         id="tspan22">
</tspan><tspan
         x="-7.4408169"
         y="239.56042"
         id="tspan23">    
</tspan><tspan
         x="-7.4408169"
         y="245.81579"
         id="tspan24"><tspan
   y="245.81579"
   id="tspan25">     </tspan></tspan><tspan
         x="-7.4408169"
         y="252.07116"
         id="tspan27"><tspan
   style="text-align:start;text-anchor:start"
   id="tspan26">Pieza:</tspan>
</tspan><tspan
         x="-7.4408169"
         y="258.32654"
         id="tspan28">    
</tspan><tspan
         x="-7.4408169"
         y="264.58192"
         id="tspan29"><tspan
   y="264.58192"
   id="tspan30">   </tspan></tspan></text>
    <text
       color="#000000"
       fill="#000000"
       x="262.85117"
       fill-rule="evenodd"
       stroke-width="17.7169"
       font-family="sans"
       y="2423.6355"
       freecad:editable="pieza"
       transform="scale(1.000305,0.99969509)"
       style="font-size:56.9812px;line-height:0%;stroke:none"
       id="text45"><tspan
         font-size="40.1135px"
         x="262.85117"
         y="2423.6355"
         xml:space="preserve"
         style="line-height:1.25;stroke-width:17.7169"
         id="tspan45">Tablero</tspan></text>
    <text
       x="1905.8751"
       y="2507.3765"
       freecad:editable="Unidades"
       xml:space="preserve"
       transform="scale(0.98426737,1.0159841)"
       style="font-style:normal;font-variant:normal;font-weight:normal;font-stretch:normal;font-size:54.6032px;font-family:Ubuntu;-inkscape-font-specification:Ubuntu;text-align:start;writing-mode:lr-tb;direction:ltr;text-anchor:start;fill:#000000;stroke:none;stroke-width:2.64584;stroke-linejoin:round;stroke-dasharray:none"
       id="text46">     <tspan
   sodipodi:role="line"
   x="1905.8751"
   y="2507.3765"
   xml:space="preserve"
   style="font-style:normal;font-variant:normal;font-weight:bold;font-stretch:normal;font-family:Ubuntu;-inkscape-font-specification:'Ubuntu Bold';fill:#000000;stroke:none;stroke-width:2.64584"
   id="tspan46">cm</tspan>   </text>
    <text
       x="63.472336"
       y="2555.4521"
       xml:space="preserve"
       style="font-style:normal;font-variant:normal;font-weight:normal;font-stretch:normal;font-size:77.6111px;font-family:Ubuntu;-inkscape-font-specification:Ubuntu;text-align:start;writing-mode:lr-tb;direction:ltr;text-anchor:start;fill:#000000;stroke:none;stroke-width:2.64583;stroke-linejoin:round"
       id="text47">     <tspan
   sodipodi:role="line"
   x="63.472336"
   y="2555.4521"
   style="font-style:normal;font-variant:normal;font-weight:bold;font-stretch:normal;font-size:77.6111px;font-family:Ubuntu;-inkscape-font-specification:'Ubuntu Bold';stroke-width:2.64583"
   id="tspan47">Ejemplo-</tspan>   </text>
    <text
       x="419.46948"
       y="2555.4521"
       freecad:editable="Ejemplo"
       xml:space="preserve"
       style="font-style:normal;font-variant:normal;font-weight:normal;font-stretch:normal;font-size:77.6111px;font-family:Ubuntu;-inkscape-font-specification:Ubuntu;text-align:start;writing-mode:lr-tb;direction:ltr;text-anchor:start;fill:#000000;stroke:none;stroke-width:2.64583;stroke-linejoin:round"
       id="text49">     <tspan
   sodipodi:role="line"
   x="419.46948"
   y="2555.4521"
   xml:space="preserve"
   style="font-style:normal;font-variant:normal;font-weight:bold;font-stretch:normal;font-size:77.6111px;font-family:Ubuntu;-inkscape-font-specification:'Ubuntu Bold';stroke-width:2.64583"
   id="tspan49">00  </tspan>   </text>
    <text
       font-size="99.031px"
       fill="#000000"
       x="731.1817"
       text-anchor="middle"
       text-align="center"
       font-family="Ubuntu"
       y="2563.7012"
       xml:space="preserve"
       font-weight="bold"
       style="stroke:none;stroke-width:5.2917;stroke-linejoin:round"
       id="text10">     <tspan
   fill="#000000"
   x="731.1817"
   stroke-width="5.2917"
   y="2563.7012"
   id="tspan10">3D</tspan>   </text>
    <text
       font-size="50.043px"
       fill="#000000"
       x="1772.1807"
       text-anchor="middle"
       text-align="center"
       font-family="Ubuntu"
       y="2550.1484"
       xml:space="preserve"
       font-weight="bold"
       style="stroke:none;stroke-width:5.2917;stroke-linejoin:round"
       id="text11">     <tspan
   fill="#000000"
   x="1772.1807"
   stroke-width="5.2917"
   y="2550.1484"
   id="tspan11">Unidades:</tspan>   </text>
    <g
       fill="none"
       stroke="black"
       stroke-linecap="square"
       fill-rule="evenodd"
       stroke-width="1"
       stroke-linejoin="bevel"
       id="DrawingContent">
      <g
         font-size="31.75"
         fill="none"
         stroke="#000000"
         stroke-linecap="square"
         stroke-width="1"
         stroke-opacity="1"
         font-family="Sans Serif"
         transform="matrix(1,0,0,1,1027.18,454.263)"
         font-weight="400"
         font-style="normal"
         stroke-linejoin="bevel"
         id="g1">
        <rect
           height="0"
           width="0"
           x="0"
           y="0"
           id="rect1" />
      </g>
      <g
         font-size="31.75"
         fill="#f1f3f5"
         stroke="none"
         font-family="Sans Serif"
         transform="matrix(1,0,0,1,1027.18,454.263)"
         font-weight="400"
         font-style="normal"
         fill-opacity="0"
         id="g2">
        <path
           d="M550,-50 L550,50 L-550,50 L-550,-50 L550,-50"
           vector-effect="non-scaling-stroke"
           fill-rule="evenodd"
           id="path1" />
      </g>
      <g
         font-size="31.75"
         fill="none"
         stroke="#000000"
         stroke-linecap="round"
         stroke-width="7"
         stroke-opacity="1"
         font-family="Sans Serif"
         transform="matrix(1,0,0,1,1027.18,454.263)"
         font-weight="400"
         font-style="normal"
         stroke-linejoin="bevel"
         id="g3">
        <path
           d="M550,-50 L550,50"
           vector-effect="none"
           fill-rule="evenodd"
           id="path2" />
      </g>
      <g
         font-size="31.75"
         fill="none"
         stroke="#000000"
         stroke-linecap="round"
         stroke-width="7"
         stroke-opacity="1"
         font-family="Sans Serif"
         transform="matrix(1,0,0,1,1027.18,454.263)"
         font-weight="400"
         font-style="normal"
         stroke-linejoin="bevel"
         id="g7">
        <path
           d="M-550,-50 L-550,50"
           vector-effect="none"
           fill-rule="evenodd"
           id="path7" />
      </g>
      <g
         font-size="31.75"
         fill="none"
         stroke="#000000"
         stroke-linecap="round"
         stroke-width="7"
         stroke-opacity="1"
         font-family="Sans Serif"
         transform="matrix(1,0,0,1,1027.18,454.263)"
         font-weight="400"
         font-style="normal"
         stroke-linejoin="bevel"
         id="g8">
        <path
           d="M550,-50 L-550,-50"
           vector-effect="none"
           fill-rule="evenodd"
           id="path8" />
      </g>
      <g
         font-size="31.75"
         fill="none"
         stroke="#000000"
         stroke-linecap="round"
         stroke-width="7"
         stroke-opacity="1"
         font-family="Sans Serif"
         transform="matrix(1,0,0,1,1027.18,454.263)"
         font-weight="400"
         font-style="normal"
         stroke-linejoin="bevel"
         id="g19">
        <path
           d="M550,50 L-550,50"
           vector-effect="none"
           fill-rule="evenodd"
           id="path17" />
      </g>
      <g
         font-size="31.75"
         fill="none"
         stroke="#000000"
         stroke-linecap="square"
         stroke-width="1"
         stroke-opacity="1"
         font-family="Sans Serif"
         transform="matrix(0,-1,1,0,1619.98,363.655)"
         font-weight="400"
         font-style="normal"
         stroke-linejoin="bevel"
         id="g20">
        <text
           font-size="67"
           fill="#000000"
           stroke="none"
           x="4"
           font-family="osifont"
           y="93"
           xml:space="preserve"
           font-weight="400"
           font-style="normal"
           fill-opacity="1"
           id="text19">5</text>
      </g>
      <g
         font-size="31.75"
         fill="none"
         stroke="#000000"
         stroke-linecap="round"
         stroke-width="3.5"
         stroke-opacity="1"
         font-family="Sans Serif"
         transform="matrix(1,0,0,1,1027.18,454.263)"
         font-weight="400"
         font-style="normal"
         stroke-linejoin="bevel"
         id="g21">
        <path
           d="M703.047,120 L703.047,-131.58 M571,-50 L731.047,-50 M571,50 L731.047,50"
           vector-effect="none"
           fill-rule="evenodd"
           id="path20" />
      </g>
      <g
         font-size="31.75"
         fill="#000000"
         stroke="#000000"
         stroke-linecap="round"
         stroke-width="3.5"
         stroke-opacity="1"
         font-family="Sans Serif"
         transform="matrix(1,0,0,1,1730.23,404.263)"
         font-weight="400"
         font-style="normal"
         stroke-linejoin="bevel"
         fill-opacity="1"
         id="g22">
        <path
           d="M0,0 L5.83333,-35 L-5.83333,-35 L0,0"
           vector-effect="none"
           fill-rule="evenodd"
           id="path21" />
      </g>
      <g
         font-size="31.75"
         fill="#000000"
         stroke="#000000"
         stroke-linecap="round"
         stroke-width="3.5"
         stroke-opacity="1"
         font-family="Sans Serif"
         transform="matrix(1,0,0,1,1730.23,504.263)"
         font-weight="400"
         font-style="normal"
         stroke-linejoin="bevel"
         fill-opacity="1"
         id="g23">
        <path
           d="M0,0 L-5.83333,35 L5.83333,35 L0,0"
           vector-effect="none"
           fill-rule="evenodd"
           id="path22" />
      </g>
      <g
         font-size="31.75"
         fill="#f1f3f5"
         stroke="none"
         font-family="Sans Serif"
         transform="matrix(1,0,0,1,1027.18,1204.26)"
         font-weight="400"
         font-style="normal"
         fill-opacity="0"
         id="g24">
        <path
           d="M550,550 L-550,550 L-550,-550 L550,-550 L550,550"
           vector-effect="non-scaling-stroke"
           fill-rule="evenodd"
           id="path23" />
      </g>
      <g
         font-size="31.75"
         fill="none"
         stroke="#000000"
         stroke-linecap="round"
         stroke-width="7"
         stroke-opacity="1"
         font-family="Sans Serif"
         transform="matrix(1,0,0,1,1027.18,1204.26)"
         font-weight="400"
         font-style="normal"
         stroke-linejoin="bevel"
         id="g25">
        <path
           d="M550,550 L-550,550"
           vector-effect="none"
           fill-rule="evenodd"
           id="path24" />
      </g>
      <g
         font-size="31.75"
         fill="none"
         stroke="#000000"
         stroke-linecap="round"
         stroke-width="7"
         stroke-opacity="1"
         font-family="Sans Serif"
         transform="matrix(1,0,0,1,1027.18,1204.26)"
         font-weight="400"
         font-style="normal"
         stroke-linejoin="bevel"
         id="g27">
        <path
           d="M-550,550 L-550,-550"
           vector-effect="none"
           fill-rule="evenodd"
           id="path25" />
      </g>
      <g
         font-size="31.75"
         fill="none"
         stroke="#000000"
         stroke-linecap="round"
         stroke-width="7"
         stroke-opacity="1"
         font-family="Sans Serif"
         transform="matrix(1,0,0,1,1027.18,1204.26)"
         font-weight="400"
         font-style="normal"
         stroke-linejoin="bevel"
         id="g31">
        <path
           d="M-550,-550 L550,-550"
           vector-effect="none"
           fill-rule="evenodd"
           id="path30" />
      </g>
      <g
         font-size="31.75"
         fill="none"
         stroke="#000000"
         stroke-linecap="round"
         stroke-width="7"
         stroke-opacity="1"
         font-family="Sans Serif"
         transform="matrix(1,0,0,1,1027.18,1204.26)"
         font-weight="400"
         font-style="normal"
         stroke-linejoin="bevel"
         id="g32">
        <path
           d="M550,-550 L550,550"
           vector-effect="none"
           fill-rule="evenodd"
           id="path31" />
      </g>
      <g
         font-size="31.75"
         fill="none"
         stroke="#000000"
         stroke-linecap="square"
         stroke-width="1"
         stroke-opacity="1"
         font-family="Sans Serif"
         transform="matrix(1,0,0,1,989.882,1765.95)"
         font-weight="400"
         font-style="normal"
         stroke-linejoin="bevel"
         id="g33">
        <text
           font-size="67"
           fill="#000000"
           stroke="none"
           x="4"
           font-family="osifont"
           y="93"
           xml:space="preserve"
           font-weight="400"
           font-style="normal"
           fill-opacity="1"
           id="text32">55</text>
      </g>
      <g
         font-size="31.75"
         fill="none"
         stroke="#000000"
         stroke-linecap="round"
         stroke-width="3.5"
         stroke-opacity="1"
         font-family="Sans Serif"
         transform="matrix(1,0,0,1,1027.18,1204.26)"
         font-weight="400"
         font-style="normal"
         stroke-linejoin="bevel"
         id="g34">
        <path
           d="M550,671.934 L-550,671.934 M-550,571 L-550,699.934 M550,571 L550,699.934"
           vector-effect="none"
           fill-rule="evenodd"
           id="path33" />
      </g>
      <g
         font-size="31.75"
         fill="#000000"
         stroke="#000000"
         stroke-linecap="round"
         stroke-width="3.5"
         stroke-opacity="1"
         font-family="Sans Serif"
         transform="matrix(1,0,0,1,477.179,1876.2)"
         font-weight="400"
         font-style="normal"
         stroke-linejoin="bevel"
         fill-opacity="1"
         id="g35">
        <path
           d="M0,0 L35,5.83333 L35,-5.83333 L0,0"
           vector-effect="none"
           fill-rule="evenodd"
           id="path34" />
      </g>
      <g
         font-size="31.75"
         fill="#000000"
         stroke="#000000"
         stroke-linecap="round"
         stroke-width="3.5"
         stroke-opacity="1"
         font-family="Sans Serif"
         transform="matrix(1,0,0,1,1577.18,1876.2)"
         font-weight="400"
         font-style="normal"
         stroke-linejoin="bevel"
         fill-opacity="1"
         id="g36">
        <path
           d="M0,0 L-35,-5.83333 L-35,5.83333 L0,0"
           vector-effect="none"
           fill-rule="evenodd"
           id="path35" />
      </g>
      <g
         font-size="31.75"
         fill="none"
         stroke="#000000"
         stroke-linecap="square"
         stroke-width="1"
         stroke-opacity="1"
         font-family="Sans Serif"
         transform="matrix(0,-1,1,0,1619.58,1191)"
         font-weight="400"
         font-style="normal"
         stroke-linejoin="bevel"
         id="g37">
        <text
           font-size="67"
           fill="#000000"
           stroke="none"
           x="4"
           font-family="osifont"
           y="93"
           xml:space="preserve"
           font-weight="400"
           font-style="normal"
           fill-opacity="1"
           id="text36">55</text>
      </g>
      <g
         font-size="31.75"
         fill="none"
         stroke="#000000"
         stroke-linecap="round"
         stroke-width="3.5"
         stroke-opacity="1"
         font-family="Sans Serif"
         transform="matrix(1,0,0,1,1027.18,1204.26)"
         font-weight="400"
         font-style="normal"
         stroke-linejoin="bevel"
         id="g38">
        <path
           d="M702.65,-550 L702.65,550 M571,550 L730.65,550 M571,-550 L730.65,-550"
           vector-effect="none"
           fill-rule="evenodd"
           id="path37" />
      </g>
      <g
         font-size="31.75"
         fill="#000000"
         stroke="#000000"
         stroke-linecap="round"
         stroke-width="3.5"
         stroke-opacity="1"
         font-family="Sans Serif"
         transform="matrix(1,0,0,1,1729.83,1754.26)"
         font-weight="400"
         font-style="normal"
         stroke-linejoin="bevel"
         fill-opacity="1"
         id="g39">
        <path
           d="M0,0 L5.83333,-35 L-5.83333,-35 L0,0"
           vector-effect="none"
           fill-rule="evenodd"
           id="path38" />
      </g>
      <g
         font-size="31.75"
         fill="#000000"
         stroke="#000000"
         stroke-linecap="round"
         stroke-width="3.5"
         stroke-opacity="1"
         font-family="Sans Serif"
         transform="matrix(1,0,0,1,1729.83,654.263)"
         font-weight="400"
         font-style="normal"
         stroke-linejoin="bevel"
         fill-opacity="1"
         id="g40">
        <path
           d="M0,0 L-5.83333,35 L5.83333,35 L0,0"
           vector-effect="none"
           fill-rule="evenodd"
           id="path39" />
      </g>
    </g>
  </g>
</svg>
