<?xml version="1.0" encoding="UTF-8" standalone="no"?>
<!-- Created with Inkscape (http://www.inkscape.org/) -->

<svg
   width="116.78363mm"
   height="57.174801mm"
   viewBox="0 0 116.78363 57.174801"
   version="1.1"
   id="svg1"
   xml:space="preserve"
   inkscape:version="1.4-beta3 (01c8a1c, 2024-08-28)"
   sodipodi:docname="Logo-gsyc.svg"
   xmlns:inkscape="http://www.inkscape.org/namespaces/inkscape"
   xmlns:sodipodi="http://sodipodi.sourceforge.net/DTD/sodipodi-0.dtd"
   xmlns:xlink="http://www.w3.org/1999/xlink"
   xmlns="http://www.w3.org/2000/svg"
   xmlns:svg="http://www.w3.org/2000/svg"><sodipodi:namedview
     id="namedview1"
     pagecolor="#ffffff"
     bordercolor="#000000"
     borderopacity="0.25"
     inkscape:showpageshadow="2"
     inkscape:pageopacity="0.0"
     inkscape:pagecheckerboard="0"
     inkscape:deskcolor="#d1d1d1"
     inkscape:document-units="mm"
     inkscape:zoom="1.3558782"
     inkscape:cx="223.84016"
     inkscape:cy="143.44946"
     inkscape:window-width="1866"
     inkscape:window-height="1011"
     inkscape:window-x="0"
     inkscape:window-y="0"
     inkscape:window-maximized="1"
     inkscape:current-layer="layer6"
     showguides="true" /><defs
     id="defs1"><linearGradient
       id="linearGradient573"
       inkscape:collect="always"><stop
         style="stop-color:#063b8c;stop-opacity:1;"
         offset="0"
         id="stop573" /><stop
         style="stop-color:#063b8c;stop-opacity:0;"
         offset="1"
         id="stop574" /></linearGradient><linearGradient
       id="linearGradient571"
       inkscape:collect="always"><stop
         style="stop-color:#063b8c;stop-opacity:1;"
         offset="0"
         id="stop571" /><stop
         style="stop-color:#063b8c;stop-opacity:0;"
         offset="1"
         id="stop572" /></linearGradient><linearGradient
       id="linearGradient569"
       inkscape:collect="always"><stop
         style="stop-color:#063b8c;stop-opacity:1;"
         offset="0"
         id="stop569" /><stop
         style="stop-color:#063b8c;stop-opacity:0;"
         offset="1"
         id="stop570" /></linearGradient><linearGradient
       id="linearGradient567"
       inkscape:collect="always"><stop
         style="stop-color:#063b8c;stop-opacity:1;"
         offset="0"
         id="stop567" /><stop
         style="stop-color:#063b8c;stop-opacity:0;"
         offset="1"
         id="stop568" /></linearGradient><linearGradient
       inkscape:collect="always"
       xlink:href="#linearGradient567"
       id="linearGradient568"
       x1="79.604233"
       y1="68.294083"
       x2="103.494"
       y2="146.38162"
       gradientUnits="userSpaceOnUse"
       gradientTransform="translate(30.01748,-38.793233)" /><linearGradient
       inkscape:collect="always"
       xlink:href="#linearGradient569"
       id="linearGradient570"
       x1="127.41187"
       y1="78.835747"
       x2="132.08887"
       y2="117.88503"
       gradientUnits="userSpaceOnUse"
       gradientTransform="translate(0.22861836,-37.856767)" /><linearGradient
       inkscape:collect="always"
       xlink:href="#linearGradient571"
       id="linearGradient572"
       x1="68.577835"
       y1="86.836395"
       x2="72.409348"
       y2="109.86268"
       gradientUnits="userSpaceOnUse"
       gradientTransform="translate(74.932983,-38.637319)" /><linearGradient
       inkscape:collect="always"
       xlink:href="#linearGradient573"
       id="linearGradient574"
       x1="164.6862"
       y1="79.697296"
       x2="173.05681"
       y2="121.65196"
       gradientUnits="userSpaceOnUse"
       gradientTransform="translate(-0.19513797,-38.051905)" /></defs><g
     inkscape:groupmode="layer"
     id="layer6"
     inkscape:label="back"
     transform="translate(-219.20007,-189.49313)"><rect
       style="display:inline;fill:#ffffff;stroke:none;stroke-width:0.275691;stroke-linecap:round;stroke-dasharray:none"
       id="rect3"
       width="116.78363"
       height="57.174801"
       x="219.20007"
       y="189.49313" /><rect
       style="display:inline;fill:#ffffff;stroke:#000000;stroke-width:0.264583;stroke-linecap:round;stroke-dasharray:none"
       id="rect2"
       width="113.69832"
       height="54.089489"
       x="220.74272"
       y="190.84067" /></g><g
     inkscape:groupmode="layer"
     id="layer5"
     inkscape:label="capa1"
     style="display:inline"
     transform="translate(-219.20007,-189.49313)"><g
       id="g574"
       transform="translate(130.35217,176.01445)"><path
         id="circle565"
         style="opacity:1;fill:url(#linearGradient568);stroke:#031a51;stroke-width:1.5875;stroke-linecap:round;stroke-linejoin:round;stroke-opacity:1"
         d="m 116.74838,54.759194 c -8.60875,-2e-6 -13.43632,-6.015648 -13.43632,-13.436323 0,-7.420676 5.58648,-13.436322 13.43632,-13.436324 7.84984,-2e-6 10.63606,0.0037 10.63606,0.0037 l 0.42621,7.178254 -0.1478,-0.0084 c 0,0 -1.54232,-0.779558 -4.44877,-1.059987 -2.90645,-0.280429 -5.05095,-0.135734 -5.05095,-0.135734 -4.10571,0.02439 -7.43404,3.35273 -7.43404,7.458438 0,4.105708 3.32833,7.434042 7.43404,7.434045 h 3.5788 v -4.72562 h -4.24298 v -5.553831 h 11.00417 v 14.902205 c 0,0 -3.14599,1.379526 -11.75474,1.379524 z"
         sodipodi:nodetypes="zszzcczcsccccccczz" /><path
         style="opacity:1;fill:url(#linearGradient570);stroke:#031a51;stroke-width:1.5875;stroke-linecap:round;stroke-linejoin:round;stroke-dasharray:none;stroke-opacity:1"
         d="m 128.82455,52.784821 2.09773,0.6342 1.75624,0.48784 1.51232,0.19514 1.60989,0.0488 h 1.75624 l 1.95138,-0.2927 1.75624,-0.53663 1.60989,-0.68299 1.2684,-0.97569 0.73176,-0.97569 0.34149,-1.21961 0.24393,-1.85381 -0.14636,-1.65867 -0.48784,-1.2684 -0.68298,-1.26839 -0.53663,-0.6342 -0.82934,-0.87812 -0.92691,-1.02448 -1.21961,-1.07326 -1.17083,-0.87812 -1.07325,-0.78055 -1.12205,-1.12204 -0.58541,-0.73177 -0.43906,-0.78055 0.0976,-0.73177 0.43906,-0.48785 0.43906,-0.43906 0.82933,-0.39027 0.82934,-0.0488 h 1.02448 l 0.68298,0.19514 0.68298,0.24392 0.73177,0.24392 1.07326,0.19514 0.87812,-0.14636 0.29271,-0.43906 v -1.5611 l -0.14636,-2.146516 -0.0976,-0.634201 -0.73177,-0.585412 -1.21961,-0.53663 -1.21961,-0.341493 -1.41475,-0.04878 -1.85381,-0.04878 -2.1953,0.292706 -1.2684,0.292709 -2.04895,0.682982 -1.65867,0.926907 -0.97569,1.463538 -0.58541,1.02447 -0.29271,1.12204 -0.0976,0.97569 0.0488,1.07326 0.3415,1.46354 0.58541,0.82933 0.73177,1.07326 0.53663,0.87812 0.97568,1.07326 0.68299,0.6342 0.78055,0.68298 1.41475,1.07326 1.07326,0.6342 0.97569,0.82934 0.48784,0.58541 0.43907,0.6342 0.34149,1.02447 -0.48785,1.02448 -1.12204,0.73177 -2.04895,0.14635 -1.41475,-0.39028 -1.41475,-0.63419 -1.46354,-0.68299 -0.87812,-0.34149 -0.58541,-0.0488 z"
         id="path568" /><path
         style="opacity:1;fill:url(#linearGradient572);stroke:#031a51;stroke-width:1.5875;stroke-linecap:round;stroke-linejoin:round;stroke-dasharray:none;stroke-opacity:1"
         d="m 144.30453,34.539421 h 7.31767 l 4.00033,11.61071 4.29304,-12.000987 6.34198,0.09757 -8.97635,24.392246 -0.87812,1.268397 -1.07325,0.87812 -0.9757,0.780554 -1.26839,0.682984 -7.02497,-0.19514 -0.78055,-0.195144 -0.39028,-0.975683 0.0976,-3.805193 0.48785,-0.390273 0.78055,-0.292709 0.78055,0.195138 0.48785,0.390277 0.78055,0.09757 0.68298,-0.09757 0.78055,-0.390277 0.87813,-0.682982 0.48784,-0.87812 0.29271,-0.585415 0.2927,-1.170829 z"
         id="path570" /><path
         id="circle573"
         style="opacity:1;fill:url(#linearGradient574);stroke:#031a51;stroke-width:1.5875;stroke-linecap:round;stroke-linejoin:round"
         d="m 186.54349,29.577066 0.6914,5.579815 -1.69337,0.565618 c -3.22716,-2.763896 -8.06717,-2.469941 -10.93554,0.664163 -2.86837,3.134102 -2.72979,7.977126 0.31311,10.942354 3.0429,2.96523 7.8918,2.982394 10.95565,0.03878 l 1.60407,0.229131 0.005,5.55278 -1.31718,0.780552 c -5.96209,3.305945 -13.43875,1.861427 -17.73768,-3.426981 -4.29893,-5.288407 -4.18108,-12.896469 0.2796,-18.049403 4.46068,-5.152931 11.9785,-6.365544 17.83533,-2.876809"
         sodipodi:nodetypes="cccssccccssc" /></g></g></svg>
