<?xml version="1.0" encoding="UTF-8" standalone="no"?>
<svg
   viewBox="0 0 984.29999 854.57001"
   version="1.1"
   id="svg912"
   sodipodi:docname="femtorv-computer-logo.svg"
   width="984.29999"
   height="854.57001"
   inkscape:version="1.1.1 (3bf5ae0, 2021-09-20)"
   xmlns:inkscape="http://www.inkscape.org/namespaces/inkscape"
   xmlns:sodipodi="http://sodipodi.sourceforge.net/DTD/sodipodi-0.dtd"
   xmlns="http://www.w3.org/2000/svg"
   xmlns:svg="http://www.w3.org/2000/svg">
  <defs
     id="defs916" />
  <sodipodi:namedview
     id="namedview914"
     pagecolor="#ffffff"
     bordercolor="#666666"
     borderopacity="1.0"
     inkscape:pageshadow="2"
     inkscape:pageopacity="0.0"
     inkscape:pagecheckerboard="0"
     showgrid="false"
     inkscape:snap-global="false"
     fit-margin-top="0"
     fit-margin-left="0"
     fit-margin-right="0"
     fit-margin-bottom="0"
     inkscape:zoom="0.54093669"
     inkscape:cx="512.99904"
     inkscape:cy="422.41542"
     inkscape:window-width="1858"
     inkscape:window-height="1016"
     inkscape:window-x="62"
     inkscape:window-y="27"
     inkscape:window-maximized="1"
     inkscape:current-layer="svg912" />
  <path
     d="m 121.8,702.72 h 746.8 l 115.7,121.5 v 30.35 H 0 V 824.42 L 121.7,702.72 M 180.58,0.02 h 624.1 c 29.18,0.11 49.6,22.97 49.6,50.65 v 474 c 0,43.48 -22.66,64.43 -65.67,64.43 h -180.7 c 2.86,12.51 6.64,25.29 14.89,35.41 5.79,7.21 14.42,12.24 23.72,12.98 3.94,0.32 8.33,0.05 11.66,2.66 5.46,4.27 5.37,13.76 -0.31,17.77 -2.4,1.7 -5.39,2.23 -8.25,2.23 h -314 c -3.95,0 -8.06,-0.04 -11.74,-1.64 -2.16,-0.94 -4,-3.32 -3.46,-5.78 1.14,-5.16 5.32,-8.84 9.27,-11.98 5.15,-4.08 11.82,-5.23 17.36,-8.61 15.35,-8.71 24.99,-25.69 26.59,-43.04 h -192 c -26.6,0 -51.72,-24.72 -51.72,-54.39 V 51.61 C 129.92,24.12 153.02,0 180.58,0 Z"
     fill="#3366cc"
     id="path908" />
  <path
     d="m 868.2,768.42 c -5.21,1.14 -10.71,3.21 -14,7.68 -1.7,2.3 -1.54,5.63 0.29,7.82 2.51,3 6.09,4.92 9.74,6.09 9.98,3.18 21.13,2.98 30.89,-0.92 4.08,-1.63 9.09,-4.56 8.98,-9.42 -0.11,-4.77 -4.97,-7.69 -9.02,-9.32 -8.46,-3.42 -18.01,-3.88 -26.88,-1.93 z m -65.01,-0.01 c -4.8,1.11 -9.72,2.9 -13.24,6.49 -2.16,2.21 -2.82,5.93 -0.92,8.52 2.68,3.66 6.98,5.71 11.24,6.92 9.52,2.69 19.96,2.53 29.23,-1.01 4.28,-1.64 9.52,-4.61 9.53,-9.66 0.01,-4.47 -4.48,-7.34 -8.26,-8.97 -8.62,-3.71 -18.44,-4.21 -27.58,-2.29 m -69.05,-0.12 c -5.48,1.17 -11.4,3.2 -14.8,7.97 -2.12,2.97 -0.83,6.9 1.76,9.1 5.7,4.86 13.42,6.43 20.68,6.77 7.45,0.34 15.24,-0.89 21.8,-4.64 3.07,-1.76 6.45,-4.92 5.65,-8.78 -0.84,-4.05 -4.76,-6.57 -8.33,-8.11 -8.37,-3.6 -17.88,-4.04 -26.76,-2.31 m -69.96,0.07 c -4.63,0.98 -9.38,2.55 -12.89,5.85 -1.89,1.78 -3.39,4.58 -2.43,7.26 1.53,4.28 5.82,6.7 9.85,8.13 10.59,3.75 22.75,3.64 33.05,-0.97 3.38,-1.51 7.15,-4.06 7.73,-8.06 0.61,-4.28 -3.19,-7.35 -6.54,-9.08 -8.77,-4.51 -19.2,-5.06 -28.77,-3.13 m -71,0.01 c -5.42,1.21 -11.36,3.19 -14.63,8.03 -1.95,2.89 -0.7,6.63 1.65,8.81 3.3,3.07 7.66,4.75 12,5.72 9.42,2.11 19.7,1.77 28.55,-2.28 3.38,-1.55 7.12,-4.09 7.72,-8.09 0.63,-4.25 -3.18,-7.35 -6.51,-9.07 -8.77,-4.54 -19.21,-5.05 -28.78,-3.12 m -71,-0.01 c -5.44,1.2 -11.36,3.21 -14.67,8.03 -1.99,2.91 -0.65,6.61 1.69,8.82 3.61,3.39 8.49,5.02 13.26,5.98 9.29,1.86 19.4,1.33 27.97,-2.88 3.31,-1.62 7.15,-4.4 7.11,-8.56 -0.04,-3.92 -3.46,-6.65 -6.59,-8.26 -8.77,-4.51 -19.2,-5.07 -28.77,-3.13 m -71,0 c -4.64,0.98 -9.35,2.59 -12.89,5.86 -2.13,1.98 -3.58,5.21 -2.14,8.05 2.17,4.28 6.79,6.54 11.15,7.87 10.43,3.19 22.24,2.92 32.14,-1.84 3.32,-1.6 7.12,-4.39 7.08,-8.55 -0.03,-3.92 -3.44,-6.65 -6.57,-8.26 -8.77,-4.52 -19.21,-5.07 -28.77,-3.13 m -70.06,-0.16 c -4.75,0.88 -9.55,2.42 -13.31,5.54 -2.39,1.98 -4.25,5.42 -2.66,8.52 2.19,4.27 6.78,6.56 11.13,7.89 10.2,3.11 21.7,2.96 31.48,-1.49 3.55,-1.62 7.79,-4.47 7.77,-8.91 -0.02,-3.92 -3.44,-6.64 -6.58,-8.26 -8.48,-4.37 -18.54,-5.01 -27.83,-3.29 m -71.94,0.17 c -4.83,1.03 -9.89,2.66 -13.37,6.34 -1.64,1.73 -2.92,4.31 -1.99,6.76 1.74,4.57 6.43,7 10.76,8.43 10.37,3.41 22.18,3.28 32.18,-1.24 3.37,-1.52 7.21,-4.05 7.74,-8.05 0.57,-4.28 -3.16,-7.39 -6.55,-9.12 -8.78,-4.47 -19.21,-5.07 -28.77,-3.12 m -71,-0.01 c -5.4,1.25 -11.37,3.2 -14.63,8.04 -2.27,3.37 -0.17,7.56 2.73,9.73 6.13,4.57 14.02,5.98 21.47,6.05 7.07,0.06 14.49,-1.12 20.57,-4.94 2.59,-1.63 5.28,-4.11 5.21,-7.49 -0.08,-3.93 -3.43,-6.63 -6.58,-8.26 -8.76,-4.53 -19.2,-5.04 -28.77,-3.13 m -70.06,-0.16 c -4.97,0.92 -10.04,2.56 -13.83,6.03 -2.13,1.96 -3.6,5.24 -2.15,8.04 2.2,4.24 6.78,6.56 11.15,7.88 10.44,3.14 22.25,2.96 32.15,-1.83 3.33,-1.61 7.12,-4.4 7.08,-8.57 -0.03,-3.93 -3.43,-6.64 -6.56,-8.26 -8.48,-4.39 -18.56,-5 -27.84,-3.29 m -71.94,0.17 c -5.62,1.29 -11.97,3.37 -15,8.73 -1.59,2.82 -0.07,6.12 2.02,8.12 3.25,3.12 7.66,4.73 12.01,5.7 9.66,2.17 20.26,1.78 29.23,-2.61 3.33,-1.63 7.13,-4.41 7.09,-8.57 -0.04,-3.93 -3.44,-6.63 -6.58,-8.25 -8.77,-4.53 -19.2,-5.03 -28.77,-3.12 m 742,-39.98 c -5.94,0.9 -12.21,2.7 -16.5,7.18 -2.4,2.51 -2.58,6.73 -0.15,9.31 4.33,4.61 10.68,6.53 16.74,7.33 9.03,1.2 18.78,0.43 26.81,-4.2 2.93,-1.69 5.93,-4.61 5.56,-8.28 -0.38,-3.79 -3.81,-6.32 -6.97,-7.88 -7.83,-3.86 -16.92,-4.56 -25.49,-3.46 m -68.02,-0.01 c -5.74,0.89 -11.74,2.55 -16.09,6.61 -2.2,2.05 -3.39,5.43 -1.82,8.22 2.47,4.4 7.51,6.52 12.12,7.8 9.78,2.71 20.69,2.47 30.05,-1.66 3.41,-1.5 7.18,-3.99 7.98,-7.9 0.81,-3.93 -2.49,-7.15 -5.6,-8.91 -8.01,-4.53 -17.65,-5.28 -26.64,-4.16 m -69.98,0.05 c -5.91,0.98 -12.18,2.74 -16.41,7.28 -2.11,2.26 -2.48,6.03 -0.52,8.52 3.65,4.62 9.54,6.66 15.12,7.67 8.45,1.53 17.49,1.11 25.52,-2.19 4.01,-1.65 8.82,-4.35 9.12,-9.08 0.27,-4.23 -3.81,-7.2 -7.32,-8.9 -7.86,-3.8 -16.95,-4.44 -25.51,-3.3 m -70.97,0 c -5.92,1.01 -12.2,2.73 -16.44,7.27 -2.28,2.44 -2.41,6.55 -0.09,9.06 4.39,4.75 10.9,6.73 17.1,7.5 9.1,1.13 18.93,0.26 26.96,-4.56 2.81,-1.69 5.57,-4.56 5.18,-7.99 -0.44,-3.84 -3.97,-6.39 -7.23,-7.98 -7.84,-3.83 -16.93,-4.44 -25.48,-3.3 m -71.01,0 c -5.91,1 -12.15,2.76 -16.42,7.27 -2.16,2.28 -2.49,6.04 -0.54,8.52 3.81,4.87 10.06,6.85 15.9,7.8 8.89,1.45 18.5,0.87 26.69,-3.22 3.49,-1.74 7.66,-4.77 7.13,-9.07 -0.53,-4.36 -4.82,-7.02 -8.59,-8.62 -7.57,-3.2 -16.07,-3.8 -24.17,-2.68 m -71.01,0 c -5.92,0.98 -12.14,2.77 -16.41,7.27 -2.33,2.46 -2.38,6.53 -0.1,9.06 4.14,4.6 10.36,6.53 16.25,7.38 9.13,1.32 18.99,0.54 27.19,-4.07 3.04,-1.71 6.22,-4.64 5.8,-8.37 -0.43,-3.84 -3.98,-6.38 -7.23,-7.97 -7.85,-3.83 -16.94,-4.44 -25.5,-3.3 m -71,0 c -5.91,0.98 -12.17,2.75 -16.4,7.28 -2.3,2.47 -2.41,6.53 -0.11,9.05 4.16,4.56 10.34,6.57 16.24,7.39 9.36,1.31 19.53,0.53 27.82,-4.46 2.8,-1.68 5.59,-4.55 5.18,-7.98 -0.49,-4.11 -4.38,-6.71 -7.89,-8.3 -7.72,-3.5 -16.51,-4.11 -24.84,-2.98 m -70.98,0 c -5.92,1.01 -12.21,2.72 -16.44,7.27 -2.11,2.26 -2.48,6.04 -0.53,8.52 3.81,4.87 10.07,6.88 15.9,7.81 9.12,1.46 19.01,0.85 27.33,-3.58 3.27,-1.74 6.9,-4.71 6.45,-8.74 -0.46,-4.1 -4.38,-6.71 -7.88,-8.3 -7.71,-3.5 -16.51,-4.12 -24.83,-2.98 m -71.03,0 c -5.91,0.99 -12.15,2.75 -16.4,7.27 -2.31,2.45 -2.41,6.55 -0.1,9.06 4,4.34 9.83,6.35 15.46,7.26 8.66,1.39 17.92,0.84 25.98,-2.89 3.55,-1.65 7.56,-4.26 7.83,-8.5 0.26,-3.96 -3.38,-6.89 -6.61,-8.57 -7.97,-4.15 -17.36,-4.78 -26.16,-3.63 m -70.97,0 c -6.12,1.07 -12.82,2.8 -16.9,7.85 -1.98,2.45 -1.78,6.19 0.33,8.52 4.14,4.58 10.39,6.5 16.3,7.35 9.13,1.31 18.99,0.52 27.18,-4.08 3.04,-1.71 6.22,-4.63 5.79,-8.36 -0.48,-4.1 -4.38,-6.69 -7.87,-8.29 -7.71,-3.52 -16.51,-4.12 -24.83,-2.99 m -71.02,0 c -5.91,0.97 -12.17,2.76 -16.4,7.29 -2.31,2.47 -2.4,6.52 -0.11,9.04 4.16,4.57 10.35,6.54 16.25,7.38 9.13,1.3 18.98,0.52 27.19,-4.07 3.04,-1.7 6.24,-4.65 5.81,-8.36 -0.47,-4.11 -4.38,-6.7 -7.89,-8.3 -7.72,-3.52 -16.52,-4.11 -24.85,-2.98 m 355.9,-245.2 c -11.16,2.37 -18.84,15.02 -15.44,25.94 3.16,10.15 14.9,16.8 25.21,13.76 9.84,-2.9 16.64,-13.78 14.36,-23.91 -2.35,-10.47 -13.52,-18.04 -24.13,-15.79 z M 213.19,83.93 v 342.3 h 553.5 V 83.93 Z"
     fill="#ffffff"
     id="path910" />
  <path
     fill="#ffffff"
     d="m 1350.8796,14.130942 h 345.2777 V 364.88999 h -345.2777 z m 0.6293,368.909738 h 342.1671 v 65.33341 h -342.1671 z"
     id="path1000"
     style="stroke-width:1.33333" />
  <g
     id="g1038"
     transform="translate(-1060.9179,-0.12361)">
    <path
       d="M 1368.6383,278.49782 V 139.15767 h 39.7974 c 25.06,0 41.328,0.16666 43.9307,0.44933 27.164,2.956 46.1547,19.91869 50.9387,45.50138 1.0173,5.44268 1.0267,14.92935 0.015,20.63469 -3.6974,20.90669 -17.2241,37.03471 -36.7121,43.77338 -2.3947,0.82801 -6.416,1.93867 -8.9347,2.46934 -4.4853,0.94267 -5.2466,0.96533 -36.5973,1.1 l -32.0161,0.13734 v 23.26402 l 23.5227,27.80936 c 12.9374,15.29602 39.8347,47.10006 59.7708,70.67742 l 36.2467,42.86538 h -139.9629 z m 214.7015,138.80949 c 0.1734,-0.29334 2.1707,-2.92534 4.4374,-5.84934 2.2667,-2.92534 27.8133,-38.44138 56.772,-78.92542 28.9587,-40.48272 52.8201,-73.78675 53.0268,-74.00942 0.216,-0.23333 0.3746,33.3667 0.3746,79.45609 v 79.86009 h -57.4627 c -45.856,0 -57.4001,-0.10667 -57.1467,-0.532 z"
       fill="#273272"
       id="path1010"
       style="stroke-width:1.33333" />
    <path
       d="m 1506.4638,340.76055 c -21.6307,-25.55469 -39.3801,-46.57871 -39.4414,-46.72005 -0.061,-0.14266 1.5653,-0.51466 3.616,-0.82666 9.6853,-1.48001 19.5813,-4.65334 29.2574,-9.38135 34.332,-16.77335 53.9347,-52.82672 51.636,-94.96544 -1.516,-27.75736 -12.6293,-53.13072 -30.9374,-70.63341 -13.0253,-12.45334 -28.7973,-20.357352 -47.82,-23.96669 l -5.2147,-0.990668 115.1948,-0.03467 115.1961,-0.03467 V 177.2377 l -72.1734,101.04811 c -55.168,77.23608 -73.0307,101.95078 -75.8014,104.87745 -1.9947,2.10667 -3.752,3.88134 -3.904,3.944 -0.1533,0.064 -17.976,-20.79335 -39.608,-46.34672 z"
       fill="#f7b217"
       id="path1012"
       style="stroke-width:1.33333" />
  </g>
</svg>
