<?xml version="1.0" encoding="UTF-8" standalone="no"?>
<svg
   xmlns:dc="http://purl.org/dc/elements/1.1/"
   xmlns:cc="http://creativecommons.org/ns#"
   xmlns:rdf="http://www.w3.org/1999/02/22-rdf-syntax-ns#"
   xmlns:svg="http://www.w3.org/2000/svg"
   xmlns="http://www.w3.org/2000/svg"
   xmlns:sodipodi="http://sodipodi.sourceforge.net/DTD/sodipodi-0.dtd"
   xmlns:inkscape="http://www.inkscape.org/namespaces/inkscape"
   width="371.26501mm"
   height="167.19553mm"
   viewBox="0 0 371.26502 167.19553"
   version="1.1"
   id="svg8"
   inkscape:version="1.0.2 (e86c870, 2021-01-15)"
   sodipodi:docname="GDL-formula-02.svg">
  <defs
     id="defs2">
    <marker
       style="overflow:visible"
       id="marker93197"
       refX="0"
       refY="0"
       orient="auto"
       inkscape:stockid="Arrow2Mend"
       inkscape:isstock="true">
      <path
         transform="scale(-0.6)"
         d="M 8.7185878,4.0337352 -2.2072895,0.01601326 8.7185884,-4.0017078 c -1.7454984,2.3720609 -1.7354408,5.6174519 -6e-7,8.035443 z"
         style="fill:context-stroke;fill-rule:evenodd;stroke-width:0.625;stroke-linejoin:round"
         id="path93195" />
    </marker>
    <marker
       style="overflow:visible"
       id="Arrow2Mend"
       refX="0"
       refY="0"
       orient="auto"
       inkscape:stockid="Arrow2Mend"
       inkscape:isstock="true">
      <path
         transform="scale(-0.6)"
         d="M 8.7185878,4.0337352 -2.2072895,0.01601326 8.7185884,-4.0017078 c -1.7454984,2.3720609 -1.7354408,5.6174519 -6e-7,8.035443 z"
         style="fill:context-stroke;fill-rule:evenodd;stroke-width:0.625;stroke-linejoin:round"
         id="path19641" />
    </marker>
    <marker
       style="overflow:visible"
       id="marker93197-8"
       refX="0"
       refY="0"
       orient="auto"
       inkscape:stockid="Arrow2Mend"
       inkscape:isstock="true">
      <path
         transform="scale(-0.6)"
         d="M 8.7185878,4.0337352 -2.2072895,0.01601326 8.7185884,-4.0017078 c -1.7454984,2.3720609 -1.7354408,5.6174519 -6e-7,8.035443 z"
         style="fill:context-stroke;fill-rule:evenodd;stroke-width:0.625;stroke-linejoin:round"
         id="path93195-5" />
    </marker>
    <marker
       style="overflow:visible"
       id="Arrow2Mend-8"
       refX="0"
       refY="0"
       orient="auto"
       inkscape:stockid="Arrow2Mend"
       inkscape:isstock="true">
      <path
         transform="scale(-0.6)"
         d="M 8.7185878,4.0337352 -2.2072895,0.01601326 8.7185884,-4.0017078 c -1.7454984,2.3720609 -1.7354408,5.6174519 -6e-7,8.035443 z"
         style="fill:context-stroke;fill-rule:evenodd;stroke-width:0.625;stroke-linejoin:round"
         id="path19641-8" />
    </marker>
    <marker
       style="overflow:visible"
       id="marker93197-6"
       refX="0"
       refY="0"
       orient="auto"
       inkscape:stockid="Arrow2Mend"
       inkscape:isstock="true">
      <path
         transform="scale(-0.6)"
         d="M 8.7185878,4.0337352 -2.2072895,0.01601326 8.7185884,-4.0017078 c -1.7454984,2.3720609 -1.7354408,5.6174519 -6e-7,8.035443 z"
         style="fill:context-stroke;fill-rule:evenodd;stroke-width:0.625;stroke-linejoin:round"
         id="path93195-2" />
    </marker>
    <marker
       style="overflow:visible"
       id="Arrow2Mend-8-1"
       refX="0"
       refY="0"
       orient="auto"
       inkscape:stockid="Arrow2Mend"
       inkscape:isstock="true">
      <path
         transform="scale(-0.6)"
         d="M 8.7185878,4.0337352 -2.2072895,0.01601326 8.7185884,-4.0017078 c -1.7454984,2.3720609 -1.7354408,5.6174519 -6e-7,8.035443 z"
         style="fill:context-stroke;fill-rule:evenodd;stroke-width:0.625;stroke-linejoin:round"
         id="path19641-8-2" />
    </marker>
    <marker
       style="overflow:visible"
       id="marker93197-6-6"
       refX="0"
       refY="0"
       orient="auto"
       inkscape:stockid="Arrow2Mend"
       inkscape:isstock="true">
      <path
         transform="scale(-0.6)"
         d="M 8.7185878,4.0337352 -2.2072895,0.01601326 8.7185884,-4.0017078 c -1.7454984,2.3720609 -1.7354408,5.6174519 -6e-7,8.035443 z"
         style="fill:context-stroke;fill-rule:evenodd;stroke-width:0.625;stroke-linejoin:round"
         id="path93195-2-1" />
    </marker>
    <marker
       style="overflow:visible"
       id="Arrow2Mend-8-1-2"
       refX="0"
       refY="0"
       orient="auto"
       inkscape:stockid="Arrow2Mend"
       inkscape:isstock="true">
      <path
         transform="scale(-0.6)"
         d="M 8.7185878,4.0337352 -2.2072895,0.01601326 8.7185884,-4.0017078 c -1.7454984,2.3720609 -1.7354408,5.6174519 -6e-7,8.035443 z"
         style="fill:context-stroke;fill-rule:evenodd;stroke-width:0.625;stroke-linejoin:round"
         id="path19641-8-2-0" />
    </marker>
    <marker
       style="overflow:visible"
       id="marker93197-6-5"
       refX="0"
       refY="0"
       orient="auto"
       inkscape:stockid="Arrow2Mend"
       inkscape:isstock="true">
      <path
         transform="scale(-0.6)"
         d="M 8.7185878,4.0337352 -2.2072895,0.01601326 8.7185884,-4.0017078 c -1.7454984,2.3720609 -1.7354408,5.6174519 -6e-7,8.035443 z"
         style="fill:context-stroke;fill-rule:evenodd;stroke:#000000;stroke-width:0.625;stroke-linejoin:round;stroke-opacity:1"
         id="path93195-2-6" />
    </marker>
    <marker
       style="overflow:visible"
       id="Arrow2Mend-8-1-9"
       refX="0"
       refY="0"
       orient="auto"
       inkscape:stockid="Arrow2Mend"
       inkscape:isstock="true">
      <path
         transform="scale(-0.6)"
         d="M 8.7185878,4.0337352 -2.2072895,0.01601326 8.7185884,-4.0017078 c -1.7454984,2.3720609 -1.7354408,5.6174519 -6e-7,8.035443 z"
         style="fill:context-stroke;fill-rule:evenodd;stroke:#000000;stroke-width:0.625;stroke-linejoin:round;stroke-opacity:1"
         id="path19641-8-2-3" />
    </marker>
    <marker
       style="overflow:visible"
       id="Arrow2Mend-8-1-9-7"
       refX="0"
       refY="0"
       orient="auto"
       inkscape:stockid="Arrow2Mend"
       inkscape:isstock="true">
      <path
         transform="scale(-0.6)"
         d="M 8.7185878,4.0337352 -2.2072895,0.01601326 8.7185884,-4.0017078 c -1.7454984,2.3720609 -1.7354408,5.6174519 -6e-7,8.035443 z"
         style="fill:context-stroke;fill-rule:evenodd;stroke:#000000;stroke-width:0.625;stroke-linejoin:round;stroke-opacity:1"
         id="path19641-8-2-3-5" />
    </marker>
    <marker
       style="overflow:visible"
       id="Arrow2Mend-8-1-9-7-2"
       refX="0"
       refY="0"
       orient="auto"
       inkscape:stockid="Arrow2Mend"
       inkscape:isstock="true">
      <path
         transform="scale(-0.6)"
         d="M 8.7185878,4.0337352 -2.2072895,0.01601326 8.7185884,-4.0017078 c -1.7454984,2.3720609 -1.7354408,5.6174519 -6e-7,8.035443 z"
         style="fill:context-stroke;fill-rule:evenodd;stroke:#000000;stroke-width:0.625;stroke-linejoin:round;stroke-opacity:1"
         id="path19641-8-2-3-5-9" />
    </marker>
    <marker
       style="overflow:visible"
       id="Arrow2Mend-8-1-9-7-2-0"
       refX="0"
       refY="0"
       orient="auto"
       inkscape:stockid="Arrow2Mend"
       inkscape:isstock="true">
      <path
         transform="scale(-0.6)"
         d="M 8.7185878,4.0337352 -2.2072895,0.01601326 8.7185884,-4.0017078 c -1.7454984,2.3720609 -1.7354408,5.6174519 -6e-7,8.035443 z"
         style="fill:context-stroke;fill-rule:evenodd;stroke:#000000;stroke-width:0.625;stroke-linejoin:round;stroke-opacity:1"
         id="path19641-8-2-3-5-9-9" />
    </marker>
    <marker
       style="overflow:visible"
       id="Arrow2Mend-8-1-9-7-6"
       refX="0"
       refY="0"
       orient="auto"
       inkscape:stockid="Arrow2Mend"
       inkscape:isstock="true">
      <path
         transform="scale(-0.6)"
         d="M 8.7185878,4.0337352 -2.2072895,0.01601326 8.7185884,-4.0017078 c -1.7454984,2.3720609 -1.7354408,5.6174519 -6e-7,8.035443 z"
         style="fill:context-stroke;fill-rule:evenodd;stroke:#000000;stroke-width:0.625;stroke-linejoin:round;stroke-opacity:1"
         id="path19641-8-2-3-5-2" />
    </marker>
    <marker
       style="overflow:visible"
       id="Arrow2Mend-8-1-9-7-7"
       refX="0"
       refY="0"
       orient="auto"
       inkscape:stockid="Arrow2Mend"
       inkscape:isstock="true">
      <path
         transform="scale(-0.6)"
         d="M 8.7185878,4.0337352 -2.2072895,0.01601326 8.7185884,-4.0017078 c -1.7454984,2.3720609 -1.7354408,5.6174519 -6e-7,8.035443 z"
         style="fill:context-stroke;fill-rule:evenodd;stroke:#000000;stroke-width:0.625;stroke-linejoin:round;stroke-opacity:1"
         id="path19641-8-2-3-5-92" />
    </marker>
    <marker
       style="overflow:visible"
       id="marker93197-6-5-6"
       refX="0"
       refY="0"
       orient="auto"
       inkscape:stockid="Arrow2Mend"
       inkscape:isstock="true">
      <path
         transform="scale(-0.6)"
         d="M 8.7185878,4.0337352 -2.2072895,0.01601326 8.7185884,-4.0017078 c -1.7454984,2.3720609 -1.7354408,5.6174519 -6e-7,8.035443 z"
         style="fill:context-stroke;fill-rule:evenodd;stroke:#000000;stroke-width:0.625;stroke-linejoin:round;stroke-opacity:1"
         id="path93195-2-6-1" />
    </marker>
    <marker
       style="overflow:visible"
       id="marker93197-6-5-6-1"
       refX="0"
       refY="0"
       orient="auto"
       inkscape:stockid="Arrow2Mend"
       inkscape:isstock="true">
      <path
         transform="scale(-0.6)"
         d="M 8.7185878,4.0337352 -2.2072895,0.01601326 8.7185884,-4.0017078 c -1.7454984,2.3720609 -1.7354408,5.6174519 -6e-7,8.035443 z"
         style="fill:context-stroke;fill-rule:evenodd;stroke:#000000;stroke-width:0.625;stroke-linejoin:round;stroke-opacity:1"
         id="path93195-2-6-1-9" />
    </marker>
    <marker
       style="overflow:visible"
       id="marker93197-6-5-6-1-4"
       refX="0"
       refY="0"
       orient="auto"
       inkscape:stockid="Arrow2Mend"
       inkscape:isstock="true">
      <path
         transform="scale(-0.6)"
         d="M 8.7185878,4.0337352 -2.2072895,0.01601326 8.7185884,-4.0017078 c -1.7454984,2.3720609 -1.7354408,5.6174519 -6e-7,8.035443 z"
         style="fill:context-stroke;fill-rule:evenodd;stroke:#000000;stroke-width:0.625;stroke-linejoin:round;stroke-opacity:1"
         id="path93195-2-6-1-9-5" />
    </marker>
    <marker
       style="overflow:visible"
       id="marker93197-6-5-6-10"
       refX="0"
       refY="0"
       orient="auto"
       inkscape:stockid="Arrow2Mend"
       inkscape:isstock="true">
      <path
         transform="scale(-0.6)"
         d="M 8.7185878,4.0337352 -2.2072895,0.01601326 8.7185884,-4.0017078 c -1.7454984,2.3720609 -1.7354408,5.6174519 -6e-7,8.035443 z"
         style="fill:context-stroke;fill-rule:evenodd;stroke:#000000;stroke-width:0.625;stroke-linejoin:round;stroke-opacity:1"
         id="path93195-2-6-1-6" />
    </marker>
    <marker
       style="overflow:visible"
       id="marker93197-6-5-6-10-6"
       refX="0"
       refY="0"
       orient="auto"
       inkscape:stockid="Arrow2Mend"
       inkscape:isstock="true">
      <path
         transform="scale(-0.6)"
         d="M 8.7185878,4.0337352 -2.2072895,0.01601326 8.7185884,-4.0017078 c -1.7454984,2.3720609 -1.7354408,5.6174519 -6e-7,8.035443 z"
         style="fill:context-stroke;fill-rule:evenodd;stroke:#000000;stroke-width:0.625;stroke-linejoin:round;stroke-opacity:1"
         id="path93195-2-6-1-6-1" />
    </marker>
    <marker
       style="overflow:visible"
       id="Arrow2Mend-8-1-9-7-2-0-7"
       refX="0"
       refY="0"
       orient="auto"
       inkscape:stockid="Arrow2Mend"
       inkscape:isstock="true">
      <path
         transform="scale(-0.6)"
         d="M 8.7185878,4.0337352 -2.2072895,0.01601326 8.7185884,-4.0017078 c -1.7454984,2.3720609 -1.7354408,5.6174519 -6e-7,8.035443 z"
         style="fill:context-stroke;fill-rule:evenodd;stroke:#000000;stroke-width:0.625;stroke-linejoin:round;stroke-opacity:1"
         id="path19641-8-2-3-5-9-9-6" />
    </marker>
    <marker
       style="overflow:visible"
       id="marker93197-6-5-6-1-4-3"
       refX="0"
       refY="0"
       orient="auto"
       inkscape:stockid="Arrow2Mend"
       inkscape:isstock="true">
      <path
         transform="scale(-0.6)"
         d="M 8.7185878,4.0337352 -2.2072895,0.01601326 8.7185884,-4.0017078 c -1.7454984,2.3720609 -1.7354408,5.6174519 -6e-7,8.035443 z"
         style="fill:context-stroke;fill-rule:evenodd;stroke:#000000;stroke-width:0.625;stroke-linejoin:round;stroke-opacity:1"
         id="path93195-2-6-1-9-5-7" />
    </marker>
    <marker
       style="overflow:visible"
       id="Arrow2Mend-8-1-9-7-7-5"
       refX="0"
       refY="0"
       orient="auto"
       inkscape:stockid="Arrow2Mend"
       inkscape:isstock="true">
      <path
         transform="scale(-0.6)"
         d="M 8.7185878,4.0337352 -2.2072895,0.01601326 8.7185884,-4.0017078 c -1.7454984,2.3720609 -1.7354408,5.6174519 -6e-7,8.035443 z"
         style="fill:context-stroke;fill-rule:evenodd;stroke:#000000;stroke-width:0.625;stroke-linejoin:round;stroke-opacity:1"
         id="path19641-8-2-3-5-92-4" />
    </marker>
    <marker
       style="overflow:visible"
       id="marker93197-6-5-6-10-3"
       refX="0"
       refY="0"
       orient="auto"
       inkscape:stockid="Arrow2Mend"
       inkscape:isstock="true">
      <path
         transform="scale(-0.6)"
         d="M 8.7185878,4.0337352 -2.2072895,0.01601326 8.7185884,-4.0017078 c -1.7454984,2.3720609 -1.7354408,5.6174519 -6e-7,8.035443 z"
         style="fill:context-stroke;fill-rule:evenodd;stroke:#000000;stroke-width:0.625;stroke-linejoin:round;stroke-opacity:1"
         id="path93195-2-6-1-6-0" />
    </marker>
    <marker
       style="overflow:visible"
       id="marker93197-6-5-6-10-3-8"
       refX="0"
       refY="0"
       orient="auto"
       inkscape:stockid="Arrow2Mend"
       inkscape:isstock="true">
      <path
         transform="scale(-0.6)"
         d="M 8.7185878,4.0337352 -2.2072895,0.01601326 8.7185884,-4.0017078 c -1.7454984,2.3720609 -1.7354408,5.6174519 -6e-7,8.035443 z"
         style="fill:context-stroke;fill-rule:evenodd;stroke:#000000;stroke-width:0.625;stroke-linejoin:round;stroke-opacity:1"
         id="path93195-2-6-1-6-0-8" />
    </marker>
  </defs>
  <sodipodi:namedview
     id="base"
     pagecolor="#ffffff"
     bordercolor="#666666"
     borderopacity="1.0"
     inkscape:pageopacity="0.0"
     inkscape:pageshadow="2"
     inkscape:zoom="0.49497475"
     inkscape:cx="825.51201"
     inkscape:cy="621.46815"
     inkscape:document-units="mm"
     inkscape:current-layer="layer2"
     inkscape:document-rotation="0"
     showgrid="false"
     inkscape:window-width="1860"
     inkscape:window-height="1016"
     inkscape:window-x="60"
     inkscape:window-y="27"
     inkscape:window-maximized="1"
     fit-margin-top="0"
     fit-margin-left="0"
     fit-margin-right="0"
     fit-margin-bottom="0"
     inkscape:snap-global="false" />
  <metadata
     id="metadata5">
    <rdf:RDF>
      <cc:Work
         rdf:about="">
        <dc:format>image/svg+xml</dc:format>
        <dc:type
           rdf:resource="http://purl.org/dc/dcmitype/StillImage" />
        <dc:title></dc:title>
      </cc:Work>
    </rdf:RDF>
  </metadata>
  <g
     inkscape:groupmode="layer"
     id="layer2"
     inkscape:label="back"
     transform="translate(38.916515,358.47787)"
     style="display:inline">
    <rect
       style="fill:#ffffff;stroke:none;stroke-width:0.545618;stroke-linecap:round;stroke-linejoin:round;stroke-miterlimit:4;stroke-dasharray:none;stroke-dashoffset:0"
       id="rect2859-1"
       width="230.91335"
       height="132.19812"
       x="-7.7746601"
       y="20.567783"
       inkscape:export-xdpi="90"
       inkscape:export-ydpi="90" />
    <rect
       style="fill:#ffffff;stroke:none;stroke-width:0.512796;stroke-linecap:round;stroke-linejoin:round;stroke-miterlimit:4;stroke-dasharray:none;stroke-dashoffset:0"
       id="rect2859"
       width="371.26501"
       height="167.19553"
       x="-38.916515"
       y="-358.47787"
       inkscape:export-xdpi="90"
       inkscape:export-ydpi="90" />
    <text
       xml:space="preserve"
       style="font-style:normal;font-weight:normal;font-size:3.38667px;line-height:0%;font-family:sans-serif;text-align:center;letter-spacing:0px;word-spacing:0px;text-anchor:middle;display:inline;fill:#000000;fill-opacity:1;stroke:none;stroke-width:0.282222px;stroke-linecap:butt;stroke-linejoin:miter;stroke-opacity:1"
       x="333.15036"
       y="60.929924"
       id="text4136-3-6-6-0-1-6-2-3-06-2-1-6-3-7-3-6-6-8"
       inkscape:export-xdpi="90"
       inkscape:export-ydpi="90"
       inkscape:export-filename="/home/obijuan/Develop/myTeachingURJC/Mecatronica/wiki/S01/cadenas-1.png"><tspan
         sodipodi:role="line"
         x="333.15036"
         y="60.929924"
         style="font-style:normal;font-variant:normal;font-weight:normal;font-stretch:normal;font-size:9.26925px;line-height:1.25;font-family:sans-serif;-inkscape-font-specification:sans-serif;text-align:center;text-anchor:middle;fill:#000000;stroke-width:0.282222px"
         id="tspan3705-0-15-7-0-7-6-6-6-0-7-9">(2 GDL)</tspan></text>
  </g>
  <g
     inkscape:label="Layer 1"
     inkscape:groupmode="layer"
     id="layer1"
     style="display:inline"
     transform="translate(38.916515,358.47787)">
    <rect
       style="fill:#ffffff;stroke:#000000;stroke-width:0.425055;stroke-linecap:round;stroke-linejoin:round;stroke-miterlimit:4;stroke-dasharray:none;stroke-dashoffset:0"
       id="rect2828"
       width="193.21584"
       height="44.313381"
       x="10.197321"
       y="35.779037"
       inkscape:export-xdpi="90"
       inkscape:export-ydpi="90" />
    <text
       xml:space="preserve"
       style="font-style:normal;font-weight:normal;font-size:11.7716px;line-height:1.25;font-family:sans-serif;letter-spacing:0px;word-spacing:0px;fill:#0000ff;fill-opacity:1;stroke:none;stroke-width:0.436646"
       x="-20.948299"
       y="-216.7942"
       id="text2742"
       inkscape:export-xdpi="90"
       inkscape:export-ydpi="90"><tspan
         sodipodi:role="line"
         id="tspan2740"
         x="-20.948299"
         y="-216.7942"
         style="fill:#0000ff;stroke-width:0.436646">NGDL <tspan
   style="fill:#000000"
   id="tspan4485">= 3(4-3-1)+3=</tspan>3</tspan></text>
    <text
       xml:space="preserve"
       style="font-style:normal;font-weight:normal;font-size:10.5833px;line-height:1.25;font-family:sans-serif;letter-spacing:0px;word-spacing:0px;fill:#000000;fill-opacity:1;stroke:none;stroke-width:0.264583"
       x="213.98111"
       y="-298.67999"
       id="text2764"
       inkscape:export-xdpi="90"
       inkscape:export-ydpi="90"><tspan
         sodipodi:role="line"
         id="tspan2762"
         x="213.98111"
         y="-298.67999"
         style="stroke-width:0.264583"><tspan
           style="font-style:normal;font-variant:normal;font-weight:bold;font-stretch:normal;font-family:sans-serif;-inkscape-font-specification:'sans-serif Bold'"
           id="tspan2766">λ</tspan><tspan
           id="tspan4343"
           style="font-style:normal;font-variant:normal;font-weight:normal;font-stretch:normal;font-family:sans-serif;-inkscape-font-specification:sans-serif">=3</tspan></tspan></text>
    <text
       xml:space="preserve"
       style="font-style:normal;font-weight:normal;font-size:10.5833px;line-height:1.25;font-family:sans-serif;letter-spacing:0px;word-spacing:0px;fill:#000000;fill-opacity:1;stroke:none;stroke-width:0.264583"
       x="213.66934"
       y="-286.75638"
       id="text2764-3"
       inkscape:export-xdpi="90"
       inkscape:export-ydpi="90"><tspan
         sodipodi:role="line"
         id="tspan2762-6"
         x="213.66934"
         y="-286.75638"
         style="stroke-width:0.264583"><tspan
   style="font-style:normal;font-variant:normal;font-weight:bold;font-stretch:normal;font-family:sans-serif;-inkscape-font-specification:'sans-serif Bold'"
   id="tspan2796">n</tspan>: 5</tspan></text>
    <text
       xml:space="preserve"
       style="font-style:normal;font-weight:normal;font-size:10.5833px;line-height:1.25;font-family:sans-serif;letter-spacing:0px;word-spacing:0px;fill:#000000;fill-opacity:1;stroke:none;stroke-width:0.264583"
       x="214.06647"
       y="-272.91977"
       id="text2764-3-5"
       inkscape:export-xdpi="90"
       inkscape:export-ydpi="90"><tspan
         sodipodi:role="line"
         id="tspan2762-6-3"
         x="214.06647"
         y="-272.91977"
         style="stroke-width:0.264583"><tspan
   style="font-style:normal;font-variant:normal;font-weight:bold;font-stretch:normal;font-family:sans-serif;-inkscape-font-specification:'sans-serif Bold'"
   id="tspan2826">j</tspan>: 5</tspan></text>
    <text
       xml:space="preserve"
       style="font-style:normal;font-weight:normal;font-size:11.7716px;line-height:1.25;font-family:sans-serif;letter-spacing:0px;word-spacing:0px;display:inline;fill:#0000ff;fill-opacity:1;stroke:none;stroke-width:0.436646"
       x="144.63832"
       y="-217.33957"
       id="text2742-8"
       inkscape:export-xdpi="90"
       inkscape:export-ydpi="90"><tspan
         sodipodi:role="line"
         id="tspan2740-7"
         x="144.63832"
         y="-217.33957"
         style="fill:#0000ff;stroke-width:0.436646">NGDL <tspan
   style="fill:#000000"
   id="tspan4487">= 3(5-5-1)+5=-3+5=</tspan>2</tspan></text>
    <rect
       style="display:inline;fill:none;stroke:#000000;stroke-width:0.529167;stroke-linecap:round;stroke-linejoin:round;stroke-miterlimit:4;stroke-dasharray:none"
       id="rect64312-4-3-3"
       width="159.55733"
       height="131.77657"
       x="-30.449255"
       y="-332.51926"
       inkscape:export-filename="/home/obijuan/Develop/myTeachingURJC/Mecatronica/wiki/S01/cadenas-1.png"
       inkscape:export-xdpi="90"
       inkscape:export-ydpi="90" />
    <text
       xml:space="preserve"
       style="font-style:normal;font-weight:normal;font-size:3.38667px;line-height:0%;font-family:sans-serif;text-align:center;letter-spacing:0px;word-spacing:0px;text-anchor:middle;display:inline;fill:#000000;fill-opacity:1;stroke:none;stroke-width:0.282222px;stroke-linecap:butt;stroke-linejoin:miter;stroke-opacity:1"
       x="135.25298"
       y="-343.85446"
       id="text4136-3-6-6-0-1-6-2-3-06-2-1-5-4-7-6-3-2-5-2"
       inkscape:export-xdpi="90"
       inkscape:export-ydpi="90"
       inkscape:export-filename="/home/obijuan/Develop/myTeachingURJC/Mecatronica/wiki/S01/cadenas-1.png"><tspan
         sodipodi:role="line"
         x="135.25298"
         y="-343.85446"
         style="font-style:normal;font-variant:normal;font-weight:bold;font-stretch:normal;font-size:9.26925px;line-height:1.25;font-family:sans-serif;-inkscape-font-specification:'sans-serif Bold';text-align:center;text-anchor:middle;fill:#000000;stroke-width:0.282222px"
         id="tspan54072-9-2-5-9-9-2">Ejemplos</tspan></text>
    <path
       id="path5384-2"
       style="display:inline;fill:none;stroke:#000000;stroke-width:0.529168;stroke-linecap:butt;stroke-linejoin:miter;stroke-miterlimit:4;stroke-dasharray:none;stroke-opacity:1"
       d="m -11.065936,-250.29017 c 0,0 -4.429928,1.84447 -2.583984,6.27188 1.845945,4.42741 6.2882981,2.61273 6.2882981,2.61273 L 33.92246,-258.59528 c 0,0 4.429014,-1.84424 2.570674,-6.30139 -1.845945,-4.42741 -6.274989,-2.58322 -6.274989,-2.58322 z m 43.070937,-13.52149 c 0.369068,-0.1536 0.792871,0.0208 0.946692,0.38956 0.15382,0.36885 -0.02068,0.79247 -0.38976,0.94621 -0.369152,0.15374 -0.793117,-0.0207 -0.946908,-0.38965 -0.153736,-0.36888 0.02086,-0.79246 0.389976,-0.94612 z"
       inkscape:transform-center-x="-20.789393"
       inkscape:transform-center-y="-8.3894334"
       sodipodi:nodetypes="csccsccccccc"
       inkscape:export-filename="/home/obijuan/Develop/myTeachingURJC/Mecatronica/wiki/S01/cadenas-1.png"
       inkscape:export-xdpi="90"
       inkscape:export-ydpi="90" />
    <path
       id="path5384-2-7"
       style="display:inline;fill:none;stroke:#000000;stroke-width:0.529169;stroke-linecap:butt;stroke-linejoin:miter;stroke-miterlimit:4;stroke-dasharray:none;stroke-opacity:1"
       d="m 150.19381,-240.91763 c 0,0 -3.64794,1.52321 -2.12785,5.17948 1.52009,3.65628 5.17826,2.15766 5.17826,2.15766 l 33.9964,-14.19571 c 0,0 3.64719,-1.52302 2.11689,-5.20386 -1.52009,-3.65626 -5.1673,-2.13329 -5.1673,-2.13329 z m 1.29079,3.10474 a 0.59624214,0.59754316 0 0 1 0.77971,0.32166 0.59624214,0.59754316 0 0 1 -0.32109,0.78146 0.59624214,0.59754316 0 0 1 -0.77964,-0.32183 0.59624214,0.59754316 0 0 1 0.32102,-0.78129 z m 34.17704,-14.27114 a 0.59624214,0.59754316 0 0 1 0.77958,0.32172 0.59624214,0.59754316 0 0 1 -0.32096,0.7814 0.59624214,0.59754316 0 0 1 -0.77976,-0.32178 0.59624214,0.59754316 0 0 1 0.32114,-0.78134 z"
       inkscape:transform-center-x="-17.119543"
       inkscape:transform-center-y="-6.9282198"
       inkscape:export-filename="/home/obijuan/Develop/myTeachingURJC/Mecatronica/wiki/S01/cadenas-1.png"
       inkscape:export-xdpi="90"
       inkscape:export-ydpi="90" />
    <path
       id="path5384-2-7-9"
       style="display:inline;fill:none;stroke:#000000;stroke-width:0.529169;stroke-linecap:butt;stroke-linejoin:miter;stroke-miterlimit:4;stroke-dasharray:none;stroke-opacity:1"
       d="m 147.8448,-237.65865 c 0,0 -0.19612,3.95564 3.75133,4.15217 3.94746,0.19654 4.17014,-3.75779 4.17014,-3.75779 l 1.82736,-36.8642 c 0,0 0.19596,-3.95488 -3.778,-4.15273 -3.94745,-0.19654 -4.14347,3.75834 -4.14347,3.75834 z m 3.352,0.16688 a 0.59624214,0.59754316 0 0 1 0.62501,-0.56721 0.59624214,0.59754316 0 0 1 0.56596,0.6265 0.59624214,0.59754316 0 0 1 -0.62513,0.56708 0.59624214,0.59754316 0 0 1 -0.56584,-0.62637 z m 1.83707,-37.06007 a 0.59624214,0.59754316 0 0 1 0.625,-0.56707 0.59624214,0.59754316 0 0 1 0.56597,0.62636 0.59624214,0.59754316 0 0 1 -0.62514,0.5672 0.59624214,0.59754316 0 0 1 -0.56583,-0.62649 z"
       inkscape:transform-center-x="-1.124765"
       inkscape:transform-center-y="-18.469916"
       inkscape:export-filename="/home/obijuan/Develop/myTeachingURJC/Mecatronica/wiki/S01/cadenas-1.png"
       inkscape:export-xdpi="90"
       inkscape:export-ydpi="90" />
    <path
       id="path5384-2-7-9-0"
       style="display:inline;fill:none;stroke:#000000;stroke-width:0.529169;stroke-linecap:butt;stroke-linejoin:miter;stroke-miterlimit:4;stroke-dasharray:none;stroke-opacity:1"
       d="m 185.14791,-285.48162 c 0,0 3.13651,2.40937 5.54086,-0.73433 2.40437,-3.1437 -0.71596,-5.57424 -0.71596,-5.57424 l -29.23051,-22.45368 c 0,0 -3.13596,-2.40882 -5.55648,0.756 -2.40436,3.1437 0.73158,5.55256 0.73158,5.55256 z m 2.04167,-2.66949 a 0.59624214,0.59754316 0 0 1 -0.11059,-0.83773 0.59624214,0.59754316 0 0 1 0.836,-0.11075 0.59624214,0.59754316 0 0 1 0.11042,0.83775 0.59624214,0.59754316 0 0 1 -0.83581,0.11073 z m -29.38581,-22.573 a 0.59624214,0.59754316 0 0 1 -0.11049,-0.83763 0.59624214,0.59754316 0 0 1 0.8359,-0.11084 0.59624214,0.59754316 0 0 1 0.1105,0.83783 0.59624214,0.59754316 0 0 1 -0.83592,0.11064 z"
       inkscape:transform-center-x="14.532465"
       inkscape:transform-center-y="-11.419742"
       inkscape:export-filename="/home/obijuan/Develop/myTeachingURJC/Mecatronica/wiki/S01/cadenas-1.png"
       inkscape:export-xdpi="90"
       inkscape:export-ydpi="90" />
    <path
       id="path5384-2-7-9-0-2"
       style="display:inline;fill:none;stroke:#000000;stroke-width:0.529169;stroke-linecap:butt;stroke-linejoin:miter;stroke-miterlimit:4;stroke-dasharray:none;stroke-opacity:1"
       d="m 149.59525,-274.93246 c 0,0 -0.50294,3.92832 3.41725,4.43237 3.92019,0.50406 4.4495,-3.42087 4.4495,-3.42087 l 4.68676,-36.60958 c 0,0 0.50273,-3.92757 -3.44379,-4.43502 -3.92019,-0.50405 -4.42297,3.42352 -4.42297,3.42352 z m 3.32885,0.42802 a 0.59624214,0.59754316 0 0 1 0.66718,-0.5167 0.59624214,0.59754316 0 0 1 0.51556,0.66877 0.59624214,0.59754316 0 0 1 -0.6673,0.51656 0.59624214,0.59754316 0 0 1 -0.51544,-0.66863 z m 4.71166,-36.80411 a 0.59624214,0.59754316 0 0 1 0.66717,-0.51656 0.59624214,0.59754316 0 0 1 0.51557,0.66864 0.59624214,0.59754316 0 0 1 -0.66732,0.51668 0.59624214,0.59754316 0 0 1 -0.51542,-0.66876 z"
       inkscape:transform-center-x="-2.5566247"
       inkscape:transform-center-y="-18.327045"
       inkscape:export-filename="/home/obijuan/Develop/myTeachingURJC/Mecatronica/wiki/S01/cadenas-1.png"
       inkscape:export-xdpi="90"
       inkscape:export-ydpi="90" />
    <path
       id="path5384-2-7-9-2"
       style="display:inline;fill:none;stroke:#000000;stroke-width:0.529169;stroke-linecap:butt;stroke-linejoin:miter;stroke-miterlimit:4;stroke-dasharray:none;stroke-opacity:1"
       d="m 181.92518,-251.69248 c 0,0 -0.19611,3.95564 3.75134,4.15217 3.94745,0.19653 4.17013,-3.75779 4.17013,-3.75779 l 1.82736,-36.8642 c 0,0 0.19596,-3.95488 -3.778,-4.15274 -3.94745,-0.19653 -4.14347,3.75835 -4.14347,3.75835 z m 3.352,0.16688 a 0.59624214,0.59754316 0 0 1 0.62501,-0.56721 0.59624214,0.59754316 0 0 1 0.56596,0.6265 0.59624214,0.59754316 0 0 1 -0.62513,0.56707 0.59624214,0.59754316 0 0 1 -0.56584,-0.62636 z m 1.83707,-37.06008 a 0.59624214,0.59754316 0 0 1 0.625,-0.56707 0.59624214,0.59754316 0 0 1 0.56597,0.62637 0.59624214,0.59754316 0 0 1 -0.62513,0.5672 0.59624214,0.59754316 0 0 1 -0.56584,-0.6265 z"
       inkscape:transform-center-x="-1.1247633"
       inkscape:transform-center-y="-18.469917"
       inkscape:export-filename="/home/obijuan/Develop/myTeachingURJC/Mecatronica/wiki/S01/cadenas-1.png"
       inkscape:export-xdpi="90"
       inkscape:export-ydpi="90" />
    <path
       id="path5384-2-6"
       style="display:inline;fill:none;stroke:#000000;stroke-width:0.529168;stroke-linecap:butt;stroke-linejoin:miter;stroke-miterlimit:4;stroke-dasharray:none;stroke-opacity:1"
       d="m 2.8142027,-297.60669 c 0,0 -2.71096162,-3.95735 1.24948,-6.66674 3.960441,-2.7094 6.6980523,1.22971 6.6980523,1.22971 l 25.264215,36.88022 c 0,0 2.710324,3.95665 -1.276713,6.68425 -3.960441,2.70939 -6.670819,-1.24722 -6.670819,-1.24722 z m 3.363033,-2.3007 a 0.72405622,0.72357025 0 0 0 1.006423,0.18843 0.72405622,0.72357025 0 0 0 0.188466,-1.00587 0.72405622,0.72357025 0 0 0 -1.006466,-0.18822 0.72405622,0.72357025 0 0 0 -0.188423,1.00566 z m 25.3984493,37.07617 a 0.72405622,0.72357025 0 0 0 1.006327,0.1883 0.72405622,0.72357025 0 0 0 0.188562,-1.00574 0.72405622,0.72357025 0 0 0 -1.00655,-0.18835 0.72405622,0.72357025 0 0 0 -0.188339,1.00579 z"
       inkscape:transform-center-x="13.002482"
       inkscape:transform-center-y="-18.541401"
       inkscape:export-filename="/home/obijuan/Develop/myTeachingURJC/Mecatronica/wiki/S01/cadenas-1.png"
       inkscape:export-xdpi="90"
       inkscape:export-ydpi="90" />
    <path
       id="path5384-2-6-1"
       style="display:inline;fill:none;stroke:#000000;stroke-width:0.529168;stroke-linecap:butt;stroke-linejoin:miter;stroke-miterlimit:4;stroke-dasharray:none;stroke-opacity:1"
       d="m 48.445757,-317.75108 c 0,0 4.598832,-1.37081 5.970679,3.22543 1.371842,4.59624 -3.217755,5.99799 -3.217755,5.99799 l -42.8584163,12.77481 c 0,0 -4.597977,1.37042 -5.97904,-3.25669 -1.37184202,-4.59625 3.226118,-5.96673 3.226118,-5.96673 z m 1.164909,3.90292 a 0.72405622,0.72357025 0 0 0 -0.48698,0.90012 0.72405622,0.72357025 0 0 0 0.900876,0.48661 0.72405622,0.72357025 0 0 0 0.486776,-0.90022 0.72405622,0.72357025 0 0 0 -0.900672,-0.48651 z m -43.0861313,12.8427 a 0.72405622,0.72357025 0 0 0 -0.486823,0.90006 0.72405622,0.72357025 0 0 0 0.900714,0.48665 0.72405622,0.72357025 0 0 0 0.486932,-0.90026 0.72405622,0.72357025 0 0 0 -0.900823,-0.48645 z"
       inkscape:transform-center-x="-21.641029"
       inkscape:transform-center-y="-6.7048986"
       inkscape:export-filename="/home/obijuan/Develop/myTeachingURJC/Mecatronica/wiki/S01/cadenas-1.png"
       inkscape:export-xdpi="90"
       inkscape:export-ydpi="90" />
    <path
       id="path5384-2-6-1-8"
       style="display:inline;fill:none;stroke:#000000;stroke-width:0.529168;stroke-linecap:butt;stroke-linejoin:miter;stroke-miterlimit:4;stroke-dasharray:none;stroke-opacity:1"
       d="m 65.478793,-270.7962 c 0,0 1.176601,4.64945 -3.476485,5.82536 -4.653086,1.17591 -5.861002,-3.46564 -5.861002,-3.46564 l -10.964897,-43.33021 c 0,0 -1.176246,-4.64859 3.50809,-5.83239 4.653086,-1.1759 5.829392,3.47267 5.829392,3.47267 z m -14.974356,-42.56191 c -0.09807,-0.38732 -0.49173,-0.62191 -0.879343,-0.52401 -0.387661,0.0979 -0.622495,0.49137 -0.524523,0.87878 0.09802,0.38747 0.491826,0.62215 0.879541,0.52414 0.387644,-0.098 0.622387,-0.49152 0.524325,-0.87891 z"
       inkscape:transform-center-x="-5.7905548"
       inkscape:transform-center-y="21.890544"
       sodipodi:nodetypes="csccsccccccc"
       inkscape:export-filename="/home/obijuan/Develop/myTeachingURJC/Mecatronica/wiki/S01/cadenas-1.png"
       inkscape:export-xdpi="90"
       inkscape:export-ydpi="90" />
    <text
       xml:space="preserve"
       style="font-style:normal;font-weight:normal;font-size:10.5833px;line-height:1.25;font-family:sans-serif;letter-spacing:0px;word-spacing:0px;display:inline;fill:#000000;fill-opacity:1;stroke:none;stroke-width:0.264583"
       x="80.981483"
       y="-295.81039"
       id="text2764-7"
       inkscape:export-xdpi="90"
       inkscape:export-ydpi="90"><tspan
         sodipodi:role="line"
         id="tspan2762-0"
         x="80.981483"
         y="-295.81039"
         style="stroke-width:0.264583"><tspan
           style="font-style:normal;font-variant:normal;font-weight:bold;font-stretch:normal;font-family:sans-serif;-inkscape-font-specification:'sans-serif Bold'"
           id="tspan2766-9">λ</tspan><tspan
           id="tspan4343-3"
           style="font-style:normal;font-variant:normal;font-weight:normal;font-stretch:normal;font-family:sans-serif;-inkscape-font-specification:sans-serif">=3</tspan></tspan></text>
    <text
       xml:space="preserve"
       style="font-style:normal;font-weight:normal;font-size:10.5833px;line-height:1.25;font-family:sans-serif;letter-spacing:0px;word-spacing:0px;display:inline;fill:#000000;fill-opacity:1;stroke:none;stroke-width:0.264583"
       x="80.271629"
       y="-283.18314"
       id="text2764-3-6"
       inkscape:export-xdpi="90"
       inkscape:export-ydpi="90"><tspan
         sodipodi:role="line"
         id="tspan2762-6-0"
         x="80.271629"
         y="-283.18314"
         style="stroke-width:0.264583"><tspan
   style="font-style:normal;font-variant:normal;font-weight:bold;font-stretch:normal;font-family:sans-serif;-inkscape-font-specification:'sans-serif Bold'"
   id="tspan2796-6">n</tspan>: 4</tspan></text>
    <text
       xml:space="preserve"
       style="font-style:normal;font-weight:normal;font-size:10.5833px;line-height:1.25;font-family:sans-serif;letter-spacing:0px;word-spacing:0px;display:inline;fill:#000000;fill-opacity:1;stroke:none;stroke-width:0.264583"
       x="82.111397"
       y="-269.62469"
       id="text2764-3-5-2"
       inkscape:export-xdpi="90"
       inkscape:export-ydpi="90"><tspan
         sodipodi:role="line"
         id="tspan2762-6-3-6"
         x="82.111397"
         y="-269.62469"
         style="stroke-width:0.264583"><tspan
   style="font-style:normal;font-variant:normal;font-weight:bold;font-stretch:normal;font-family:sans-serif;-inkscape-font-specification:'sans-serif Bold'"
   id="tspan2826-1">j</tspan>: 3</tspan></text>
    <rect
       style="display:inline;fill:none;stroke:#000000;stroke-width:0.529167;stroke-linecap:round;stroke-linejoin:round;stroke-miterlimit:4;stroke-dasharray:none"
       id="rect64312-4-3-3-9"
       width="189.4579"
       height="131.24506"
       x="134.27422"
       y="-331.98776"
       inkscape:export-filename="/home/obijuan/Develop/myTeachingURJC/Mecatronica/wiki/S01/cadenas-1.png"
       inkscape:export-xdpi="90"
       inkscape:export-ydpi="90" />
  </g>
</svg>
