<?xml version="1.0" encoding="UTF-8" standalone="no"?>
<!-- Created with Inkscape (http://www.inkscape.org/) -->

<svg
   width="509.47644mm"
   height="337.9397mm"
   viewBox="0 0 509.47643 337.93969"
   version="1.1"
   id="svg5"
   inkscape:version="1.1 (c4e8f9e, 2021-05-24)"
   sodipodi:docname="Intro-01.svg"
   inkscape:export-filename="/home/obijuan/Develop/myTeachingURJC/Mecatronica/wiki/S01/Intro-01.png"
   inkscape:export-xdpi="96"
   inkscape:export-ydpi="96"
   xmlns:inkscape="http://www.inkscape.org/namespaces/inkscape"
   xmlns:sodipodi="http://sodipodi.sourceforge.net/DTD/sodipodi-0.dtd"
   xmlns="http://www.w3.org/2000/svg"
   xmlns:svg="http://www.w3.org/2000/svg">
  <sodipodi:namedview
     id="namedview7"
     pagecolor="#ffffff"
     bordercolor="#666666"
     borderopacity="1.0"
     inkscape:pageshadow="2"
     inkscape:pageopacity="0.0"
     inkscape:pagecheckerboard="0"
     inkscape:document-units="mm"
     showgrid="false"
     showguides="true"
     inkscape:guide-bbox="true"
     inkscape:zoom="0.11858398"
     inkscape:cx="1130.0009"
     inkscape:cy="1235.4114"
     inkscape:window-width="1858"
     inkscape:window-height="1016"
     inkscape:window-x="62"
     inkscape:window-y="1107"
     inkscape:window-maximized="1"
     inkscape:current-layer="layer1"
     fit-margin-top="0"
     fit-margin-left="0"
     fit-margin-right="0"
     fit-margin-bottom="0"
     inkscape:snap-global="true" />
  <defs
     id="defs2">
    <marker
       style="overflow:visible"
       id="Arrow2Mend"
       refX="0"
       refY="0"
       orient="auto"
       inkscape:stockid="Arrow2Mend"
       inkscape:isstock="true">
      <path
         transform="scale(-0.6)"
         d="M 8.7185878,4.0337352 -2.2072895,0.01601326 8.7185884,-4.0017078 c -1.7454984,2.3720609 -1.7354408,5.6174519 -6e-7,8.035443 z"
         style="fill:context-stroke;fill-rule:evenodd;stroke-width:0.625;stroke-linejoin:round"
         id="path21016" />
    </marker>
    <marker
       inkscape:isstock="true"
       style="overflow:visible"
       id="TriangleOutL"
       refX="0"
       refY="0"
       orient="auto"
       inkscape:stockid="TriangleOutL">
      <path
         inkscape:connector-curvature="0"
         transform="scale(0.8)"
         style="fill:#000000;fill-opacity:1;fill-rule:evenodd;stroke:#000000;stroke-width:1pt;stroke-opacity:1"
         d="M 5.77,0 -2.88,5 V -5 Z"
         id="path4361" />
    </marker>
    <marker
       inkscape:isstock="true"
       style="overflow:visible"
       id="Arrow1Mend"
       refX="0"
       refY="0"
       orient="auto"
       inkscape:stockid="Arrow1Mend">
      <path
         inkscape:connector-curvature="0"
         transform="matrix(-0.4,0,0,-0.4,-4,0)"
         style="fill:#000000;fill-opacity:1;fill-rule:evenodd;stroke:#000000;stroke-width:1pt;stroke-opacity:1"
         d="M 0,0 5,-5 -12.5,0 5,5 Z"
         id="path4228" />
    </marker>
    <marker
       inkscape:isstock="true"
       style="overflow:visible"
       id="Arrow1Mend-3"
       refX="0"
       refY="0"
       orient="auto"
       inkscape:stockid="Arrow1Mend">
      <path
         transform="matrix(-0.4,0,0,-0.4,-4,0)"
         style="fill:#000000;fill-opacity:1;fill-rule:evenodd;stroke:#000000;stroke-width:1pt;stroke-opacity:1"
         d="M 0,0 5,-5 -12.5,0 5,5 Z"
         id="path4228-5"
         inkscape:connector-curvature="0" />
    </marker>
    <marker
       inkscape:isstock="true"
       style="overflow:visible"
       id="Arrow1Mend-2"
       refX="0"
       refY="0"
       orient="auto"
       inkscape:stockid="Arrow1Mend">
      <path
         transform="matrix(-0.4,0,0,-0.4,-4,0)"
         style="fill:#000000;fill-opacity:1;fill-rule:evenodd;stroke:#000000;stroke-width:1pt;stroke-opacity:1"
         d="M 0,0 5,-5 -12.5,0 5,5 Z"
         id="path4228-9"
         inkscape:connector-curvature="0" />
    </marker>
    <marker
       inkscape:isstock="true"
       style="overflow:visible"
       id="Arrow1Mend-2-3"
       refX="0"
       refY="0"
       orient="auto"
       inkscape:stockid="Arrow1Mend">
      <path
         transform="matrix(-0.4,0,0,-0.4,-4,0)"
         style="fill:#000000;fill-opacity:1;fill-rule:evenodd;stroke:#000000;stroke-width:1pt;stroke-opacity:1"
         d="M 0,0 5,-5 -12.5,0 5,5 Z"
         id="path4228-9-6"
         inkscape:connector-curvature="0" />
    </marker>
    <marker
       inkscape:isstock="true"
       style="overflow:visible"
       id="Arrow1Mend-2-3-6"
       refX="0"
       refY="0"
       orient="auto"
       inkscape:stockid="Arrow1Mend">
      <path
         transform="matrix(-0.4,0,0,-0.4,-4,0)"
         style="fill:#000000;fill-opacity:1;fill-rule:evenodd;stroke:#000000;stroke-width:1pt;stroke-opacity:1"
         d="M 0,0 5,-5 -12.5,0 5,5 Z"
         id="path4228-9-6-2"
         inkscape:connector-curvature="0" />
    </marker>
    <marker
       inkscape:isstock="true"
       style="overflow:visible"
       id="Arrow1Mend-2-3-6-1"
       refX="0"
       refY="0"
       orient="auto"
       inkscape:stockid="Arrow1Mend">
      <path
         transform="matrix(-0.4,0,0,-0.4,-4,0)"
         style="fill:#000000;fill-opacity:1;fill-rule:evenodd;stroke:#000000;stroke-width:1pt;stroke-opacity:1"
         d="M 0,0 5,-5 -12.5,0 5,5 Z"
         id="path4228-9-6-2-8"
         inkscape:connector-curvature="0" />
    </marker>
    <marker
       inkscape:isstock="true"
       style="overflow:visible"
       id="Arrow1Mend-2-3-6-2"
       refX="0"
       refY="0"
       orient="auto"
       inkscape:stockid="Arrow1Mend">
      <path
         transform="matrix(-0.4,0,0,-0.4,-4,0)"
         style="fill:#000000;fill-opacity:1;fill-rule:evenodd;stroke:#000000;stroke-width:1pt;stroke-opacity:1"
         d="M 0,0 5,-5 -12.5,0 5,5 Z"
         id="path4228-9-6-2-6"
         inkscape:connector-curvature="0" />
    </marker>
    <marker
       style="overflow:visible"
       id="Arrow2Mend-3"
       refX="0"
       refY="0"
       orient="auto"
       inkscape:stockid="Arrow2Mend"
       inkscape:isstock="true">
      <path
         transform="scale(-0.6)"
         d="M 8.7185878,4.0337352 -2.2072895,0.01601326 8.7185884,-4.0017078 c -1.7454984,2.3720609 -1.7354408,5.6174519 -6e-7,8.035443 z"
         style="fill:context-stroke;fill-rule:evenodd;stroke-width:0.625;stroke-linejoin:round"
         id="path21016-6" />
    </marker>
    <marker
       style="overflow:visible"
       id="Arrow2Mend-8"
       refX="0"
       refY="0"
       orient="auto"
       inkscape:stockid="Arrow2Mend"
       inkscape:isstock="true">
      <path
         transform="scale(-0.6)"
         d="M 8.7185878,4.0337352 -2.2072895,0.01601326 8.7185884,-4.0017078 c -1.7454984,2.3720609 -1.7354408,5.6174519 -6e-7,8.035443 z"
         style="fill:context-stroke;fill-rule:evenodd;stroke-width:0.625;stroke-linejoin:round"
         id="path21016-7" />
    </marker>
    <marker
       style="overflow:visible"
       id="Arrow2Mend-2"
       refX="0"
       refY="0"
       orient="auto"
       inkscape:stockid="Arrow2Mend"
       inkscape:isstock="true">
      <path
         transform="scale(-0.6)"
         d="M 8.7185878,4.0337352 -2.2072895,0.01601326 8.7185884,-4.0017078 c -1.7454984,2.3720609 -1.7354408,5.6174519 -6e-7,8.035443 z"
         style="fill:context-stroke;fill-rule:evenodd;stroke-width:0.625;stroke-linejoin:round"
         id="path21016-0" />
    </marker>
    <marker
       style="overflow:visible"
       id="Arrow2Mend-2-3"
       refX="0"
       refY="0"
       orient="auto"
       inkscape:stockid="Arrow2Mend"
       inkscape:isstock="true">
      <path
         transform="scale(-0.6)"
         d="M 8.7185878,4.0337352 -2.2072895,0.01601326 8.7185884,-4.0017078 c -1.7454984,2.3720609 -1.7354408,5.6174519 -6e-7,8.035443 z"
         style="fill:context-stroke;fill-rule:evenodd;stroke-width:0.625;stroke-linejoin:round"
         id="path21016-0-7" />
    </marker>
  </defs>
  <g
     inkscape:groupmode="layer"
     id="layer1"
     inkscape:label="back"
     transform="translate(-94.636505,-257.32651)">
    <rect
       style="fill:#ffffff;stroke-width:1.0854;stroke-linecap:round;stroke-linejoin:round"
       id="rect1566"
       width="509.47644"
       height="337.9397"
       x="94.636505"
       y="257.32651"
       inkscape:export-filename="/home/obijuan/Develop/myTeachingURJC/Mecatronica/wiki/S01/Intro-01.png"
       inkscape:export-xdpi="96"
       inkscape:export-ydpi="96" />
  </g>
  <g
     inkscape:groupmode="layer"
     id="layer4"
     inkscape:label="Entorno"
     style="display:inline"
     transform="translate(-94.636505,-257.32651)">
    <path
       style="display:inline;fill:#d5ffd5;stroke:#000000;stroke-width:1.0854;stroke-linecap:butt;stroke-linejoin:miter;stroke-miterlimit:4;stroke-dasharray:none;stroke-opacity:1"
       d="M 236.18367,585.03962 H 476.36423 V 382.20344 L 364.18782,270.02703 236.18367,382.20344 Z"
       id="path27908"
       sodipodi:nodetypes="cccccc"
       inkscape:export-filename="/home/obijuan/Develop/myTeachingURJC/Mecatronica/wiki/S01/Intro-01.png"
       inkscape:export-xdpi="96"
       inkscape:export-ydpi="96" />
    <text
       xml:space="preserve"
       style="font-style:normal;font-weight:normal;font-size:10.648px;line-height:1.25;font-family:sans-serif;display:inline;fill:#000000;fill-opacity:1;stroke:none;stroke-width:0.0957262"
       x="407.05518"
       y="404.12747"
       id="text1036-9"
       inkscape:export-filename="/home/obijuan/Develop/myTeachingURJC/Mecatronica/wiki/S01/Intro-01.png"
       inkscape:export-xdpi="96"
       inkscape:export-ydpi="96"><tspan
         sodipodi:role="line"
         id="tspan1034-7"
         style="font-style:normal;font-variant:normal;font-weight:bold;font-stretch:normal;font-family:sans-serif;-inkscape-font-specification:'sans-serif Bold';stroke-width:0.0957262"
         x="407.05518"
         y="404.12747">Entorno</tspan></text>
    <text
       xml:space="preserve"
       style="font-style:normal;font-weight:normal;font-size:10.648px;line-height:1.25;font-family:sans-serif;display:inline;fill:#000000;fill-opacity:1;stroke:none;stroke-width:0.0957262"
       x="324.3053"
       y="389.33792"
       id="text1036-9-3"
       inkscape:export-filename="/home/obijuan/Develop/myTeachingURJC/Mecatronica/wiki/S01/Intro-01.png"
       inkscape:export-xdpi="96"
       inkscape:export-ydpi="96"><tspan
         sodipodi:role="line"
         id="tspan1034-7-6"
         style="font-style:normal;font-variant:normal;font-weight:bold;font-stretch:normal;font-family:sans-serif;-inkscape-font-specification:'sans-serif Bold';stroke-width:0.0957262"
         x="324.3053"
         y="389.33792">Robot </tspan><tspan
         sodipodi:role="line"
         style="font-style:normal;font-variant:normal;font-weight:bold;font-stretch:normal;font-family:sans-serif;-inkscape-font-specification:'sans-serif Bold';stroke-width:0.0957262"
         x="324.3053"
         y="402.64792"
         id="tspan28590">Físico</tspan></text>
  </g>
  <g
     inkscape:groupmode="layer"
     id="layer2"
     inkscape:label="Body"
     style="display:inline;opacity:1"
     transform="translate(217.02933,368.83351)">
    <path
       style="fill:#e6e6e6;stroke:#000000;stroke-width:0.478633;stroke-linecap:butt;stroke-linejoin:miter;stroke-miterlimit:4;stroke-dasharray:none;stroke-opacity:1"
       d="m 50.2312,-170.17728 v -19.80143 h 8.05333 v -3.81374 h 7.93463 v -12.92027 h -7.51574 v -3.55015 h -8.19359 v -8.25686 H 0.85469958 v 7.55882 H -7.4619204 v 4.47243 H -15.06001 v 12.74784 h 7.9251196 v 3.38594 h 7.99896998 v 20.14878 H -23.55989 v 5.50692 H -37.7833 v 65.794551 l -5.19044,8.98834 v 6.15514 h 5.5995 v -6.05326 l 2.95088,-2.95031 h 2.68677 l 1.59886,2.76877 v 6.12547 h 7.07264 v -6.45711 l -6.18135,-7.99923 V -156.3259 h 4.84489 v 7.6644 h 10.25763 v 33.90097 h 32.64146 v 24.270231 H -0.34993042 c 0,0 -12.46879958,0.94487 -12.46879958,14.83042 0,13.88554 12.56771958,14.13042 12.56771958,14.13042 l 51.98385042,0.0222 c 0,0 12.79754,-0.93023 12.79754,-14.37215 0,-13.44192 -13.07575,-14.98465 -13.07575,-14.98465 l -18.74158,-0.0255 v -23.502671 h 33.05132 v -34.25754 h 9.22109 v -7.78128 h 5.73252 v 58.289431 l -4.99174,8.64426 v 6.18887 h 5.32411 v -5.19542 l 2.60588,-4.51263 h 2.91194 l 1.79247,3.10407 v 6.34834 h 6.43382 v -6.14955 l -5.47519,-9.48142 V -165.57847 H 74.41705 v -4.41044 z"
       id="path8203"
       sodipodi:nodetypes="ccccccccccccccccccccccccccccccccccccccccccczcczcccc"
       inkscape:export-filename="/home/obijuan/Develop/myTeachingURJC/Mecatronica/wiki/S01/Intro-01.png"
       inkscape:export-xdpi="96"
       inkscape:export-ydpi="96" />
    <ellipse
       style="fill:#ffffff;stroke:#000000;stroke-width:0.478633;stroke-linecap:round;stroke-linejoin:round;stroke-miterlimit:4;stroke-dasharray:none"
       id="path17665"
       cx="14.776975"
       cy="-200.52887"
       rx="8.3461256"
       ry="8.3444815"
       inkscape:export-filename="/home/obijuan/Develop/myTeachingURJC/Mecatronica/wiki/S01/Intro-01.png"
       inkscape:export-xdpi="96"
       inkscape:export-ydpi="96" />
    <ellipse
       style="display:inline;fill:#000000;stroke:#000000;stroke-width:0.478633;stroke-linecap:round;stroke-linejoin:round;stroke-miterlimit:4;stroke-dasharray:none"
       id="path17665-2"
       cx="12.676053"
       cy="-198.98534"
       rx="5.5473471"
       ry="5.5462546"
       inkscape:export-filename="/home/obijuan/Develop/myTeachingURJC/Mecatronica/wiki/S01/Intro-01.png"
       inkscape:export-xdpi="96"
       inkscape:export-ydpi="96" />
    <ellipse
       style="opacity:1;fill:#ffffff;stroke:#000000;stroke-width:0.478633;stroke-linecap:round;stroke-linejoin:round;stroke-miterlimit:4;stroke-dasharray:none"
       id="path17665-7"
       cx="36.277462"
       cy="-200.52887"
       rx="8.3461256"
       ry="8.3444815"
       inkscape:export-filename="/home/obijuan/Develop/myTeachingURJC/Mecatronica/wiki/S01/Intro-01.png"
       inkscape:export-xdpi="96"
       inkscape:export-ydpi="96" />
    <path
       style="display:inline;fill:#ffffff;stroke:#000000;stroke-width:0.287179;stroke-linecap:butt;stroke-linejoin:miter;stroke-miterlimit:4;stroke-dasharray:none;stroke-opacity:1"
       d="m -1.0753704,-85.983339 53.0503104,-0.11762 c 0,0 8.39831,1.5907 8.39831,10.19909 0,8.60839 -6.98174,9.82019 -6.98174,9.82019 l -53.82310042,0.1252 c 0,0 -8.32460998,-1.34757 -8.32460998,-9.70943 0,-8.36186 7.68083,-10.31743 7.68083,-10.31743 z"
       id="path18027"
       sodipodi:nodetypes="cczcczc"
       inkscape:export-filename="/home/obijuan/Develop/myTeachingURJC/Mecatronica/wiki/S01/Intro-01.png"
       inkscape:export-xdpi="96"
       inkscape:export-ydpi="96" />
    <path
       id="path19039-5"
       style="display:inline;opacity:1;fill:#000000;stroke:#000000;stroke-width:0.287179;stroke-linecap:round;stroke-linejoin:round;stroke-miterlimit:4;stroke-dasharray:none;stroke-opacity:1"
       d="m 24.83139,-82.940109 a 6.3353373,6.3340892 0 0 0 -6.33526,6.33402 6.3353373,6.3340892 0 0 0 6.33526,6.33401 6.3353373,6.3340892 0 0 0 6.33527,-6.33401 6.3353373,6.3340892 0 0 0 -6.33527,-6.33402 z m 0.0884,2.83254 a 3.3285587,3.3279031 0 0 1 3.3286,3.32794 3.3285587,3.3279031 0 0 1 -3.3286,3.32796 3.3285587,3.3279031 0 0 1 -3.32861,-3.32796 3.3285587,3.3279031 0 0 1 3.32861,-3.32794 z"
       inkscape:export-filename="/home/obijuan/Develop/myTeachingURJC/Mecatronica/wiki/S01/Intro-01.png"
       inkscape:export-xdpi="96"
       inkscape:export-ydpi="96" />
    <path
       id="path19039-5-5"
       style="display:inline;opacity:1;fill:#000000;stroke:#000000;stroke-width:0.287179;stroke-linecap:round;stroke-linejoin:round;stroke-miterlimit:4;stroke-dasharray:none;stroke-opacity:1"
       d="m 44.87716,-82.940109 a 6.3353373,6.3340892 0 0 0 -6.33527,6.33402 6.3353373,6.3340892 0 0 0 6.33527,6.33401 6.3353373,6.3340892 0 0 0 6.33527,-6.33401 6.3353373,6.3340892 0 0 0 -6.33527,-6.33402 z m 0.0884,2.83254 a 3.3285587,3.3279031 0 0 1 3.32861,3.32794 3.3285587,3.3279031 0 0 1 -3.32861,3.32796 3.3285587,3.3279031 0 0 1 -3.3286,-3.32796 3.3285587,3.3279031 0 0 1 3.3286,-3.32794 z"
       inkscape:export-filename="/home/obijuan/Develop/myTeachingURJC/Mecatronica/wiki/S01/Intro-01.png"
       inkscape:export-xdpi="96"
       inkscape:export-ydpi="96" />
    <path
       id="path19039-5-5-6"
       style="display:inline;opacity:1;fill:#000000;stroke:#000000;stroke-width:0.287179;stroke-linecap:round;stroke-linejoin:round;stroke-miterlimit:4;stroke-dasharray:none;stroke-opacity:1"
       d="m 6.6859996,-82.940109 a 6.3353373,6.3340892 0 0 0 -6.33527002,6.33402 6.3353373,6.3340892 0 0 0 6.33527002,6.33401 6.3353373,6.3340892 0 0 0 6.3352704,-6.33401 6.3353373,6.3340892 0 0 0 -6.3352704,-6.33402 z m 0.0884,2.83254 a 3.3285587,3.3279031 0 0 1 3.3286004,3.32794 3.3285587,3.3279031 0 0 1 -3.3286004,3.32796 3.3285587,3.3279031 0 0 1 -3.3286,-3.32796 3.3285587,3.3279031 0 0 1 3.3286,-3.32794 z"
       inkscape:export-filename="/home/obijuan/Develop/myTeachingURJC/Mecatronica/wiki/S01/Intro-01.png"
       inkscape:export-xdpi="96"
       inkscape:export-ydpi="96" />
    <ellipse
       style="display:inline;fill:#000000;stroke:#000000;stroke-width:0.478633;stroke-linecap:round;stroke-linejoin:round;stroke-miterlimit:4;stroke-dasharray:none"
       id="path17665-2-9"
       cx="34.299923"
       cy="-198.98534"
       rx="5.5473471"
       ry="5.5462546"
       inkscape:export-filename="/home/obijuan/Develop/myTeachingURJC/Mecatronica/wiki/S01/Intro-01.png"
       inkscape:export-xdpi="96"
       inkscape:export-ydpi="96" />
  </g>
</svg>
