<?xml version="1.0" encoding="UTF-8" standalone="no"?>
<!-- Created with Inkscape (http://www.inkscape.org/) -->

<svg
   width="382.10785mm"
   height="435.2981mm"
   viewBox="0 0 382.10785 435.2981"
   version="1.1"
   id="svg30513"
   inkscape:version="1.1 (c4e8f9e, 2021-05-24)"
   sodipodi:docname="robots.svg"
   xmlns:inkscape="http://www.inkscape.org/namespaces/inkscape"
   xmlns:sodipodi="http://sodipodi.sourceforge.net/DTD/sodipodi-0.dtd"
   xmlns="http://www.w3.org/2000/svg"
   xmlns:svg="http://www.w3.org/2000/svg">
  <sodipodi:namedview
     id="namedview30515"
     pagecolor="#ffffff"
     bordercolor="#666666"
     borderopacity="1.0"
     inkscape:pageshadow="2"
     inkscape:pageopacity="0.0"
     inkscape:pagecheckerboard="0"
     inkscape:document-units="mm"
     showgrid="false"
     fit-margin-top="0"
     fit-margin-left="0"
     fit-margin-right="0"
     fit-margin-bottom="0"
     inkscape:zoom="0.11858398"
     inkscape:cx="2622.614"
     inkscape:cy="1547.4266"
     inkscape:window-width="1858"
     inkscape:window-height="1016"
     inkscape:window-x="62"
     inkscape:window-y="1107"
     inkscape:window-maximized="1"
     inkscape:current-layer="layer1" />
  <defs
     id="defs30510" />
  <g
     inkscape:label="Layer 1"
     inkscape:groupmode="layer"
     id="layer1"
     transform="translate(109.40851,32.27056)"
     style="display:inline">
    <rect
       style="fill:#ffffff;stroke:none;stroke-width:3;stroke-linecap:round;stroke-linejoin:round"
       id="rect30614"
       width="534.98596"
       height="526.00861"
       x="-184.85323"
       y="-82.673462" />
    <path
       style="display:inline;fill:#00aad4;stroke:#000000;stroke-width:1.32292;stroke-linecap:butt;stroke-linejoin:miter;stroke-miterlimit:4;stroke-dasharray:none;stroke-opacity:1"
       d="M 148.86709,102.00721 V 47.27698 h 22.25904 V 36.73596 h 21.93094 V 1.02493 H 172.28393 V -8.7875 H 149.63721 V -31.6091 H 12.392725 v 20.89225 H -10.59403 V 1.64474 H -31.5948 v 35.23443 h 21.90467 v 9.35857 h 22.108793 v 55.69031 H -55.08807 v 15.22088 H -94.40091 V 299.002 l -14.34614,24.84335 v 17.01254 h 15.47677 v -16.73094 l 8.1561,-8.1545 h 7.4261 l 4.41917,7.65275 v 16.93051 h 19.54846 V 322.70856 L -70.80543,300.59905 V 140.29179 h 13.39105 v 21.18404 h 28.35162 v 93.70072 h 90.219494 v 67.08179 H 9.06318 c 0,0 -34.46318,2.61157 -34.46318,40.99058 0,38.37899 34.73661,39.05584 34.73661,39.05584 l 143.68095,0.0613 c 0,0 35.37181,-2.57111 35.37181,-39.72395 0,-37.15285 -36.14077,-41.41689 -36.14077,-41.41689 l -51.80085,-0.0706 v -64.96031 h 91.35229 v -94.68607 h 25.48668 v -21.50708 h 15.84443 v 161.10928 l -13.79695,23.89232 v 17.10578 h 14.71559 v -14.35992 l 7.20254,-12.4727 h 8.04845 l 4.95433,8.5795 v 17.54653 h 17.78277 V 324.40489 L 256.90472,298.19867 V 114.7181 h -41.18906 v -12.19024 z"
       id="path8203"
       sodipodi:nodetypes="ccccccccccccccccccccccccccccccccccccccccccczcczcccc" />
    <ellipse
       style="display:inline;fill:#ffffff;stroke:#000000;stroke-width:1.32292;stroke-linecap:round;stroke-linejoin:round;stroke-miterlimit:4;stroke-dasharray:none"
       id="path17665"
       cx="50.87326"
       cy="18.11685"
       rx="23.068304"
       ry="23.063761" />
    <ellipse
       style="display:inline;fill:#000000;stroke:#000000;stroke-width:1.32292;stroke-linecap:round;stroke-linejoin:round;stroke-miterlimit:4;stroke-dasharray:none"
       id="path17665-2"
       cx="45.066402"
       cy="22.383055"
       rx="15.332611"
       ry="15.329591" />
    <ellipse
       style="display:inline;fill:#ffffff;stroke:#000000;stroke-width:1.32292;stroke-linecap:round;stroke-linejoin:round;stroke-miterlimit:4;stroke-dasharray:none"
       id="path17665-7"
       cx="110.29964"
       cy="18.11685"
       rx="23.068304"
       ry="23.063761" />
    <path
       style="display:inline;fill:#ffffff;stroke:#000000;stroke-width:0.79375;stroke-linecap:butt;stroke-linejoin:miter;stroke-miterlimit:4;stroke-dasharray:none;stroke-opacity:1"
       d="m 7.05812,334.71538 146.62859,-0.32512 c 0,0 23.21253,4.39662 23.21253,28.18982 0,23.79319 -19.2972,27.14256 -19.2972,27.14256 L 8.83747,390.06869 c 0,0 -23.00882,-3.72463 -23.00882,-26.83642 0,-23.11181 21.22947,-28.51689 21.22947,-28.51689 z"
       id="path18027"
       sodipodi:nodetypes="cczcczc" />
    <path
       id="path19039-5"
       style="display:inline;fill:#000000;stroke:#000000;stroke-width:0.79375;stroke-linecap:round;stroke-linejoin:round;stroke-miterlimit:4;stroke-dasharray:none;stroke-opacity:1"
       d="M 78.663206,343.1267 A 17.510579,17.50713 0 0 0 61.15282,360.63364 17.510579,17.50713 0 0 0 78.663206,378.14056 17.510579,17.50713 0 0 0 96.173592,360.63364 17.510579,17.50713 0 0 0 78.663206,343.1267 Z m 0.244398,7.82903 a 9.1999823,9.1981702 0 0 1 9.200104,9.19827 9.1999823,9.1981702 0 0 1 -9.200104,9.19832 9.1999823,9.1981702 0 0 1 -9.200102,-9.19832 9.1999823,9.1981702 0 0 1 9.200102,-9.19827 z" />
    <path
       id="path19039-5-5"
       style="display:inline;fill:#000000;stroke:#000000;stroke-width:0.79375;stroke-linecap:round;stroke-linejoin:round;stroke-miterlimit:4;stroke-dasharray:none;stroke-opacity:1"
       d="m 134.06878,343.1267 a 17.510579,17.50713 0 0 0 -17.51039,17.50694 17.510579,17.50713 0 0 0 17.51039,17.50692 17.510579,17.50713 0 0 0 17.51038,-17.50692 17.510579,17.50713 0 0 0 -17.51038,-17.50694 z m 0.2444,7.82903 a 9.1999823,9.1981702 0 0 1 9.2001,9.19827 9.1999823,9.1981702 0 0 1 -9.2001,9.19832 9.1999823,9.1981702 0 0 1 -9.20011,-9.19832 9.1999823,9.1981702 0 0 1 9.20011,-9.19827 z" />
    <path
       id="path19039-5-5-6"
       style="display:inline;fill:#000000;stroke:#000000;stroke-width:0.79375;stroke-linecap:round;stroke-linejoin:round;stroke-miterlimit:4;stroke-dasharray:none;stroke-opacity:1"
       d="M 28.510176,343.1267 A 17.510579,17.50713 0 0 0 10.99979,360.63364 17.510579,17.50713 0 0 0 28.510176,378.14056 17.510579,17.50713 0 0 0 46.020562,360.63364 17.510579,17.50713 0 0 0 28.510176,343.1267 Z m 0.244398,7.82903 a 9.1999823,9.1981702 0 0 1 9.200104,9.19827 9.1999823,9.1981702 0 0 1 -9.200104,9.19832 9.1999823,9.1981702 0 0 1 -9.200102,-9.19832 9.1999823,9.1981702 0 0 1 9.200102,-9.19827 z" />
    <ellipse
       style="display:inline;fill:#000000;stroke:#000000;stroke-width:1.32292;stroke-linecap:round;stroke-linejoin:round;stroke-miterlimit:4;stroke-dasharray:none"
       id="path17665-2-9"
       cx="104.83381"
       cy="22.383055"
       rx="15.332611"
       ry="15.329591" />
    <rect
       style="fill:#ffffff;stroke:none;stroke-width:3;stroke-linecap:round;stroke-linejoin:round"
       id="rect30614-1"
       width="534.98596"
       height="526.00861"
       x="350.13275"
       y="-82.673462" />
    <path
       style="display:inline;fill:#ffaaaa;stroke:#000000;stroke-width:1.32292;stroke-linecap:butt;stroke-linejoin:miter;stroke-miterlimit:4;stroke-dasharray:none;stroke-opacity:1"
       d="M 683.85307,102.00721 V 47.27698 h 22.25904 V 36.73596 h 21.93094 V 1.02493 H 707.26991 V -8.7875 H 684.62319 V -31.6091 H 547.3787 v 20.89225 H 524.39195 V 1.64474 h -21.00077 v 35.23443 h 21.90467 v 9.35857 h 22.10879 v 55.69031 h -67.50673 v 15.22088 H 440.58507 V 299.002 l -14.34614,24.84335 v 17.01254 h 15.47677 v -16.73094 l 8.1561,-8.1545 h 7.4261 l 4.41917,7.65275 v 16.93051 h 19.54846 V 322.70856 L 464.18055,300.59905 V 140.29179 h 13.39105 v 21.18404 h 28.35162 v 93.70072 h 90.21949 v 67.08179 h -52.09355 c 0,0 -34.46318,2.61157 -34.46318,40.99058 0,38.37899 34.73661,39.05584 34.73661,39.05584 l 143.68095,0.0613 c 0,0 35.37181,-2.57111 35.37181,-39.72395 0,-37.15285 -36.14077,-41.41689 -36.14077,-41.41689 l -51.80085,-0.0706 v -64.96031 h 91.35229 v -94.68607 h 25.48668 v -21.50708 h 15.84443 v 161.10928 l -13.79695,23.89232 v 17.10578 h 14.71559 v -14.35992 l 7.20254,-12.4727 h 8.04845 l 4.95433,8.5795 v 17.54653 h 17.78277 V 324.40489 L 791.8907,298.19867 V 114.7181 h -41.18906 v -12.19024 z"
       id="path8203-2"
       sodipodi:nodetypes="ccccccccccccccccccccccccccccccccccccccccccczcczcccc" />
    <ellipse
       style="display:inline;fill:#ffffff;stroke:#000000;stroke-width:1.32292;stroke-linecap:round;stroke-linejoin:round;stroke-miterlimit:4;stroke-dasharray:none"
       id="path17665-9"
       cx="585.85925"
       cy="18.11685"
       rx="23.068304"
       ry="23.063761" />
    <ellipse
       style="display:inline;fill:#000000;stroke:#000000;stroke-width:1.32292;stroke-linecap:round;stroke-linejoin:round;stroke-miterlimit:4;stroke-dasharray:none"
       id="path17665-2-3"
       cx="580.05237"
       cy="22.383055"
       rx="15.332611"
       ry="15.329591" />
    <ellipse
       style="display:inline;fill:#ffffff;stroke:#000000;stroke-width:1.32292;stroke-linecap:round;stroke-linejoin:round;stroke-miterlimit:4;stroke-dasharray:none"
       id="path17665-7-1"
       cx="645.28564"
       cy="18.11685"
       rx="23.068304"
       ry="23.063761" />
    <path
       style="display:inline;fill:#ffffff;stroke:#000000;stroke-width:0.79375;stroke-linecap:butt;stroke-linejoin:miter;stroke-miterlimit:4;stroke-dasharray:none;stroke-opacity:1"
       d="m 542.0441,334.71538 146.62859,-0.32512 c 0,0 23.21253,4.39662 23.21253,28.18982 0,23.79319 -19.2972,27.14256 -19.2972,27.14256 l -148.76457,0.34605 c 0,0 -23.00882,-3.72463 -23.00882,-26.83642 0,-23.11181 21.22947,-28.51689 21.22947,-28.51689 z"
       id="path18027-9"
       sodipodi:nodetypes="cczcczc" />
    <path
       id="path19039-5-4"
       style="display:inline;fill:#000000;stroke:#000000;stroke-width:0.79375;stroke-linecap:round;stroke-linejoin:round;stroke-miterlimit:4;stroke-dasharray:none;stroke-opacity:1"
       d="m 613.64918,343.1267 a 17.510579,17.50713 0 0 0 -17.51038,17.50694 17.510579,17.50713 0 0 0 17.51038,17.50692 17.510579,17.50713 0 0 0 17.51039,-17.50692 17.510579,17.50713 0 0 0 -17.51039,-17.50694 z m 0.2444,7.82903 a 9.1999823,9.1981702 0 0 1 9.20011,9.19827 9.1999823,9.1981702 0 0 1 -9.20011,9.19832 9.1999823,9.1981702 0 0 1 -9.2001,-9.19832 9.1999823,9.1981702 0 0 1 9.2001,-9.19827 z" />
    <path
       id="path19039-5-5-7"
       style="display:inline;fill:#000000;stroke:#000000;stroke-width:0.79375;stroke-linecap:round;stroke-linejoin:round;stroke-miterlimit:4;stroke-dasharray:none;stroke-opacity:1"
       d="m 669.05476,343.1267 a 17.510579,17.50713 0 0 0 -17.51039,17.50694 17.510579,17.50713 0 0 0 17.51039,17.50692 17.510579,17.50713 0 0 0 17.51038,-17.50692 17.510579,17.50713 0 0 0 -17.51038,-17.50694 z m 0.2444,7.82903 a 9.1999823,9.1981702 0 0 1 9.2001,9.19827 9.1999823,9.1981702 0 0 1 -9.2001,9.19832 9.1999823,9.1981702 0 0 1 -9.20011,-9.19832 9.1999823,9.1981702 0 0 1 9.20011,-9.19827 z" />
    <path
       id="path19039-5-5-6-8"
       style="display:inline;fill:#000000;stroke:#000000;stroke-width:0.79375;stroke-linecap:round;stroke-linejoin:round;stroke-miterlimit:4;stroke-dasharray:none;stroke-opacity:1"
       d="m 563.49615,343.1267 a 17.510579,17.50713 0 0 0 -17.51038,17.50694 17.510579,17.50713 0 0 0 17.51038,17.50692 17.510579,17.50713 0 0 0 17.51039,-17.50692 17.510579,17.50713 0 0 0 -17.51039,-17.50694 z m 0.2444,7.82903 a 9.1999823,9.1981702 0 0 1 9.20011,9.19827 9.1999823,9.1981702 0 0 1 -9.20011,9.19832 9.1999823,9.1981702 0 0 1 -9.2001,-9.19832 9.1999823,9.1981702 0 0 1 9.2001,-9.19827 z" />
    <ellipse
       style="display:inline;fill:#000000;stroke:#000000;stroke-width:1.32292;stroke-linecap:round;stroke-linejoin:round;stroke-miterlimit:4;stroke-dasharray:none"
       id="path17665-2-9-4"
       cx="639.81976"
       cy="22.383055"
       rx="15.332611"
       ry="15.329591" />
    <rect
       style="fill:#ffffff;stroke:none;stroke-width:3;stroke-linecap:round;stroke-linejoin:round"
       id="rect30614-1-5"
       width="534.98596"
       height="526.00861"
       x="885.11871"
       y="-82.673462" />
    <path
       style="display:inline;fill:#ffe680;stroke:#000000;stroke-width:1.32292;stroke-linecap:butt;stroke-linejoin:miter;stroke-miterlimit:4;stroke-dasharray:none;stroke-opacity:1"
       d="M 1218.839,102.00721 V 47.27698 h 22.2591 V 36.73596 h 21.9309 V 1.02493 h -20.7731 V -8.7875 h -22.6467 v -22.8216 h -137.2445 v 20.89225 h -22.9868 V 1.64474 h -21.0008 v 35.23443 h 21.9047 v 9.35857 h 22.1088 v 55.69031 h -67.5067 v 15.22088 H 975.57103 V 299.002 l -14.34614,24.84335 v 17.01254 h 15.47677 v -16.73094 l 8.1561,-8.1545 h 7.4261 l 4.41917,7.65275 v 16.93051 h 19.54847 V 322.70856 L 999.16651,300.59905 V 140.29179 h 13.39109 v 21.18404 h 28.3516 v 93.70072 h 90.2195 v 67.08179 h -52.0936 c 0,0 -34.4632,2.61157 -34.4632,40.99058 0,38.37899 34.7367,39.05584 34.7367,39.05584 l 143.6809,0.0613 c 0,0 35.3718,-2.57111 35.3718,-39.72395 0,-37.15285 -36.1408,-41.41689 -36.1408,-41.41689 l -51.8008,-0.0706 v -64.96031 h 91.3523 v -94.68607 h 25.4867 v -21.50708 h 15.8444 v 161.10928 l -13.797,23.89232 v 17.10578 h 14.7156 v -14.35992 l 7.2026,-12.4727 h 8.0484 l 4.9544,8.5795 v 17.54653 h 17.7827 v -16.99706 l -15.1331,-26.20622 V 114.7181 h -41.1891 v -12.19024 z"
       id="path8203-2-0"
       sodipodi:nodetypes="ccccccccccccccccccccccccccccccccccccccccccczcczcccc" />
    <ellipse
       style="display:inline;fill:#ffffff;stroke:#000000;stroke-width:1.32292;stroke-linecap:round;stroke-linejoin:round;stroke-miterlimit:4;stroke-dasharray:none"
       id="path17665-9-3"
       cx="1120.8452"
       cy="18.11685"
       rx="23.068304"
       ry="23.063761" />
    <ellipse
       style="display:inline;fill:#000000;stroke:#000000;stroke-width:1.32292;stroke-linecap:round;stroke-linejoin:round;stroke-miterlimit:4;stroke-dasharray:none"
       id="path17665-2-3-6"
       cx="1115.0383"
       cy="22.383055"
       rx="15.332611"
       ry="15.329591" />
    <ellipse
       style="display:inline;fill:#ffffff;stroke:#000000;stroke-width:1.32292;stroke-linecap:round;stroke-linejoin:round;stroke-miterlimit:4;stroke-dasharray:none"
       id="path17665-7-1-1"
       cx="1180.2716"
       cy="18.11685"
       rx="23.068304"
       ry="23.063761" />
    <path
       style="display:inline;fill:#ffffff;stroke:#000000;stroke-width:0.79375;stroke-linecap:butt;stroke-linejoin:miter;stroke-miterlimit:4;stroke-dasharray:none;stroke-opacity:1"
       d="m 1077.0301,334.71538 146.6286,-0.32512 c 0,0 23.2125,4.39662 23.2125,28.18982 0,23.79319 -19.2972,27.14256 -19.2972,27.14256 l -148.7646,0.34605 c 0,0 -23.0088,-3.72463 -23.0088,-26.83642 0,-23.11181 21.2295,-28.51689 21.2295,-28.51689 z"
       id="path18027-9-0"
       sodipodi:nodetypes="cczcczc" />
    <path
       id="path19039-5-4-6"
       style="display:inline;fill:#000000;stroke:#000000;stroke-width:0.79375;stroke-linecap:round;stroke-linejoin:round;stroke-miterlimit:4;stroke-dasharray:none;stroke-opacity:1"
       d="m 1148.6351,343.1267 a 17.510579,17.50713 0 0 0 -17.5103,17.50694 17.510579,17.50713 0 0 0 17.5103,17.50692 17.510579,17.50713 0 0 0 17.5104,-17.50692 17.510579,17.50713 0 0 0 -17.5104,-17.50694 z m 0.2444,7.82903 a 9.1999823,9.1981702 0 0 1 9.2002,9.19827 9.1999823,9.1981702 0 0 1 -9.2002,9.19832 9.1999823,9.1981702 0 0 1 -9.2001,-9.19832 9.1999823,9.1981702 0 0 1 9.2001,-9.19827 z" />
    <path
       id="path19039-5-5-7-3"
       style="display:inline;fill:#000000;stroke:#000000;stroke-width:0.79375;stroke-linecap:round;stroke-linejoin:round;stroke-miterlimit:4;stroke-dasharray:none;stroke-opacity:1"
       d="m 1204.0407,343.1267 a 17.510579,17.50713 0 0 0 -17.5104,17.50694 17.510579,17.50713 0 0 0 17.5104,17.50692 17.510579,17.50713 0 0 0 17.5104,-17.50692 17.510579,17.50713 0 0 0 -17.5104,-17.50694 z m 0.2444,7.82903 a 9.1999823,9.1981702 0 0 1 9.2001,9.19827 9.1999823,9.1981702 0 0 1 -9.2001,9.19832 9.1999823,9.1981702 0 0 1 -9.2001,-9.19832 9.1999823,9.1981702 0 0 1 9.2001,-9.19827 z" />
    <path
       id="path19039-5-5-6-8-2"
       style="display:inline;fill:#000000;stroke:#000000;stroke-width:0.79375;stroke-linecap:round;stroke-linejoin:round;stroke-miterlimit:4;stroke-dasharray:none;stroke-opacity:1"
       d="m 1098.4821,343.1267 a 17.510579,17.50713 0 0 0 -17.5104,17.50694 17.510579,17.50713 0 0 0 17.5104,17.50692 17.510579,17.50713 0 0 0 17.5104,-17.50692 17.510579,17.50713 0 0 0 -17.5104,-17.50694 z m 0.2444,7.82903 a 9.1999823,9.1981702 0 0 1 9.2001,9.19827 9.1999823,9.1981702 0 0 1 -9.2001,9.19832 9.1999823,9.1981702 0 0 1 -9.2001,-9.19832 9.1999823,9.1981702 0 0 1 9.2001,-9.19827 z" />
    <ellipse
       style="display:inline;fill:#000000;stroke:#000000;stroke-width:1.32292;stroke-linecap:round;stroke-linejoin:round;stroke-miterlimit:4;stroke-dasharray:none"
       id="path17665-2-9-4-0"
       cx="1174.8057"
       cy="22.383055"
       rx="15.332611"
       ry="15.329591" />
  </g>
</svg>
